<?xml version="1.0" encoding="utf-8" standalone="no"?>
<!DOCTYPE svg PUBLIC "-//W3C//DTD SVG 1.1//EN"
  "http://www.w3.org/Graphics/SVG/1.1/DTD/svg11.dtd">
<svg xmlns:xlink="http://www.w3.org/1999/xlink" width="784.890625pt" height="352.714375pt" viewBox="0 0 784.890625 352.714375" xmlns="http://www.w3.org/2000/svg" version="1.1">
 <metadata>
  <rdf:RDF xmlns:dc="http://purl.org/dc/elements/1.1/" xmlns:cc="http://creativecommons.org/ns#" xmlns:rdf="http://www.w3.org/1999/02/22-rdf-syntax-ns#">
   <cc:Work>
    <dc:type rdf:resource="http://purl.org/dc/dcmitype/StillImage"/>
    <dc:date>2026-06-29T07:44:55.731426</dc:date>
    <dc:format>image/svg+xml</dc:format>
    <dc:creator>
     <cc:Agent>
      <dc:title>Matplotlib v3.10.0, https://matplotlib.org/</dc:title>
     </cc:Agent>
    </dc:creator>
   </cc:Work>
  </rdf:RDF>
 </metadata>
 <defs>
  <style type="text/css">*{stroke-linejoin: round; stroke-linecap: butt}</style>
 </defs>
 <g id="figure_1">
  <g id="patch_1">
   <path d="M 0 352.714375 
L 784.890625 352.714375 
L 784.890625 0 
L 0 0 
z
" style="fill: #ffffff"/>
  </g>
  <g id="axes_1">
   <g id="patch_2">
    <path d="M 59.690625 315.158125 
L 777.690625 315.158125 
L 777.690625 22.798125 
L 59.690625 22.798125 
z
" style="fill: #ffffff"/>
   </g>
   <g id="patch_3">
    <path d="M 92.326989 315.158125 
L 145.610848 315.158125 
L 145.610848 257.407758 
L 92.326989 257.407758 
z
" clip-path="url(#p948eb0ba6a)" style="fill: #4682b4"/>
   </g>
   <g id="patch_4">
    <path d="M 158.931812 315.158125 
L 212.215671 315.158125 
L 212.215671 262.010689 
L 158.931812 262.010689 
z
" clip-path="url(#p948eb0ba6a)" style="fill: #4682b4"/>
   </g>
   <g id="patch_5">
    <path d="M 225.536636 315.158125 
L 278.820495 315.158125 
L 278.820495 248.974676 
L 225.536636 248.974676 
z
" clip-path="url(#p948eb0ba6a)" style="fill: #4682b4"/>
   </g>
   <g id="patch_6">
    <path d="M 292.14146 315.158125 
L 345.425319 315.158125 
L 345.425319 225.066869 
L 292.14146 225.066869 
z
" clip-path="url(#p948eb0ba6a)" style="fill: #4682b4"/>
   </g>
   <g id="patch_7">
    <path d="M 358.746284 315.158125 
L 412.030143 315.158125 
L 412.030143 217.950734 
L 358.746284 217.950734 
z
" clip-path="url(#p948eb0ba6a)" style="fill: #4682b4"/>
   </g>
   <g id="patch_8">
    <path d="M 425.351107 315.158125 
L 478.634966 315.158125 
L 478.634966 224.051912 
L 425.351107 224.051912 
z
" clip-path="url(#p948eb0ba6a)" style="fill: #4682b4"/>
   </g>
   <g id="patch_9">
    <path d="M 491.955931 315.158125 
L 545.23979 315.158125 
L 545.23979 230.307941 
L 491.955931 230.307941 
z
" clip-path="url(#p948eb0ba6a)" style="fill: #4682b4"/>
   </g>
   <g id="patch_10">
    <path d="M 558.560755 315.158125 
L 611.844614 315.158125 
L 611.844614 180.49782 
L 558.560755 180.49782 
z
" clip-path="url(#p948eb0ba6a)" style="fill: #4682b4"/>
   </g>
   <g id="patch_11">
    <path d="M 625.165579 315.158125 
L 678.449438 315.158125 
L 678.449438 187.15073 
L 625.165579 187.15073 
z
" clip-path="url(#p948eb0ba6a)" style="fill: #4682b4"/>
   </g>
   <g id="patch_12">
    <path d="M 691.770402 315.158125 
L 745.054261 315.158125 
L 745.054261 162.70171 
L 691.770402 162.70171 
z
" clip-path="url(#p948eb0ba6a)" style="fill: #4682b4"/>
   </g>
   <g id="patch_13">
    <path d="M 92.326989 257.407758 
L 145.610848 257.407758 
L 145.610848 213.62066 
L 92.326989 213.62066 
z
" clip-path="url(#p948eb0ba6a)" style="fill: #ffd700"/>
   </g>
   <g id="patch_14">
    <path d="M 158.931812 262.010689 
L 212.215671 262.010689 
L 212.215671 218.734251 
L 158.931812 218.734251 
z
" clip-path="url(#p948eb0ba6a)" style="fill: #ffd700"/>
   </g>
   <g id="patch_15">
    <path d="M 225.536636 248.974676 
L 278.820495 248.974676 
L 278.820495 200.654439 
L 225.536636 200.654439 
z
" clip-path="url(#p948eb0ba6a)" style="fill: #ffd700"/>
   </g>
   <g id="patch_16">
    <path d="M 292.14146 225.066869 
L 345.425319 225.066869 
L 345.425319 171.24959 
L 292.14146 171.24959 
z
" clip-path="url(#p948eb0ba6a)" style="fill: #ffd700"/>
   </g>
   <g id="patch_17">
    <path d="M 358.746284 217.950734 
L 412.030143 217.950734 
L 412.030143 164.211324 
L 358.746284 164.211324 
z
" clip-path="url(#p948eb0ba6a)" style="fill: #ffd700"/>
   </g>
   <g id="patch_18">
    <path d="M 425.351107 224.051912 
L 478.634966 224.051912 
L 478.634966 168.38247 
L 425.351107 168.38247 
z
" clip-path="url(#p948eb0ba6a)" style="fill: #ffd700"/>
   </g>
   <g id="patch_19">
    <path d="M 491.955931 230.307941 
L 545.23979 230.307941 
L 545.23979 179.359758 
L 491.955931 179.359758 
z
" clip-path="url(#p948eb0ba6a)" style="fill: #ffd700"/>
   </g>
   <g id="patch_20">
    <path d="M 558.560755 180.49782 
L 611.844614 180.49782 
L 611.844614 114.222507 
L 558.560755 114.222507 
z
" clip-path="url(#p948eb0ba6a)" style="fill: #ffd700"/>
   </g>
   <g id="patch_21">
    <path d="M 625.165579 187.15073 
L 678.449438 187.15073 
L 678.449438 120.814203 
L 625.165579 120.814203 
z
" clip-path="url(#p948eb0ba6a)" style="fill: #ffd700"/>
   </g>
   <g id="patch_22">
    <path d="M 691.770402 162.70171 
L 745.054261 162.70171 
L 745.054261 91.495874 
L 691.770402 91.495874 
z
" clip-path="url(#p948eb0ba6a)" style="fill: #ffd700"/>
   </g>
   <g id="patch_23">
    <path d="M 92.326989 213.62066 
L 145.610848 213.62066 
L 145.610848 203.836849 
L 92.326989 203.836849 
z
" clip-path="url(#p948eb0ba6a)" style="fill: #ff7f50"/>
   </g>
   <g id="patch_24">
    <path d="M 158.931812 218.734251 
L 212.215671 218.734251 
L 212.215671 208.923687 
L 158.931812 208.923687 
z
" clip-path="url(#p948eb0ba6a)" style="fill: #ff7f50"/>
   </g>
   <g id="patch_25">
    <path d="M 225.536636 200.654439 
L 278.820495 200.654439 
L 278.820495 191.096988 
L 225.536636 191.096988 
z
" clip-path="url(#p948eb0ba6a)" style="fill: #ff7f50"/>
   </g>
   <g id="patch_26">
    <path d="M 292.14146 171.24959 
L 345.425319 171.24959 
L 345.425319 155.642127 
L 292.14146 155.642127 
z
" clip-path="url(#p948eb0ba6a)" style="fill: #ff7f50"/>
   </g>
   <g id="patch_27">
    <path d="M 358.746284 164.211324 
L 412.030143 164.211324 
L 412.030143 147.462545 
L 358.746284 147.462545 
z
" clip-path="url(#p948eb0ba6a)" style="fill: #ff7f50"/>
   </g>
   <g id="patch_28">
    <path d="M 425.351107 168.38247 
L 478.634966 168.38247 
L 478.634966 154.62622 
L 425.351107 154.62622 
z
" clip-path="url(#p948eb0ba6a)" style="fill: #ff7f50"/>
   </g>
   <g id="patch_29">
    <path d="M 491.955931 179.359758 
L 545.23979 179.359758 
L 545.23979 168.251056 
L 491.955931 168.251056 
z
" clip-path="url(#p948eb0ba6a)" style="fill: #ff7f50"/>
   </g>
   <g id="patch_30">
    <path d="M 558.560755 114.222507 
L 611.844614 114.222507 
L 611.844614 96.750271 
L 558.560755 96.750271 
z
" clip-path="url(#p948eb0ba6a)" style="fill: #ff7f50"/>
   </g>
   <g id="patch_31">
    <path d="M 625.165579 120.814203 
L 678.449438 120.814203 
L 678.449438 103.394051 
L 625.165579 103.394051 
z
" clip-path="url(#p948eb0ba6a)" style="fill: #ff7f50"/>
   </g>
   <g id="patch_32">
    <path d="M 691.770402 91.495874 
L 745.054261 91.495874 
L 745.054261 76.164312 
L 691.770402 76.164312 
z
" clip-path="url(#p948eb0ba6a)" style="fill: #ff7f50"/>
   </g>
   <g id="patch_33">
    <path d="M 92.326989 203.836849 
L 145.610848 203.836849 
L 145.610848 193.929621 
L 92.326989 193.929621 
z
" clip-path="url(#p948eb0ba6a)" style="fill: #008000"/>
   </g>
   <g id="patch_34">
    <path d="M 158.931812 208.923687 
L 212.215671 208.923687 
L 212.215671 198.848861 
L 158.931812 198.848861 
z
" clip-path="url(#p948eb0ba6a)" style="fill: #008000"/>
   </g>
   <g id="patch_35">
    <path d="M 225.536636 191.096988 
L 278.820495 191.096988 
L 278.820495 180.309368 
L 225.536636 180.309368 
z
" clip-path="url(#p948eb0ba6a)" style="fill: #008000"/>
   </g>
   <g id="patch_36">
    <path d="M 292.14146 155.642127 
L 345.425319 155.642127 
L 345.425319 144.409915 
L 292.14146 144.409915 
z
" clip-path="url(#p948eb0ba6a)" style="fill: #008000"/>
   </g>
   <g id="patch_37">
    <path d="M 358.746284 147.462545 
L 412.030143 147.462545 
L 412.030143 137.405944 
L 358.746284 137.405944 
z
" clip-path="url(#p948eb0ba6a)" style="fill: #008000"/>
   </g>
   <g id="patch_38">
    <path d="M 425.351107 154.62622 
L 478.634966 154.62622 
L 478.634966 144.429679 
L 425.351107 144.429679 
z
" clip-path="url(#p948eb0ba6a)" style="fill: #008000"/>
   </g>
   <g id="patch_39">
    <path d="M 491.955931 168.251056 
L 545.23979 168.251056 
L 545.23979 158.746537 
L 491.955931 158.746537 
z
" clip-path="url(#p948eb0ba6a)" style="fill: #008000"/>
   </g>
   <g id="patch_40">
    <path d="M 558.560755 96.750271 
L 611.844614 96.750271 
L 611.844614 83.551587 
L 558.560755 83.551587 
z
" clip-path="url(#p948eb0ba6a)" style="fill: #008000"/>
   </g>
   <g id="patch_41">
    <path d="M 625.165579 103.394051 
L 678.449438 103.394051 
L 678.449438 91.770214 
L 625.165579 91.770214 
z
" clip-path="url(#p948eb0ba6a)" style="fill: #008000"/>
   </g>
   <g id="patch_42">
    <path d="M 691.770402 76.164312 
L 745.054261 76.164312 
L 745.054261 63.671896 
L 691.770402 63.671896 
z
" clip-path="url(#p948eb0ba6a)" style="fill: #008000"/>
   </g>
   <g id="patch_43">
    <path d="M 92.326989 193.929621 
L 145.610848 193.929621 
L 145.610848 191.775253 
L 92.326989 191.775253 
z
" clip-path="url(#p948eb0ba6a)" style="fill: #c0c0c0"/>
   </g>
   <g id="patch_44">
    <path d="M 158.931812 198.848861 
L 212.215671 198.848861 
L 212.215671 197.952199 
L 158.931812 197.952199 
z
" clip-path="url(#p948eb0ba6a)" style="fill: #c0c0c0"/>
   </g>
   <g id="patch_45">
    <path d="M 225.536636 180.309368 
L 278.820495 180.309368 
L 278.820495 179.525541 
L 225.536636 179.525541 
z
" clip-path="url(#p948eb0ba6a)" style="fill: #c0c0c0"/>
   </g>
   <g id="patch_46">
    <path d="M 292.14146 144.409915 
L 345.425319 144.409915 
L 345.425319 143.641882 
L 292.14146 143.641882 
z
" clip-path="url(#p948eb0ba6a)" style="fill: #c0c0c0"/>
   </g>
   <g id="patch_47">
    <path d="M 358.746284 137.405944 
L 412.030143 137.405944 
L 412.030143 136.60759 
L 358.746284 136.60759 
z
" clip-path="url(#p948eb0ba6a)" style="fill: #c0c0c0"/>
   </g>
   <g id="patch_48">
    <path d="M 425.351107 144.429679 
L 478.634966 144.429679 
L 478.634966 143.904631 
L 425.351107 143.904631 
z
" clip-path="url(#p948eb0ba6a)" style="fill: #c0c0c0"/>
   </g>
   <g id="patch_49">
    <path d="M 491.955931 158.746537 
L 545.23979 158.746537 
L 545.23979 158.137779 
L 491.955931 158.137779 
z
" clip-path="url(#p948eb0ba6a)" style="fill: #c0c0c0"/>
   </g>
   <g id="patch_50">
    <path d="M 558.560755 83.551587 
L 611.844614 83.551587 
L 611.844614 82.790064 
L 558.560755 82.790064 
z
" clip-path="url(#p948eb0ba6a)" style="fill: #c0c0c0"/>
   </g>
   <g id="patch_51">
    <path d="M 625.165579 91.770214 
L 678.449438 91.770214 
L 678.449438 91.183148 
L 625.165579 91.183148 
z
" clip-path="url(#p948eb0ba6a)" style="fill: #c0c0c0"/>
   </g>
   <g id="patch_52">
    <path d="M 691.770402 63.671896 
L 745.054261 63.671896 
L 745.054261 63.034724 
L 691.770402 63.034724 
z
" clip-path="url(#p948eb0ba6a)" style="fill: #c0c0c0"/>
   </g>
   <g id="patch_53">
    <path d="M 92.326989 191.775253 
L 145.610848 191.775253 
L 145.610848 188.264266 
L 92.326989 188.264266 
z
" clip-path="url(#p948eb0ba6a)" style="fill: #ffa500"/>
   </g>
   <g id="patch_54">
    <path d="M 158.931812 197.952199 
L 212.215671 197.952199 
L 212.215671 195.728801 
L 158.931812 195.728801 
z
" clip-path="url(#p948eb0ba6a)" style="fill: #ffa500"/>
   </g>
   <g id="patch_55">
    <path d="M 225.536636 179.525541 
L 278.820495 179.525541 
L 278.820495 177.285374 
L 225.536636 177.285374 
z
" clip-path="url(#p948eb0ba6a)" style="fill: #ffa500"/>
   </g>
   <g id="patch_56">
    <path d="M 292.14146 143.641882 
L 345.425319 143.641882 
L 345.425319 141.231137 
L 292.14146 141.231137 
z
" clip-path="url(#p948eb0ba6a)" style="fill: #ffa500"/>
   </g>
   <g id="patch_57">
    <path d="M 358.746284 136.60759 
L 412.030143 136.60759 
L 412.030143 134.318594 
L 358.746284 134.318594 
z
" clip-path="url(#p948eb0ba6a)" style="fill: #ffa500"/>
   </g>
   <g id="patch_58">
    <path d="M 425.351107 143.904631 
L 478.634966 143.904631 
L 478.634966 141.416853 
L 425.351107 141.416853 
z
" clip-path="url(#p948eb0ba6a)" style="fill: #ffa500"/>
   </g>
   <g id="patch_59">
    <path d="M 491.955931 158.137779 
L 545.23979 158.137779 
L 545.23979 155.751825 
L 491.955931 155.751825 
z
" clip-path="url(#p948eb0ba6a)" style="fill: #ffa500"/>
   </g>
   <g id="patch_60">
    <path d="M 558.560755 82.790064 
L 611.844614 82.790064 
L 611.844614 77.025381 
L 558.560755 77.025381 
z
" clip-path="url(#p948eb0ba6a)" style="fill: #ffa500"/>
   </g>
   <g id="patch_61">
    <path d="M 625.165579 91.183148 
L 678.449438 91.183148 
L 678.449438 86.088586 
L 625.165579 86.088586 
z
" clip-path="url(#p948eb0ba6a)" style="fill: #ffa500"/>
   </g>
   <g id="patch_62">
    <path d="M 691.770402 63.034724 
L 745.054261 63.034724 
L 745.054261 58.78143 
L 691.770402 58.78143 
z
" clip-path="url(#p948eb0ba6a)" style="fill: #ffa500"/>
   </g>
   <g id="patch_63">
    <path d="M 92.326989 188.264266 
L 145.610848 188.264266 
L 145.610848 185.920637 
L 92.326989 185.920637 
z
" clip-path="url(#p948eb0ba6a)" style="fill: #800080"/>
   </g>
   <g id="patch_64">
    <path d="M 158.931812 195.728801 
L 212.215671 195.728801 
L 212.215671 194.299604 
L 158.931812 194.299604 
z
" clip-path="url(#p948eb0ba6a)" style="fill: #800080"/>
   </g>
   <g id="patch_65">
    <path d="M 225.536636 177.285374 
L 278.820495 177.285374 
L 278.820495 175.511059 
L 225.536636 175.511059 
z
" clip-path="url(#p948eb0ba6a)" style="fill: #800080"/>
   </g>
   <g id="patch_66">
    <path d="M 292.14146 141.231137 
L 345.425319 141.231137 
L 345.425319 138.837437 
L 292.14146 138.837437 
z
" clip-path="url(#p948eb0ba6a)" style="fill: #800080"/>
   </g>
   <g id="patch_67">
    <path d="M 358.746284 134.318594 
L 412.030143 134.318594 
L 412.030143 130.332994 
L 358.746284 130.332994 
z
" clip-path="url(#p948eb0ba6a)" style="fill: #800080"/>
   </g>
   <g id="patch_68">
    <path d="M 425.351107 141.416853 
L 478.634966 141.416853 
L 478.634966 137.148576 
L 425.351107 137.148576 
z
" clip-path="url(#p948eb0ba6a)" style="fill: #800080"/>
   </g>
   <g id="patch_69">
    <path d="M 491.955931 155.751825 
L 545.23979 155.751825 
L 545.23979 152.638198 
L 491.955931 152.638198 
z
" clip-path="url(#p948eb0ba6a)" style="fill: #800080"/>
   </g>
   <g id="patch_70">
    <path d="M 558.560755 77.025381 
L 611.844614 77.025381 
L 611.844614 70.223584 
L 558.560755 70.223584 
z
" clip-path="url(#p948eb0ba6a)" style="fill: #800080"/>
   </g>
   <g id="patch_71">
    <path d="M 625.165579 86.088586 
L 678.449438 86.088586 
L 678.449438 78.608127 
L 625.165579 78.608127 
z
" clip-path="url(#p948eb0ba6a)" style="fill: #800080"/>
   </g>
   <g id="patch_72">
    <path d="M 691.770402 58.78143 
L 745.054261 58.78143 
L 745.054261 47.979685 
L 691.770402 47.979685 
z
" clip-path="url(#p948eb0ba6a)" style="fill: #800080"/>
   </g>
   <g id="patch_73">
    <path d="M 92.326989 185.920637 
L 145.610848 185.920637 
L 145.610848 181.71243 
L 92.326989 181.71243 
z
" clip-path="url(#p948eb0ba6a)" style="fill: #a52a2a"/>
   </g>
   <g id="patch_74">
    <path d="M 158.931812 194.299604 
L 212.215671 194.299604 
L 212.215671 192.022084 
L 158.931812 192.022084 
z
" clip-path="url(#p948eb0ba6a)" style="fill: #a52a2a"/>
   </g>
   <g id="patch_75">
    <path d="M 225.536636 175.511059 
L 278.820495 175.511059 
L 278.820495 173.275652 
L 225.536636 173.275652 
z
" clip-path="url(#p948eb0ba6a)" style="fill: #a52a2a"/>
   </g>
   <g id="patch_76">
    <path d="M 292.14146 138.837437 
L 345.425319 138.837437 
L 345.425319 136.010922 
L 292.14146 136.010922 
z
" clip-path="url(#p948eb0ba6a)" style="fill: #a52a2a"/>
   </g>
   <g id="patch_77">
    <path d="M 358.746284 130.332994 
L 412.030143 130.332994 
L 412.030143 127.181159 
L 358.746284 127.181159 
z
" clip-path="url(#p948eb0ba6a)" style="fill: #a52a2a"/>
   </g>
   <g id="patch_78">
    <path d="M 425.351107 137.148576 
L 478.634966 137.148576 
L 478.634966 130.784172 
L 425.351107 130.784172 
z
" clip-path="url(#p948eb0ba6a)" style="fill: #a52a2a"/>
   </g>
   <g id="patch_79">
    <path d="M 491.955931 152.638198 
L 545.23979 152.638198 
L 545.23979 145.177046 
L 491.955931 145.177046 
z
" clip-path="url(#p948eb0ba6a)" style="fill: #a52a2a"/>
   </g>
   <g id="patch_80">
    <path d="M 558.560755 70.223584 
L 611.844614 70.223584 
L 611.844614 55.538355 
L 558.560755 55.538355 
z
" clip-path="url(#p948eb0ba6a)" style="fill: #a52a2a"/>
   </g>
   <g id="patch_81">
    <path d="M 625.165579 78.608127 
L 678.449438 78.608127 
L 678.449438 67.22211 
L 625.165579 67.22211 
z
" clip-path="url(#p948eb0ba6a)" style="fill: #a52a2a"/>
   </g>
   <g id="patch_82">
    <path d="M 691.770402 47.979685 
L 745.054261 47.979685 
L 745.054261 36.758812 
L 691.770402 36.758812 
z
" clip-path="url(#p948eb0ba6a)" style="fill: #a52a2a"/>
   </g>
   <g id="patch_83">
    <path d="M 92.326989 181.71243 
L 145.610848 181.71243 
L 145.610848 181.465985 
L 92.326989 181.465985 
z
" clip-path="url(#p948eb0ba6a)" style="fill: #808080"/>
   </g>
   <g id="patch_84">
    <path d="M 158.931812 192.022084 
L 212.215671 192.022084 
L 212.215671 191.846676 
L 158.931812 191.846676 
z
" clip-path="url(#p948eb0ba6a)" style="fill: #808080"/>
   </g>
   <g id="patch_85">
    <path d="M 225.536636 173.275652 
L 278.820495 173.275652 
L 278.820495 173.17805 
L 225.536636 173.17805 
z
" clip-path="url(#p948eb0ba6a)" style="fill: #808080"/>
   </g>
   <g id="patch_86">
    <path d="M 292.14146 136.010922 
L 345.425319 136.010922 
L 345.425319 135.680403 
L 292.14146 135.680403 
z
" clip-path="url(#p948eb0ba6a)" style="fill: #808080"/>
   </g>
   <g id="patch_87">
    <path d="M 358.746284 127.181159 
L 412.030143 127.181159 
L 412.030143 127.110154 
L 358.746284 127.110154 
z
" clip-path="url(#p948eb0ba6a)" style="fill: #808080"/>
   </g>
   <g id="patch_88">
    <path d="M 425.351107 130.784172 
L 478.634966 130.784172 
L 478.634966 130.770103 
L 425.351107 130.770103 
z
" clip-path="url(#p948eb0ba6a)" style="fill: #808080"/>
   </g>
   <g id="patch_89">
    <path d="M 491.955931 145.177046 
L 545.23979 145.177046 
L 545.23979 145.141251 
L 491.955931 145.141251 
z
" clip-path="url(#p948eb0ba6a)" style="fill: #808080"/>
   </g>
   <g id="patch_90">
    <path d="M 558.560755 55.538355 
L 611.844614 55.538355 
L 611.844614 55.517848 
L 558.560755 55.517848 
z
" clip-path="url(#p948eb0ba6a)" style="fill: #808080"/>
   </g>
   <g id="patch_91">
    <path d="M 625.165579 67.22211 
L 678.449438 67.22211 
L 678.449438 67.197265 
L 625.165579 67.197265 
z
" clip-path="url(#p948eb0ba6a)" style="fill: #808080"/>
   </g>
   <g id="patch_92">
    <path d="M 691.770402 36.758812 
L 745.054261 36.758812 
L 745.054261 36.72003 
L 691.770402 36.72003 
z
" clip-path="url(#p948eb0ba6a)" style="fill: #808080"/>
   </g>
   <g id="matplotlib.axis_1">
    <g id="xtick_1">
     <g id="line2d_1">
      <defs>
       <path id="mb4811d808b" d="M 0 0 
L 0 3.5 
" style="stroke: #000000; stroke-width: 0.8"/>
      </defs>
      <g>
       <use xlink:href="#mb4811d808b" x="118.968918" y="315.158125" style="stroke: #000000; stroke-width: 0.8"/>
      </g>
     </g>
     <g id="text_1">
      <!-- 2014 -->
      <g transform="translate(106.243918 329.756562) scale(0.1 -0.1)">
       <defs>
        <path id="DejaVuSans-32" d="M 1228 531 
L 3431 531 
L 3431 0 
L 469 0 
L 469 531 
Q 828 903 1448 1529 
Q 2069 2156 2228 2338 
Q 2531 2678 2651 2914 
Q 2772 3150 2772 3378 
Q 2772 3750 2511 3984 
Q 2250 4219 1831 4219 
Q 1534 4219 1204 4116 
Q 875 4013 500 3803 
L 500 4441 
Q 881 4594 1212 4672 
Q 1544 4750 1819 4750 
Q 2544 4750 2975 4387 
Q 3406 4025 3406 3419 
Q 3406 3131 3298 2873 
Q 3191 2616 2906 2266 
Q 2828 2175 2409 1742 
Q 1991 1309 1228 531 
z
" transform="scale(0.015625)"/>
        <path id="DejaVuSans-30" d="M 2034 4250 
Q 1547 4250 1301 3770 
Q 1056 3291 1056 2328 
Q 1056 1369 1301 889 
Q 1547 409 2034 409 
Q 2525 409 2770 889 
Q 3016 1369 3016 2328 
Q 3016 3291 2770 3770 
Q 2525 4250 2034 4250 
z
M 2034 4750 
Q 2819 4750 3233 4129 
Q 3647 3509 3647 2328 
Q 3647 1150 3233 529 
Q 2819 -91 2034 -91 
Q 1250 -91 836 529 
Q 422 1150 422 2328 
Q 422 3509 836 4129 
Q 1250 4750 2034 4750 
z
" transform="scale(0.015625)"/>
        <path id="DejaVuSans-31" d="M 794 531 
L 1825 531 
L 1825 4091 
L 703 3866 
L 703 4441 
L 1819 4666 
L 2450 4666 
L 2450 531 
L 3481 531 
L 3481 0 
L 794 0 
L 794 531 
z
" transform="scale(0.015625)"/>
        <path id="DejaVuSans-34" d="M 2419 4116 
L 825 1625 
L 2419 1625 
L 2419 4116 
z
M 2253 4666 
L 3047 4666 
L 3047 1625 
L 3713 1625 
L 3713 1100 
L 3047 1100 
L 3047 0 
L 2419 0 
L 2419 1100 
L 313 1100 
L 313 1709 
L 2253 4666 
z
" transform="scale(0.015625)"/>
       </defs>
       <use xlink:href="#DejaVuSans-32"/>
       <use xlink:href="#DejaVuSans-30" transform="translate(63.623047 0)"/>
       <use xlink:href="#DejaVuSans-31" transform="translate(127.246094 0)"/>
       <use xlink:href="#DejaVuSans-34" transform="translate(190.869141 0)"/>
      </g>
     </g>
    </g>
    <g id="xtick_2">
     <g id="line2d_2">
      <g>
       <use xlink:href="#mb4811d808b" x="252.178566" y="315.158125" style="stroke: #000000; stroke-width: 0.8"/>
      </g>
     </g>
     <g id="text_2">
      <!-- 2016 -->
      <g transform="translate(239.453566 329.756562) scale(0.1 -0.1)">
       <defs>
        <path id="DejaVuSans-36" d="M 2113 2584 
Q 1688 2584 1439 2293 
Q 1191 2003 1191 1497 
Q 1191 994 1439 701 
Q 1688 409 2113 409 
Q 2538 409 2786 701 
Q 3034 994 3034 1497 
Q 3034 2003 2786 2293 
Q 2538 2584 2113 2584 
z
M 3366 4563 
L 3366 3988 
Q 3128 4100 2886 4159 
Q 2644 4219 2406 4219 
Q 1781 4219 1451 3797 
Q 1122 3375 1075 2522 
Q 1259 2794 1537 2939 
Q 1816 3084 2150 3084 
Q 2853 3084 3261 2657 
Q 3669 2231 3669 1497 
Q 3669 778 3244 343 
Q 2819 -91 2113 -91 
Q 1303 -91 875 529 
Q 447 1150 447 2328 
Q 447 3434 972 4092 
Q 1497 4750 2381 4750 
Q 2619 4750 2861 4703 
Q 3103 4656 3366 4563 
z
" transform="scale(0.015625)"/>
       </defs>
       <use xlink:href="#DejaVuSans-32"/>
       <use xlink:href="#DejaVuSans-30" transform="translate(63.623047 0)"/>
       <use xlink:href="#DejaVuSans-31" transform="translate(127.246094 0)"/>
       <use xlink:href="#DejaVuSans-36" transform="translate(190.869141 0)"/>
      </g>
     </g>
    </g>
    <g id="xtick_3">
     <g id="line2d_3">
      <g>
       <use xlink:href="#mb4811d808b" x="385.388213" y="315.158125" style="stroke: #000000; stroke-width: 0.8"/>
      </g>
     </g>
     <g id="text_3">
      <!-- 2018 -->
      <g transform="translate(372.663213 329.756562) scale(0.1 -0.1)">
       <defs>
        <path id="DejaVuSans-38" d="M 2034 2216 
Q 1584 2216 1326 1975 
Q 1069 1734 1069 1313 
Q 1069 891 1326 650 
Q 1584 409 2034 409 
Q 2484 409 2743 651 
Q 3003 894 3003 1313 
Q 3003 1734 2745 1975 
Q 2488 2216 2034 2216 
z
M 1403 2484 
Q 997 2584 770 2862 
Q 544 3141 544 3541 
Q 544 4100 942 4425 
Q 1341 4750 2034 4750 
Q 2731 4750 3128 4425 
Q 3525 4100 3525 3541 
Q 3525 3141 3298 2862 
Q 3072 2584 2669 2484 
Q 3125 2378 3379 2068 
Q 3634 1759 3634 1313 
Q 3634 634 3220 271 
Q 2806 -91 2034 -91 
Q 1263 -91 848 271 
Q 434 634 434 1313 
Q 434 1759 690 2068 
Q 947 2378 1403 2484 
z
M 1172 3481 
Q 1172 3119 1398 2916 
Q 1625 2713 2034 2713 
Q 2441 2713 2670 2916 
Q 2900 3119 2900 3481 
Q 2900 3844 2670 4047 
Q 2441 4250 2034 4250 
Q 1625 4250 1398 4047 
Q 1172 3844 1172 3481 
z
" transform="scale(0.015625)"/>
       </defs>
       <use xlink:href="#DejaVuSans-32"/>
       <use xlink:href="#DejaVuSans-30" transform="translate(63.623047 0)"/>
       <use xlink:href="#DejaVuSans-31" transform="translate(127.246094 0)"/>
       <use xlink:href="#DejaVuSans-38" transform="translate(190.869141 0)"/>
      </g>
     </g>
    </g>
    <g id="xtick_4">
     <g id="line2d_4">
      <g>
       <use xlink:href="#mb4811d808b" x="518.597861" y="315.158125" style="stroke: #000000; stroke-width: 0.8"/>
      </g>
     </g>
     <g id="text_4">
      <!-- 2020 -->
      <g transform="translate(505.872861 329.756562) scale(0.1 -0.1)">
       <use xlink:href="#DejaVuSans-32"/>
       <use xlink:href="#DejaVuSans-30" transform="translate(63.623047 0)"/>
       <use xlink:href="#DejaVuSans-32" transform="translate(127.246094 0)"/>
       <use xlink:href="#DejaVuSans-30" transform="translate(190.869141 0)"/>
      </g>
     </g>
    </g>
    <g id="xtick_5">
     <g id="line2d_5">
      <g>
       <use xlink:href="#mb4811d808b" x="651.807508" y="315.158125" style="stroke: #000000; stroke-width: 0.8"/>
      </g>
     </g>
     <g id="text_5">
      <!-- 2022 -->
      <g transform="translate(639.082508 329.756562) scale(0.1 -0.1)">
       <use xlink:href="#DejaVuSans-32"/>
       <use xlink:href="#DejaVuSans-30" transform="translate(63.623047 0)"/>
       <use xlink:href="#DejaVuSans-32" transform="translate(127.246094 0)"/>
       <use xlink:href="#DejaVuSans-32" transform="translate(190.869141 0)"/>
      </g>
     </g>
    </g>
    <g id="text_6">
     <!-- Año -->
     <g transform="translate(409.042188 343.434687) scale(0.1 -0.1)">
      <defs>
       <path id="DejaVuSans-41" d="M 2188 4044 
L 1331 1722 
L 3047 1722 
L 2188 4044 
z
M 1831 4666 
L 2547 4666 
L 4325 0 
L 3669 0 
L 3244 1197 
L 1141 1197 
L 716 0 
L 50 0 
L 1831 4666 
z
" transform="scale(0.015625)"/>
       <path id="DejaVuSans-f1" d="M 3513 2113 
L 3513 0 
L 2938 0 
L 2938 2094 
Q 2938 2591 2744 2837 
Q 2550 3084 2163 3084 
Q 1697 3084 1428 2787 
Q 1159 2491 1159 1978 
L 1159 0 
L 581 0 
L 581 3500 
L 1159 3500 
L 1159 2956 
Q 1366 3272 1645 3428 
Q 1925 3584 2291 3584 
Q 2894 3584 3203 3211 
Q 3513 2838 3513 2113 
z
M 2060 4281 
L 1881 4453 
Q 1813 4516 1761 4545 
Q 1710 4575 1669 4575 
Q 1550 4575 1494 4461 
Q 1438 4347 1431 4091 
L 1041 4091 
Q 1047 4513 1206 4742 
Q 1366 4972 1650 4972 
Q 1769 4972 1869 4928 
Q 1969 4884 2085 4781 
L 2263 4609 
Q 2331 4547 2383 4517 
Q 2435 4488 2475 4488 
Q 2594 4488 2650 4602 
Q 2706 4716 2713 4972 
L 3103 4972 
Q 3097 4550 2937 4320 
Q 2778 4091 2494 4091 
Q 2375 4091 2275 4134 
Q 2175 4178 2060 4281 
z
" transform="scale(0.015625)"/>
       <path id="DejaVuSans-6f" d="M 1959 3097 
Q 1497 3097 1228 2736 
Q 959 2375 959 1747 
Q 959 1119 1226 758 
Q 1494 397 1959 397 
Q 2419 397 2687 759 
Q 2956 1122 2956 1747 
Q 2956 2369 2687 2733 
Q 2419 3097 1959 3097 
z
M 1959 3584 
Q 2709 3584 3137 3096 
Q 3566 2609 3566 1747 
Q 3566 888 3137 398 
Q 2709 -91 1959 -91 
Q 1206 -91 779 398 
Q 353 888 353 1747 
Q 353 2609 779 3096 
Q 1206 3584 1959 3584 
z
" transform="scale(0.015625)"/>
      </defs>
      <use xlink:href="#DejaVuSans-41"/>
      <use xlink:href="#DejaVuSans-f1" transform="translate(68.408203 0)"/>
      <use xlink:href="#DejaVuSans-6f" transform="translate(131.787109 0)"/>
     </g>
    </g>
   </g>
   <g id="matplotlib.axis_2">
    <g id="ytick_1">
     <g id="line2d_6">
      <path d="M 59.690625 315.158125 
L 777.690625 315.158125 
" clip-path="url(#p948eb0ba6a)" style="fill: none; stroke-dasharray: 2.96,1.28; stroke-dashoffset: 0; stroke: #b0b0b0; stroke-opacity: 0.5; stroke-width: 0.8"/>
     </g>
     <g id="line2d_7">
      <defs>
       <path id="m1c0d34a691" d="M 0 0 
L -3.5 0 
" style="stroke: #000000; stroke-width: 0.8"/>
      </defs>
      <g>
       <use xlink:href="#m1c0d34a691" x="59.690625" y="315.158125" style="stroke: #000000; stroke-width: 0.8"/>
      </g>
     </g>
     <g id="text_7">
      <!-- 0 -->
      <g transform="translate(46.328125 318.957344) scale(0.1 -0.1)">
       <use xlink:href="#DejaVuSans-30"/>
      </g>
     </g>
    </g>
    <g id="ytick_2">
     <g id="line2d_8">
      <path d="M 59.690625 282.622363 
L 777.690625 282.622363 
" clip-path="url(#p948eb0ba6a)" style="fill: none; stroke-dasharray: 2.96,1.28; stroke-dashoffset: 0; stroke: #b0b0b0; stroke-opacity: 0.5; stroke-width: 0.8"/>
     </g>
     <g id="line2d_9">
      <g>
       <use xlink:href="#m1c0d34a691" x="59.690625" y="282.622363" style="stroke: #000000; stroke-width: 0.8"/>
      </g>
     </g>
     <g id="text_8">
      <!-- 5000 -->
      <g transform="translate(27.240625 286.421582) scale(0.1 -0.1)">
       <defs>
        <path id="DejaVuSans-35" d="M 691 4666 
L 3169 4666 
L 3169 4134 
L 1269 4134 
L 1269 2991 
Q 1406 3038 1543 3061 
Q 1681 3084 1819 3084 
Q 2600 3084 3056 2656 
Q 3513 2228 3513 1497 
Q 3513 744 3044 326 
Q 2575 -91 1722 -91 
Q 1428 -91 1123 -41 
Q 819 9 494 109 
L 494 744 
Q 775 591 1075 516 
Q 1375 441 1709 441 
Q 2250 441 2565 725 
Q 2881 1009 2881 1497 
Q 2881 1984 2565 2268 
Q 2250 2553 1709 2553 
Q 1456 2553 1204 2497 
Q 953 2441 691 2322 
L 691 4666 
z
" transform="scale(0.015625)"/>
       </defs>
       <use xlink:href="#DejaVuSans-35"/>
       <use xlink:href="#DejaVuSans-30" transform="translate(63.623047 0)"/>
       <use xlink:href="#DejaVuSans-30" transform="translate(127.246094 0)"/>
       <use xlink:href="#DejaVuSans-30" transform="translate(190.869141 0)"/>
      </g>
     </g>
    </g>
    <g id="ytick_3">
     <g id="line2d_10">
      <path d="M 59.690625 250.086601 
L 777.690625 250.086601 
" clip-path="url(#p948eb0ba6a)" style="fill: none; stroke-dasharray: 2.96,1.28; stroke-dashoffset: 0; stroke: #b0b0b0; stroke-opacity: 0.5; stroke-width: 0.8"/>
     </g>
     <g id="line2d_11">
      <g>
       <use xlink:href="#m1c0d34a691" x="59.690625" y="250.086601" style="stroke: #000000; stroke-width: 0.8"/>
      </g>
     </g>
     <g id="text_9">
      <!-- 10000 -->
      <g transform="translate(20.878125 253.88582) scale(0.1 -0.1)">
       <use xlink:href="#DejaVuSans-31"/>
       <use xlink:href="#DejaVuSans-30" transform="translate(63.623047 0)"/>
       <use xlink:href="#DejaVuSans-30" transform="translate(127.246094 0)"/>
       <use xlink:href="#DejaVuSans-30" transform="translate(190.869141 0)"/>
       <use xlink:href="#DejaVuSans-30" transform="translate(254.492188 0)"/>
      </g>
     </g>
    </g>
    <g id="ytick_4">
     <g id="line2d_12">
      <path d="M 59.690625 217.550839 
L 777.690625 217.550839 
" clip-path="url(#p948eb0ba6a)" style="fill: none; stroke-dasharray: 2.96,1.28; stroke-dashoffset: 0; stroke: #b0b0b0; stroke-opacity: 0.5; stroke-width: 0.8"/>
     </g>
     <g id="line2d_13">
      <g>
       <use xlink:href="#m1c0d34a691" x="59.690625" y="217.550839" style="stroke: #000000; stroke-width: 0.8"/>
      </g>
     </g>
     <g id="text_10">
      <!-- 15000 -->
      <g transform="translate(20.878125 221.350058) scale(0.1 -0.1)">
       <use xlink:href="#DejaVuSans-31"/>
       <use xlink:href="#DejaVuSans-35" transform="translate(63.623047 0)"/>
       <use xlink:href="#DejaVuSans-30" transform="translate(127.246094 0)"/>
       <use xlink:href="#DejaVuSans-30" transform="translate(190.869141 0)"/>
       <use xlink:href="#DejaVuSans-30" transform="translate(254.492188 0)"/>
      </g>
     </g>
    </g>
    <g id="ytick_5">
     <g id="line2d_14">
      <path d="M 59.690625 185.015077 
L 777.690625 185.015077 
" clip-path="url(#p948eb0ba6a)" style="fill: none; stroke-dasharray: 2.96,1.28; stroke-dashoffset: 0; stroke: #b0b0b0; stroke-opacity: 0.5; stroke-width: 0.8"/>
     </g>
     <g id="line2d_15">
      <g>
       <use xlink:href="#m1c0d34a691" x="59.690625" y="185.015077" style="stroke: #000000; stroke-width: 0.8"/>
      </g>
     </g>
     <g id="text_11">
      <!-- 20000 -->
      <g transform="translate(20.878125 188.814295) scale(0.1 -0.1)">
       <use xlink:href="#DejaVuSans-32"/>
       <use xlink:href="#DejaVuSans-30" transform="translate(63.623047 0)"/>
       <use xlink:href="#DejaVuSans-30" transform="translate(127.246094 0)"/>
       <use xlink:href="#DejaVuSans-30" transform="translate(190.869141 0)"/>
       <use xlink:href="#DejaVuSans-30" transform="translate(254.492188 0)"/>
      </g>
     </g>
    </g>
    <g id="ytick_6">
     <g id="line2d_16">
      <path d="M 59.690625 152.479315 
L 777.690625 152.479315 
" clip-path="url(#p948eb0ba6a)" style="fill: none; stroke-dasharray: 2.96,1.28; stroke-dashoffset: 0; stroke: #b0b0b0; stroke-opacity: 0.5; stroke-width: 0.8"/>
     </g>
     <g id="line2d_17">
      <g>
       <use xlink:href="#m1c0d34a691" x="59.690625" y="152.479315" style="stroke: #000000; stroke-width: 0.8"/>
      </g>
     </g>
     <g id="text_12">
      <!-- 25000 -->
      <g transform="translate(20.878125 156.278533) scale(0.1 -0.1)">
       <use xlink:href="#DejaVuSans-32"/>
       <use xlink:href="#DejaVuSans-35" transform="translate(63.623047 0)"/>
       <use xlink:href="#DejaVuSans-30" transform="translate(127.246094 0)"/>
       <use xlink:href="#DejaVuSans-30" transform="translate(190.869141 0)"/>
       <use xlink:href="#DejaVuSans-30" transform="translate(254.492188 0)"/>
      </g>
     </g>
    </g>
    <g id="ytick_7">
     <g id="line2d_18">
      <path d="M 59.690625 119.943553 
L 777.690625 119.943553 
" clip-path="url(#p948eb0ba6a)" style="fill: none; stroke-dasharray: 2.96,1.28; stroke-dashoffset: 0; stroke: #b0b0b0; stroke-opacity: 0.5; stroke-width: 0.8"/>
     </g>
     <g id="line2d_19">
      <g>
       <use xlink:href="#m1c0d34a691" x="59.690625" y="119.943553" style="stroke: #000000; stroke-width: 0.8"/>
      </g>
     </g>
     <g id="text_13">
      <!-- 30000 -->
      <g transform="translate(20.878125 123.742771) scale(0.1 -0.1)">
       <defs>
        <path id="DejaVuSans-33" d="M 2597 2516 
Q 3050 2419 3304 2112 
Q 3559 1806 3559 1356 
Q 3559 666 3084 287 
Q 2609 -91 1734 -91 
Q 1441 -91 1130 -33 
Q 819 25 488 141 
L 488 750 
Q 750 597 1062 519 
Q 1375 441 1716 441 
Q 2309 441 2620 675 
Q 2931 909 2931 1356 
Q 2931 1769 2642 2001 
Q 2353 2234 1838 2234 
L 1294 2234 
L 1294 2753 
L 1863 2753 
Q 2328 2753 2575 2939 
Q 2822 3125 2822 3475 
Q 2822 3834 2567 4026 
Q 2313 4219 1838 4219 
Q 1578 4219 1281 4162 
Q 984 4106 628 3988 
L 628 4550 
Q 988 4650 1302 4700 
Q 1616 4750 1894 4750 
Q 2613 4750 3031 4423 
Q 3450 4097 3450 3541 
Q 3450 3153 3228 2886 
Q 3006 2619 2597 2516 
z
" transform="scale(0.015625)"/>
       </defs>
       <use xlink:href="#DejaVuSans-33"/>
       <use xlink:href="#DejaVuSans-30" transform="translate(63.623047 0)"/>
       <use xlink:href="#DejaVuSans-30" transform="translate(127.246094 0)"/>
       <use xlink:href="#DejaVuSans-30" transform="translate(190.869141 0)"/>
       <use xlink:href="#DejaVuSans-30" transform="translate(254.492188 0)"/>
      </g>
     </g>
    </g>
    <g id="ytick_8">
     <g id="line2d_20">
      <path d="M 59.690625 87.40779 
L 777.690625 87.40779 
" clip-path="url(#p948eb0ba6a)" style="fill: none; stroke-dasharray: 2.96,1.28; stroke-dashoffset: 0; stroke: #b0b0b0; stroke-opacity: 0.5; stroke-width: 0.8"/>
     </g>
     <g id="line2d_21">
      <g>
       <use xlink:href="#m1c0d34a691" x="59.690625" y="87.40779" style="stroke: #000000; stroke-width: 0.8"/>
      </g>
     </g>
     <g id="text_14">
      <!-- 35000 -->
      <g transform="translate(20.878125 91.207009) scale(0.1 -0.1)">
       <use xlink:href="#DejaVuSans-33"/>
       <use xlink:href="#DejaVuSans-35" transform="translate(63.623047 0)"/>
       <use xlink:href="#DejaVuSans-30" transform="translate(127.246094 0)"/>
       <use xlink:href="#DejaVuSans-30" transform="translate(190.869141 0)"/>
       <use xlink:href="#DejaVuSans-30" transform="translate(254.492188 0)"/>
      </g>
     </g>
    </g>
    <g id="ytick_9">
     <g id="line2d_22">
      <path d="M 59.690625 54.872028 
L 777.690625 54.872028 
" clip-path="url(#p948eb0ba6a)" style="fill: none; stroke-dasharray: 2.96,1.28; stroke-dashoffset: 0; stroke: #b0b0b0; stroke-opacity: 0.5; stroke-width: 0.8"/>
     </g>
     <g id="line2d_23">
      <g>
       <use xlink:href="#m1c0d34a691" x="59.690625" y="54.872028" style="stroke: #000000; stroke-width: 0.8"/>
      </g>
     </g>
     <g id="text_15">
      <!-- 40000 -->
      <g transform="translate(20.878125 58.671247) scale(0.1 -0.1)">
       <use xlink:href="#DejaVuSans-34"/>
       <use xlink:href="#DejaVuSans-30" transform="translate(63.623047 0)"/>
       <use xlink:href="#DejaVuSans-30" transform="translate(127.246094 0)"/>
       <use xlink:href="#DejaVuSans-30" transform="translate(190.869141 0)"/>
       <use xlink:href="#DejaVuSans-30" transform="translate(254.492188 0)"/>
      </g>
     </g>
    </g>
    <g id="text_16">
     <!-- Millones US$ -->
     <g transform="translate(14.798438 200.972656) rotate(-90) scale(0.1 -0.1)">
      <defs>
       <path id="DejaVuSans-4d" d="M 628 4666 
L 1569 4666 
L 2759 1491 
L 3956 4666 
L 4897 4666 
L 4897 0 
L 4281 0 
L 4281 4097 
L 3078 897 
L 2444 897 
L 1241 4097 
L 1241 0 
L 628 0 
L 628 4666 
z
" transform="scale(0.015625)"/>
       <path id="DejaVuSans-69" d="M 603 3500 
L 1178 3500 
L 1178 0 
L 603 0 
L 603 3500 
z
M 603 4863 
L 1178 4863 
L 1178 4134 
L 603 4134 
L 603 4863 
z
" transform="scale(0.015625)"/>
       <path id="DejaVuSans-6c" d="M 603 4863 
L 1178 4863 
L 1178 0 
L 603 0 
L 603 4863 
z
" transform="scale(0.015625)"/>
       <path id="DejaVuSans-6e" d="M 3513 2113 
L 3513 0 
L 2938 0 
L 2938 2094 
Q 2938 2591 2744 2837 
Q 2550 3084 2163 3084 
Q 1697 3084 1428 2787 
Q 1159 2491 1159 1978 
L 1159 0 
L 581 0 
L 581 3500 
L 1159 3500 
L 1159 2956 
Q 1366 3272 1645 3428 
Q 1925 3584 2291 3584 
Q 2894 3584 3203 3211 
Q 3513 2838 3513 2113 
z
" transform="scale(0.015625)"/>
       <path id="DejaVuSans-65" d="M 3597 1894 
L 3597 1613 
L 953 1613 
Q 991 1019 1311 708 
Q 1631 397 2203 397 
Q 2534 397 2845 478 
Q 3156 559 3463 722 
L 3463 178 
Q 3153 47 2828 -22 
Q 2503 -91 2169 -91 
Q 1331 -91 842 396 
Q 353 884 353 1716 
Q 353 2575 817 3079 
Q 1281 3584 2069 3584 
Q 2775 3584 3186 3129 
Q 3597 2675 3597 1894 
z
M 3022 2063 
Q 3016 2534 2758 2815 
Q 2500 3097 2075 3097 
Q 1594 3097 1305 2825 
Q 1016 2553 972 2059 
L 3022 2063 
z
" transform="scale(0.015625)"/>
       <path id="DejaVuSans-73" d="M 2834 3397 
L 2834 2853 
Q 2591 2978 2328 3040 
Q 2066 3103 1784 3103 
Q 1356 3103 1142 2972 
Q 928 2841 928 2578 
Q 928 2378 1081 2264 
Q 1234 2150 1697 2047 
L 1894 2003 
Q 2506 1872 2764 1633 
Q 3022 1394 3022 966 
Q 3022 478 2636 193 
Q 2250 -91 1575 -91 
Q 1294 -91 989 -36 
Q 684 19 347 128 
L 347 722 
Q 666 556 975 473 
Q 1284 391 1588 391 
Q 1994 391 2212 530 
Q 2431 669 2431 922 
Q 2431 1156 2273 1281 
Q 2116 1406 1581 1522 
L 1381 1569 
Q 847 1681 609 1914 
Q 372 2147 372 2553 
Q 372 3047 722 3315 
Q 1072 3584 1716 3584 
Q 2034 3584 2315 3537 
Q 2597 3491 2834 3397 
z
" transform="scale(0.015625)"/>
       <path id="DejaVuSans-20" transform="scale(0.015625)"/>
       <path id="DejaVuSans-55" d="M 556 4666 
L 1191 4666 
L 1191 1831 
Q 1191 1081 1462 751 
Q 1734 422 2344 422 
Q 2950 422 3222 751 
Q 3494 1081 3494 1831 
L 3494 4666 
L 4128 4666 
L 4128 1753 
Q 4128 841 3676 375 
Q 3225 -91 2344 -91 
Q 1459 -91 1007 375 
Q 556 841 556 1753 
L 556 4666 
z
" transform="scale(0.015625)"/>
       <path id="DejaVuSans-53" d="M 3425 4513 
L 3425 3897 
Q 3066 4069 2747 4153 
Q 2428 4238 2131 4238 
Q 1616 4238 1336 4038 
Q 1056 3838 1056 3469 
Q 1056 3159 1242 3001 
Q 1428 2844 1947 2747 
L 2328 2669 
Q 3034 2534 3370 2195 
Q 3706 1856 3706 1288 
Q 3706 609 3251 259 
Q 2797 -91 1919 -91 
Q 1588 -91 1214 -16 
Q 841 59 441 206 
L 441 856 
Q 825 641 1194 531 
Q 1563 422 1919 422 
Q 2459 422 2753 634 
Q 3047 847 3047 1241 
Q 3047 1584 2836 1778 
Q 2625 1972 2144 2069 
L 1759 2144 
Q 1053 2284 737 2584 
Q 422 2884 422 3419 
Q 422 4038 858 4394 
Q 1294 4750 2059 4750 
Q 2388 4750 2728 4690 
Q 3069 4631 3425 4513 
z
" transform="scale(0.015625)"/>
       <path id="DejaVuSans-24" d="M 2163 -941 
L 1850 -941 
L 1847 0 
Q 1519 6 1191 76 
Q 863 147 531 288 
L 531 850 
Q 850 650 1176 548 
Q 1503 447 1850 444 
L 1850 1869 
Q 1159 1981 845 2250 
Q 531 2519 531 2988 
Q 531 3497 872 3790 
Q 1213 4084 1850 4128 
L 1850 4863 
L 2163 4863 
L 2163 4138 
Q 2453 4125 2725 4076 
Q 2997 4028 3256 3944 
L 3256 3397 
Q 2997 3528 2723 3600 
Q 2450 3672 2163 3684 
L 2163 2350 
Q 2872 2241 3206 1959 
Q 3541 1678 3541 1191 
Q 3541 663 3186 358 
Q 2831 53 2163 6 
L 2163 -941 
z
M 1850 2406 
L 1850 3688 
Q 1488 3647 1297 3481 
Q 1106 3316 1106 3041 
Q 1106 2772 1282 2622 
Q 1459 2472 1850 2406 
z
M 2163 1806 
L 2163 453 
Q 2559 506 2761 678 
Q 2963 850 2963 1131 
Q 2963 1406 2770 1568 
Q 2578 1731 2163 1806 
z
" transform="scale(0.015625)"/>
      </defs>
      <use xlink:href="#DejaVuSans-4d"/>
      <use xlink:href="#DejaVuSans-69" transform="translate(86.279297 0)"/>
      <use xlink:href="#DejaVuSans-6c" transform="translate(114.0625 0)"/>
      <use xlink:href="#DejaVuSans-6c" transform="translate(141.845703 0)"/>
      <use xlink:href="#DejaVuSans-6f" transform="translate(169.628906 0)"/>
      <use xlink:href="#DejaVuSans-6e" transform="translate(230.810547 0)"/>
      <use xlink:href="#DejaVuSans-65" transform="translate(294.189453 0)"/>
      <use xlink:href="#DejaVuSans-73" transform="translate(355.712891 0)"/>
      <use xlink:href="#DejaVuSans-20" transform="translate(407.8125 0)"/>
      <use xlink:href="#DejaVuSans-55" transform="translate(439.599609 0)"/>
      <use xlink:href="#DejaVuSans-53" transform="translate(512.792969 0)"/>
      <use xlink:href="#DejaVuSans-24" transform="translate(576.269531 0)"/>
     </g>
    </g>
   </g>
   <g id="patch_93">
    <path d="M 59.690625 315.158125 
L 59.690625 22.798125 
" style="fill: none; stroke: #000000; stroke-width: 0.8; stroke-linejoin: miter; stroke-linecap: square"/>
   </g>
   <g id="patch_94">
    <path d="M 777.690625 315.158125 
L 777.690625 22.798125 
" style="fill: none; stroke: #000000; stroke-width: 0.8; stroke-linejoin: miter; stroke-linecap: square"/>
   </g>
   <g id="patch_95">
    <path d="M 59.690625 315.158125 
L 777.690625 315.158125 
" style="fill: none; stroke: #000000; stroke-width: 0.8; stroke-linejoin: miter; stroke-linecap: square"/>
   </g>
   <g id="patch_96">
    <path d="M 59.690625 22.798125 
L 777.690625 22.798125 
" style="fill: none; stroke: #000000; stroke-width: 0.8; stroke-linejoin: miter; stroke-linecap: square"/>
   </g>
   <g id="text_17">
    <!-- Composición Valor Exportación Minera - Perú 2014-2023 (Mill. US$) -->
    <g transform="translate(216.6425 16.798125) scale(0.12 -0.12)">
     <defs>
      <path id="DejaVuSans-43" d="M 4122 4306 
L 4122 3641 
Q 3803 3938 3442 4084 
Q 3081 4231 2675 4231 
Q 1875 4231 1450 3742 
Q 1025 3253 1025 2328 
Q 1025 1406 1450 917 
Q 1875 428 2675 428 
Q 3081 428 3442 575 
Q 3803 722 4122 1019 
L 4122 359 
Q 3791 134 3420 21 
Q 3050 -91 2638 -91 
Q 1578 -91 968 557 
Q 359 1206 359 2328 
Q 359 3453 968 4101 
Q 1578 4750 2638 4750 
Q 3056 4750 3426 4639 
Q 3797 4528 4122 4306 
z
" transform="scale(0.015625)"/>
      <path id="DejaVuSans-6d" d="M 3328 2828 
Q 3544 3216 3844 3400 
Q 4144 3584 4550 3584 
Q 5097 3584 5394 3201 
Q 5691 2819 5691 2113 
L 5691 0 
L 5113 0 
L 5113 2094 
Q 5113 2597 4934 2840 
Q 4756 3084 4391 3084 
Q 3944 3084 3684 2787 
Q 3425 2491 3425 1978 
L 3425 0 
L 2847 0 
L 2847 2094 
Q 2847 2600 2669 2842 
Q 2491 3084 2119 3084 
Q 1678 3084 1418 2786 
Q 1159 2488 1159 1978 
L 1159 0 
L 581 0 
L 581 3500 
L 1159 3500 
L 1159 2956 
Q 1356 3278 1631 3431 
Q 1906 3584 2284 3584 
Q 2666 3584 2933 3390 
Q 3200 3197 3328 2828 
z
" transform="scale(0.015625)"/>
      <path id="DejaVuSans-70" d="M 1159 525 
L 1159 -1331 
L 581 -1331 
L 581 3500 
L 1159 3500 
L 1159 2969 
Q 1341 3281 1617 3432 
Q 1894 3584 2278 3584 
Q 2916 3584 3314 3078 
Q 3713 2572 3713 1747 
Q 3713 922 3314 415 
Q 2916 -91 2278 -91 
Q 1894 -91 1617 61 
Q 1341 213 1159 525 
z
M 3116 1747 
Q 3116 2381 2855 2742 
Q 2594 3103 2138 3103 
Q 1681 3103 1420 2742 
Q 1159 2381 1159 1747 
Q 1159 1113 1420 752 
Q 1681 391 2138 391 
Q 2594 391 2855 752 
Q 3116 1113 3116 1747 
z
" transform="scale(0.015625)"/>
      <path id="DejaVuSans-63" d="M 3122 3366 
L 3122 2828 
Q 2878 2963 2633 3030 
Q 2388 3097 2138 3097 
Q 1578 3097 1268 2742 
Q 959 2388 959 1747 
Q 959 1106 1268 751 
Q 1578 397 2138 397 
Q 2388 397 2633 464 
Q 2878 531 3122 666 
L 3122 134 
Q 2881 22 2623 -34 
Q 2366 -91 2075 -91 
Q 1284 -91 818 406 
Q 353 903 353 1747 
Q 353 2603 823 3093 
Q 1294 3584 2113 3584 
Q 2378 3584 2631 3529 
Q 2884 3475 3122 3366 
z
" transform="scale(0.015625)"/>
      <path id="DejaVuSans-f3" d="M 1959 3097 
Q 1497 3097 1228 2736 
Q 959 2375 959 1747 
Q 959 1119 1226 758 
Q 1494 397 1959 397 
Q 2419 397 2687 759 
Q 2956 1122 2956 1747 
Q 2956 2369 2687 2733 
Q 2419 3097 1959 3097 
z
M 1959 3584 
Q 2709 3584 3137 3096 
Q 3566 2609 3566 1747 
Q 3566 888 3137 398 
Q 2709 -91 1959 -91 
Q 1206 -91 779 398 
Q 353 888 353 1747 
Q 353 2609 779 3096 
Q 1206 3584 1959 3584 
z
M 2394 5119 
L 3016 5119 
L 1998 3944 
L 1519 3944 
L 2394 5119 
z
" transform="scale(0.015625)"/>
      <path id="DejaVuSans-56" d="M 1831 0 
L 50 4666 
L 709 4666 
L 2188 738 
L 3669 4666 
L 4325 4666 
L 2547 0 
L 1831 0 
z
" transform="scale(0.015625)"/>
      <path id="DejaVuSans-61" d="M 2194 1759 
Q 1497 1759 1228 1600 
Q 959 1441 959 1056 
Q 959 750 1161 570 
Q 1363 391 1709 391 
Q 2188 391 2477 730 
Q 2766 1069 2766 1631 
L 2766 1759 
L 2194 1759 
z
M 3341 1997 
L 3341 0 
L 2766 0 
L 2766 531 
Q 2569 213 2275 61 
Q 1981 -91 1556 -91 
Q 1019 -91 701 211 
Q 384 513 384 1019 
Q 384 1609 779 1909 
Q 1175 2209 1959 2209 
L 2766 2209 
L 2766 2266 
Q 2766 2663 2505 2880 
Q 2244 3097 1772 3097 
Q 1472 3097 1187 3025 
Q 903 2953 641 2809 
L 641 3341 
Q 956 3463 1253 3523 
Q 1550 3584 1831 3584 
Q 2591 3584 2966 3190 
Q 3341 2797 3341 1997 
z
" transform="scale(0.015625)"/>
      <path id="DejaVuSans-72" d="M 2631 2963 
Q 2534 3019 2420 3045 
Q 2306 3072 2169 3072 
Q 1681 3072 1420 2755 
Q 1159 2438 1159 1844 
L 1159 0 
L 581 0 
L 581 3500 
L 1159 3500 
L 1159 2956 
Q 1341 3275 1631 3429 
Q 1922 3584 2338 3584 
Q 2397 3584 2469 3576 
Q 2541 3569 2628 3553 
L 2631 2963 
z
" transform="scale(0.015625)"/>
      <path id="DejaVuSans-45" d="M 628 4666 
L 3578 4666 
L 3578 4134 
L 1259 4134 
L 1259 2753 
L 3481 2753 
L 3481 2222 
L 1259 2222 
L 1259 531 
L 3634 531 
L 3634 0 
L 628 0 
L 628 4666 
z
" transform="scale(0.015625)"/>
      <path id="DejaVuSans-78" d="M 3513 3500 
L 2247 1797 
L 3578 0 
L 2900 0 
L 1881 1375 
L 863 0 
L 184 0 
L 1544 1831 
L 300 3500 
L 978 3500 
L 1906 2253 
L 2834 3500 
L 3513 3500 
z
" transform="scale(0.015625)"/>
      <path id="DejaVuSans-74" d="M 1172 4494 
L 1172 3500 
L 2356 3500 
L 2356 3053 
L 1172 3053 
L 1172 1153 
Q 1172 725 1289 603 
Q 1406 481 1766 481 
L 2356 481 
L 2356 0 
L 1766 0 
Q 1100 0 847 248 
Q 594 497 594 1153 
L 594 3053 
L 172 3053 
L 172 3500 
L 594 3500 
L 594 4494 
L 1172 4494 
z
" transform="scale(0.015625)"/>
      <path id="DejaVuSans-2d" d="M 313 2009 
L 1997 2009 
L 1997 1497 
L 313 1497 
L 313 2009 
z
" transform="scale(0.015625)"/>
      <path id="DejaVuSans-50" d="M 1259 4147 
L 1259 2394 
L 2053 2394 
Q 2494 2394 2734 2622 
Q 2975 2850 2975 3272 
Q 2975 3691 2734 3919 
Q 2494 4147 2053 4147 
L 1259 4147 
z
M 628 4666 
L 2053 4666 
Q 2838 4666 3239 4311 
Q 3641 3956 3641 3272 
Q 3641 2581 3239 2228 
Q 2838 1875 2053 1875 
L 1259 1875 
L 1259 0 
L 628 0 
L 628 4666 
z
" transform="scale(0.015625)"/>
      <path id="DejaVuSans-fa" d="M 544 1381 
L 544 3500 
L 1119 3500 
L 1119 1403 
Q 1119 906 1312 657 
Q 1506 409 1894 409 
Q 2359 409 2629 706 
Q 2900 1003 2900 1516 
L 2900 3500 
L 3475 3500 
L 3475 0 
L 2900 0 
L 2900 538 
Q 2691 219 2414 64 
Q 2138 -91 1772 -91 
Q 1169 -91 856 284 
Q 544 659 544 1381 
z
M 1991 3584 
L 1991 3584 
z
M 2418 5119 
L 3040 5119 
L 2022 3944 
L 1543 3944 
L 2418 5119 
z
" transform="scale(0.015625)"/>
      <path id="DejaVuSans-28" d="M 1984 4856 
Q 1566 4138 1362 3434 
Q 1159 2731 1159 2009 
Q 1159 1288 1364 580 
Q 1569 -128 1984 -844 
L 1484 -844 
Q 1016 -109 783 600 
Q 550 1309 550 2009 
Q 550 2706 781 3412 
Q 1013 4119 1484 4856 
L 1984 4856 
z
" transform="scale(0.015625)"/>
      <path id="DejaVuSans-2e" d="M 684 794 
L 1344 794 
L 1344 0 
L 684 0 
L 684 794 
z
" transform="scale(0.015625)"/>
      <path id="DejaVuSans-29" d="M 513 4856 
L 1013 4856 
Q 1481 4119 1714 3412 
Q 1947 2706 1947 2009 
Q 1947 1309 1714 600 
Q 1481 -109 1013 -844 
L 513 -844 
Q 928 -128 1133 580 
Q 1338 1288 1338 2009 
Q 1338 2731 1133 3434 
Q 928 4138 513 4856 
z
" transform="scale(0.015625)"/>
     </defs>
     <use xlink:href="#DejaVuSans-43"/>
     <use xlink:href="#DejaVuSans-6f" transform="translate(69.824219 0)"/>
     <use xlink:href="#DejaVuSans-6d" transform="translate(131.005859 0)"/>
     <use xlink:href="#DejaVuSans-70" transform="translate(228.417969 0)"/>
     <use xlink:href="#DejaVuSans-6f" transform="translate(291.894531 0)"/>
     <use xlink:href="#DejaVuSans-73" transform="translate(353.076172 0)"/>
     <use xlink:href="#DejaVuSans-69" transform="translate(405.175781 0)"/>
     <use xlink:href="#DejaVuSans-63" transform="translate(432.958984 0)"/>
     <use xlink:href="#DejaVuSans-69" transform="translate(487.939453 0)"/>
     <use xlink:href="#DejaVuSans-f3" transform="translate(515.722656 0)"/>
     <use xlink:href="#DejaVuSans-6e" transform="translate(576.904297 0)"/>
     <use xlink:href="#DejaVuSans-20" transform="translate(640.283203 0)"/>
     <use xlink:href="#DejaVuSans-56" transform="translate(672.070312 0)"/>
     <use xlink:href="#DejaVuSans-61" transform="translate(732.728516 0)"/>
     <use xlink:href="#DejaVuSans-6c" transform="translate(794.007812 0)"/>
     <use xlink:href="#DejaVuSans-6f" transform="translate(821.791016 0)"/>
     <use xlink:href="#DejaVuSans-72" transform="translate(882.972656 0)"/>
     <use xlink:href="#DejaVuSans-20" transform="translate(924.085938 0)"/>
     <use xlink:href="#DejaVuSans-45" transform="translate(955.873047 0)"/>
     <use xlink:href="#DejaVuSans-78" transform="translate(1019.056641 0)"/>
     <use xlink:href="#DejaVuSans-70" transform="translate(1078.236328 0)"/>
     <use xlink:href="#DejaVuSans-6f" transform="translate(1141.712891 0)"/>
     <use xlink:href="#DejaVuSans-72" transform="translate(1202.894531 0)"/>
     <use xlink:href="#DejaVuSans-74" transform="translate(1244.007812 0)"/>
     <use xlink:href="#DejaVuSans-61" transform="translate(1283.216797 0)"/>
     <use xlink:href="#DejaVuSans-63" transform="translate(1344.496094 0)"/>
     <use xlink:href="#DejaVuSans-69" transform="translate(1399.476562 0)"/>
     <use xlink:href="#DejaVuSans-f3" transform="translate(1427.259766 0)"/>
     <use xlink:href="#DejaVuSans-6e" transform="translate(1488.441406 0)"/>
     <use xlink:href="#DejaVuSans-20" transform="translate(1551.820312 0)"/>
     <use xlink:href="#DejaVuSans-4d" transform="translate(1583.607422 0)"/>
     <use xlink:href="#DejaVuSans-69" transform="translate(1669.886719 0)"/>
     <use xlink:href="#DejaVuSans-6e" transform="translate(1697.669922 0)"/>
     <use xlink:href="#DejaVuSans-65" transform="translate(1761.048828 0)"/>
     <use xlink:href="#DejaVuSans-72" transform="translate(1822.572266 0)"/>
     <use xlink:href="#DejaVuSans-61" transform="translate(1863.685547 0)"/>
     <use xlink:href="#DejaVuSans-20" transform="translate(1924.964844 0)"/>
     <use xlink:href="#DejaVuSans-2d" transform="translate(1956.751953 0)"/>
     <use xlink:href="#DejaVuSans-20" transform="translate(1992.835938 0)"/>
     <use xlink:href="#DejaVuSans-50" transform="translate(2024.623047 0)"/>
     <use xlink:href="#DejaVuSans-65" transform="translate(2081.300781 0)"/>
     <use xlink:href="#DejaVuSans-72" transform="translate(2142.824219 0)"/>
     <use xlink:href="#DejaVuSans-fa" transform="translate(2183.9375 0)"/>
     <use xlink:href="#DejaVuSans-20" transform="translate(2247.316406 0)"/>
     <use xlink:href="#DejaVuSans-32" transform="translate(2279.103516 0)"/>
     <use xlink:href="#DejaVuSans-30" transform="translate(2342.726562 0)"/>
     <use xlink:href="#DejaVuSans-31" transform="translate(2406.349609 0)"/>
     <use xlink:href="#DejaVuSans-34" transform="translate(2469.972656 0)"/>
     <use xlink:href="#DejaVuSans-2d" transform="translate(2533.595703 0)"/>
     <use xlink:href="#DejaVuSans-32" transform="translate(2569.679688 0)"/>
     <use xlink:href="#DejaVuSans-30" transform="translate(2633.302734 0)"/>
     <use xlink:href="#DejaVuSans-32" transform="translate(2696.925781 0)"/>
     <use xlink:href="#DejaVuSans-33" transform="translate(2760.548828 0)"/>
     <use xlink:href="#DejaVuSans-20" transform="translate(2824.171875 0)"/>
     <use xlink:href="#DejaVuSans-28" transform="translate(2855.958984 0)"/>
     <use xlink:href="#DejaVuSans-4d" transform="translate(2894.972656 0)"/>
     <use xlink:href="#DejaVuSans-69" transform="translate(2981.251953 0)"/>
     <use xlink:href="#DejaVuSans-6c" transform="translate(3009.035156 0)"/>
     <use xlink:href="#DejaVuSans-6c" transform="translate(3036.818359 0)"/>
     <use xlink:href="#DejaVuSans-2e" transform="translate(3064.601562 0)"/>
     <use xlink:href="#DejaVuSans-20" transform="translate(3096.388672 0)"/>
     <use xlink:href="#DejaVuSans-55" transform="translate(3128.175781 0)"/>
     <use xlink:href="#DejaVuSans-53" transform="translate(3201.369141 0)"/>
     <use xlink:href="#DejaVuSans-24" transform="translate(3264.845703 0)"/>
     <use xlink:href="#DejaVuSans-29" transform="translate(3328.46875 0)"/>
    </g>
   </g>
   <g id="legend_1">
    <g id="patch_97">
     <path d="M 64.590625 120.870312 
L 123.117188 120.870312 
Q 124.517188 120.870312 124.517188 119.470312 
L 124.517188 27.698125 
Q 124.517188 26.298125 123.117188 26.298125 
L 64.590625 26.298125 
Q 63.190625 26.298125 63.190625 27.698125 
L 63.190625 119.470312 
Q 63.190625 120.870312 64.590625 120.870312 
z
" style="fill: #ffffff; opacity: 0.8; stroke: #cccccc; stroke-linejoin: miter"/>
    </g>
    <g id="patch_98">
     <path d="M 65.990625 34.417031 
L 79.990625 34.417031 
L 79.990625 29.517031 
L 65.990625 29.517031 
z
" style="fill: #4682b4"/>
    </g>
    <g id="text_18">
     <!-- Cobre -->
     <g transform="translate(85.590625 34.417031) scale(0.07 -0.07)">
      <defs>
       <path id="DejaVuSans-62" d="M 3116 1747 
Q 3116 2381 2855 2742 
Q 2594 3103 2138 3103 
Q 1681 3103 1420 2742 
Q 1159 2381 1159 1747 
Q 1159 1113 1420 752 
Q 1681 391 2138 391 
Q 2594 391 2855 752 
Q 3116 1113 3116 1747 
z
M 1159 2969 
Q 1341 3281 1617 3432 
Q 1894 3584 2278 3584 
Q 2916 3584 3314 3078 
Q 3713 2572 3713 1747 
Q 3713 922 3314 415 
Q 2916 -91 2278 -91 
Q 1894 -91 1617 61 
Q 1341 213 1159 525 
L 1159 0 
L 581 0 
L 581 4863 
L 1159 4863 
L 1159 2969 
z
" transform="scale(0.015625)"/>
      </defs>
      <use xlink:href="#DejaVuSans-43"/>
      <use xlink:href="#DejaVuSans-6f" transform="translate(69.824219 0)"/>
      <use xlink:href="#DejaVuSans-62" transform="translate(131.005859 0)"/>
      <use xlink:href="#DejaVuSans-72" transform="translate(194.482422 0)"/>
      <use xlink:href="#DejaVuSans-65" transform="translate(233.345703 0)"/>
     </g>
    </g>
    <g id="patch_99">
     <path d="M 65.990625 44.691719 
L 79.990625 44.691719 
L 79.990625 39.791719 
L 65.990625 39.791719 
z
" style="fill: #ffd700"/>
    </g>
    <g id="text_19">
     <!-- Oro -->
     <g transform="translate(85.590625 44.691719) scale(0.07 -0.07)">
      <defs>
       <path id="DejaVuSans-4f" d="M 2522 4238 
Q 1834 4238 1429 3725 
Q 1025 3213 1025 2328 
Q 1025 1447 1429 934 
Q 1834 422 2522 422 
Q 3209 422 3611 934 
Q 4013 1447 4013 2328 
Q 4013 3213 3611 3725 
Q 3209 4238 2522 4238 
z
M 2522 4750 
Q 3503 4750 4090 4092 
Q 4678 3434 4678 2328 
Q 4678 1225 4090 567 
Q 3503 -91 2522 -91 
Q 1538 -91 948 565 
Q 359 1222 359 2328 
Q 359 3434 948 4092 
Q 1538 4750 2522 4750 
z
" transform="scale(0.015625)"/>
      </defs>
      <use xlink:href="#DejaVuSans-4f"/>
      <use xlink:href="#DejaVuSans-72" transform="translate(78.710938 0)"/>
      <use xlink:href="#DejaVuSans-6f" transform="translate(117.574219 0)"/>
     </g>
    </g>
    <g id="patch_100">
     <path d="M 65.990625 54.966406 
L 79.990625 54.966406 
L 79.990625 50.066406 
L 65.990625 50.066406 
z
" style="fill: #ff7f50"/>
    </g>
    <g id="text_20">
     <!-- Zinc -->
     <g transform="translate(85.590625 54.966406) scale(0.07 -0.07)">
      <defs>
       <path id="DejaVuSans-5a" d="M 359 4666 
L 4025 4666 
L 4025 4184 
L 1075 531 
L 4097 531 
L 4097 0 
L 288 0 
L 288 481 
L 3238 4134 
L 359 4134 
L 359 4666 
z
" transform="scale(0.015625)"/>
      </defs>
      <use xlink:href="#DejaVuSans-5a"/>
      <use xlink:href="#DejaVuSans-69" transform="translate(68.505859 0)"/>
      <use xlink:href="#DejaVuSans-6e" transform="translate(96.289062 0)"/>
      <use xlink:href="#DejaVuSans-63" transform="translate(159.667969 0)"/>
     </g>
    </g>
    <g id="patch_101">
     <path d="M 65.990625 65.241094 
L 79.990625 65.241094 
L 79.990625 60.341094 
L 65.990625 60.341094 
z
" style="fill: #008000"/>
    </g>
    <g id="text_21">
     <!-- Plomo -->
     <g transform="translate(85.590625 65.241094) scale(0.07 -0.07)">
      <use xlink:href="#DejaVuSans-50"/>
      <use xlink:href="#DejaVuSans-6c" transform="translate(60.302734 0)"/>
      <use xlink:href="#DejaVuSans-6f" transform="translate(88.085938 0)"/>
      <use xlink:href="#DejaVuSans-6d" transform="translate(149.267578 0)"/>
      <use xlink:href="#DejaVuSans-6f" transform="translate(246.679688 0)"/>
     </g>
    </g>
    <g id="patch_102">
     <path d="M 65.990625 75.515781 
L 79.990625 75.515781 
L 79.990625 70.615781 
L 65.990625 70.615781 
z
" style="fill: #c0c0c0"/>
    </g>
    <g id="text_22">
     <!-- Plata -->
     <g transform="translate(85.590625 75.515781) scale(0.07 -0.07)">
      <use xlink:href="#DejaVuSans-50"/>
      <use xlink:href="#DejaVuSans-6c" transform="translate(60.302734 0)"/>
      <use xlink:href="#DejaVuSans-61" transform="translate(88.085938 0)"/>
      <use xlink:href="#DejaVuSans-74" transform="translate(149.365234 0)"/>
      <use xlink:href="#DejaVuSans-61" transform="translate(188.574219 0)"/>
     </g>
    </g>
    <g id="patch_103">
     <path d="M 65.990625 85.790469 
L 79.990625 85.790469 
L 79.990625 80.890469 
L 65.990625 80.890469 
z
" style="fill: #ffa500"/>
    </g>
    <g id="text_23">
     <!-- Estaño -->
     <g transform="translate(85.590625 85.790469) scale(0.07 -0.07)">
      <use xlink:href="#DejaVuSans-45"/>
      <use xlink:href="#DejaVuSans-73" transform="translate(63.183594 0)"/>
      <use xlink:href="#DejaVuSans-74" transform="translate(115.283203 0)"/>
      <use xlink:href="#DejaVuSans-61" transform="translate(154.492188 0)"/>
      <use xlink:href="#DejaVuSans-f1" transform="translate(215.771484 0)"/>
      <use xlink:href="#DejaVuSans-6f" transform="translate(279.150391 0)"/>
     </g>
    </g>
    <g id="patch_104">
     <path d="M 65.990625 96.065156 
L 79.990625 96.065156 
L 79.990625 91.165156 
L 65.990625 91.165156 
z
" style="fill: #800080"/>
    </g>
    <g id="text_24">
     <!-- Molibdeno -->
     <g transform="translate(85.590625 96.065156) scale(0.07 -0.07)">
      <defs>
       <path id="DejaVuSans-64" d="M 2906 2969 
L 2906 4863 
L 3481 4863 
L 3481 0 
L 2906 0 
L 2906 525 
Q 2725 213 2448 61 
Q 2172 -91 1784 -91 
Q 1150 -91 751 415 
Q 353 922 353 1747 
Q 353 2572 751 3078 
Q 1150 3584 1784 3584 
Q 2172 3584 2448 3432 
Q 2725 3281 2906 2969 
z
M 947 1747 
Q 947 1113 1208 752 
Q 1469 391 1925 391 
Q 2381 391 2643 752 
Q 2906 1113 2906 1747 
Q 2906 2381 2643 2742 
Q 2381 3103 1925 3103 
Q 1469 3103 1208 2742 
Q 947 2381 947 1747 
z
" transform="scale(0.015625)"/>
      </defs>
      <use xlink:href="#DejaVuSans-4d"/>
      <use xlink:href="#DejaVuSans-6f" transform="translate(86.279297 0)"/>
      <use xlink:href="#DejaVuSans-6c" transform="translate(147.460938 0)"/>
      <use xlink:href="#DejaVuSans-69" transform="translate(175.244141 0)"/>
      <use xlink:href="#DejaVuSans-62" transform="translate(203.027344 0)"/>
      <use xlink:href="#DejaVuSans-64" transform="translate(266.503906 0)"/>
      <use xlink:href="#DejaVuSans-65" transform="translate(329.980469 0)"/>
      <use xlink:href="#DejaVuSans-6e" transform="translate(391.503906 0)"/>
      <use xlink:href="#DejaVuSans-6f" transform="translate(454.882812 0)"/>
     </g>
    </g>
    <g id="patch_105">
     <path d="M 65.990625 106.339844 
L 79.990625 106.339844 
L 79.990625 101.439844 
L 65.990625 101.439844 
z
" style="fill: #a52a2a"/>
    </g>
    <g id="text_25">
     <!-- Hierro -->
     <g transform="translate(85.590625 106.339844) scale(0.07 -0.07)">
      <defs>
       <path id="DejaVuSans-48" d="M 628 4666 
L 1259 4666 
L 1259 2753 
L 3553 2753 
L 3553 4666 
L 4184 4666 
L 4184 0 
L 3553 0 
L 3553 2222 
L 1259 2222 
L 1259 0 
L 628 0 
L 628 4666 
z
" transform="scale(0.015625)"/>
      </defs>
      <use xlink:href="#DejaVuSans-48"/>
      <use xlink:href="#DejaVuSans-69" transform="translate(75.195312 0)"/>
      <use xlink:href="#DejaVuSans-65" transform="translate(102.978516 0)"/>
      <use xlink:href="#DejaVuSans-72" transform="translate(164.501953 0)"/>
      <use xlink:href="#DejaVuSans-72" transform="translate(203.865234 0)"/>
      <use xlink:href="#DejaVuSans-6f" transform="translate(242.728516 0)"/>
     </g>
    </g>
    <g id="patch_106">
     <path d="M 65.990625 116.614531 
L 79.990625 116.614531 
L 79.990625 111.714531 
L 65.990625 111.714531 
z
" style="fill: #808080"/>
    </g>
    <g id="text_26">
     <!-- Otros -->
     <g transform="translate(85.590625 116.614531) scale(0.07 -0.07)">
      <use xlink:href="#DejaVuSans-4f"/>
      <use xlink:href="#DejaVuSans-74" transform="translate(78.710938 0)"/>
      <use xlink:href="#DejaVuSans-72" transform="translate(117.919922 0)"/>
      <use xlink:href="#DejaVuSans-6f" transform="translate(156.783203 0)"/>
      <use xlink:href="#DejaVuSans-73" transform="translate(217.964844 0)"/>
     </g>
    </g>
   </g>
  </g>
 </g>
 <defs>
  <clipPath id="p948eb0ba6a">
   <rect x="59.690625" y="22.798125" width="718" height="292.36"/>
  </clipPath>
 </defs>
</svg>
