<?xml version="1.0" encoding="utf-8" standalone="no"?>
<!DOCTYPE svg PUBLIC "-//W3C//DTD SVG 1.1//EN"
  "http://www.w3.org/Graphics/SVG/1.1/DTD/svg11.dtd">
<svg xmlns:xlink="http://www.w3.org/1999/xlink" width="855.915938pt" height="351.6395pt" viewBox="0 0 855.915938 351.6395" xmlns="http://www.w3.org/2000/svg" version="1.1">
 <metadata>
  <rdf:RDF xmlns:dc="http://purl.org/dc/elements/1.1/" xmlns:cc="http://creativecommons.org/ns#" xmlns:rdf="http://www.w3.org/1999/02/22-rdf-syntax-ns#">
   <cc:Work>
    <dc:type rdf:resource="http://purl.org/dc/dcmitype/StillImage"/>
    <dc:date>2026-06-29T07:45:16.741546</dc:date>
    <dc:format>image/svg+xml</dc:format>
    <dc:creator>
     <cc:Agent>
      <dc:title>Matplotlib v3.10.0, https://matplotlib.org/</dc:title>
     </cc:Agent>
    </dc:creator>
   </cc:Work>
  </rdf:RDF>
 </metadata>
 <defs>
  <style type="text/css">*{stroke-linejoin: round; stroke-linecap: butt}</style>
 </defs>
 <g id="figure_1">
  <g id="patch_1">
   <path d="M 0 351.6395 
L 855.915938 351.6395 
L 855.915938 0 
L 0 0 
z
" style="fill: #ffffff"/>
  </g>
  <g id="axes_1">
   <g id="patch_2">
    <path d="M 39.575938 313.863563 
L 848.715937 313.863563 
L 848.715937 36.623562 
L 39.575938 36.623562 
z
" style="fill: #eaeaf2"/>
   </g>
   <g id="matplotlib.axis_1">
    <g id="xtick_1">
     <g id="line2d_1">
      <path d="M 127.084809 313.863563 
L 127.084809 36.623562 
" clip-path="url(#pa0bc09fc02)" style="fill: none; stroke: #ffffff; stroke-linecap: round"/>
     </g>
     <g id="line2d_2"/>
     <g id="text_1">
      <!-- 2019 -->
      <g style="fill: #262626" transform="translate(115.962934 328.110438) scale(0.1 -0.1)">
       <defs>
        <path id="LiberationSans-32" d="M 322 0 
L 322 397 
Q 481 763 711 1042 
Q 941 1322 1194 1548 
Q 1447 1775 1695 1969 
Q 1944 2163 2144 2356 
Q 2344 2550 2467 2762 
Q 2591 2975 2591 3244 
Q 2591 3431 2534 3573 
Q 2478 3716 2372 3812 
Q 2266 3909 2117 3957 
Q 1969 4006 1788 4006 
Q 1619 4006 1470 3959 
Q 1322 3913 1206 3819 
Q 1091 3725 1017 3586 
Q 944 3447 922 3263 
L 347 3316 
Q 375 3553 478 3762 
Q 581 3972 762 4130 
Q 944 4288 1198 4378 
Q 1453 4469 1788 4469 
Q 2116 4469 2372 4391 
Q 2628 4313 2804 4159 
Q 2981 4006 3075 3781 
Q 3169 3556 3169 3263 
Q 3169 3041 3089 2841 
Q 3009 2641 2876 2459 
Q 2744 2278 2569 2109 
Q 2394 1941 2203 1780 
Q 2013 1619 1819 1461 
Q 1625 1303 1454 1143 
Q 1284 984 1150 820 
Q 1016 656 941 478 
L 3238 478 
L 3238 0 
L 322 0 
z
" transform="scale(0.015625)"/>
        <path id="LiberationSans-30" d="M 3309 2203 
Q 3309 1569 3189 1136 
Q 3069 703 2861 436 
Q 2653 169 2372 53 
Q 2091 -63 1772 -63 
Q 1450 -63 1172 53 
Q 894 169 689 434 
Q 484 700 367 1133 
Q 250 1566 250 2203 
Q 250 2869 367 3305 
Q 484 3741 690 4000 
Q 897 4259 1178 4364 
Q 1459 4469 1791 4469 
Q 2106 4469 2382 4364 
Q 2659 4259 2865 4000 
Q 3072 3741 3190 3305 
Q 3309 2869 3309 2203 
z
M 2738 2203 
Q 2738 2728 2675 3076 
Q 2613 3425 2491 3633 
Q 2369 3841 2192 3927 
Q 2016 4013 1791 4013 
Q 1553 4013 1372 3925 
Q 1191 3838 1067 3630 
Q 944 3422 881 3073 
Q 819 2725 819 2203 
Q 819 1697 883 1350 
Q 947 1003 1070 792 
Q 1194 581 1372 489 
Q 1550 397 1778 397 
Q 2000 397 2178 489 
Q 2356 581 2479 792 
Q 2603 1003 2670 1350 
Q 2738 1697 2738 2203 
z
" transform="scale(0.015625)"/>
        <path id="LiberationSans-31" d="M 488 0 
L 488 478 
L 1609 478 
L 1609 3866 
L 616 3156 
L 616 3688 
L 1656 4403 
L 2175 4403 
L 2175 478 
L 3247 478 
L 3247 0 
L 488 0 
z
" transform="scale(0.015625)"/>
        <path id="LiberationSans-39" d="M 3256 2291 
Q 3256 1703 3145 1261 
Q 3034 819 2828 525 
Q 2622 231 2326 84 
Q 2031 -63 1663 -63 
Q 1409 -63 1206 -11 
Q 1003 41 843 150 
Q 684 259 571 434 
Q 459 609 391 856 
L 928 941 
Q 1016 656 1202 523 
Q 1388 391 1672 391 
Q 1900 391 2089 498 
Q 2278 606 2411 822 
Q 2544 1038 2619 1363 
Q 2694 1688 2700 2125 
Q 2634 1978 2520 1862 
Q 2406 1747 2261 1667 
Q 2116 1588 1947 1545 
Q 1778 1503 1606 1503 
Q 1306 1503 1064 1611 
Q 822 1719 653 1912 
Q 484 2106 392 2379 
Q 300 2653 300 2988 
Q 300 3328 398 3603 
Q 497 3878 684 4070 
Q 872 4263 1145 4366 
Q 1419 4469 1766 4469 
Q 2500 4469 2878 3925 
Q 3256 3381 3256 2291 
z
M 2644 2834 
Q 2644 3078 2586 3293 
Q 2528 3509 2414 3668 
Q 2300 3828 2133 3920 
Q 1966 4013 1747 4013 
Q 1544 4013 1381 3941 
Q 1219 3869 1106 3736 
Q 994 3603 933 3412 
Q 872 3222 872 2988 
Q 872 2766 926 2575 
Q 981 2384 1090 2245 
Q 1200 2106 1362 2026 
Q 1525 1947 1741 1947 
Q 1897 1947 2058 2000 
Q 2219 2053 2348 2162 
Q 2478 2272 2561 2439 
Q 2644 2606 2644 2834 
z
" transform="scale(0.015625)"/>
       </defs>
       <use xlink:href="#LiberationSans-32"/>
       <use xlink:href="#LiberationSans-30" transform="translate(55.615234 0)"/>
       <use xlink:href="#LiberationSans-31" transform="translate(111.230469 0)"/>
       <use xlink:href="#LiberationSans-39" transform="translate(166.845703 0)"/>
      </g>
     </g>
    </g>
    <g id="xtick_2">
     <g id="line2d_3">
      <path d="M 253.90926 313.863563 
L 253.90926 36.623562 
" clip-path="url(#pa0bc09fc02)" style="fill: none; stroke: #ffffff; stroke-linecap: round"/>
     </g>
     <g id="line2d_4"/>
     <g id="text_2">
      <!-- 2020 -->
      <g style="fill: #262626" transform="translate(242.787385 328.110438) scale(0.1 -0.1)">
       <use xlink:href="#LiberationSans-32"/>
       <use xlink:href="#LiberationSans-30" transform="translate(55.615234 0)"/>
       <use xlink:href="#LiberationSans-32" transform="translate(111.230469 0)"/>
       <use xlink:href="#LiberationSans-30" transform="translate(166.845703 0)"/>
      </g>
     </g>
    </g>
    <g id="xtick_3">
     <g id="line2d_5">
      <path d="M 380.733712 313.863563 
L 380.733712 36.623562 
" clip-path="url(#pa0bc09fc02)" style="fill: none; stroke: #ffffff; stroke-linecap: round"/>
     </g>
     <g id="line2d_6"/>
     <g id="text_3">
      <!-- 2021 -->
      <g style="fill: #262626" transform="translate(369.611837 328.110438) scale(0.1 -0.1)">
       <use xlink:href="#LiberationSans-32"/>
       <use xlink:href="#LiberationSans-30" transform="translate(55.615234 0)"/>
       <use xlink:href="#LiberationSans-32" transform="translate(111.230469 0)"/>
       <use xlink:href="#LiberationSans-31" transform="translate(166.845703 0)"/>
      </g>
     </g>
    </g>
    <g id="xtick_4">
     <g id="line2d_7">
      <path d="M 507.558163 313.863563 
L 507.558163 36.623562 
" clip-path="url(#pa0bc09fc02)" style="fill: none; stroke: #ffffff; stroke-linecap: round"/>
     </g>
     <g id="line2d_8"/>
     <g id="text_4">
      <!-- 2022 -->
      <g style="fill: #262626" transform="translate(496.436288 328.110438) scale(0.1 -0.1)">
       <use xlink:href="#LiberationSans-32"/>
       <use xlink:href="#LiberationSans-30" transform="translate(55.615234 0)"/>
       <use xlink:href="#LiberationSans-32" transform="translate(111.230469 0)"/>
       <use xlink:href="#LiberationSans-32" transform="translate(166.845703 0)"/>
      </g>
     </g>
    </g>
    <g id="xtick_5">
     <g id="line2d_9">
      <path d="M 634.382615 313.863563 
L 634.382615 36.623562 
" clip-path="url(#pa0bc09fc02)" style="fill: none; stroke: #ffffff; stroke-linecap: round"/>
     </g>
     <g id="line2d_10"/>
     <g id="text_5">
      <!-- 2023 -->
      <g style="fill: #262626" transform="translate(623.26074 328.110438) scale(0.1 -0.1)">
       <defs>
        <path id="LiberationSans-33" d="M 3278 1216 
Q 3278 913 3179 675 
Q 3081 438 2892 273 
Q 2703 109 2423 23 
Q 2144 -63 1784 -63 
Q 1375 -63 1095 39 
Q 816 141 634 308 
Q 453 475 362 689 
Q 272 903 244 1131 
L 825 1184 
Q 850 1009 917 865 
Q 984 722 1100 619 
Q 1216 516 1384 459 
Q 1553 403 1784 403 
Q 2209 403 2451 612 
Q 2694 822 2694 1234 
Q 2694 1478 2586 1626 
Q 2478 1775 2317 1858 
Q 2156 1941 1967 1969 
Q 1778 1997 1619 1997 
L 1300 1997 
L 1300 2484 
L 1606 2484 
Q 1766 2484 1937 2517 
Q 2109 2550 2251 2636 
Q 2394 2722 2486 2869 
Q 2578 3016 2578 3244 
Q 2578 3597 2370 3801 
Q 2163 4006 1753 4006 
Q 1381 4006 1151 3815 
Q 922 3625 884 3278 
L 319 3322 
Q 353 3613 478 3828 
Q 603 4044 795 4186 
Q 988 4328 1234 4398 
Q 1481 4469 1759 4469 
Q 2128 4469 2393 4376 
Q 2659 4284 2828 4126 
Q 2997 3969 3076 3756 
Q 3156 3544 3156 3303 
Q 3156 3109 3103 2940 
Q 3050 2772 2937 2637 
Q 2825 2503 2651 2406 
Q 2478 2309 2234 2259 
L 2234 2247 
Q 2500 2219 2697 2126 
Q 2894 2034 3022 1896 
Q 3150 1759 3214 1584 
Q 3278 1409 3278 1216 
z
" transform="scale(0.015625)"/>
       </defs>
       <use xlink:href="#LiberationSans-32"/>
       <use xlink:href="#LiberationSans-30" transform="translate(55.615234 0)"/>
       <use xlink:href="#LiberationSans-32" transform="translate(111.230469 0)"/>
       <use xlink:href="#LiberationSans-33" transform="translate(166.845703 0)"/>
      </g>
     </g>
    </g>
    <g id="xtick_6">
     <g id="line2d_11">
      <path d="M 761.207066 313.863563 
L 761.207066 36.623562 
" clip-path="url(#pa0bc09fc02)" style="fill: none; stroke: #ffffff; stroke-linecap: round"/>
     </g>
     <g id="line2d_12"/>
     <g id="text_6">
      <!-- 2024 -->
      <g style="fill: #262626" transform="translate(750.085191 328.110438) scale(0.1 -0.1)">
       <defs>
        <path id="LiberationSans-34" d="M 2753 997 
L 2753 0 
L 2222 0 
L 2222 997 
L 147 997 
L 147 1434 
L 2163 4403 
L 2753 4403 
L 2753 1441 
L 3372 1441 
L 3372 997 
L 2753 997 
z
M 2222 3769 
Q 2216 3753 2191 3708 
Q 2166 3663 2134 3606 
Q 2103 3550 2070 3492 
Q 2038 3434 2013 3397 
L 884 1734 
Q 869 1709 839 1668 
Q 809 1628 778 1586 
Q 747 1544 715 1503 
Q 684 1463 666 1441 
L 2222 1441 
L 2222 3769 
z
" transform="scale(0.015625)"/>
       </defs>
       <use xlink:href="#LiberationSans-32"/>
       <use xlink:href="#LiberationSans-30" transform="translate(55.615234 0)"/>
       <use xlink:href="#LiberationSans-32" transform="translate(111.230469 0)"/>
       <use xlink:href="#LiberationSans-34" transform="translate(166.845703 0)"/>
      </g>
     </g>
    </g>
    <g id="text_7">
     <!-- Año -->
     <g style="fill: #262626" transform="translate(434.360234 342.157) scale(0.11 -0.11)">
      <defs>
       <path id="LiberationSans-41" d="M 3647 0 
L 3144 1288 
L 1138 1288 
L 631 0 
L 13 0 
L 1809 4403 
L 2488 4403 
L 4256 0 
L 3647 0 
z
M 2400 3206 
Q 2350 3331 2304 3459 
Q 2259 3588 2225 3692 
Q 2191 3797 2167 3867 
Q 2144 3938 2141 3953 
Q 2134 3938 2112 3866 
Q 2091 3794 2055 3687 
Q 2019 3581 1973 3453 
Q 1928 3325 1881 3200 
L 1319 1753 
L 2966 1753 
L 2400 3206 
z
" transform="scale(0.015625)"/>
       <path id="LiberationSans-f1" d="M 2594 0 
L 2594 2144 
Q 2594 2391 2558 2556 
Q 2522 2722 2441 2823 
Q 2360 2925 2227 2967 
Q 2094 3009 1897 3009 
Q 1697 3009 1536 2939 
Q 1375 2869 1261 2736 
Q 1147 2603 1084 2408 
Q 1022 2213 1022 1959 
L 1022 0 
L 460 0 
L 460 2659 
Q 460 2766 458 2883 
Q 457 3000 453 3104 
Q 450 3209 447 3284 
Q 444 3359 441 3381 
L 972 3381 
Q 975 3366 978 3297 
Q 982 3228 986 3139 
Q 991 3050 994 2958 
Q 997 2866 997 2803 
L 1007 2803 
Q 1088 2950 1185 3069 
Q 1282 3188 1410 3270 
Q 1538 3353 1703 3398 
Q 1869 3444 2088 3444 
Q 2369 3444 2572 3375 
Q 2775 3306 2906 3162 
Q 3038 3019 3099 2792 
Q 3160 2566 3160 2253 
L 3160 0 
L 2594 0 
z
M 2306 3753 
Q 2174 3753 2043 3811 
Q 1912 3869 1790 3939 
Q 1668 4009 1557 4067 
Q 1446 4125 1349 4125 
Q 1177 4125 1093 4028 
Q 1009 3931 981 3753 
L 696 3753 
Q 712 3894 743 4042 
Q 774 4191 844 4312 
Q 915 4434 1030 4512 
Q 1146 4591 1331 4591 
Q 1468 4591 1599 4533 
Q 1731 4475 1852 4404 
Q 1974 4334 2082 4276 
Q 2190 4219 2284 4219 
Q 2452 4219 2538 4317 
Q 2624 4416 2649 4591 
L 2937 4591 
Q 2921 4453 2890 4304 
Q 2859 4156 2791 4034 
Q 2724 3913 2608 3833 
Q 2493 3753 2306 3753 
z
" transform="scale(0.015625)"/>
       <path id="LiberationSans-6f" d="M 3291 1694 
Q 3291 806 2900 371 
Q 2509 -63 1766 -63 
Q 1413 -63 1134 43 
Q 856 150 664 369 
Q 472 588 370 917 
Q 269 1247 269 1694 
Q 269 3444 1784 3444 
Q 2178 3444 2464 3334 
Q 2750 3225 2933 3006 
Q 3116 2788 3203 2459 
Q 3291 2131 3291 1694 
z
M 2700 1694 
Q 2700 2088 2639 2344 
Q 2578 2600 2461 2753 
Q 2344 2906 2175 2967 
Q 2006 3028 1794 3028 
Q 1578 3028 1404 2964 
Q 1231 2900 1109 2745 
Q 988 2591 923 2334 
Q 859 2078 859 1694 
Q 859 1300 928 1042 
Q 997 784 1117 631 
Q 1238 478 1402 415 
Q 1566 353 1759 353 
Q 1975 353 2150 414 
Q 2325 475 2447 628 
Q 2569 781 2634 1040 
Q 2700 1300 2700 1694 
z
" transform="scale(0.015625)"/>
      </defs>
      <use xlink:href="#LiberationSans-41"/>
      <use xlink:href="#LiberationSans-f1" transform="translate(66.699219 0)"/>
      <use xlink:href="#LiberationSans-6f" transform="translate(122.314453 0)"/>
     </g>
    </g>
   </g>
   <g id="matplotlib.axis_2">
    <g id="ytick_1">
     <g id="line2d_13">
      <path d="M 39.575938 313.863563 
L 848.715937 313.863563 
" clip-path="url(#pa0bc09fc02)" style="fill: none; stroke-dasharray: 3.7,1.6; stroke-dashoffset: 0; stroke: #ffffff; stroke-opacity: 0.5"/>
     </g>
     <g id="line2d_14"/>
     <g id="text_8">
      <!-- 0 -->
      <g style="fill: #262626" transform="translate(27.015 317.487) scale(0.1 -0.1)">
       <use xlink:href="#LiberationSans-30"/>
      </g>
     </g>
    </g>
    <g id="ytick_2">
     <g id="line2d_15">
      <path d="M 39.575938 252.287035 
L 848.715937 252.287035 
" clip-path="url(#pa0bc09fc02)" style="fill: none; stroke-dasharray: 3.7,1.6; stroke-dashoffset: 0; stroke: #ffffff; stroke-opacity: 0.5"/>
     </g>
     <g id="line2d_16"/>
     <g id="text_9">
      <!-- 5 -->
      <g style="fill: #262626" transform="translate(27.015 255.910472) scale(0.1 -0.1)">
       <defs>
        <path id="LiberationSans-35" d="M 3291 1434 
Q 3291 1103 3191 828 
Q 3091 553 2894 354 
Q 2697 156 2405 46 
Q 2113 -63 1728 -63 
Q 1381 -63 1123 18 
Q 866 100 687 242 
Q 509 384 404 575 
Q 300 766 256 984 
L 825 1050 
Q 859 925 921 808 
Q 984 691 1092 598 
Q 1200 506 1358 451 
Q 1516 397 1741 397 
Q 1959 397 2137 464 
Q 2316 531 2442 662 
Q 2569 794 2637 984 
Q 2706 1175 2706 1422 
Q 2706 1625 2640 1795 
Q 2575 1966 2453 2089 
Q 2331 2213 2154 2281 
Q 1978 2350 1753 2350 
Q 1613 2350 1494 2325 
Q 1375 2300 1273 2256 
Q 1172 2213 1089 2155 
Q 1006 2097 934 2034 
L 384 2034 
L 531 4403 
L 3034 4403 
L 3034 3925 
L 1044 3925 
L 959 2528 
Q 1109 2644 1334 2726 
Q 1559 2809 1869 2809 
Q 2197 2809 2459 2709 
Q 2722 2609 2906 2426 
Q 3091 2244 3191 1991 
Q 3291 1738 3291 1434 
z
" transform="scale(0.015625)"/>
       </defs>
       <use xlink:href="#LiberationSans-35"/>
      </g>
     </g>
    </g>
    <g id="ytick_3">
     <g id="line2d_17">
      <path d="M 39.575938 190.710507 
L 848.715937 190.710507 
" clip-path="url(#pa0bc09fc02)" style="fill: none; stroke-dasharray: 3.7,1.6; stroke-dashoffset: 0; stroke: #ffffff; stroke-opacity: 0.5"/>
     </g>
     <g id="line2d_18"/>
     <g id="text_10">
      <!-- 10 -->
      <g style="fill: #262626" transform="translate(21.454063 194.333944) scale(0.1 -0.1)">
       <use xlink:href="#LiberationSans-31"/>
       <use xlink:href="#LiberationSans-30" transform="translate(55.615234 0)"/>
      </g>
     </g>
    </g>
    <g id="ytick_4">
     <g id="line2d_19">
      <path d="M 39.575938 129.133979 
L 848.715937 129.133979 
" clip-path="url(#pa0bc09fc02)" style="fill: none; stroke-dasharray: 3.7,1.6; stroke-dashoffset: 0; stroke: #ffffff; stroke-opacity: 0.5"/>
     </g>
     <g id="line2d_20"/>
     <g id="text_11">
      <!-- 15 -->
      <g style="fill: #262626" transform="translate(21.454063 132.757416) scale(0.1 -0.1)">
       <use xlink:href="#LiberationSans-31"/>
       <use xlink:href="#LiberationSans-35" transform="translate(55.615234 0)"/>
      </g>
     </g>
    </g>
    <g id="ytick_5">
     <g id="line2d_21">
      <path d="M 39.575938 67.557451 
L 848.715937 67.557451 
" clip-path="url(#pa0bc09fc02)" style="fill: none; stroke-dasharray: 3.7,1.6; stroke-dashoffset: 0; stroke: #ffffff; stroke-opacity: 0.5"/>
     </g>
     <g id="line2d_22"/>
     <g id="text_12">
      <!-- 20 -->
      <g style="fill: #262626" transform="translate(21.454063 71.180888) scale(0.1 -0.1)">
       <use xlink:href="#LiberationSans-32"/>
       <use xlink:href="#LiberationSans-30" transform="translate(55.615234 0)"/>
      </g>
     </g>
    </g>
    <g id="text_13">
     <!-- Miles de millones S/ -->
     <g style="fill: #262626" transform="translate(15.171563 224.148016) rotate(-90) scale(0.11 -0.11)">
      <defs>
       <path id="LiberationSans-4d" d="M 4269 0 
L 4269 2938 
Q 4269 3097 4272 3262 
Q 4275 3428 4281 3566 
Q 4288 3725 4297 3875 
Q 4253 3716 4206 3559 
Q 4166 3425 4117 3273 
Q 4069 3122 4022 3000 
L 2884 0 
L 2466 0 
L 1313 3000 
Q 1294 3047 1273 3109 
Q 1253 3172 1229 3242 
Q 1206 3313 1182 3386 
Q 1159 3459 1138 3531 
Q 1084 3697 1034 3875 
Q 1038 3700 1044 3528 
Q 1050 3381 1053 3220 
Q 1056 3059 1056 2938 
L 1056 0 
L 525 0 
L 525 4403 
L 1309 4403 
L 2481 1350 
Q 2503 1288 2534 1189 
Q 2566 1091 2594 987 
Q 2622 884 2645 792 
Q 2669 700 2678 650 
Q 2688 700 2713 794 
Q 2738 888 2770 991 
Q 2803 1094 2834 1191 
Q 2866 1288 2891 1350 
L 4041 4403 
L 4806 4403 
L 4806 0 
L 4269 0 
z
" transform="scale(0.015625)"/>
       <path id="LiberationSans-69" d="M 428 4100 
L 428 4638 
L 991 4638 
L 991 4100 
L 428 4100 
z
M 428 0 
L 428 3381 
L 991 3381 
L 991 0 
L 428 0 
z
" transform="scale(0.015625)"/>
       <path id="LiberationSans-6c" d="M 431 0 
L 431 4638 
L 994 4638 
L 994 0 
L 431 0 
z
" transform="scale(0.015625)"/>
       <path id="LiberationSans-65" d="M 863 1572 
Q 863 1306 917 1082 
Q 972 859 1086 698 
Q 1200 538 1378 448 
Q 1556 359 1806 359 
Q 2172 359 2392 506 
Q 2613 653 2691 878 
L 3184 738 
Q 3131 597 3036 455 
Q 2941 313 2781 198 
Q 2622 84 2383 10 
Q 2144 -63 1806 -63 
Q 1056 -63 664 384 
Q 272 831 272 1713 
Q 272 2188 390 2517 
Q 509 2847 715 3053 
Q 922 3259 1197 3351 
Q 1472 3444 1784 3444 
Q 2209 3444 2495 3306 
Q 2781 3169 2954 2926 
Q 3128 2684 3201 2356 
Q 3275 2028 3275 1647 
L 3275 1572 
L 863 1572 
z
M 2694 2003 
Q 2647 2538 2422 2783 
Q 2197 3028 1775 3028 
Q 1634 3028 1479 2983 
Q 1325 2938 1194 2822 
Q 1063 2706 972 2507 
Q 881 2309 869 2003 
L 2694 2003 
z
" transform="scale(0.015625)"/>
       <path id="LiberationSans-73" d="M 2969 934 
Q 2969 697 2876 511 
Q 2784 325 2609 198 
Q 2434 72 2179 4 
Q 1925 -63 1597 -63 
Q 1303 -63 1067 -17 
Q 831 28 653 128 
Q 475 228 354 392 
Q 234 556 178 794 
L 675 891 
Q 747 619 972 492 
Q 1197 366 1597 366 
Q 1778 366 1929 391 
Q 2081 416 2190 477 
Q 2300 538 2361 639 
Q 2422 741 2422 891 
Q 2422 1044 2350 1142 
Q 2278 1241 2150 1306 
Q 2022 1372 1839 1420 
Q 1656 1469 1438 1528 
Q 1234 1581 1034 1647 
Q 834 1713 673 1820 
Q 513 1928 413 2087 
Q 313 2247 313 2488 
Q 313 2950 642 3192 
Q 972 3434 1603 3434 
Q 2163 3434 2492 3237 
Q 2822 3041 2909 2606 
L 2403 2544 
Q 2375 2675 2300 2764 
Q 2225 2853 2119 2908 
Q 2013 2963 1880 2986 
Q 1747 3009 1603 3009 
Q 1222 3009 1040 2893 
Q 859 2778 859 2544 
Q 859 2406 926 2317 
Q 994 2228 1114 2167 
Q 1234 2106 1403 2061 
Q 1572 2016 1775 1966 
Q 1909 1931 2050 1892 
Q 2191 1853 2323 1798 
Q 2456 1744 2573 1670 
Q 2691 1597 2778 1494 
Q 2866 1391 2917 1253 
Q 2969 1116 2969 934 
z
" transform="scale(0.015625)"/>
       <path id="LiberationSans-20" transform="scale(0.015625)"/>
       <path id="LiberationSans-64" d="M 2566 544 
Q 2409 219 2151 78 
Q 1894 -63 1513 -63 
Q 872 -63 570 368 
Q 269 800 269 1675 
Q 269 3444 1513 3444 
Q 1897 3444 2153 3303 
Q 2409 3163 2566 2856 
L 2572 2856 
Q 2572 2888 2570 2955 
Q 2569 3022 2567 3095 
Q 2566 3169 2566 3234 
Q 2566 3300 2566 3328 
L 2566 4638 
L 3128 4638 
L 3128 697 
Q 3128 575 3129 462 
Q 3131 350 3134 256 
Q 3138 163 3141 95 
Q 3144 28 3147 0 
L 2609 0 
Q 2603 31 2598 89 
Q 2594 147 2589 222 
Q 2584 297 2581 380 
Q 2578 463 2578 544 
L 2566 544 
z
M 859 1694 
Q 859 1344 903 1094 
Q 947 844 1044 683 
Q 1141 522 1291 447 
Q 1441 372 1656 372 
Q 1878 372 2048 444 
Q 2219 516 2333 677 
Q 2447 838 2506 1097 
Q 2566 1356 2566 1731 
Q 2566 2091 2506 2339 
Q 2447 2588 2331 2741 
Q 2216 2894 2048 2961 
Q 1881 3028 1663 3028 
Q 1456 3028 1306 2956 
Q 1156 2884 1056 2725 
Q 956 2566 907 2311 
Q 859 2056 859 1694 
z
" transform="scale(0.015625)"/>
       <path id="LiberationSans-6d" d="M 2400 0 
L 2400 2144 
Q 2400 2391 2369 2556 
Q 2338 2722 2264 2823 
Q 2191 2925 2072 2967 
Q 1953 3009 1781 3009 
Q 1603 3009 1459 2939 
Q 1316 2869 1214 2736 
Q 1113 2603 1058 2408 
Q 1003 2213 1003 1959 
L 1003 0 
L 444 0 
L 444 2659 
Q 444 2766 442 2883 
Q 441 3000 437 3104 
Q 434 3209 431 3284 
Q 428 3359 425 3381 
L 956 3381 
Q 959 3366 962 3297 
Q 966 3228 970 3139 
Q 975 3050 978 2958 
Q 981 2866 981 2803 
L 991 2803 
Q 1066 2950 1153 3069 
Q 1241 3188 1358 3270 
Q 1475 3353 1626 3398 
Q 1778 3444 1978 3444 
Q 2363 3444 2586 3291 
Q 2809 3138 2897 2803 
L 2906 2803 
Q 2981 2950 3075 3069 
Q 3169 3188 3294 3270 
Q 3419 3353 3575 3398 
Q 3731 3444 3931 3444 
Q 4188 3444 4373 3375 
Q 4559 3306 4678 3162 
Q 4797 3019 4853 2792 
Q 4909 2566 4909 2253 
L 4909 0 
L 4353 0 
L 4353 2144 
Q 4353 2391 4322 2556 
Q 4291 2722 4217 2823 
Q 4144 2925 4025 2967 
Q 3906 3009 3734 3009 
Q 3556 3009 3412 2942 
Q 3269 2875 3167 2744 
Q 3066 2613 3011 2416 
Q 2956 2219 2956 1959 
L 2956 0 
L 2400 0 
z
" transform="scale(0.015625)"/>
       <path id="LiberationSans-6e" d="M 2578 0 
L 2578 2144 
Q 2578 2391 2542 2556 
Q 2506 2722 2425 2823 
Q 2344 2925 2211 2967 
Q 2078 3009 1881 3009 
Q 1681 3009 1520 2939 
Q 1359 2869 1245 2736 
Q 1131 2603 1068 2408 
Q 1006 2213 1006 1959 
L 1006 0 
L 444 0 
L 444 2659 
Q 444 2766 442 2883 
Q 441 3000 437 3104 
Q 434 3209 431 3284 
Q 428 3359 425 3381 
L 956 3381 
Q 959 3366 962 3297 
Q 966 3228 970 3139 
Q 975 3050 978 2958 
Q 981 2866 981 2803 
L 991 2803 
Q 1072 2950 1169 3069 
Q 1266 3188 1394 3270 
Q 1522 3353 1687 3398 
Q 1853 3444 2072 3444 
Q 2353 3444 2556 3375 
Q 2759 3306 2890 3162 
Q 3022 3019 3083 2792 
Q 3144 2566 3144 2253 
L 3144 0 
L 2578 0 
z
" transform="scale(0.015625)"/>
       <path id="LiberationSans-53" d="M 3975 1216 
Q 3975 938 3867 703 
Q 3759 469 3534 298 
Q 3309 128 2967 32 
Q 2625 -63 2156 -63 
Q 1334 -63 875 225 
Q 416 513 291 1056 
L 869 1172 
Q 913 1000 1003 859 
Q 1094 719 1248 617 
Q 1403 516 1631 459 
Q 1859 403 2178 403 
Q 2444 403 2666 448 
Q 2888 494 3047 587 
Q 3206 681 3295 829 
Q 3384 978 3384 1184 
Q 3384 1400 3286 1534 
Q 3188 1669 3009 1756 
Q 2831 1844 2584 1903 
Q 2338 1963 2038 2031 
Q 1853 2072 1667 2120 
Q 1481 2169 1311 2236 
Q 1141 2303 991 2393 
Q 841 2484 731 2611 
Q 622 2738 559 2905 
Q 497 3072 497 3291 
Q 497 3603 623 3826 
Q 750 4050 975 4194 
Q 1200 4338 1506 4403 
Q 1813 4469 2169 4469 
Q 2578 4469 2868 4405 
Q 3159 4341 3359 4212 
Q 3559 4084 3679 3895 
Q 3800 3706 3872 3456 
L 3284 3353 
Q 3241 3513 3158 3638 
Q 3075 3763 2940 3847 
Q 2806 3931 2614 3975 
Q 2422 4019 2163 4019 
Q 1856 4019 1648 3964 
Q 1441 3909 1314 3815 
Q 1188 3722 1133 3595 
Q 1078 3469 1078 3322 
Q 1078 3125 1176 2998 
Q 1275 2872 1444 2787 
Q 1613 2703 1834 2647 
Q 2056 2591 2306 2534 
Q 2509 2488 2711 2439 
Q 2913 2391 3097 2323 
Q 3281 2256 3442 2165 
Q 3603 2075 3722 1944 
Q 3841 1813 3908 1634 
Q 3975 1456 3975 1216 
z
" transform="scale(0.015625)"/>
       <path id="LiberationSans-2f" d="M 0 -63 
L 1284 4638 
L 1778 4638 
L 506 -63 
L 0 -63 
z
" transform="scale(0.015625)"/>
      </defs>
      <use xlink:href="#LiberationSans-4d"/>
      <use xlink:href="#LiberationSans-69" transform="translate(83.300781 0)"/>
      <use xlink:href="#LiberationSans-6c" transform="translate(105.517578 0)"/>
      <use xlink:href="#LiberationSans-65" transform="translate(127.734375 0)"/>
      <use xlink:href="#LiberationSans-73" transform="translate(183.349609 0)"/>
      <use xlink:href="#LiberationSans-20" transform="translate(233.349609 0)"/>
      <use xlink:href="#LiberationSans-64" transform="translate(261.132812 0)"/>
      <use xlink:href="#LiberationSans-65" transform="translate(316.748047 0)"/>
      <use xlink:href="#LiberationSans-20" transform="translate(372.363281 0)"/>
      <use xlink:href="#LiberationSans-6d" transform="translate(400.146484 0)"/>
      <use xlink:href="#LiberationSans-69" transform="translate(483.447266 0)"/>
      <use xlink:href="#LiberationSans-6c" transform="translate(505.664062 0)"/>
      <use xlink:href="#LiberationSans-6c" transform="translate(527.880859 0)"/>
      <use xlink:href="#LiberationSans-6f" transform="translate(550.097656 0)"/>
      <use xlink:href="#LiberationSans-6e" transform="translate(605.712891 0)"/>
      <use xlink:href="#LiberationSans-65" transform="translate(661.328125 0)"/>
      <use xlink:href="#LiberationSans-73" transform="translate(716.943359 0)"/>
      <use xlink:href="#LiberationSans-20" transform="translate(766.943359 0)"/>
      <use xlink:href="#LiberationSans-53" transform="translate(794.726562 0)"/>
      <use xlink:href="#LiberationSans-2f" transform="translate(861.425781 0)"/>
     </g>
    </g>
   </g>
   <g id="patch_3">
    <path d="M 76.355028 313.863563 
L 177.81459 313.863563 
L 177.81459 283.210853 
L 76.355028 283.210853 
z
" clip-path="url(#pa0bc09fc02)" style="fill: #1f77b4"/>
   </g>
   <g id="patch_4">
    <path d="M 203.17948 313.863563 
L 304.639041 313.863563 
L 304.639041 283.451716 
L 203.17948 283.451716 
z
" clip-path="url(#pa0bc09fc02)" style="fill: #1f77b4"/>
   </g>
   <g id="patch_5">
    <path d="M 330.003931 313.863563 
L 431.463492 313.863563 
L 431.463492 280.051891 
L 330.003931 280.051891 
z
" clip-path="url(#pa0bc09fc02)" style="fill: #1f77b4"/>
   </g>
   <g id="patch_6">
    <path d="M 456.828383 313.863563 
L 558.287944 313.863563 
L 558.287944 278.472157 
L 456.828383 278.472157 
z
" clip-path="url(#pa0bc09fc02)" style="fill: #1f77b4"/>
   </g>
   <g id="patch_7">
    <path d="M 583.652834 313.863563 
L 685.112395 313.863563 
L 685.112395 275.20923 
L 583.652834 275.20923 
z
" clip-path="url(#pa0bc09fc02)" style="fill: #1f77b4"/>
   </g>
   <g id="patch_8">
    <path d="M 710.477285 313.863563 
L 811.936847 313.863563 
L 811.936847 277.250861 
L 710.477285 277.250861 
z
" clip-path="url(#pa0bc09fc02)" style="fill: #1f77b4"/>
   </g>
   <g id="patch_9">
    <path d="M 76.355028 283.210853 
L 177.81459 283.210853 
L 177.81459 281.314936 
L 76.355028 281.314936 
z
" clip-path="url(#pa0bc09fc02)" style="fill: #aec7e8"/>
   </g>
   <g id="patch_10">
    <path d="M 203.17948 283.451716 
L 304.639041 283.451716 
L 304.639041 282.133535 
L 203.17948 282.133535 
z
" clip-path="url(#pa0bc09fc02)" style="fill: #aec7e8"/>
   </g>
   <g id="patch_11">
    <path d="M 330.003931 280.051891 
L 431.463492 280.051891 
L 431.463492 278.165371 
L 330.003931 278.165371 
z
" clip-path="url(#pa0bc09fc02)" style="fill: #aec7e8"/>
   </g>
   <g id="patch_12">
    <path d="M 456.828383 278.472157 
L 558.287944 278.472157 
L 558.287944 276.588642 
L 456.828383 276.588642 
z
" clip-path="url(#pa0bc09fc02)" style="fill: #aec7e8"/>
   </g>
   <g id="patch_13">
    <path d="M 583.652834 275.20923 
L 685.112395 275.20923 
L 685.112395 273.971628 
L 583.652834 273.971628 
z
" clip-path="url(#pa0bc09fc02)" style="fill: #aec7e8"/>
   </g>
   <g id="patch_14">
    <path d="M 710.477285 277.250861 
L 811.936847 277.250861 
L 811.936847 275.527531 
L 710.477285 275.527531 
z
" clip-path="url(#pa0bc09fc02)" style="fill: #aec7e8"/>
   </g>
   <g id="patch_15">
    <path d="M 76.355028 281.314936 
L 177.81459 281.314936 
L 177.81459 247.394398 
L 76.355028 247.394398 
z
" clip-path="url(#pa0bc09fc02)" style="fill: #ff7f0e"/>
   </g>
   <g id="patch_16">
    <path d="M 203.17948 282.133535 
L 304.639041 282.133535 
L 304.639041 253.486176 
L 203.17948 253.486176 
z
" clip-path="url(#pa0bc09fc02)" style="fill: #ff7f0e"/>
   </g>
   <g id="patch_17">
    <path d="M 330.003931 278.165371 
L 431.463492 278.165371 
L 431.463492 231.541287 
L 330.003931 231.541287 
z
" clip-path="url(#pa0bc09fc02)" style="fill: #ff7f0e"/>
   </g>
   <g id="patch_18">
    <path d="M 456.828383 276.588642 
L 558.287944 276.588642 
L 558.287944 225.393178 
L 456.828383 225.393178 
z
" clip-path="url(#pa0bc09fc02)" style="fill: #ff7f0e"/>
   </g>
   <g id="patch_19">
    <path d="M 583.652834 273.971628 
L 685.112395 273.971628 
L 685.112395 219.560883 
L 583.652834 219.560883 
z
" clip-path="url(#pa0bc09fc02)" style="fill: #ff7f0e"/>
   </g>
   <g id="patch_20">
    <path d="M 710.477285 275.527531 
L 811.936847 275.527531 
L 811.936847 220.369506 
L 710.477285 220.369506 
z
" clip-path="url(#pa0bc09fc02)" style="fill: #ff7f0e"/>
   </g>
   <g id="patch_21">
    <path d="M 76.355028 247.394398 
L 177.81459 247.394398 
L 177.81459 206.902744 
L 76.355028 206.902744 
z
" clip-path="url(#pa0bc09fc02)" style="fill: #ffbb78"/>
   </g>
   <g id="patch_22">
    <path d="M 203.17948 253.486176 
L 304.639041 253.486176 
L 304.639041 216.998056 
L 203.17948 216.998056 
z
" clip-path="url(#pa0bc09fc02)" style="fill: #ffbb78"/>
   </g>
   <g id="patch_23">
    <path d="M 330.003931 231.541287 
L 431.463492 231.541287 
L 431.463492 185.016636 
L 330.003931 185.016636 
z
" clip-path="url(#pa0bc09fc02)" style="fill: #ffbb78"/>
   </g>
   <g id="patch_24">
    <path d="M 456.828383 225.393178 
L 558.287944 225.393178 
L 558.287944 175.036595 
L 456.828383 175.036595 
z
" clip-path="url(#pa0bc09fc02)" style="fill: #ffbb78"/>
   </g>
   <g id="patch_25">
    <path d="M 583.652834 219.560883 
L 685.112395 219.560883 
L 685.112395 173.603377 
L 583.652834 173.603377 
z
" clip-path="url(#pa0bc09fc02)" style="fill: #ffbb78"/>
   </g>
   <g id="patch_26">
    <path d="M 710.477285 220.369506 
L 811.936847 220.369506 
L 811.936847 172.472352 
L 710.477285 172.472352 
z
" clip-path="url(#pa0bc09fc02)" style="fill: #ffbb78"/>
   </g>
   <g id="patch_27">
    <path d="M 76.355028 206.902744 
L 177.81459 206.902744 
L 177.81459 203.291552 
L 76.355028 203.291552 
z
" clip-path="url(#pa0bc09fc02)" style="fill: #2ca02c"/>
   </g>
   <g id="patch_28">
    <path d="M 203.17948 216.998056 
L 304.639041 216.998056 
L 304.639041 213.591839 
L 203.17948 213.591839 
z
" clip-path="url(#pa0bc09fc02)" style="fill: #2ca02c"/>
   </g>
   <g id="patch_29">
    <path d="M 330.003931 185.016636 
L 431.463492 185.016636 
L 431.463492 181.261712 
L 330.003931 181.261712 
z
" clip-path="url(#pa0bc09fc02)" style="fill: #2ca02c"/>
   </g>
   <g id="patch_30">
    <path d="M 456.828383 175.036595 
L 558.287944 175.036595 
L 558.287944 170.954971 
L 456.828383 170.954971 
z
" clip-path="url(#pa0bc09fc02)" style="fill: #2ca02c"/>
   </g>
   <g id="patch_31">
    <path d="M 583.652834 173.603377 
L 685.112395 173.603377 
L 685.112395 168.932945 
L 583.652834 168.932945 
z
" clip-path="url(#pa0bc09fc02)" style="fill: #2ca02c"/>
   </g>
   <g id="patch_32">
    <path d="M 710.477285 172.472352 
L 811.936847 172.472352 
L 811.936847 166.246214 
L 710.477285 166.246214 
z
" clip-path="url(#pa0bc09fc02)" style="fill: #2ca02c"/>
   </g>
   <g id="patch_33">
    <path d="M 76.355028 203.291552 
L 177.81459 203.291552 
L 177.81459 176.673447 
L 76.355028 176.673447 
z
" clip-path="url(#pa0bc09fc02)" style="fill: #98df8a"/>
   </g>
   <g id="patch_34">
    <path d="M 203.17948 213.591839 
L 304.639041 213.591839 
L 304.639041 193.976366 
L 203.17948 193.976366 
z
" clip-path="url(#pa0bc09fc02)" style="fill: #98df8a"/>
   </g>
   <g id="patch_35">
    <path d="M 330.003931 181.261712 
L 431.463492 181.261712 
L 431.463492 153.579725 
L 330.003931 153.579725 
z
" clip-path="url(#pa0bc09fc02)" style="fill: #98df8a"/>
   </g>
   <g id="patch_36">
    <path d="M 456.828383 170.954971 
L 558.287944 170.954971 
L 558.287944 140.940613 
L 456.828383 140.940613 
z
" clip-path="url(#pa0bc09fc02)" style="fill: #98df8a"/>
   </g>
   <g id="patch_37">
    <path d="M 583.652834 168.932945 
L 685.112395 168.932945 
L 685.112395 143.630288 
L 583.652834 143.630288 
z
" clip-path="url(#pa0bc09fc02)" style="fill: #98df8a"/>
   </g>
   <g id="patch_38">
    <path d="M 710.477285 166.246214 
L 811.936847 166.246214 
L 811.936847 137.499298 
L 710.477285 137.499298 
z
" clip-path="url(#pa0bc09fc02)" style="fill: #98df8a"/>
   </g>
   <g id="patch_39">
    <path d="M 76.355028 176.673447 
L 177.81459 176.673447 
L 177.81459 157.740722 
L 76.355028 157.740722 
z
" clip-path="url(#pa0bc09fc02)" style="fill: #d62728"/>
   </g>
   <g id="patch_40">
    <path d="M 203.17948 193.976366 
L 304.639041 193.976366 
L 304.639041 177.293523 
L 203.17948 177.293523 
z
" clip-path="url(#pa0bc09fc02)" style="fill: #d62728"/>
   </g>
   <g id="patch_41">
    <path d="M 330.003931 153.579725 
L 431.463492 153.579725 
L 431.463492 133.416934 
L 330.003931 133.416934 
z
" clip-path="url(#pa0bc09fc02)" style="fill: #d62728"/>
   </g>
   <g id="patch_42">
    <path d="M 456.828383 140.940613 
L 558.287944 140.940613 
L 558.287944 120.10165 
L 456.828383 120.10165 
z
" clip-path="url(#pa0bc09fc02)" style="fill: #d62728"/>
   </g>
   <g id="patch_43">
    <path d="M 583.652834 143.630288 
L 685.112395 143.630288 
L 685.112395 122.40742 
L 583.652834 122.40742 
z
" clip-path="url(#pa0bc09fc02)" style="fill: #d62728"/>
   </g>
   <g id="patch_44">
    <path d="M 710.477285 137.499298 
L 811.936847 137.499298 
L 811.936847 115.838473 
L 710.477285 115.838473 
z
" clip-path="url(#pa0bc09fc02)" style="fill: #d62728"/>
   </g>
   <g id="patch_45">
    <path d="M 76.355028 157.740722 
L 177.81459 157.740722 
L 177.81459 144.173208 
L 76.355028 144.173208 
z
" clip-path="url(#pa0bc09fc02)" style="fill: #ff9896"/>
   </g>
   <g id="patch_46">
    <path d="M 203.17948 177.293523 
L 304.639041 177.293523 
L 304.639041 166.582471 
L 203.17948 166.582471 
z
" clip-path="url(#pa0bc09fc02)" style="fill: #ff9896"/>
   </g>
   <g id="patch_47">
    <path d="M 330.003931 133.416934 
L 431.463492 133.416934 
L 431.463492 121.022921 
L 330.003931 121.022921 
z
" clip-path="url(#pa0bc09fc02)" style="fill: #ff9896"/>
   </g>
   <g id="patch_48">
    <path d="M 456.828383 120.10165 
L 558.287944 120.10165 
L 558.287944 106.729581 
L 456.828383 106.729581 
z
" clip-path="url(#pa0bc09fc02)" style="fill: #ff9896"/>
   </g>
   <g id="patch_49">
    <path d="M 583.652834 122.40742 
L 685.112395 122.40742 
L 685.112395 108.583835 
L 583.652834 108.583835 
z
" clip-path="url(#pa0bc09fc02)" style="fill: #ff9896"/>
   </g>
   <g id="patch_50">
    <path d="M 710.477285 115.838473 
L 811.936847 115.838473 
L 811.936847 101.332583 
L 710.477285 101.332583 
z
" clip-path="url(#pa0bc09fc02)" style="fill: #ff9896"/>
   </g>
   <g id="patch_51">
    <path d="M 76.355028 144.173208 
L 177.81459 144.173208 
L 177.81459 140.906044 
L 76.355028 140.906044 
z
" clip-path="url(#pa0bc09fc02)" style="fill: #9467bd"/>
   </g>
   <g id="patch_52">
    <path d="M 203.17948 166.582471 
L 304.639041 166.582471 
L 304.639041 164.978501 
L 203.17948 164.978501 
z
" clip-path="url(#pa0bc09fc02)" style="fill: #9467bd"/>
   </g>
   <g id="patch_53">
    <path d="M 330.003931 121.022921 
L 431.463492 121.022921 
L 431.463492 118.817866 
L 330.003931 118.817866 
z
" clip-path="url(#pa0bc09fc02)" style="fill: #9467bd"/>
   </g>
   <g id="patch_54">
    <path d="M 456.828383 106.729581 
L 558.287944 106.729581 
L 558.287944 103.991371 
L 456.828383 103.991371 
z
" clip-path="url(#pa0bc09fc02)" style="fill: #9467bd"/>
   </g>
   <g id="patch_55">
    <path d="M 583.652834 108.583835 
L 685.112395 108.583835 
L 685.112395 105.777583 
L 583.652834 105.777583 
z
" clip-path="url(#pa0bc09fc02)" style="fill: #9467bd"/>
   </g>
   <g id="patch_56">
    <path d="M 710.477285 101.332583 
L 811.936847 101.332583 
L 811.936847 98.452993 
L 710.477285 98.452993 
z
" clip-path="url(#pa0bc09fc02)" style="fill: #9467bd"/>
   </g>
   <g id="patch_57">
    <path d="M 76.355028 140.906044 
L 177.81459 140.906044 
L 177.81459 133.922921 
L 76.355028 133.922921 
z
" clip-path="url(#pa0bc09fc02)" style="fill: #c5b0d5"/>
   </g>
   <g id="patch_58">
    <path d="M 203.17948 164.978501 
L 304.639041 164.978501 
L 304.639041 157.508209 
L 203.17948 157.508209 
z
" clip-path="url(#pa0bc09fc02)" style="fill: #c5b0d5"/>
   </g>
   <g id="patch_59">
    <path d="M 330.003931 118.817866 
L 431.463492 118.817866 
L 431.463492 110.620257 
L 330.003931 110.620257 
z
" clip-path="url(#pa0bc09fc02)" style="fill: #c5b0d5"/>
   </g>
   <g id="patch_60">
    <path d="M 456.828383 103.991371 
L 558.287944 103.991371 
L 558.287944 95.442135 
L 456.828383 95.442135 
z
" clip-path="url(#pa0bc09fc02)" style="fill: #c5b0d5"/>
   </g>
   <g id="patch_61">
    <path d="M 583.652834 105.777583 
L 685.112395 105.777583 
L 685.112395 97.494986 
L 583.652834 97.494986 
z
" clip-path="url(#pa0bc09fc02)" style="fill: #c5b0d5"/>
   </g>
   <g id="patch_62">
    <path d="M 710.477285 98.452993 
L 811.936847 98.452993 
L 811.936847 90.101135 
L 710.477285 90.101135 
z
" clip-path="url(#pa0bc09fc02)" style="fill: #c5b0d5"/>
   </g>
   <g id="patch_63">
    <path d="M 76.355028 133.922921 
L 177.81459 133.922921 
L 177.81459 127.056781 
L 76.355028 127.056781 
z
" clip-path="url(#pa0bc09fc02)" style="fill: #8c564b"/>
   </g>
   <g id="patch_64">
    <path d="M 203.17948 157.508209 
L 304.639041 157.508209 
L 304.639041 150.420122 
L 203.17948 150.420122 
z
" clip-path="url(#pa0bc09fc02)" style="fill: #8c564b"/>
   </g>
   <g id="patch_65">
    <path d="M 330.003931 110.620257 
L 431.463492 110.620257 
L 431.463492 103.318426 
L 330.003931 103.318426 
z
" clip-path="url(#pa0bc09fc02)" style="fill: #8c564b"/>
   </g>
   <g id="patch_66">
    <path d="M 456.828383 95.442135 
L 558.287944 95.442135 
L 558.287944 87.945759 
L 456.828383 87.945759 
z
" clip-path="url(#pa0bc09fc02)" style="fill: #8c564b"/>
   </g>
   <g id="patch_67">
    <path d="M 583.652834 97.494986 
L 685.112395 97.494986 
L 685.112395 89.644976 
L 583.652834 89.644976 
z
" clip-path="url(#pa0bc09fc02)" style="fill: #8c564b"/>
   </g>
   <g id="patch_68">
    <path d="M 710.477285 90.101135 
L 811.936847 90.101135 
L 811.936847 82.0036 
L 710.477285 82.0036 
z
" clip-path="url(#pa0bc09fc02)" style="fill: #8c564b"/>
   </g>
   <g id="patch_69">
    <path d="M 76.355028 127.056781 
L 177.81459 127.056781 
L 177.81459 96.420167 
L 76.355028 96.420167 
z
" clip-path="url(#pa0bc09fc02)" style="fill: #c49c94"/>
   </g>
   <g id="patch_70">
    <path d="M 203.17948 150.420122 
L 304.639041 150.420122 
L 304.639041 121.591199 
L 203.17948 121.591199 
z
" clip-path="url(#pa0bc09fc02)" style="fill: #c49c94"/>
   </g>
   <g id="patch_71">
    <path d="M 330.003931 103.318426 
L 431.463492 103.318426 
L 431.463492 72.306602 
L 330.003931 72.306602 
z
" clip-path="url(#pa0bc09fc02)" style="fill: #c49c94"/>
   </g>
   <g id="patch_72">
    <path d="M 456.828383 87.945759 
L 558.287944 87.945759 
L 558.287944 56.755006 
L 456.828383 56.755006 
z
" clip-path="url(#pa0bc09fc02)" style="fill: #c49c94"/>
   </g>
   <g id="patch_73">
    <path d="M 583.652834 89.644976 
L 685.112395 89.644976 
L 685.112395 58.121907 
L 583.652834 58.121907 
z
" clip-path="url(#pa0bc09fc02)" style="fill: #c49c94"/>
   </g>
   <g id="patch_74">
    <path d="M 710.477285 82.0036 
L 811.936847 82.0036 
L 811.936847 49.825467 
L 710.477285 49.825467 
z
" clip-path="url(#pa0bc09fc02)" style="fill: #c49c94"/>
   </g>
   <g id="patch_75">
    <path d="M 39.575938 313.863563 
L 39.575938 36.623562 
" style="fill: none"/>
   </g>
   <g id="patch_76">
    <path d="M 848.715937 313.863563 
L 848.715937 36.623562 
" style="fill: none"/>
   </g>
   <g id="patch_77">
    <path d="M 39.575938 313.863563 
L 848.715937 313.863563 
" style="fill: none"/>
   </g>
   <g id="patch_78">
    <path d="M 39.575938 36.623562 
L 848.715937 36.623562 
" style="fill: none"/>
   </g>
   <g id="text_14">
    <!-- Estructura del VAB Sectorial - Ica 2019-2024 -->
    <g style="fill: #262626" transform="translate(315.286484 16.620937) scale(0.13 -0.13)">
     <defs>
      <path id="LiberationSans-45" d="M 525 0 
L 525 4403 
L 3866 4403 
L 3866 3916 
L 1122 3916 
L 1122 2503 
L 3678 2503 
L 3678 2022 
L 1122 2022 
L 1122 488 
L 3994 488 
L 3994 0 
L 525 0 
z
" transform="scale(0.015625)"/>
      <path id="LiberationSans-74" d="M 1731 25 
Q 1603 -9 1470 -29 
Q 1338 -50 1163 -50 
Q 488 -50 488 716 
L 488 2972 
L 97 2972 
L 97 3381 
L 509 3381 
L 675 4138 
L 1050 4138 
L 1050 3381 
L 1675 3381 
L 1675 2972 
L 1050 2972 
L 1050 838 
Q 1050 594 1129 495 
Q 1209 397 1406 397 
Q 1488 397 1564 409 
Q 1641 422 1731 441 
L 1731 25 
z
" transform="scale(0.015625)"/>
      <path id="LiberationSans-72" d="M 444 0 
L 444 2594 
Q 444 2700 442 2811 
Q 441 2922 437 3025 
Q 434 3128 431 3218 
Q 428 3309 425 3381 
L 956 3381 
Q 959 3309 964 3217 
Q 969 3125 973 3028 
Q 978 2931 979 2842 
Q 981 2753 981 2691 
L 994 2691 
Q 1053 2884 1120 3026 
Q 1188 3169 1278 3261 
Q 1369 3353 1494 3398 
Q 1619 3444 1797 3444 
Q 1866 3444 1928 3433 
Q 1991 3422 2025 3413 
L 2025 2897 
Q 1969 2913 1894 2920 
Q 1819 2928 1725 2928 
Q 1531 2928 1395 2840 
Q 1259 2753 1173 2598 
Q 1088 2444 1047 2230 
Q 1006 2016 1006 1763 
L 1006 0 
L 444 0 
z
" transform="scale(0.015625)"/>
      <path id="LiberationSans-75" d="M 981 3381 
L 981 1238 
Q 981 991 1017 825 
Q 1053 659 1134 557 
Q 1216 456 1348 414 
Q 1481 372 1678 372 
Q 1878 372 2039 442 
Q 2200 513 2314 645 
Q 2428 778 2490 973 
Q 2553 1169 2553 1422 
L 2553 3381 
L 3116 3381 
L 3116 722 
Q 3116 616 3117 498 
Q 3119 381 3122 276 
Q 3125 172 3128 97 
Q 3131 22 3134 0 
L 2603 0 
Q 2600 16 2597 84 
Q 2594 153 2589 242 
Q 2584 331 2581 423 
Q 2578 516 2578 578 
L 2569 578 
Q 2488 431 2391 312 
Q 2294 194 2166 111 
Q 2038 28 1872 -17 
Q 1706 -63 1488 -63 
Q 1206 -63 1003 6 
Q 800 75 669 219 
Q 538 363 477 588 
Q 416 813 416 1128 
L 416 3381 
L 981 3381 
z
" transform="scale(0.015625)"/>
      <path id="LiberationSans-63" d="M 859 1706 
Q 859 1416 901 1172 
Q 944 928 1044 751 
Q 1144 575 1308 478 
Q 1472 381 1713 381 
Q 2013 381 2214 543 
Q 2416 706 2463 1044 
L 3031 1006 
Q 3003 797 2909 603 
Q 2816 409 2655 262 
Q 2494 116 2262 26 
Q 2031 -63 1728 -63 
Q 1331 -63 1053 71 
Q 775 206 601 442 
Q 428 678 350 998 
Q 272 1319 272 1694 
Q 272 2034 328 2295 
Q 384 2556 486 2751 
Q 588 2947 725 3080 
Q 863 3213 1023 3292 
Q 1184 3372 1362 3408 
Q 1541 3444 1722 3444 
Q 2006 3444 2228 3366 
Q 2450 3288 2611 3152 
Q 2772 3016 2872 2831 
Q 2972 2647 3013 2434 
L 2434 2391 
Q 2391 2672 2212 2837 
Q 2034 3003 1706 3003 
Q 1466 3003 1305 2923 
Q 1144 2844 1044 2683 
Q 944 2522 901 2278 
Q 859 2034 859 1706 
z
" transform="scale(0.015625)"/>
      <path id="LiberationSans-61" d="M 1294 -63 
Q 784 -63 528 206 
Q 272 475 272 944 
Q 272 1278 398 1492 
Q 525 1706 729 1828 
Q 934 1950 1196 1997 
Q 1459 2044 1731 2050 
L 2491 2063 
L 2491 2247 
Q 2491 2456 2447 2603 
Q 2403 2750 2312 2840 
Q 2222 2931 2086 2973 
Q 1950 3016 1766 3016 
Q 1603 3016 1472 2992 
Q 1341 2969 1244 2908 
Q 1147 2847 1087 2742 
Q 1028 2638 1009 2478 
L 422 2531 
Q 453 2731 540 2898 
Q 628 3066 789 3187 
Q 950 3309 1192 3376 
Q 1434 3444 1778 3444 
Q 2416 3444 2737 3151 
Q 3059 2859 3059 2306 
L 3059 850 
Q 3059 600 3125 473 
Q 3191 347 3375 347 
Q 3422 347 3469 353 
Q 3516 359 3559 369 
L 3559 19 
Q 3453 -6 3348 -18 
Q 3244 -31 3125 -31 
Q 2966 -31 2852 11 
Q 2738 53 2666 139 
Q 2594 225 2556 351 
Q 2519 478 2509 647 
L 2491 647 
Q 2400 484 2292 353 
Q 2184 222 2040 130 
Q 1897 38 1714 -12 
Q 1531 -63 1294 -63 
z
M 1422 359 
Q 1691 359 1892 457 
Q 2094 556 2226 709 
Q 2359 863 2425 1044 
Q 2491 1225 2491 1391 
L 2491 1669 
L 1875 1656 
Q 1669 1653 1483 1626 
Q 1297 1600 1156 1522 
Q 1016 1444 933 1303 
Q 850 1163 850 934 
Q 850 659 998 509 
Q 1147 359 1422 359 
z
" transform="scale(0.015625)"/>
      <path id="LiberationSans-56" d="M 2444 0 
L 1825 0 
L 28 4403 
L 656 4403 
L 1875 1303 
Q 1922 1163 1969 1023 
Q 2016 884 2053 775 
Q 2097 647 2138 525 
Q 2175 641 2219 769 
Q 2256 878 2301 1015 
Q 2347 1153 2400 1303 
L 3613 4403 
L 4241 4403 
L 2444 0 
z
" transform="scale(0.015625)"/>
      <path id="LiberationSans-42" d="M 3931 1241 
Q 3931 906 3800 670 
Q 3669 434 3447 286 
Q 3225 138 2931 69 
Q 2638 0 2313 0 
L 525 0 
L 525 4403 
L 2125 4403 
Q 2491 4403 2778 4342 
Q 3066 4281 3266 4150 
Q 3466 4019 3570 3817 
Q 3675 3616 3675 3334 
Q 3675 3150 3623 2987 
Q 3572 2825 3467 2692 
Q 3363 2559 3205 2464 
Q 3047 2369 2838 2322 
Q 3103 2291 3308 2200 
Q 3513 2109 3650 1968 
Q 3788 1828 3859 1642 
Q 3931 1456 3931 1241 
z
M 3075 3263 
Q 3075 3619 2831 3772 
Q 2588 3925 2125 3925 
L 1122 3925 
L 1122 2531 
L 2125 2531 
Q 2388 2531 2569 2582 
Q 2750 2634 2862 2729 
Q 2975 2825 3025 2959 
Q 3075 3094 3075 3263 
z
M 3328 1288 
Q 3328 1497 3251 1644 
Q 3175 1791 3031 1884 
Q 2888 1978 2686 2022 
Q 2484 2066 2234 2066 
L 1122 2066 
L 1122 478 
L 2281 478 
Q 2509 478 2701 515 
Q 2894 553 3033 647 
Q 3172 741 3250 897 
Q 3328 1053 3328 1288 
z
" transform="scale(0.015625)"/>
      <path id="LiberationSans-2d" d="M 284 1450 
L 284 1950 
L 1847 1950 
L 1847 1450 
L 284 1450 
z
" transform="scale(0.015625)"/>
      <path id="LiberationSans-49" d="M 591 0 
L 591 4403 
L 1188 4403 
L 1188 0 
L 591 0 
z
" transform="scale(0.015625)"/>
     </defs>
     <use xlink:href="#LiberationSans-45"/>
     <use xlink:href="#LiberationSans-73" transform="translate(66.699219 0)"/>
     <use xlink:href="#LiberationSans-74" transform="translate(116.699219 0)"/>
     <use xlink:href="#LiberationSans-72" transform="translate(144.482422 0)"/>
     <use xlink:href="#LiberationSans-75" transform="translate(177.783203 0)"/>
     <use xlink:href="#LiberationSans-63" transform="translate(233.398438 0)"/>
     <use xlink:href="#LiberationSans-74" transform="translate(283.398438 0)"/>
     <use xlink:href="#LiberationSans-75" transform="translate(311.181641 0)"/>
     <use xlink:href="#LiberationSans-72" transform="translate(366.796875 0)"/>
     <use xlink:href="#LiberationSans-61" transform="translate(400.097656 0)"/>
     <use xlink:href="#LiberationSans-20" transform="translate(455.712891 0)"/>
     <use xlink:href="#LiberationSans-64" transform="translate(483.496094 0)"/>
     <use xlink:href="#LiberationSans-65" transform="translate(539.111328 0)"/>
     <use xlink:href="#LiberationSans-6c" transform="translate(594.726562 0)"/>
     <use xlink:href="#LiberationSans-20" transform="translate(616.943359 0)"/>
     <use xlink:href="#LiberationSans-56" transform="translate(644.726562 0)"/>
     <use xlink:href="#LiberationSans-41" transform="translate(704.050781 0)"/>
     <use xlink:href="#LiberationSans-42" transform="translate(770.75 0)"/>
     <use xlink:href="#LiberationSans-20" transform="translate(837.449219 0)"/>
     <use xlink:href="#LiberationSans-53" transform="translate(865.232422 0)"/>
     <use xlink:href="#LiberationSans-65" transform="translate(931.931641 0)"/>
     <use xlink:href="#LiberationSans-63" transform="translate(987.546875 0)"/>
     <use xlink:href="#LiberationSans-74" transform="translate(1037.546875 0)"/>
     <use xlink:href="#LiberationSans-6f" transform="translate(1065.330078 0)"/>
     <use xlink:href="#LiberationSans-72" transform="translate(1120.945312 0)"/>
     <use xlink:href="#LiberationSans-69" transform="translate(1154.246094 0)"/>
     <use xlink:href="#LiberationSans-61" transform="translate(1176.462891 0)"/>
     <use xlink:href="#LiberationSans-6c" transform="translate(1232.078125 0)"/>
     <use xlink:href="#LiberationSans-20" transform="translate(1254.294922 0)"/>
     <use xlink:href="#LiberationSans-2d" transform="translate(1282.078125 0)"/>
     <use xlink:href="#LiberationSans-20" transform="translate(1315.378906 0)"/>
     <use xlink:href="#LiberationSans-49" transform="translate(1343.162109 0)"/>
     <use xlink:href="#LiberationSans-63" transform="translate(1370.945312 0)"/>
     <use xlink:href="#LiberationSans-61" transform="translate(1420.945312 0)"/>
     <use xlink:href="#LiberationSans-20" transform="translate(1476.560547 0)"/>
     <use xlink:href="#LiberationSans-32" transform="translate(1504.34375 0)"/>
     <use xlink:href="#LiberationSans-30" transform="translate(1559.958984 0)"/>
     <use xlink:href="#LiberationSans-31" transform="translate(1615.574219 0)"/>
     <use xlink:href="#LiberationSans-39" transform="translate(1671.189453 0)"/>
     <use xlink:href="#LiberationSans-2d" transform="translate(1726.804688 0)"/>
     <use xlink:href="#LiberationSans-32" transform="translate(1760.105469 0)"/>
     <use xlink:href="#LiberationSans-30" transform="translate(1815.720703 0)"/>
     <use xlink:href="#LiberationSans-32" transform="translate(1871.335938 0)"/>
     <use xlink:href="#LiberationSans-34" transform="translate(1926.951172 0)"/>
    </g>
    <!-- (Miles de millones S/ constantes 2007) -->
    <g style="fill: #262626" transform="translate(332.516562 30.623562) scale(0.13 -0.13)">
     <defs>
      <path id="LiberationSans-28" d="M 397 1663 
Q 397 2097 462 2494 
Q 528 2891 668 3256 
Q 809 3622 1028 3965 
Q 1247 4309 1550 4638 
L 2094 4638 
Q 1800 4309 1586 3964 
Q 1372 3619 1234 3251 
Q 1097 2884 1030 2487 
Q 963 2091 963 1656 
Q 963 1222 1030 825 
Q 1097 428 1234 59 
Q 1372 -309 1586 -653 
Q 1800 -997 2094 -1325 
L 1550 -1325 
Q 1247 -997 1028 -653 
Q 809 -309 668 56 
Q 528 422 462 817 
Q 397 1213 397 1650 
L 397 1663 
z
" transform="scale(0.015625)"/>
      <path id="LiberationSans-37" d="M 3238 3947 
Q 2906 3441 2628 2973 
Q 2350 2506 2150 2032 
Q 1950 1559 1839 1061 
Q 1728 563 1728 0 
L 1141 0 
Q 1141 528 1266 1036 
Q 1391 1544 1603 2033 
Q 1816 2522 2097 2994 
Q 2378 3466 2694 3925 
L 328 3925 
L 328 4403 
L 3238 4403 
L 3238 3947 
z
" transform="scale(0.015625)"/>
      <path id="LiberationSans-29" d="M 1734 1650 
Q 1734 1213 1668 817 
Q 1603 422 1462 56 
Q 1322 -309 1103 -653 
Q 884 -997 581 -1325 
L 38 -1325 
Q 331 -997 545 -653 
Q 759 -309 896 59 
Q 1034 428 1101 825 
Q 1169 1222 1169 1656 
Q 1169 2091 1101 2487 
Q 1034 2884 896 3251 
Q 759 3619 545 3964 
Q 331 4309 38 4638 
L 581 4638 
Q 884 4309 1103 3965 
Q 1322 3622 1462 3256 
Q 1603 2891 1668 2494 
Q 1734 2097 1734 1663 
L 1734 1650 
z
" transform="scale(0.015625)"/>
     </defs>
     <use xlink:href="#LiberationSans-28"/>
     <use xlink:href="#LiberationSans-4d" transform="translate(33.300781 0)"/>
     <use xlink:href="#LiberationSans-69" transform="translate(116.601562 0)"/>
     <use xlink:href="#LiberationSans-6c" transform="translate(138.818359 0)"/>
     <use xlink:href="#LiberationSans-65" transform="translate(161.035156 0)"/>
     <use xlink:href="#LiberationSans-73" transform="translate(216.650391 0)"/>
     <use xlink:href="#LiberationSans-20" transform="translate(266.650391 0)"/>
     <use xlink:href="#LiberationSans-64" transform="translate(294.433594 0)"/>
     <use xlink:href="#LiberationSans-65" transform="translate(350.048828 0)"/>
     <use xlink:href="#LiberationSans-20" transform="translate(405.664062 0)"/>
     <use xlink:href="#LiberationSans-6d" transform="translate(433.447266 0)"/>
     <use xlink:href="#LiberationSans-69" transform="translate(516.748047 0)"/>
     <use xlink:href="#LiberationSans-6c" transform="translate(538.964844 0)"/>
     <use xlink:href="#LiberationSans-6c" transform="translate(561.181641 0)"/>
     <use xlink:href="#LiberationSans-6f" transform="translate(583.398438 0)"/>
     <use xlink:href="#LiberationSans-6e" transform="translate(639.013672 0)"/>
     <use xlink:href="#LiberationSans-65" transform="translate(694.628906 0)"/>
     <use xlink:href="#LiberationSans-73" transform="translate(750.244141 0)"/>
     <use xlink:href="#LiberationSans-20" transform="translate(800.244141 0)"/>
     <use xlink:href="#LiberationSans-53" transform="translate(828.027344 0)"/>
     <use xlink:href="#LiberationSans-2f" transform="translate(894.726562 0)"/>
     <use xlink:href="#LiberationSans-20" transform="translate(922.509766 0)"/>
     <use xlink:href="#LiberationSans-63" transform="translate(950.292969 0)"/>
     <use xlink:href="#LiberationSans-6f" transform="translate(1000.292969 0)"/>
     <use xlink:href="#LiberationSans-6e" transform="translate(1055.908203 0)"/>
     <use xlink:href="#LiberationSans-73" transform="translate(1111.523438 0)"/>
     <use xlink:href="#LiberationSans-74" transform="translate(1161.523438 0)"/>
     <use xlink:href="#LiberationSans-61" transform="translate(1189.306641 0)"/>
     <use xlink:href="#LiberationSans-6e" transform="translate(1244.921875 0)"/>
     <use xlink:href="#LiberationSans-74" transform="translate(1300.537109 0)"/>
     <use xlink:href="#LiberationSans-65" transform="translate(1328.320312 0)"/>
     <use xlink:href="#LiberationSans-73" transform="translate(1383.935547 0)"/>
     <use xlink:href="#LiberationSans-20" transform="translate(1433.935547 0)"/>
     <use xlink:href="#LiberationSans-32" transform="translate(1461.71875 0)"/>
     <use xlink:href="#LiberationSans-30" transform="translate(1517.333984 0)"/>
     <use xlink:href="#LiberationSans-30" transform="translate(1572.949219 0)"/>
     <use xlink:href="#LiberationSans-37" transform="translate(1628.564453 0)"/>
     <use xlink:href="#LiberationSans-29" transform="translate(1684.179688 0)"/>
    </g>
   </g>
   <g id="legend_1">
    <g id="patch_79">
     <path d="M 45.875938 47.996375 
L 59.875938 47.996375 
L 59.875938 43.096375 
L 45.875938 43.096375 
z
" style="fill: #1f77b4"/>
    </g>
    <g id="text_15">
     <!-- Agri. -->
     <g style="fill: #262626" transform="translate(65.475938 47.996375) scale(0.07 -0.07)">
      <defs>
       <path id="LiberationSans-67" d="M 1713 -1328 
Q 1422 -1328 1197 -1268 
Q 972 -1209 812 -1098 
Q 653 -988 553 -834 
Q 453 -681 409 -494 
L 975 -413 
Q 1031 -647 1223 -773 
Q 1416 -900 1728 -900 
Q 1919 -900 2075 -847 
Q 2231 -794 2340 -676 
Q 2450 -559 2509 -371 
Q 2569 -184 2569 84 
L 2569 628 
L 2563 628 
Q 2500 500 2408 383 
Q 2316 266 2183 175 
Q 2050 84 1875 29 
Q 1700 -25 1475 -25 
Q 1153 -25 923 83 
Q 694 191 548 406 
Q 403 622 336 942 
Q 269 1263 269 1684 
Q 269 2091 336 2416 
Q 403 2741 554 2967 
Q 706 3194 948 3314 
Q 1191 3434 1538 3434 
Q 1897 3434 2161 3270 
Q 2425 3106 2569 2803 
L 2575 2803 
Q 2575 2881 2579 2978 
Q 2584 3075 2589 3161 
Q 2594 3247 2600 3309 
Q 2606 3372 2613 3381 
L 3147 3381 
Q 3144 3353 3141 3286 
Q 3138 3219 3134 3125 
Q 3131 3031 3129 2917 
Q 3128 2803 3128 2681 
L 3128 97 
Q 3128 -613 2779 -970 
Q 2431 -1328 1713 -1328 
z
M 2569 1691 
Q 2569 2044 2492 2295 
Q 2416 2547 2291 2706 
Q 2166 2866 2005 2941 
Q 1844 3016 1675 3016 
Q 1459 3016 1304 2941 
Q 1150 2866 1048 2705 
Q 947 2544 898 2292 
Q 850 2041 850 1691 
Q 850 1325 898 1076 
Q 947 828 1047 675 
Q 1147 522 1300 456 
Q 1453 391 1666 391 
Q 1834 391 1995 462 
Q 2156 534 2284 690 
Q 2413 847 2491 1094 
Q 2569 1341 2569 1691 
z
" transform="scale(0.015625)"/>
       <path id="LiberationSans-2e" d="M 584 0 
L 584 684 
L 1194 684 
L 1194 0 
L 584 0 
z
" transform="scale(0.015625)"/>
      </defs>
      <use xlink:href="#LiberationSans-41"/>
      <use xlink:href="#LiberationSans-67" transform="translate(66.699219 0)"/>
      <use xlink:href="#LiberationSans-72" transform="translate(122.314453 0)"/>
      <use xlink:href="#LiberationSans-69" transform="translate(155.615234 0)"/>
      <use xlink:href="#LiberationSans-2e" transform="translate(177.832031 0)"/>
     </g>
    </g>
    <g id="patch_80">
     <path d="M 45.875938 58.021687 
L 59.875938 58.021687 
L 59.875938 53.121687 
L 45.875938 53.121687 
z
" style="fill: #aec7e8"/>
    </g>
    <g id="text_16">
     <!-- Pesca -->
     <g style="fill: #262626" transform="translate(65.475938 58.021687) scale(0.07 -0.07)">
      <defs>
       <path id="LiberationSans-50" d="M 3931 3078 
Q 3931 2791 3836 2542 
Q 3741 2294 3552 2111 
Q 3363 1928 3078 1822 
Q 2794 1716 2416 1716 
L 1122 1716 
L 1122 0 
L 525 0 
L 525 4403 
L 2378 4403 
Q 2769 4403 3059 4308 
Q 3350 4213 3544 4039 
Q 3738 3866 3834 3620 
Q 3931 3375 3931 3078 
z
M 3331 3072 
Q 3331 3491 3075 3708 
Q 2819 3925 2306 3925 
L 1122 3925 
L 1122 2188 
L 2331 2188 
Q 2847 2188 3089 2416 
Q 3331 2644 3331 3072 
z
" transform="scale(0.015625)"/>
      </defs>
      <use xlink:href="#LiberationSans-50"/>
      <use xlink:href="#LiberationSans-65" transform="translate(66.699219 0)"/>
      <use xlink:href="#LiberationSans-73" transform="translate(122.314453 0)"/>
      <use xlink:href="#LiberationSans-63" transform="translate(172.314453 0)"/>
      <use xlink:href="#LiberationSans-61" transform="translate(222.314453 0)"/>
     </g>
    </g>
    <g id="patch_81">
     <path d="M 45.875938 68.047 
L 59.875938 68.047 
L 59.875938 63.147 
L 45.875938 63.147 
z
" style="fill: #ff7f0e"/>
    </g>
    <g id="text_17">
     <!-- Minería -->
     <g style="fill: #262626" transform="translate(65.475938 68.047) scale(0.07 -0.07)">
      <defs>
       <path id="LiberationSans-ed" d="M 606 0 
L 606 3381 
L 1169 3381 
L 1169 0 
L 606 0 
z
M 425 3753 
L 425 3816 
L 1103 4713 
L 1750 4713 
L 1750 4622 
L 719 3753 
L 425 3753 
z
" transform="scale(0.015625)"/>
      </defs>
      <use xlink:href="#LiberationSans-4d"/>
      <use xlink:href="#LiberationSans-69" transform="translate(83.300781 0)"/>
      <use xlink:href="#LiberationSans-6e" transform="translate(105.517578 0)"/>
      <use xlink:href="#LiberationSans-65" transform="translate(161.132812 0)"/>
      <use xlink:href="#LiberationSans-72" transform="translate(216.748047 0)"/>
      <use xlink:href="#LiberationSans-ed" transform="translate(250.048828 0)"/>
      <use xlink:href="#LiberationSans-61" transform="translate(277.832031 0)"/>
     </g>
    </g>
    <g id="patch_82">
     <path d="M 45.875938 78.072313 
L 59.875938 78.072313 
L 59.875938 73.172313 
L 45.875938 73.172313 
z
" style="fill: #ffbb78"/>
    </g>
    <g id="text_18">
     <!-- Manufac. -->
     <g style="fill: #262626" transform="translate(65.475938 78.072313) scale(0.07 -0.07)">
      <defs>
       <path id="LiberationSans-66" d="M 1128 2972 
L 1128 0 
L 566 0 
L 566 2972 
L 91 2972 
L 91 3381 
L 566 3381 
L 566 3763 
Q 566 3947 600 4105 
Q 634 4263 726 4380 
Q 819 4497 978 4564 
Q 1138 4631 1391 4631 
Q 1491 4631 1598 4622 
Q 1706 4613 1788 4594 
L 1788 4166 
Q 1734 4175 1664 4183 
Q 1594 4191 1538 4191 
Q 1413 4191 1333 4156 
Q 1253 4122 1208 4058 
Q 1163 3994 1145 3900 
Q 1128 3806 1128 3684 
L 1128 3381 
L 1788 3381 
L 1788 2972 
L 1128 2972 
z
" transform="scale(0.015625)"/>
      </defs>
      <use xlink:href="#LiberationSans-4d"/>
      <use xlink:href="#LiberationSans-61" transform="translate(83.300781 0)"/>
      <use xlink:href="#LiberationSans-6e" transform="translate(138.916016 0)"/>
      <use xlink:href="#LiberationSans-75" transform="translate(194.53125 0)"/>
      <use xlink:href="#LiberationSans-66" transform="translate(250.146484 0)"/>
      <use xlink:href="#LiberationSans-61" transform="translate(277.929688 0)"/>
      <use xlink:href="#LiberationSans-63" transform="translate(333.544922 0)"/>
      <use xlink:href="#LiberationSans-2e" transform="translate(383.544922 0)"/>
     </g>
    </g>
    <g id="patch_83">
     <path d="M 45.875938 88.097625 
L 59.875938 88.097625 
L 59.875938 83.197625 
L 45.875938 83.197625 
z
" style="fill: #2ca02c"/>
    </g>
    <g id="text_19">
     <!-- Electr. -->
     <g style="fill: #262626" transform="translate(65.475938 88.097625) scale(0.07 -0.07)">
      <use xlink:href="#LiberationSans-45"/>
      <use xlink:href="#LiberationSans-6c" transform="translate(66.699219 0)"/>
      <use xlink:href="#LiberationSans-65" transform="translate(88.916016 0)"/>
      <use xlink:href="#LiberationSans-63" transform="translate(144.53125 0)"/>
      <use xlink:href="#LiberationSans-74" transform="translate(194.53125 0)"/>
      <use xlink:href="#LiberationSans-72" transform="translate(222.314453 0)"/>
      <use xlink:href="#LiberationSans-2e" transform="translate(250.115234 0)"/>
     </g>
    </g>
    <g id="patch_84">
     <path d="M 45.875938 98.122938 
L 59.875938 98.122938 
L 59.875938 93.222938 
L 45.875938 93.222938 
z
" style="fill: #98df8a"/>
    </g>
    <g id="text_20">
     <!-- Constr. -->
     <g style="fill: #262626" transform="translate(65.475938 98.122938) scale(0.07 -0.07)">
      <defs>
       <path id="LiberationSans-43" d="M 2475 3981 
Q 2100 3981 1811 3856 
Q 1522 3731 1326 3500 
Q 1131 3269 1031 2944 
Q 931 2619 931 2222 
Q 931 1825 1039 1495 
Q 1147 1166 1348 928 
Q 1550 691 1842 559 
Q 2134 428 2500 428 
Q 2756 428 2967 495 
Q 3178 563 3348 684 
Q 3519 806 3653 973 
Q 3788 1141 3891 1344 
L 4378 1100 
Q 4259 853 4084 640 
Q 3909 428 3673 272 
Q 3438 116 3139 26 
Q 2841 -63 2472 -63 
Q 1938 -63 1536 107 
Q 1134 278 864 583 
Q 594 888 459 1306 
Q 325 1725 325 2222 
Q 325 2738 467 3153 
Q 609 3569 882 3861 
Q 1156 4153 1556 4311 
Q 1956 4469 2469 4469 
Q 3172 4469 3644 4194 
Q 4116 3919 4338 3378 
L 3772 3191 
Q 3709 3347 3603 3489 
Q 3497 3631 3337 3740 
Q 3178 3850 2964 3915 
Q 2750 3981 2475 3981 
z
" transform="scale(0.015625)"/>
      </defs>
      <use xlink:href="#LiberationSans-43"/>
      <use xlink:href="#LiberationSans-6f" transform="translate(72.216797 0)"/>
      <use xlink:href="#LiberationSans-6e" transform="translate(127.832031 0)"/>
      <use xlink:href="#LiberationSans-73" transform="translate(183.447266 0)"/>
      <use xlink:href="#LiberationSans-74" transform="translate(233.447266 0)"/>
      <use xlink:href="#LiberationSans-72" transform="translate(261.230469 0)"/>
      <use xlink:href="#LiberationSans-2e" transform="translate(289.03125 0)"/>
     </g>
    </g>
    <g id="patch_85">
     <path d="M 108.266719 47.996375 
L 122.266719 47.996375 
L 122.266719 43.096375 
L 108.266719 43.096375 
z
" style="fill: #d62728"/>
    </g>
    <g id="text_21">
     <!-- Comercio -->
     <g style="fill: #262626" transform="translate(127.866719 47.996375) scale(0.07 -0.07)">
      <use xlink:href="#LiberationSans-43"/>
      <use xlink:href="#LiberationSans-6f" transform="translate(72.216797 0)"/>
      <use xlink:href="#LiberationSans-6d" transform="translate(127.832031 0)"/>
      <use xlink:href="#LiberationSans-65" transform="translate(211.132812 0)"/>
      <use xlink:href="#LiberationSans-72" transform="translate(266.748047 0)"/>
      <use xlink:href="#LiberationSans-63" transform="translate(300.048828 0)"/>
      <use xlink:href="#LiberationSans-69" transform="translate(350.048828 0)"/>
      <use xlink:href="#LiberationSans-6f" transform="translate(372.265625 0)"/>
     </g>
    </g>
    <g id="patch_86">
     <path d="M 108.266719 58.021687 
L 122.266719 58.021687 
L 122.266719 53.121687 
L 108.266719 53.121687 
z
" style="fill: #ff9896"/>
    </g>
    <g id="text_22">
     <!-- Transp. -->
     <g style="fill: #262626" transform="translate(127.866719 58.021687) scale(0.07 -0.07)">
      <defs>
       <path id="LiberationSans-54" d="M 2250 3916 
L 2250 0 
L 1656 0 
L 1656 3916 
L 144 3916 
L 144 4403 
L 3763 4403 
L 3763 3916 
L 2250 3916 
z
" transform="scale(0.015625)"/>
       <path id="LiberationSans-70" d="M 3291 1706 
Q 3291 1322 3228 997 
Q 3166 672 3020 437 
Q 2875 203 2636 70 
Q 2397 -63 2047 -63 
Q 1684 -63 1412 75 
Q 1141 213 997 525 
L 981 525 
Q 984 519 986 469 
Q 988 419 989 344 
Q 991 269 992 176 
Q 994 84 994 -6 
L 994 -1328 
L 431 -1328 
L 431 2691 
Q 431 2813 429 2925 
Q 428 3038 425 3130 
Q 422 3222 419 3287 
Q 416 3353 413 3381 
L 956 3381 
Q 959 3372 964 3315 
Q 969 3259 973 3179 
Q 978 3100 983 3009 
Q 988 2919 988 2838 
L 1000 2838 
Q 1078 3000 1178 3114 
Q 1278 3228 1406 3301 
Q 1534 3375 1692 3408 
Q 1850 3441 2047 3441 
Q 2397 3441 2636 3316 
Q 2875 3191 3020 2964 
Q 3166 2738 3228 2417 
Q 3291 2097 3291 1706 
z
M 2700 1694 
Q 2700 2006 2662 2250 
Q 2625 2494 2533 2662 
Q 2441 2831 2287 2918 
Q 2134 3006 1903 3006 
Q 1716 3006 1550 2953 
Q 1384 2900 1261 2750 
Q 1138 2600 1066 2336 
Q 994 2072 994 1650 
Q 994 1291 1053 1042 
Q 1113 794 1227 641 
Q 1341 488 1509 420 
Q 1678 353 1897 353 
Q 2131 353 2286 443 
Q 2441 534 2533 706 
Q 2625 878 2662 1126 
Q 2700 1375 2700 1694 
z
" transform="scale(0.015625)"/>
      </defs>
      <use xlink:href="#LiberationSans-54"/>
      <use xlink:href="#LiberationSans-72" transform="translate(57.333984 0)"/>
      <use xlink:href="#LiberationSans-61" transform="translate(90.634766 0)"/>
      <use xlink:href="#LiberationSans-6e" transform="translate(146.25 0)"/>
      <use xlink:href="#LiberationSans-73" transform="translate(201.865234 0)"/>
      <use xlink:href="#LiberationSans-70" transform="translate(251.865234 0)"/>
      <use xlink:href="#LiberationSans-2e" transform="translate(307.480469 0)"/>
     </g>
    </g>
    <g id="patch_87">
     <path d="M 108.266719 68.047 
L 122.266719 68.047 
L 122.266719 63.147 
L 108.266719 63.147 
z
" style="fill: #9467bd"/>
    </g>
    <g id="text_23">
     <!-- Aloj. -->
     <g style="fill: #262626" transform="translate(127.866719 68.047) scale(0.07 -0.07)">
      <defs>
       <path id="LiberationSans-6a" d="M 428 4100 
L 428 4638 
L 991 4638 
L 991 4100 
L 428 4100 
z
M 991 -419 
Q 991 -613 958 -778 
Q 925 -944 840 -1066 
Q 756 -1188 611 -1258 
Q 466 -1328 241 -1328 
Q 134 -1328 32 -1322 
Q -69 -1316 -156 -1300 
L -156 -866 
Q -116 -872 -59 -878 
Q -3 -884 38 -884 
Q 156 -884 232 -853 
Q 309 -822 353 -755 
Q 397 -688 412 -583 
Q 428 -478 428 -334 
L 428 3381 
L 991 3381 
L 991 -419 
z
" transform="scale(0.015625)"/>
      </defs>
      <use xlink:href="#LiberationSans-41"/>
      <use xlink:href="#LiberationSans-6c" transform="translate(66.699219 0)"/>
      <use xlink:href="#LiberationSans-6f" transform="translate(88.916016 0)"/>
      <use xlink:href="#LiberationSans-6a" transform="translate(144.53125 0)"/>
      <use xlink:href="#LiberationSans-2e" transform="translate(166.748047 0)"/>
     </g>
    </g>
    <g id="patch_88">
     <path d="M 108.266719 78.072313 
L 122.266719 78.072313 
L 122.266719 73.172313 
L 108.266719 73.172313 
z
" style="fill: #c5b0d5"/>
    </g>
    <g id="text_24">
     <!-- Telecom. -->
     <g style="fill: #262626" transform="translate(127.866719 78.072313) scale(0.07 -0.07)">
      <use xlink:href="#LiberationSans-54"/>
      <use xlink:href="#LiberationSans-65" transform="translate(49.958984 0)"/>
      <use xlink:href="#LiberationSans-6c" transform="translate(105.574219 0)"/>
      <use xlink:href="#LiberationSans-65" transform="translate(127.791016 0)"/>
      <use xlink:href="#LiberationSans-63" transform="translate(183.40625 0)"/>
      <use xlink:href="#LiberationSans-6f" transform="translate(233.40625 0)"/>
      <use xlink:href="#LiberationSans-6d" transform="translate(289.021484 0)"/>
      <use xlink:href="#LiberationSans-2e" transform="translate(372.322266 0)"/>
     </g>
    </g>
    <g id="patch_89">
     <path d="M 108.266719 88.097625 
L 122.266719 88.097625 
L 122.266719 83.197625 
L 108.266719 83.197625 
z
" style="fill: #8c564b"/>
    </g>
    <g id="text_25">
     <!-- Adm.Pub. -->
     <g style="fill: #262626" transform="translate(127.866719 88.097625) scale(0.07 -0.07)">
      <defs>
       <path id="LiberationSans-62" d="M 3291 1706 
Q 3291 -63 2047 -63 
Q 1663 -63 1408 76 
Q 1153 216 994 525 
L 988 525 
Q 988 444 983 356 
Q 978 269 973 194 
Q 969 119 964 66 
Q 959 13 956 0 
L 413 0 
Q 416 28 419 95 
Q 422 163 425 256 
Q 428 350 429 462 
Q 431 575 431 697 
L 431 4638 
L 994 4638 
L 994 3316 
Q 994 3222 992 3136 
Q 991 3050 988 2984 
Q 984 2906 981 2838 
L 994 2838 
Q 1150 3163 1408 3303 
Q 1666 3444 2047 3444 
Q 2688 3444 2989 3012 
Q 3291 2581 3291 1706 
z
M 2700 1688 
Q 2700 2038 2656 2288 
Q 2613 2538 2516 2698 
Q 2419 2859 2269 2934 
Q 2119 3009 1903 3009 
Q 1681 3009 1511 2937 
Q 1341 2866 1227 2706 
Q 1113 2547 1053 2287 
Q 994 2028 994 1653 
Q 994 1291 1053 1044 
Q 1113 797 1227 642 
Q 1341 488 1509 420 
Q 1678 353 1897 353 
Q 2103 353 2253 425 
Q 2403 497 2503 656 
Q 2603 816 2651 1070 
Q 2700 1325 2700 1688 
z
" transform="scale(0.015625)"/>
      </defs>
      <use xlink:href="#LiberationSans-41"/>
      <use xlink:href="#LiberationSans-64" transform="translate(66.699219 0)"/>
      <use xlink:href="#LiberationSans-6d" transform="translate(122.314453 0)"/>
      <use xlink:href="#LiberationSans-2e" transform="translate(205.615234 0)"/>
      <use xlink:href="#LiberationSans-50" transform="translate(233.398438 0)"/>
      <use xlink:href="#LiberationSans-75" transform="translate(300.097656 0)"/>
      <use xlink:href="#LiberationSans-62" transform="translate(355.712891 0)"/>
      <use xlink:href="#LiberationSans-2e" transform="translate(411.328125 0)"/>
     </g>
    </g>
    <g id="patch_90">
     <path d="M 108.266719 98.122938 
L 122.266719 98.122938 
L 122.266719 93.222938 
L 108.266719 93.222938 
z
" style="fill: #c49c94"/>
    </g>
    <g id="text_26">
     <!-- Otros -->
     <g style="fill: #262626" transform="translate(127.866719 98.122938) scale(0.07 -0.07)">
      <defs>
       <path id="LiberationSans-4f" d="M 4672 2222 
Q 4672 1706 4523 1284 
Q 4375 863 4094 563 
Q 3813 263 3406 100 
Q 3000 -63 2484 -63 
Q 1941 -63 1531 107 
Q 1122 278 850 583 
Q 578 888 440 1306 
Q 303 1725 303 2222 
Q 303 2738 447 3153 
Q 591 3569 869 3861 
Q 1147 4153 1555 4311 
Q 1963 4469 2491 4469 
Q 3016 4469 3423 4309 
Q 3831 4150 4107 3856 
Q 4384 3563 4528 3147 
Q 4672 2731 4672 2222 
z
M 4063 2222 
Q 4063 2619 3961 2944 
Q 3859 3269 3661 3500 
Q 3463 3731 3169 3856 
Q 2875 3981 2491 3981 
Q 2097 3981 1800 3856 
Q 1503 3731 1304 3500 
Q 1106 3269 1007 2944 
Q 909 2619 909 2222 
Q 909 1825 1011 1495 
Q 1113 1166 1311 927 
Q 1509 688 1804 555 
Q 2100 422 2484 422 
Q 2897 422 3195 556 
Q 3494 691 3686 930 
Q 3878 1169 3970 1500 
Q 4063 1831 4063 2222 
z
" transform="scale(0.015625)"/>
      </defs>
      <use xlink:href="#LiberationSans-4f"/>
      <use xlink:href="#LiberationSans-74" transform="translate(77.783203 0)"/>
      <use xlink:href="#LiberationSans-72" transform="translate(105.566406 0)"/>
      <use xlink:href="#LiberationSans-6f" transform="translate(138.867188 0)"/>
      <use xlink:href="#LiberationSans-73" transform="translate(194.482422 0)"/>
     </g>
    </g>
   </g>
  </g>
 </g>
 <defs>
  <clipPath id="pa0bc09fc02">
   <rect x="39.575938" y="36.623562" width="809.14" height="277.24"/>
  </clipPath>
 </defs>
</svg>
