<?xml version="1.0" encoding="utf-8" standalone="no"?>
<!DOCTYPE svg PUBLIC "-//W3C//DTD SVG 1.1//EN"
  "http://www.w3.org/Graphics/SVG/1.1/DTD/svg11.dtd">
<svg xmlns:xlink="http://www.w3.org/1999/xlink" width="712.833125pt" height="352.954375pt" viewBox="0 0 712.833125 352.954375" xmlns="http://www.w3.org/2000/svg" version="1.1">
 <metadata>
  <rdf:RDF xmlns:dc="http://purl.org/dc/elements/1.1/" xmlns:cc="http://creativecommons.org/ns#" xmlns:rdf="http://www.w3.org/1999/02/22-rdf-syntax-ns#">
   <cc:Work>
    <dc:type rdf:resource="http://purl.org/dc/dcmitype/StillImage"/>
    <dc:date>2026-06-29T07:44:49.086796</dc:date>
    <dc:format>image/svg+xml</dc:format>
    <dc:creator>
     <cc:Agent>
      <dc:title>Matplotlib v3.10.0, https://matplotlib.org/</dc:title>
     </cc:Agent>
    </dc:creator>
   </cc:Work>
  </rdf:RDF>
 </metadata>
 <defs>
  <style type="text/css">*{stroke-linejoin: round; stroke-linecap: butt}</style>
 </defs>
 <g id="figure_1">
  <g id="patch_1">
   <path d="M 0 352.954375 
L 712.833125 352.954375 
L 712.833125 0 
L 0 0 
z
" style="fill: #ffffff"/>
  </g>
  <g id="axes_1">
   <g id="patch_2">
    <path d="M 66.053125 315.398125 
L 705.633125 315.398125 
L 705.633125 22.318125 
L 66.053125 22.318125 
z
" style="fill: #ffffff"/>
   </g>
   <g id="patch_3">
    <path d="M 95.124943 315.398125 
L 142.589136 315.398125 
L 142.589136 297.429902 
L 95.124943 297.429902 
z
" clip-path="url(#p3e10f9f7ab)" style="fill: #4682b4"/>
   </g>
   <g id="patch_4">
    <path d="M 154.455184 315.398125 
L 201.919377 315.398125 
L 201.919377 297.175762 
L 154.455184 297.175762 
z
" clip-path="url(#p3e10f9f7ab)" style="fill: #4682b4"/>
   </g>
   <g id="patch_5">
    <path d="M 213.785426 315.398125 
L 261.249619 315.398125 
L 261.249619 273.565962 
L 213.785426 273.565962 
z
" clip-path="url(#p3e10f9f7ab)" style="fill: #4682b4"/>
   </g>
   <g id="patch_6">
    <path d="M 273.115667 315.398125 
L 320.57986 315.398125 
L 320.57986 278.665598 
L 273.115667 278.665598 
z
" clip-path="url(#p3e10f9f7ab)" style="fill: #4682b4"/>
   </g>
   <g id="patch_7">
    <path d="M 332.445908 315.398125 
L 379.910101 315.398125 
L 379.910101 284.440136 
L 332.445908 284.440136 
z
" clip-path="url(#p3e10f9f7ab)" style="fill: #4682b4"/>
   </g>
   <g id="patch_8">
    <path d="M 391.776149 315.398125 
L 439.240342 315.398125 
L 439.240342 208.913348 
L 391.776149 208.913348 
z
" clip-path="url(#p3e10f9f7ab)" style="fill: #4682b4"/>
   </g>
   <g id="patch_9">
    <path d="M 451.10639 315.398125 
L 498.570583 315.398125 
L 498.570583 281.294519 
L 451.10639 281.294519 
z
" clip-path="url(#p3e10f9f7ab)" style="fill: #4682b4"/>
   </g>
   <g id="patch_10">
    <path d="M 510.436631 315.398125 
L 557.900824 315.398125 
L 557.900824 245.170177 
L 510.436631 245.170177 
z
" clip-path="url(#p3e10f9f7ab)" style="fill: #4682b4"/>
   </g>
   <g id="patch_11">
    <path d="M 569.766873 315.398125 
L 617.231066 315.398125 
L 617.231066 208.805465 
L 569.766873 208.805465 
z
" clip-path="url(#p3e10f9f7ab)" style="fill: #4682b4"/>
   </g>
   <g id="patch_12">
    <path d="M 629.097114 315.398125 
L 676.561307 315.398125 
L 676.561307 172.649272 
L 629.097114 172.649272 
z
" clip-path="url(#p3e10f9f7ab)" style="fill: #4682b4"/>
   </g>
   <g id="patch_13">
    <path d="M 95.124943 297.429902 
L 142.589136 297.429902 
L 142.589136 232.630864 
L 95.124943 232.630864 
z
" clip-path="url(#p3e10f9f7ab)" style="fill: #ff7f50"/>
   </g>
   <g id="patch_14">
    <path d="M 154.455184 297.175762 
L 201.919377 297.175762 
L 201.919377 237.459529 
L 154.455184 237.459529 
z
" clip-path="url(#p3e10f9f7ab)" style="fill: #ff7f50"/>
   </g>
   <g id="patch_15">
    <path d="M 213.785426 273.565962 
L 261.249619 273.565962 
L 261.249619 250.777489 
L 213.785426 250.777489 
z
" clip-path="url(#p3e10f9f7ab)" style="fill: #ff7f50"/>
   </g>
   <g id="patch_16">
    <path d="M 273.115667 278.665598 
L 320.57986 278.665598 
L 320.57986 238.632614 
L 273.115667 238.632614 
z
" clip-path="url(#p3e10f9f7ab)" style="fill: #ff7f50"/>
   </g>
   <g id="patch_17">
    <path d="M 332.445908 284.440136 
L 379.910101 284.440136 
L 379.910101 227.160957 
L 332.445908 227.160957 
z
" clip-path="url(#p3e10f9f7ab)" style="fill: #ff7f50"/>
   </g>
   <g id="patch_18">
    <path d="M 391.776149 208.913348 
L 439.240342 208.913348 
L 439.240342 176.031636 
L 391.776149 176.031636 
z
" clip-path="url(#p3e10f9f7ab)" style="fill: #ff7f50"/>
   </g>
   <g id="patch_19">
    <path d="M 451.10639 281.294519 
L 498.570583 281.294519 
L 498.570583 248.114907 
L 451.10639 248.114907 
z
" clip-path="url(#p3e10f9f7ab)" style="fill: #ff7f50"/>
   </g>
   <g id="patch_20">
    <path d="M 510.436631 245.170177 
L 557.900824 245.170177 
L 557.900824 214.237507 
L 510.436631 214.237507 
z
" clip-path="url(#p3e10f9f7ab)" style="fill: #ff7f50"/>
   </g>
   <g id="patch_21">
    <path d="M 569.766873 208.805465 
L 617.231066 208.805465 
L 617.231066 172.922967 
L 569.766873 172.922967 
z
" clip-path="url(#p3e10f9f7ab)" style="fill: #ff7f50"/>
   </g>
   <g id="patch_22">
    <path d="M 629.097114 172.649272 
L 676.561307 172.649272 
L 676.561307 123.166302 
L 629.097114 123.166302 
z
" clip-path="url(#p3e10f9f7ab)" style="fill: #ff7f50"/>
   </g>
   <g id="patch_23">
    <path d="M 95.124943 232.630864 
L 142.589136 232.630864 
L 142.589136 219.299439 
L 95.124943 219.299439 
z
" clip-path="url(#p3e10f9f7ab)" style="fill: #3cb371"/>
   </g>
   <g id="patch_24">
    <path d="M 154.455184 237.459529 
L 201.919377 237.459529 
L 201.919377 212.217172 
L 154.455184 212.217172 
z
" clip-path="url(#p3e10f9f7ab)" style="fill: #3cb371"/>
   </g>
   <g id="patch_25">
    <path d="M 213.785426 250.777489 
L 261.249619 250.777489 
L 261.249619 234.162438 
L 213.785426 234.162438 
z
" clip-path="url(#p3e10f9f7ab)" style="fill: #3cb371"/>
   </g>
   <g id="patch_26">
    <path d="M 273.115667 238.632614 
L 320.57986 238.632614 
L 320.57986 220.438863 
L 273.115667 220.438863 
z
" clip-path="url(#p3e10f9f7ab)" style="fill: #3cb371"/>
   </g>
   <g id="patch_27">
    <path d="M 332.445908 227.160957 
L 379.910101 227.160957 
L 379.910101 200.260798 
L 332.445908 200.260798 
z
" clip-path="url(#p3e10f9f7ab)" style="fill: #3cb371"/>
   </g>
   <g id="patch_28">
    <path d="M 391.776149 176.031636 
L 439.240342 176.031636 
L 439.240342 139.915104 
L 391.776149 139.915104 
z
" clip-path="url(#p3e10f9f7ab)" style="fill: #3cb371"/>
   </g>
   <g id="patch_29">
    <path d="M 451.10639 248.114907 
L 498.570583 248.114907 
L 498.570583 213.49124 
L 451.10639 213.49124 
z
" clip-path="url(#p3e10f9f7ab)" style="fill: #3cb371"/>
   </g>
   <g id="patch_30">
    <path d="M 510.436631 214.237507 
L 557.900824 214.237507 
L 557.900824 209.576117 
L 510.436631 209.576117 
z
" clip-path="url(#p3e10f9f7ab)" style="fill: #3cb371"/>
   </g>
   <g id="patch_31">
    <path d="M 569.766873 172.922967 
L 617.231066 172.922967 
L 617.231066 163.780649 
L 569.766873 163.780649 
z
" clip-path="url(#p3e10f9f7ab)" style="fill: #3cb371"/>
   </g>
   <g id="patch_32">
    <path d="M 629.097114 123.166302 
L 676.561307 123.166302 
L 676.561307 96.96198 
L 629.097114 96.96198 
z
" clip-path="url(#p3e10f9f7ab)" style="fill: #3cb371"/>
   </g>
   <g id="patch_33">
    <path d="M 95.124943 219.299439 
L 142.589136 219.299439 
L 142.589136 193.198727 
L 95.124943 193.198727 
z
" clip-path="url(#p3e10f9f7ab)" style="fill: #ffa500"/>
   </g>
   <g id="patch_34">
    <path d="M 154.455184 212.217172 
L 201.919377 212.217172 
L 201.919377 189.566709 
L 154.455184 189.566709 
z
" clip-path="url(#p3e10f9f7ab)" style="fill: #ffa500"/>
   </g>
   <g id="patch_35">
    <path d="M 213.785426 234.162438 
L 261.249619 234.162438 
L 261.249619 233.665938 
L 213.785426 233.665938 
z
" clip-path="url(#p3e10f9f7ab)" style="fill: #ffa500"/>
   </g>
   <g id="patch_36">
    <path d="M 273.115667 220.438863 
L 320.57986 220.438863 
L 320.57986 219.205188 
L 273.115667 219.205188 
z
" clip-path="url(#p3e10f9f7ab)" style="fill: #ffa500"/>
   </g>
   <g id="patch_37">
    <path d="M 332.445908 200.260798 
L 379.910101 200.260798 
L 379.910101 198.838622 
L 332.445908 198.838622 
z
" clip-path="url(#p3e10f9f7ab)" style="fill: #ffa500"/>
   </g>
   <g id="patch_38">
    <path d="M 391.776149 139.915104 
L 439.240342 139.915104 
L 439.240342 138.100779 
L 391.776149 138.100779 
z
" clip-path="url(#p3e10f9f7ab)" style="fill: #ffa500"/>
   </g>
   <g id="patch_39">
    <path d="M 451.10639 213.49124 
L 498.570583 213.49124 
L 498.570583 175.960948 
L 451.10639 175.960948 
z
" clip-path="url(#p3e10f9f7ab)" style="fill: #ffa500"/>
   </g>
   <g id="patch_40">
    <path d="M 510.436631 209.576117 
L 557.900824 209.576117 
L 557.900824 178.2596 
L 510.436631 178.2596 
z
" clip-path="url(#p3e10f9f7ab)" style="fill: #ffa500"/>
   </g>
   <g id="patch_41">
    <path d="M 569.766873 163.780649 
L 617.231066 163.780649 
L 617.231066 135.023914 
L 569.766873 135.023914 
z
" clip-path="url(#p3e10f9f7ab)" style="fill: #ffa500"/>
   </g>
   <g id="patch_42">
    <path d="M 629.097114 96.96198 
L 676.561307 96.96198 
L 676.561307 36.274315 
L 629.097114 36.274315 
z
" clip-path="url(#p3e10f9f7ab)" style="fill: #ffa500"/>
   </g>
   <g id="matplotlib.axis_1">
    <g id="xtick_1">
     <g id="line2d_1">
      <defs>
       <path id="m618da60fcf" d="M 0 0 
L 0 3.5 
" style="stroke: #000000; stroke-width: 0.8"/>
      </defs>
      <g>
       <use xlink:href="#m618da60fcf" x="118.85704" y="315.398125" style="stroke: #000000; stroke-width: 0.8"/>
      </g>
     </g>
     <g id="text_1">
      <!-- 2014 -->
      <g transform="translate(106.13204 329.996562) scale(0.1 -0.1)">
       <defs>
        <path id="DejaVuSans-32" d="M 1228 531 
L 3431 531 
L 3431 0 
L 469 0 
L 469 531 
Q 828 903 1448 1529 
Q 2069 2156 2228 2338 
Q 2531 2678 2651 2914 
Q 2772 3150 2772 3378 
Q 2772 3750 2511 3984 
Q 2250 4219 1831 4219 
Q 1534 4219 1204 4116 
Q 875 4013 500 3803 
L 500 4441 
Q 881 4594 1212 4672 
Q 1544 4750 1819 4750 
Q 2544 4750 2975 4387 
Q 3406 4025 3406 3419 
Q 3406 3131 3298 2873 
Q 3191 2616 2906 2266 
Q 2828 2175 2409 1742 
Q 1991 1309 1228 531 
z
" transform="scale(0.015625)"/>
        <path id="DejaVuSans-30" d="M 2034 4250 
Q 1547 4250 1301 3770 
Q 1056 3291 1056 2328 
Q 1056 1369 1301 889 
Q 1547 409 2034 409 
Q 2525 409 2770 889 
Q 3016 1369 3016 2328 
Q 3016 3291 2770 3770 
Q 2525 4250 2034 4250 
z
M 2034 4750 
Q 2819 4750 3233 4129 
Q 3647 3509 3647 2328 
Q 3647 1150 3233 529 
Q 2819 -91 2034 -91 
Q 1250 -91 836 529 
Q 422 1150 422 2328 
Q 422 3509 836 4129 
Q 1250 4750 2034 4750 
z
" transform="scale(0.015625)"/>
        <path id="DejaVuSans-31" d="M 794 531 
L 1825 531 
L 1825 4091 
L 703 3866 
L 703 4441 
L 1819 4666 
L 2450 4666 
L 2450 531 
L 3481 531 
L 3481 0 
L 794 0 
L 794 531 
z
" transform="scale(0.015625)"/>
        <path id="DejaVuSans-34" d="M 2419 4116 
L 825 1625 
L 2419 1625 
L 2419 4116 
z
M 2253 4666 
L 3047 4666 
L 3047 1625 
L 3713 1625 
L 3713 1100 
L 3047 1100 
L 3047 0 
L 2419 0 
L 2419 1100 
L 313 1100 
L 313 1709 
L 2253 4666 
z
" transform="scale(0.015625)"/>
       </defs>
       <use xlink:href="#DejaVuSans-32"/>
       <use xlink:href="#DejaVuSans-30" transform="translate(63.623047 0)"/>
       <use xlink:href="#DejaVuSans-31" transform="translate(127.246094 0)"/>
       <use xlink:href="#DejaVuSans-34" transform="translate(190.869141 0)"/>
      </g>
     </g>
    </g>
    <g id="xtick_2">
     <g id="line2d_2">
      <g>
       <use xlink:href="#m618da60fcf" x="178.187281" y="315.398125" style="stroke: #000000; stroke-width: 0.8"/>
      </g>
     </g>
     <g id="text_2">
      <!-- 2015 -->
      <g transform="translate(165.462281 329.996562) scale(0.1 -0.1)">
       <defs>
        <path id="DejaVuSans-35" d="M 691 4666 
L 3169 4666 
L 3169 4134 
L 1269 4134 
L 1269 2991 
Q 1406 3038 1543 3061 
Q 1681 3084 1819 3084 
Q 2600 3084 3056 2656 
Q 3513 2228 3513 1497 
Q 3513 744 3044 326 
Q 2575 -91 1722 -91 
Q 1428 -91 1123 -41 
Q 819 9 494 109 
L 494 744 
Q 775 591 1075 516 
Q 1375 441 1709 441 
Q 2250 441 2565 725 
Q 2881 1009 2881 1497 
Q 2881 1984 2565 2268 
Q 2250 2553 1709 2553 
Q 1456 2553 1204 2497 
Q 953 2441 691 2322 
L 691 4666 
z
" transform="scale(0.015625)"/>
       </defs>
       <use xlink:href="#DejaVuSans-32"/>
       <use xlink:href="#DejaVuSans-30" transform="translate(63.623047 0)"/>
       <use xlink:href="#DejaVuSans-31" transform="translate(127.246094 0)"/>
       <use xlink:href="#DejaVuSans-35" transform="translate(190.869141 0)"/>
      </g>
     </g>
    </g>
    <g id="xtick_3">
     <g id="line2d_3">
      <g>
       <use xlink:href="#m618da60fcf" x="237.517522" y="315.398125" style="stroke: #000000; stroke-width: 0.8"/>
      </g>
     </g>
     <g id="text_3">
      <!-- 2016 -->
      <g transform="translate(224.792522 329.996562) scale(0.1 -0.1)">
       <defs>
        <path id="DejaVuSans-36" d="M 2113 2584 
Q 1688 2584 1439 2293 
Q 1191 2003 1191 1497 
Q 1191 994 1439 701 
Q 1688 409 2113 409 
Q 2538 409 2786 701 
Q 3034 994 3034 1497 
Q 3034 2003 2786 2293 
Q 2538 2584 2113 2584 
z
M 3366 4563 
L 3366 3988 
Q 3128 4100 2886 4159 
Q 2644 4219 2406 4219 
Q 1781 4219 1451 3797 
Q 1122 3375 1075 2522 
Q 1259 2794 1537 2939 
Q 1816 3084 2150 3084 
Q 2853 3084 3261 2657 
Q 3669 2231 3669 1497 
Q 3669 778 3244 343 
Q 2819 -91 2113 -91 
Q 1303 -91 875 529 
Q 447 1150 447 2328 
Q 447 3434 972 4092 
Q 1497 4750 2381 4750 
Q 2619 4750 2861 4703 
Q 3103 4656 3366 4563 
z
" transform="scale(0.015625)"/>
       </defs>
       <use xlink:href="#DejaVuSans-32"/>
       <use xlink:href="#DejaVuSans-30" transform="translate(63.623047 0)"/>
       <use xlink:href="#DejaVuSans-31" transform="translate(127.246094 0)"/>
       <use xlink:href="#DejaVuSans-36" transform="translate(190.869141 0)"/>
      </g>
     </g>
    </g>
    <g id="xtick_4">
     <g id="line2d_4">
      <g>
       <use xlink:href="#m618da60fcf" x="296.847763" y="315.398125" style="stroke: #000000; stroke-width: 0.8"/>
      </g>
     </g>
     <g id="text_4">
      <!-- 2017 -->
      <g transform="translate(284.122763 329.996562) scale(0.1 -0.1)">
       <defs>
        <path id="DejaVuSans-37" d="M 525 4666 
L 3525 4666 
L 3525 4397 
L 1831 0 
L 1172 0 
L 2766 4134 
L 525 4134 
L 525 4666 
z
" transform="scale(0.015625)"/>
       </defs>
       <use xlink:href="#DejaVuSans-32"/>
       <use xlink:href="#DejaVuSans-30" transform="translate(63.623047 0)"/>
       <use xlink:href="#DejaVuSans-31" transform="translate(127.246094 0)"/>
       <use xlink:href="#DejaVuSans-37" transform="translate(190.869141 0)"/>
      </g>
     </g>
    </g>
    <g id="xtick_5">
     <g id="line2d_5">
      <g>
       <use xlink:href="#m618da60fcf" x="356.178004" y="315.398125" style="stroke: #000000; stroke-width: 0.8"/>
      </g>
     </g>
     <g id="text_5">
      <!-- 2018 -->
      <g transform="translate(343.453004 329.996562) scale(0.1 -0.1)">
       <defs>
        <path id="DejaVuSans-38" d="M 2034 2216 
Q 1584 2216 1326 1975 
Q 1069 1734 1069 1313 
Q 1069 891 1326 650 
Q 1584 409 2034 409 
Q 2484 409 2743 651 
Q 3003 894 3003 1313 
Q 3003 1734 2745 1975 
Q 2488 2216 2034 2216 
z
M 1403 2484 
Q 997 2584 770 2862 
Q 544 3141 544 3541 
Q 544 4100 942 4425 
Q 1341 4750 2034 4750 
Q 2731 4750 3128 4425 
Q 3525 4100 3525 3541 
Q 3525 3141 3298 2862 
Q 3072 2584 2669 2484 
Q 3125 2378 3379 2068 
Q 3634 1759 3634 1313 
Q 3634 634 3220 271 
Q 2806 -91 2034 -91 
Q 1263 -91 848 271 
Q 434 634 434 1313 
Q 434 1759 690 2068 
Q 947 2378 1403 2484 
z
M 1172 3481 
Q 1172 3119 1398 2916 
Q 1625 2713 2034 2713 
Q 2441 2713 2670 2916 
Q 2900 3119 2900 3481 
Q 2900 3844 2670 4047 
Q 2441 4250 2034 4250 
Q 1625 4250 1398 4047 
Q 1172 3844 1172 3481 
z
" transform="scale(0.015625)"/>
       </defs>
       <use xlink:href="#DejaVuSans-32"/>
       <use xlink:href="#DejaVuSans-30" transform="translate(63.623047 0)"/>
       <use xlink:href="#DejaVuSans-31" transform="translate(127.246094 0)"/>
       <use xlink:href="#DejaVuSans-38" transform="translate(190.869141 0)"/>
      </g>
     </g>
    </g>
    <g id="xtick_6">
     <g id="line2d_6">
      <g>
       <use xlink:href="#m618da60fcf" x="415.508246" y="315.398125" style="stroke: #000000; stroke-width: 0.8"/>
      </g>
     </g>
     <g id="text_6">
      <!-- 2019 -->
      <g transform="translate(402.783246 329.996562) scale(0.1 -0.1)">
       <defs>
        <path id="DejaVuSans-39" d="M 703 97 
L 703 672 
Q 941 559 1184 500 
Q 1428 441 1663 441 
Q 2288 441 2617 861 
Q 2947 1281 2994 2138 
Q 2813 1869 2534 1725 
Q 2256 1581 1919 1581 
Q 1219 1581 811 2004 
Q 403 2428 403 3163 
Q 403 3881 828 4315 
Q 1253 4750 1959 4750 
Q 2769 4750 3195 4129 
Q 3622 3509 3622 2328 
Q 3622 1225 3098 567 
Q 2575 -91 1691 -91 
Q 1453 -91 1209 -44 
Q 966 3 703 97 
z
M 1959 2075 
Q 2384 2075 2632 2365 
Q 2881 2656 2881 3163 
Q 2881 3666 2632 3958 
Q 2384 4250 1959 4250 
Q 1534 4250 1286 3958 
Q 1038 3666 1038 3163 
Q 1038 2656 1286 2365 
Q 1534 2075 1959 2075 
z
" transform="scale(0.015625)"/>
       </defs>
       <use xlink:href="#DejaVuSans-32"/>
       <use xlink:href="#DejaVuSans-30" transform="translate(63.623047 0)"/>
       <use xlink:href="#DejaVuSans-31" transform="translate(127.246094 0)"/>
       <use xlink:href="#DejaVuSans-39" transform="translate(190.869141 0)"/>
      </g>
     </g>
    </g>
    <g id="xtick_7">
     <g id="line2d_7">
      <g>
       <use xlink:href="#m618da60fcf" x="474.838487" y="315.398125" style="stroke: #000000; stroke-width: 0.8"/>
      </g>
     </g>
     <g id="text_7">
      <!-- 2020 -->
      <g transform="translate(462.113487 329.996562) scale(0.1 -0.1)">
       <use xlink:href="#DejaVuSans-32"/>
       <use xlink:href="#DejaVuSans-30" transform="translate(63.623047 0)"/>
       <use xlink:href="#DejaVuSans-32" transform="translate(127.246094 0)"/>
       <use xlink:href="#DejaVuSans-30" transform="translate(190.869141 0)"/>
      </g>
     </g>
    </g>
    <g id="xtick_8">
     <g id="line2d_8">
      <g>
       <use xlink:href="#m618da60fcf" x="534.168728" y="315.398125" style="stroke: #000000; stroke-width: 0.8"/>
      </g>
     </g>
     <g id="text_8">
      <!-- 2021 -->
      <g transform="translate(521.443728 329.996562) scale(0.1 -0.1)">
       <use xlink:href="#DejaVuSans-32"/>
       <use xlink:href="#DejaVuSans-30" transform="translate(63.623047 0)"/>
       <use xlink:href="#DejaVuSans-32" transform="translate(127.246094 0)"/>
       <use xlink:href="#DejaVuSans-31" transform="translate(190.869141 0)"/>
      </g>
     </g>
    </g>
    <g id="xtick_9">
     <g id="line2d_9">
      <g>
       <use xlink:href="#m618da60fcf" x="593.498969" y="315.398125" style="stroke: #000000; stroke-width: 0.8"/>
      </g>
     </g>
     <g id="text_9">
      <!-- 2022 -->
      <g transform="translate(580.773969 329.996562) scale(0.1 -0.1)">
       <use xlink:href="#DejaVuSans-32"/>
       <use xlink:href="#DejaVuSans-30" transform="translate(63.623047 0)"/>
       <use xlink:href="#DejaVuSans-32" transform="translate(127.246094 0)"/>
       <use xlink:href="#DejaVuSans-32" transform="translate(190.869141 0)"/>
      </g>
     </g>
    </g>
    <g id="xtick_10">
     <g id="line2d_10">
      <g>
       <use xlink:href="#m618da60fcf" x="652.82921" y="315.398125" style="stroke: #000000; stroke-width: 0.8"/>
      </g>
     </g>
     <g id="text_10">
      <!-- 2023 -->
      <g transform="translate(640.10421 329.996562) scale(0.1 -0.1)">
       <defs>
        <path id="DejaVuSans-33" d="M 2597 2516 
Q 3050 2419 3304 2112 
Q 3559 1806 3559 1356 
Q 3559 666 3084 287 
Q 2609 -91 1734 -91 
Q 1441 -91 1130 -33 
Q 819 25 488 141 
L 488 750 
Q 750 597 1062 519 
Q 1375 441 1716 441 
Q 2309 441 2620 675 
Q 2931 909 2931 1356 
Q 2931 1769 2642 2001 
Q 2353 2234 1838 2234 
L 1294 2234 
L 1294 2753 
L 1863 2753 
Q 2328 2753 2575 2939 
Q 2822 3125 2822 3475 
Q 2822 3834 2567 4026 
Q 2313 4219 1838 4219 
Q 1578 4219 1281 4162 
Q 984 4106 628 3988 
L 628 4550 
Q 988 4650 1302 4700 
Q 1616 4750 1894 4750 
Q 2613 4750 3031 4423 
Q 3450 4097 3450 3541 
Q 3450 3153 3228 2886 
Q 3006 2619 2597 2516 
z
" transform="scale(0.015625)"/>
       </defs>
       <use xlink:href="#DejaVuSans-32"/>
       <use xlink:href="#DejaVuSans-30" transform="translate(63.623047 0)"/>
       <use xlink:href="#DejaVuSans-32" transform="translate(127.246094 0)"/>
       <use xlink:href="#DejaVuSans-33" transform="translate(190.869141 0)"/>
      </g>
     </g>
    </g>
    <g id="text_11">
     <!-- Año -->
     <g transform="translate(376.194688 343.674687) scale(0.1 -0.1)">
      <defs>
       <path id="DejaVuSans-41" d="M 2188 4044 
L 1331 1722 
L 3047 1722 
L 2188 4044 
z
M 1831 4666 
L 2547 4666 
L 4325 0 
L 3669 0 
L 3244 1197 
L 1141 1197 
L 716 0 
L 50 0 
L 1831 4666 
z
" transform="scale(0.015625)"/>
       <path id="DejaVuSans-f1" d="M 3513 2113 
L 3513 0 
L 2938 0 
L 2938 2094 
Q 2938 2591 2744 2837 
Q 2550 3084 2163 3084 
Q 1697 3084 1428 2787 
Q 1159 2491 1159 1978 
L 1159 0 
L 581 0 
L 581 3500 
L 1159 3500 
L 1159 2956 
Q 1366 3272 1645 3428 
Q 1925 3584 2291 3584 
Q 2894 3584 3203 3211 
Q 3513 2838 3513 2113 
z
M 2060 4281 
L 1881 4453 
Q 1813 4516 1761 4545 
Q 1710 4575 1669 4575 
Q 1550 4575 1494 4461 
Q 1438 4347 1431 4091 
L 1041 4091 
Q 1047 4513 1206 4742 
Q 1366 4972 1650 4972 
Q 1769 4972 1869 4928 
Q 1969 4884 2085 4781 
L 2263 4609 
Q 2331 4547 2383 4517 
Q 2435 4488 2475 4488 
Q 2594 4488 2650 4602 
Q 2706 4716 2713 4972 
L 3103 4972 
Q 3097 4550 2937 4320 
Q 2778 4091 2494 4091 
Q 2375 4091 2275 4134 
Q 2175 4178 2060 4281 
z
" transform="scale(0.015625)"/>
       <path id="DejaVuSans-6f" d="M 1959 3097 
Q 1497 3097 1228 2736 
Q 959 2375 959 1747 
Q 959 1119 1226 758 
Q 1494 397 1959 397 
Q 2419 397 2687 759 
Q 2956 1122 2956 1747 
Q 2956 2369 2687 2733 
Q 2419 3097 1959 3097 
z
M 1959 3584 
Q 2709 3584 3137 3096 
Q 3566 2609 3566 1747 
Q 3566 888 3137 398 
Q 2709 -91 1959 -91 
Q 1206 -91 779 398 
Q 353 888 353 1747 
Q 353 2609 779 3096 
Q 1206 3584 1959 3584 
z
" transform="scale(0.015625)"/>
      </defs>
      <use xlink:href="#DejaVuSans-41"/>
      <use xlink:href="#DejaVuSans-f1" transform="translate(68.408203 0)"/>
      <use xlink:href="#DejaVuSans-6f" transform="translate(131.787109 0)"/>
     </g>
    </g>
   </g>
   <g id="matplotlib.axis_2">
    <g id="ytick_1">
     <g id="line2d_11">
      <path d="M 66.053125 315.398125 
L 705.633125 315.398125 
" clip-path="url(#p3e10f9f7ab)" style="fill: none; stroke-dasharray: 2.96,1.28; stroke-dashoffset: 0; stroke: #b0b0b0; stroke-opacity: 0.5; stroke-width: 0.8"/>
     </g>
     <g id="line2d_12">
      <defs>
       <path id="mff434464fa" d="M 0 0 
L -3.5 0 
" style="stroke: #000000; stroke-width: 0.8"/>
      </defs>
      <g>
       <use xlink:href="#mff434464fa" x="66.053125" y="315.398125" style="stroke: #000000; stroke-width: 0.8"/>
      </g>
     </g>
     <g id="text_12">
      <!-- 0 -->
      <g transform="translate(52.690625 319.197344) scale(0.1 -0.1)">
       <use xlink:href="#DejaVuSans-30"/>
      </g>
     </g>
    </g>
    <g id="ytick_2">
     <g id="line2d_13">
      <path d="M 66.053125 281.737161 
L 705.633125 281.737161 
" clip-path="url(#p3e10f9f7ab)" style="fill: none; stroke-dasharray: 2.96,1.28; stroke-dashoffset: 0; stroke: #b0b0b0; stroke-opacity: 0.5; stroke-width: 0.8"/>
     </g>
     <g id="line2d_14">
      <g>
       <use xlink:href="#mff434464fa" x="66.053125" y="281.737161" style="stroke: #000000; stroke-width: 0.8"/>
      </g>
     </g>
     <g id="text_13">
      <!-- 20000 -->
      <g transform="translate(27.240625 285.53638) scale(0.1 -0.1)">
       <use xlink:href="#DejaVuSans-32"/>
       <use xlink:href="#DejaVuSans-30" transform="translate(63.623047 0)"/>
       <use xlink:href="#DejaVuSans-30" transform="translate(127.246094 0)"/>
       <use xlink:href="#DejaVuSans-30" transform="translate(190.869141 0)"/>
       <use xlink:href="#DejaVuSans-30" transform="translate(254.492188 0)"/>
      </g>
     </g>
    </g>
    <g id="ytick_3">
     <g id="line2d_15">
      <path d="M 66.053125 248.076197 
L 705.633125 248.076197 
" clip-path="url(#p3e10f9f7ab)" style="fill: none; stroke-dasharray: 2.96,1.28; stroke-dashoffset: 0; stroke: #b0b0b0; stroke-opacity: 0.5; stroke-width: 0.8"/>
     </g>
     <g id="line2d_16">
      <g>
       <use xlink:href="#mff434464fa" x="66.053125" y="248.076197" style="stroke: #000000; stroke-width: 0.8"/>
      </g>
     </g>
     <g id="text_14">
      <!-- 40000 -->
      <g transform="translate(27.240625 251.875416) scale(0.1 -0.1)">
       <use xlink:href="#DejaVuSans-34"/>
       <use xlink:href="#DejaVuSans-30" transform="translate(63.623047 0)"/>
       <use xlink:href="#DejaVuSans-30" transform="translate(127.246094 0)"/>
       <use xlink:href="#DejaVuSans-30" transform="translate(190.869141 0)"/>
       <use xlink:href="#DejaVuSans-30" transform="translate(254.492188 0)"/>
      </g>
     </g>
    </g>
    <g id="ytick_4">
     <g id="line2d_17">
      <path d="M 66.053125 214.415233 
L 705.633125 214.415233 
" clip-path="url(#p3e10f9f7ab)" style="fill: none; stroke-dasharray: 2.96,1.28; stroke-dashoffset: 0; stroke: #b0b0b0; stroke-opacity: 0.5; stroke-width: 0.8"/>
     </g>
     <g id="line2d_18">
      <g>
       <use xlink:href="#mff434464fa" x="66.053125" y="214.415233" style="stroke: #000000; stroke-width: 0.8"/>
      </g>
     </g>
     <g id="text_15">
      <!-- 60000 -->
      <g transform="translate(27.240625 218.214452) scale(0.1 -0.1)">
       <use xlink:href="#DejaVuSans-36"/>
       <use xlink:href="#DejaVuSans-30" transform="translate(63.623047 0)"/>
       <use xlink:href="#DejaVuSans-30" transform="translate(127.246094 0)"/>
       <use xlink:href="#DejaVuSans-30" transform="translate(190.869141 0)"/>
       <use xlink:href="#DejaVuSans-30" transform="translate(254.492188 0)"/>
      </g>
     </g>
    </g>
    <g id="ytick_5">
     <g id="line2d_19">
      <path d="M 66.053125 180.754269 
L 705.633125 180.754269 
" clip-path="url(#p3e10f9f7ab)" style="fill: none; stroke-dasharray: 2.96,1.28; stroke-dashoffset: 0; stroke: #b0b0b0; stroke-opacity: 0.5; stroke-width: 0.8"/>
     </g>
     <g id="line2d_20">
      <g>
       <use xlink:href="#mff434464fa" x="66.053125" y="180.754269" style="stroke: #000000; stroke-width: 0.8"/>
      </g>
     </g>
     <g id="text_16">
      <!-- 80000 -->
      <g transform="translate(27.240625 184.553488) scale(0.1 -0.1)">
       <use xlink:href="#DejaVuSans-38"/>
       <use xlink:href="#DejaVuSans-30" transform="translate(63.623047 0)"/>
       <use xlink:href="#DejaVuSans-30" transform="translate(127.246094 0)"/>
       <use xlink:href="#DejaVuSans-30" transform="translate(190.869141 0)"/>
       <use xlink:href="#DejaVuSans-30" transform="translate(254.492188 0)"/>
      </g>
     </g>
    </g>
    <g id="ytick_6">
     <g id="line2d_21">
      <path d="M 66.053125 147.093305 
L 705.633125 147.093305 
" clip-path="url(#p3e10f9f7ab)" style="fill: none; stroke-dasharray: 2.96,1.28; stroke-dashoffset: 0; stroke: #b0b0b0; stroke-opacity: 0.5; stroke-width: 0.8"/>
     </g>
     <g id="line2d_22">
      <g>
       <use xlink:href="#mff434464fa" x="66.053125" y="147.093305" style="stroke: #000000; stroke-width: 0.8"/>
      </g>
     </g>
     <g id="text_17">
      <!-- 100000 -->
      <g transform="translate(20.878125 150.892524) scale(0.1 -0.1)">
       <use xlink:href="#DejaVuSans-31"/>
       <use xlink:href="#DejaVuSans-30" transform="translate(63.623047 0)"/>
       <use xlink:href="#DejaVuSans-30" transform="translate(127.246094 0)"/>
       <use xlink:href="#DejaVuSans-30" transform="translate(190.869141 0)"/>
       <use xlink:href="#DejaVuSans-30" transform="translate(254.492188 0)"/>
       <use xlink:href="#DejaVuSans-30" transform="translate(318.115234 0)"/>
      </g>
     </g>
    </g>
    <g id="ytick_7">
     <g id="line2d_23">
      <path d="M 66.053125 113.432341 
L 705.633125 113.432341 
" clip-path="url(#p3e10f9f7ab)" style="fill: none; stroke-dasharray: 2.96,1.28; stroke-dashoffset: 0; stroke: #b0b0b0; stroke-opacity: 0.5; stroke-width: 0.8"/>
     </g>
     <g id="line2d_24">
      <g>
       <use xlink:href="#mff434464fa" x="66.053125" y="113.432341" style="stroke: #000000; stroke-width: 0.8"/>
      </g>
     </g>
     <g id="text_18">
      <!-- 120000 -->
      <g transform="translate(20.878125 117.23156) scale(0.1 -0.1)">
       <use xlink:href="#DejaVuSans-31"/>
       <use xlink:href="#DejaVuSans-32" transform="translate(63.623047 0)"/>
       <use xlink:href="#DejaVuSans-30" transform="translate(127.246094 0)"/>
       <use xlink:href="#DejaVuSans-30" transform="translate(190.869141 0)"/>
       <use xlink:href="#DejaVuSans-30" transform="translate(254.492188 0)"/>
       <use xlink:href="#DejaVuSans-30" transform="translate(318.115234 0)"/>
      </g>
     </g>
    </g>
    <g id="ytick_8">
     <g id="line2d_25">
      <path d="M 66.053125 79.771377 
L 705.633125 79.771377 
" clip-path="url(#p3e10f9f7ab)" style="fill: none; stroke-dasharray: 2.96,1.28; stroke-dashoffset: 0; stroke: #b0b0b0; stroke-opacity: 0.5; stroke-width: 0.8"/>
     </g>
     <g id="line2d_26">
      <g>
       <use xlink:href="#mff434464fa" x="66.053125" y="79.771377" style="stroke: #000000; stroke-width: 0.8"/>
      </g>
     </g>
     <g id="text_19">
      <!-- 140000 -->
      <g transform="translate(20.878125 83.570596) scale(0.1 -0.1)">
       <use xlink:href="#DejaVuSans-31"/>
       <use xlink:href="#DejaVuSans-34" transform="translate(63.623047 0)"/>
       <use xlink:href="#DejaVuSans-30" transform="translate(127.246094 0)"/>
       <use xlink:href="#DejaVuSans-30" transform="translate(190.869141 0)"/>
       <use xlink:href="#DejaVuSans-30" transform="translate(254.492188 0)"/>
       <use xlink:href="#DejaVuSans-30" transform="translate(318.115234 0)"/>
      </g>
     </g>
    </g>
    <g id="ytick_9">
     <g id="line2d_27">
      <path d="M 66.053125 46.110413 
L 705.633125 46.110413 
" clip-path="url(#p3e10f9f7ab)" style="fill: none; stroke-dasharray: 2.96,1.28; stroke-dashoffset: 0; stroke: #b0b0b0; stroke-opacity: 0.5; stroke-width: 0.8"/>
     </g>
     <g id="line2d_28">
      <g>
       <use xlink:href="#mff434464fa" x="66.053125" y="46.110413" style="stroke: #000000; stroke-width: 0.8"/>
      </g>
     </g>
     <g id="text_20">
      <!-- 160000 -->
      <g transform="translate(20.878125 49.909632) scale(0.1 -0.1)">
       <use xlink:href="#DejaVuSans-31"/>
       <use xlink:href="#DejaVuSans-36" transform="translate(63.623047 0)"/>
       <use xlink:href="#DejaVuSans-30" transform="translate(127.246094 0)"/>
       <use xlink:href="#DejaVuSans-30" transform="translate(190.869141 0)"/>
       <use xlink:href="#DejaVuSans-30" transform="translate(254.492188 0)"/>
       <use xlink:href="#DejaVuSans-30" transform="translate(318.115234 0)"/>
      </g>
     </g>
    </g>
    <g id="text_21">
     <!-- Toneladas métricas -->
     <g transform="translate(14.798438 217.021406) rotate(-90) scale(0.1 -0.1)">
      <defs>
       <path id="DejaVuSans-54" d="M -19 4666 
L 3928 4666 
L 3928 4134 
L 2272 4134 
L 2272 0 
L 1638 0 
L 1638 4134 
L -19 4134 
L -19 4666 
z
" transform="scale(0.015625)"/>
       <path id="DejaVuSans-6e" d="M 3513 2113 
L 3513 0 
L 2938 0 
L 2938 2094 
Q 2938 2591 2744 2837 
Q 2550 3084 2163 3084 
Q 1697 3084 1428 2787 
Q 1159 2491 1159 1978 
L 1159 0 
L 581 0 
L 581 3500 
L 1159 3500 
L 1159 2956 
Q 1366 3272 1645 3428 
Q 1925 3584 2291 3584 
Q 2894 3584 3203 3211 
Q 3513 2838 3513 2113 
z
" transform="scale(0.015625)"/>
       <path id="DejaVuSans-65" d="M 3597 1894 
L 3597 1613 
L 953 1613 
Q 991 1019 1311 708 
Q 1631 397 2203 397 
Q 2534 397 2845 478 
Q 3156 559 3463 722 
L 3463 178 
Q 3153 47 2828 -22 
Q 2503 -91 2169 -91 
Q 1331 -91 842 396 
Q 353 884 353 1716 
Q 353 2575 817 3079 
Q 1281 3584 2069 3584 
Q 2775 3584 3186 3129 
Q 3597 2675 3597 1894 
z
M 3022 2063 
Q 3016 2534 2758 2815 
Q 2500 3097 2075 3097 
Q 1594 3097 1305 2825 
Q 1016 2553 972 2059 
L 3022 2063 
z
" transform="scale(0.015625)"/>
       <path id="DejaVuSans-6c" d="M 603 4863 
L 1178 4863 
L 1178 0 
L 603 0 
L 603 4863 
z
" transform="scale(0.015625)"/>
       <path id="DejaVuSans-61" d="M 2194 1759 
Q 1497 1759 1228 1600 
Q 959 1441 959 1056 
Q 959 750 1161 570 
Q 1363 391 1709 391 
Q 2188 391 2477 730 
Q 2766 1069 2766 1631 
L 2766 1759 
L 2194 1759 
z
M 3341 1997 
L 3341 0 
L 2766 0 
L 2766 531 
Q 2569 213 2275 61 
Q 1981 -91 1556 -91 
Q 1019 -91 701 211 
Q 384 513 384 1019 
Q 384 1609 779 1909 
Q 1175 2209 1959 2209 
L 2766 2209 
L 2766 2266 
Q 2766 2663 2505 2880 
Q 2244 3097 1772 3097 
Q 1472 3097 1187 3025 
Q 903 2953 641 2809 
L 641 3341 
Q 956 3463 1253 3523 
Q 1550 3584 1831 3584 
Q 2591 3584 2966 3190 
Q 3341 2797 3341 1997 
z
" transform="scale(0.015625)"/>
       <path id="DejaVuSans-64" d="M 2906 2969 
L 2906 4863 
L 3481 4863 
L 3481 0 
L 2906 0 
L 2906 525 
Q 2725 213 2448 61 
Q 2172 -91 1784 -91 
Q 1150 -91 751 415 
Q 353 922 353 1747 
Q 353 2572 751 3078 
Q 1150 3584 1784 3584 
Q 2172 3584 2448 3432 
Q 2725 3281 2906 2969 
z
M 947 1747 
Q 947 1113 1208 752 
Q 1469 391 1925 391 
Q 2381 391 2643 752 
Q 2906 1113 2906 1747 
Q 2906 2381 2643 2742 
Q 2381 3103 1925 3103 
Q 1469 3103 1208 2742 
Q 947 2381 947 1747 
z
" transform="scale(0.015625)"/>
       <path id="DejaVuSans-73" d="M 2834 3397 
L 2834 2853 
Q 2591 2978 2328 3040 
Q 2066 3103 1784 3103 
Q 1356 3103 1142 2972 
Q 928 2841 928 2578 
Q 928 2378 1081 2264 
Q 1234 2150 1697 2047 
L 1894 2003 
Q 2506 1872 2764 1633 
Q 3022 1394 3022 966 
Q 3022 478 2636 193 
Q 2250 -91 1575 -91 
Q 1294 -91 989 -36 
Q 684 19 347 128 
L 347 722 
Q 666 556 975 473 
Q 1284 391 1588 391 
Q 1994 391 2212 530 
Q 2431 669 2431 922 
Q 2431 1156 2273 1281 
Q 2116 1406 1581 1522 
L 1381 1569 
Q 847 1681 609 1914 
Q 372 2147 372 2553 
Q 372 3047 722 3315 
Q 1072 3584 1716 3584 
Q 2034 3584 2315 3537 
Q 2597 3491 2834 3397 
z
" transform="scale(0.015625)"/>
       <path id="DejaVuSans-20" transform="scale(0.015625)"/>
       <path id="DejaVuSans-6d" d="M 3328 2828 
Q 3544 3216 3844 3400 
Q 4144 3584 4550 3584 
Q 5097 3584 5394 3201 
Q 5691 2819 5691 2113 
L 5691 0 
L 5113 0 
L 5113 2094 
Q 5113 2597 4934 2840 
Q 4756 3084 4391 3084 
Q 3944 3084 3684 2787 
Q 3425 2491 3425 1978 
L 3425 0 
L 2847 0 
L 2847 2094 
Q 2847 2600 2669 2842 
Q 2491 3084 2119 3084 
Q 1678 3084 1418 2786 
Q 1159 2488 1159 1978 
L 1159 0 
L 581 0 
L 581 3500 
L 1159 3500 
L 1159 2956 
Q 1356 3278 1631 3431 
Q 1906 3584 2284 3584 
Q 2666 3584 2933 3390 
Q 3200 3197 3328 2828 
z
" transform="scale(0.015625)"/>
       <path id="DejaVuSans-e9" d="M 3597 1894 
L 3597 1613 
L 953 1613 
Q 991 1019 1311 708 
Q 1631 397 2203 397 
Q 2534 397 2845 478 
Q 3156 559 3463 722 
L 3463 178 
Q 3153 47 2828 -22 
Q 2503 -91 2169 -91 
Q 1331 -91 842 396 
Q 353 884 353 1716 
Q 353 2575 817 3079 
Q 1281 3584 2069 3584 
Q 2775 3584 3186 3129 
Q 3597 2675 3597 1894 
z
M 3022 2063 
Q 3016 2534 2758 2815 
Q 2500 3097 2075 3097 
Q 1594 3097 1305 2825 
Q 1016 2553 972 2059 
L 3022 2063 
z
M 2466 5119 
L 3088 5119 
L 2070 3944 
L 1591 3944 
L 2466 5119 
z
" transform="scale(0.015625)"/>
       <path id="DejaVuSans-74" d="M 1172 4494 
L 1172 3500 
L 2356 3500 
L 2356 3053 
L 1172 3053 
L 1172 1153 
Q 1172 725 1289 603 
Q 1406 481 1766 481 
L 2356 481 
L 2356 0 
L 1766 0 
Q 1100 0 847 248 
Q 594 497 594 1153 
L 594 3053 
L 172 3053 
L 172 3500 
L 594 3500 
L 594 4494 
L 1172 4494 
z
" transform="scale(0.015625)"/>
       <path id="DejaVuSans-72" d="M 2631 2963 
Q 2534 3019 2420 3045 
Q 2306 3072 2169 3072 
Q 1681 3072 1420 2755 
Q 1159 2438 1159 1844 
L 1159 0 
L 581 0 
L 581 3500 
L 1159 3500 
L 1159 2956 
Q 1341 3275 1631 3429 
Q 1922 3584 2338 3584 
Q 2397 3584 2469 3576 
Q 2541 3569 2628 3553 
L 2631 2963 
z
" transform="scale(0.015625)"/>
       <path id="DejaVuSans-69" d="M 603 3500 
L 1178 3500 
L 1178 0 
L 603 0 
L 603 3500 
z
M 603 4863 
L 1178 4863 
L 1178 4134 
L 603 4134 
L 603 4863 
z
" transform="scale(0.015625)"/>
       <path id="DejaVuSans-63" d="M 3122 3366 
L 3122 2828 
Q 2878 2963 2633 3030 
Q 2388 3097 2138 3097 
Q 1578 3097 1268 2742 
Q 959 2388 959 1747 
Q 959 1106 1268 751 
Q 1578 397 2138 397 
Q 2388 397 2633 464 
Q 2878 531 3122 666 
L 3122 134 
Q 2881 22 2623 -34 
Q 2366 -91 2075 -91 
Q 1284 -91 818 406 
Q 353 903 353 1747 
Q 353 2603 823 3093 
Q 1294 3584 2113 3584 
Q 2378 3584 2631 3529 
Q 2884 3475 3122 3366 
z
" transform="scale(0.015625)"/>
      </defs>
      <use xlink:href="#DejaVuSans-54"/>
      <use xlink:href="#DejaVuSans-6f" transform="translate(44.083984 0)"/>
      <use xlink:href="#DejaVuSans-6e" transform="translate(105.265625 0)"/>
      <use xlink:href="#DejaVuSans-65" transform="translate(168.644531 0)"/>
      <use xlink:href="#DejaVuSans-6c" transform="translate(230.167969 0)"/>
      <use xlink:href="#DejaVuSans-61" transform="translate(257.951172 0)"/>
      <use xlink:href="#DejaVuSans-64" transform="translate(319.230469 0)"/>
      <use xlink:href="#DejaVuSans-61" transform="translate(382.707031 0)"/>
      <use xlink:href="#DejaVuSans-73" transform="translate(443.986328 0)"/>
      <use xlink:href="#DejaVuSans-20" transform="translate(496.085938 0)"/>
      <use xlink:href="#DejaVuSans-6d" transform="translate(527.873047 0)"/>
      <use xlink:href="#DejaVuSans-e9" transform="translate(625.285156 0)"/>
      <use xlink:href="#DejaVuSans-74" transform="translate(686.808594 0)"/>
      <use xlink:href="#DejaVuSans-72" transform="translate(726.017578 0)"/>
      <use xlink:href="#DejaVuSans-69" transform="translate(767.130859 0)"/>
      <use xlink:href="#DejaVuSans-63" transform="translate(794.914062 0)"/>
      <use xlink:href="#DejaVuSans-61" transform="translate(849.894531 0)"/>
      <use xlink:href="#DejaVuSans-73" transform="translate(911.173828 0)"/>
     </g>
    </g>
   </g>
   <g id="patch_43">
    <path d="M 66.053125 315.398125 
L 66.053125 22.318125 
" style="fill: none; stroke: #000000; stroke-width: 0.8; stroke-linejoin: miter; stroke-linecap: square"/>
   </g>
   <g id="patch_44">
    <path d="M 705.633125 315.398125 
L 705.633125 22.318125 
" style="fill: none; stroke: #000000; stroke-width: 0.8; stroke-linejoin: miter; stroke-linecap: square"/>
   </g>
   <g id="patch_45">
    <path d="M 66.053125 315.398125 
L 705.633125 315.398125 
" style="fill: none; stroke: #000000; stroke-width: 0.8; stroke-linejoin: miter; stroke-linecap: square"/>
   </g>
   <g id="patch_46">
    <path d="M 66.053125 22.318125 
L 705.633125 22.318125 
" style="fill: none; stroke: #000000; stroke-width: 0.8; stroke-linejoin: miter; stroke-linecap: square"/>
   </g>
   <g id="text_22">
    <!-- Desembarque por Puerto - Ica 2014-2023 (TM brutas) -->
    <g transform="translate(224.554688 16.318125) scale(0.12 -0.12)">
     <defs>
      <path id="DejaVuSans-44" d="M 1259 4147 
L 1259 519 
L 2022 519 
Q 2988 519 3436 956 
Q 3884 1394 3884 2338 
Q 3884 3275 3436 3711 
Q 2988 4147 2022 4147 
L 1259 4147 
z
M 628 4666 
L 1925 4666 
Q 3281 4666 3915 4102 
Q 4550 3538 4550 2338 
Q 4550 1131 3912 565 
Q 3275 0 1925 0 
L 628 0 
L 628 4666 
z
" transform="scale(0.015625)"/>
      <path id="DejaVuSans-62" d="M 3116 1747 
Q 3116 2381 2855 2742 
Q 2594 3103 2138 3103 
Q 1681 3103 1420 2742 
Q 1159 2381 1159 1747 
Q 1159 1113 1420 752 
Q 1681 391 2138 391 
Q 2594 391 2855 752 
Q 3116 1113 3116 1747 
z
M 1159 2969 
Q 1341 3281 1617 3432 
Q 1894 3584 2278 3584 
Q 2916 3584 3314 3078 
Q 3713 2572 3713 1747 
Q 3713 922 3314 415 
Q 2916 -91 2278 -91 
Q 1894 -91 1617 61 
Q 1341 213 1159 525 
L 1159 0 
L 581 0 
L 581 4863 
L 1159 4863 
L 1159 2969 
z
" transform="scale(0.015625)"/>
      <path id="DejaVuSans-71" d="M 947 1747 
Q 947 1113 1208 752 
Q 1469 391 1925 391 
Q 2381 391 2643 752 
Q 2906 1113 2906 1747 
Q 2906 2381 2643 2742 
Q 2381 3103 1925 3103 
Q 1469 3103 1208 2742 
Q 947 2381 947 1747 
z
M 2906 525 
Q 2725 213 2448 61 
Q 2172 -91 1784 -91 
Q 1150 -91 751 415 
Q 353 922 353 1747 
Q 353 2572 751 3078 
Q 1150 3584 1784 3584 
Q 2172 3584 2448 3432 
Q 2725 3281 2906 2969 
L 2906 3500 
L 3481 3500 
L 3481 -1331 
L 2906 -1331 
L 2906 525 
z
" transform="scale(0.015625)"/>
      <path id="DejaVuSans-75" d="M 544 1381 
L 544 3500 
L 1119 3500 
L 1119 1403 
Q 1119 906 1312 657 
Q 1506 409 1894 409 
Q 2359 409 2629 706 
Q 2900 1003 2900 1516 
L 2900 3500 
L 3475 3500 
L 3475 0 
L 2900 0 
L 2900 538 
Q 2691 219 2414 64 
Q 2138 -91 1772 -91 
Q 1169 -91 856 284 
Q 544 659 544 1381 
z
M 1991 3584 
L 1991 3584 
z
" transform="scale(0.015625)"/>
      <path id="DejaVuSans-70" d="M 1159 525 
L 1159 -1331 
L 581 -1331 
L 581 3500 
L 1159 3500 
L 1159 2969 
Q 1341 3281 1617 3432 
Q 1894 3584 2278 3584 
Q 2916 3584 3314 3078 
Q 3713 2572 3713 1747 
Q 3713 922 3314 415 
Q 2916 -91 2278 -91 
Q 1894 -91 1617 61 
Q 1341 213 1159 525 
z
M 3116 1747 
Q 3116 2381 2855 2742 
Q 2594 3103 2138 3103 
Q 1681 3103 1420 2742 
Q 1159 2381 1159 1747 
Q 1159 1113 1420 752 
Q 1681 391 2138 391 
Q 2594 391 2855 752 
Q 3116 1113 3116 1747 
z
" transform="scale(0.015625)"/>
      <path id="DejaVuSans-50" d="M 1259 4147 
L 1259 2394 
L 2053 2394 
Q 2494 2394 2734 2622 
Q 2975 2850 2975 3272 
Q 2975 3691 2734 3919 
Q 2494 4147 2053 4147 
L 1259 4147 
z
M 628 4666 
L 2053 4666 
Q 2838 4666 3239 4311 
Q 3641 3956 3641 3272 
Q 3641 2581 3239 2228 
Q 2838 1875 2053 1875 
L 1259 1875 
L 1259 0 
L 628 0 
L 628 4666 
z
" transform="scale(0.015625)"/>
      <path id="DejaVuSans-2d" d="M 313 2009 
L 1997 2009 
L 1997 1497 
L 313 1497 
L 313 2009 
z
" transform="scale(0.015625)"/>
      <path id="DejaVuSans-49" d="M 628 4666 
L 1259 4666 
L 1259 0 
L 628 0 
L 628 4666 
z
" transform="scale(0.015625)"/>
      <path id="DejaVuSans-28" d="M 1984 4856 
Q 1566 4138 1362 3434 
Q 1159 2731 1159 2009 
Q 1159 1288 1364 580 
Q 1569 -128 1984 -844 
L 1484 -844 
Q 1016 -109 783 600 
Q 550 1309 550 2009 
Q 550 2706 781 3412 
Q 1013 4119 1484 4856 
L 1984 4856 
z
" transform="scale(0.015625)"/>
      <path id="DejaVuSans-4d" d="M 628 4666 
L 1569 4666 
L 2759 1491 
L 3956 4666 
L 4897 4666 
L 4897 0 
L 4281 0 
L 4281 4097 
L 3078 897 
L 2444 897 
L 1241 4097 
L 1241 0 
L 628 0 
L 628 4666 
z
" transform="scale(0.015625)"/>
      <path id="DejaVuSans-29" d="M 513 4856 
L 1013 4856 
Q 1481 4119 1714 3412 
Q 1947 2706 1947 2009 
Q 1947 1309 1714 600 
Q 1481 -109 1013 -844 
L 513 -844 
Q 928 -128 1133 580 
Q 1338 1288 1338 2009 
Q 1338 2731 1133 3434 
Q 928 4138 513 4856 
z
" transform="scale(0.015625)"/>
     </defs>
     <use xlink:href="#DejaVuSans-44"/>
     <use xlink:href="#DejaVuSans-65" transform="translate(77.001953 0)"/>
     <use xlink:href="#DejaVuSans-73" transform="translate(138.525391 0)"/>
     <use xlink:href="#DejaVuSans-65" transform="translate(190.625 0)"/>
     <use xlink:href="#DejaVuSans-6d" transform="translate(252.148438 0)"/>
     <use xlink:href="#DejaVuSans-62" transform="translate(349.560547 0)"/>
     <use xlink:href="#DejaVuSans-61" transform="translate(413.037109 0)"/>
     <use xlink:href="#DejaVuSans-72" transform="translate(474.316406 0)"/>
     <use xlink:href="#DejaVuSans-71" transform="translate(513.679688 0)"/>
     <use xlink:href="#DejaVuSans-75" transform="translate(577.15625 0)"/>
     <use xlink:href="#DejaVuSans-65" transform="translate(640.535156 0)"/>
     <use xlink:href="#DejaVuSans-20" transform="translate(702.058594 0)"/>
     <use xlink:href="#DejaVuSans-70" transform="translate(733.845703 0)"/>
     <use xlink:href="#DejaVuSans-6f" transform="translate(797.322266 0)"/>
     <use xlink:href="#DejaVuSans-72" transform="translate(858.503906 0)"/>
     <use xlink:href="#DejaVuSans-20" transform="translate(899.617188 0)"/>
     <use xlink:href="#DejaVuSans-50" transform="translate(931.404297 0)"/>
     <use xlink:href="#DejaVuSans-75" transform="translate(989.957031 0)"/>
     <use xlink:href="#DejaVuSans-65" transform="translate(1053.335938 0)"/>
     <use xlink:href="#DejaVuSans-72" transform="translate(1114.859375 0)"/>
     <use xlink:href="#DejaVuSans-74" transform="translate(1155.972656 0)"/>
     <use xlink:href="#DejaVuSans-6f" transform="translate(1195.181641 0)"/>
     <use xlink:href="#DejaVuSans-20" transform="translate(1256.363281 0)"/>
     <use xlink:href="#DejaVuSans-2d" transform="translate(1288.150391 0)"/>
     <use xlink:href="#DejaVuSans-20" transform="translate(1324.234375 0)"/>
     <use xlink:href="#DejaVuSans-49" transform="translate(1356.021484 0)"/>
     <use xlink:href="#DejaVuSans-63" transform="translate(1385.513672 0)"/>
     <use xlink:href="#DejaVuSans-61" transform="translate(1440.494141 0)"/>
     <use xlink:href="#DejaVuSans-20" transform="translate(1501.773438 0)"/>
     <use xlink:href="#DejaVuSans-32" transform="translate(1533.560547 0)"/>
     <use xlink:href="#DejaVuSans-30" transform="translate(1597.183594 0)"/>
     <use xlink:href="#DejaVuSans-31" transform="translate(1660.806641 0)"/>
     <use xlink:href="#DejaVuSans-34" transform="translate(1724.429688 0)"/>
     <use xlink:href="#DejaVuSans-2d" transform="translate(1788.052734 0)"/>
     <use xlink:href="#DejaVuSans-32" transform="translate(1824.136719 0)"/>
     <use xlink:href="#DejaVuSans-30" transform="translate(1887.759766 0)"/>
     <use xlink:href="#DejaVuSans-32" transform="translate(1951.382812 0)"/>
     <use xlink:href="#DejaVuSans-33" transform="translate(2015.005859 0)"/>
     <use xlink:href="#DejaVuSans-20" transform="translate(2078.628906 0)"/>
     <use xlink:href="#DejaVuSans-28" transform="translate(2110.416016 0)"/>
     <use xlink:href="#DejaVuSans-54" transform="translate(2149.429688 0)"/>
     <use xlink:href="#DejaVuSans-4d" transform="translate(2210.513672 0)"/>
     <use xlink:href="#DejaVuSans-20" transform="translate(2296.792969 0)"/>
     <use xlink:href="#DejaVuSans-62" transform="translate(2328.580078 0)"/>
     <use xlink:href="#DejaVuSans-72" transform="translate(2392.056641 0)"/>
     <use xlink:href="#DejaVuSans-75" transform="translate(2433.169922 0)"/>
     <use xlink:href="#DejaVuSans-74" transform="translate(2496.548828 0)"/>
     <use xlink:href="#DejaVuSans-61" transform="translate(2535.757812 0)"/>
     <use xlink:href="#DejaVuSans-73" transform="translate(2597.037109 0)"/>
     <use xlink:href="#DejaVuSans-29" transform="translate(2649.136719 0)"/>
    </g>
   </g>
   <g id="legend_1">
    <g id="patch_47">
     <path d="M 71.653125 75.945625 
L 181.331875 75.945625 
Q 182.931875 75.945625 182.931875 74.345625 
L 182.931875 27.918125 
Q 182.931875 26.318125 181.331875 26.318125 
L 71.653125 26.318125 
Q 70.053125 26.318125 70.053125 27.918125 
L 70.053125 74.345625 
Q 70.053125 75.945625 71.653125 75.945625 
z
" style="fill: #ffffff; opacity: 0.8; stroke: #cccccc; stroke-linejoin: miter"/>
    </g>
    <g id="patch_48">
     <path d="M 73.253125 35.596875 
L 89.253125 35.596875 
L 89.253125 29.996875 
L 73.253125 29.996875 
z
" style="fill: #4682b4"/>
    </g>
    <g id="text_23">
     <!-- Pisco -->
     <g transform="translate(95.653125 35.596875) scale(0.08 -0.08)">
      <use xlink:href="#DejaVuSans-50"/>
      <use xlink:href="#DejaVuSans-69" transform="translate(58.052734 0)"/>
      <use xlink:href="#DejaVuSans-73" transform="translate(85.835938 0)"/>
      <use xlink:href="#DejaVuSans-63" transform="translate(137.935547 0)"/>
      <use xlink:href="#DejaVuSans-6f" transform="translate(192.916016 0)"/>
     </g>
    </g>
    <g id="patch_49">
     <path d="M 73.253125 47.339375 
L 89.253125 47.339375 
L 89.253125 41.739375 
L 73.253125 41.739375 
z
" style="fill: #ff7f50"/>
    </g>
    <g id="text_24">
     <!-- San Andrés -->
     <g transform="translate(95.653125 47.339375) scale(0.08 -0.08)">
      <defs>
       <path id="DejaVuSans-53" d="M 3425 4513 
L 3425 3897 
Q 3066 4069 2747 4153 
Q 2428 4238 2131 4238 
Q 1616 4238 1336 4038 
Q 1056 3838 1056 3469 
Q 1056 3159 1242 3001 
Q 1428 2844 1947 2747 
L 2328 2669 
Q 3034 2534 3370 2195 
Q 3706 1856 3706 1288 
Q 3706 609 3251 259 
Q 2797 -91 1919 -91 
Q 1588 -91 1214 -16 
Q 841 59 441 206 
L 441 856 
Q 825 641 1194 531 
Q 1563 422 1919 422 
Q 2459 422 2753 634 
Q 3047 847 3047 1241 
Q 3047 1584 2836 1778 
Q 2625 1972 2144 2069 
L 1759 2144 
Q 1053 2284 737 2584 
Q 422 2884 422 3419 
Q 422 4038 858 4394 
Q 1294 4750 2059 4750 
Q 2388 4750 2728 4690 
Q 3069 4631 3425 4513 
z
" transform="scale(0.015625)"/>
      </defs>
      <use xlink:href="#DejaVuSans-53"/>
      <use xlink:href="#DejaVuSans-61" transform="translate(63.476562 0)"/>
      <use xlink:href="#DejaVuSans-6e" transform="translate(124.755859 0)"/>
      <use xlink:href="#DejaVuSans-20" transform="translate(188.134766 0)"/>
      <use xlink:href="#DejaVuSans-41" transform="translate(219.921875 0)"/>
      <use xlink:href="#DejaVuSans-6e" transform="translate(288.330078 0)"/>
      <use xlink:href="#DejaVuSans-64" transform="translate(351.708984 0)"/>
      <use xlink:href="#DejaVuSans-72" transform="translate(415.185547 0)"/>
      <use xlink:href="#DejaVuSans-e9" transform="translate(454.048828 0)"/>
      <use xlink:href="#DejaVuSans-73" transform="translate(515.572266 0)"/>
     </g>
    </g>
    <g id="patch_50">
     <path d="M 73.253125 59.339375 
L 89.253125 59.339375 
L 89.253125 53.739375 
L 73.253125 53.739375 
z
" style="fill: #3cb371"/>
    </g>
    <g id="text_25">
     <!-- San Juan/San Nicolás -->
     <g transform="translate(95.653125 59.339375) scale(0.08 -0.08)">
      <defs>
       <path id="DejaVuSans-4a" d="M 628 4666 
L 1259 4666 
L 1259 325 
Q 1259 -519 939 -900 
Q 619 -1281 -91 -1281 
L -331 -1281 
L -331 -750 
L -134 -750 
Q 284 -750 456 -515 
Q 628 -281 628 325 
L 628 4666 
z
" transform="scale(0.015625)"/>
       <path id="DejaVuSans-2f" d="M 1625 4666 
L 2156 4666 
L 531 -594 
L 0 -594 
L 1625 4666 
z
" transform="scale(0.015625)"/>
       <path id="DejaVuSans-4e" d="M 628 4666 
L 1478 4666 
L 3547 763 
L 3547 4666 
L 4159 4666 
L 4159 0 
L 3309 0 
L 1241 3903 
L 1241 0 
L 628 0 
L 628 4666 
z
" transform="scale(0.015625)"/>
       <path id="DejaVuSans-e1" d="M 2194 1759 
Q 1497 1759 1228 1600 
Q 959 1441 959 1056 
Q 959 750 1161 570 
Q 1363 391 1709 391 
Q 2188 391 2477 730 
Q 2766 1069 2766 1631 
L 2766 1759 
L 2194 1759 
z
M 3341 1997 
L 3341 0 
L 2766 0 
L 2766 531 
Q 2569 213 2275 61 
Q 1981 -91 1556 -91 
Q 1019 -91 701 211 
Q 384 513 384 1019 
Q 384 1609 779 1909 
Q 1175 2209 1959 2209 
L 2766 2209 
L 2766 2266 
Q 2766 2663 2505 2880 
Q 2244 3097 1772 3097 
Q 1472 3097 1187 3025 
Q 903 2953 641 2809 
L 641 3341 
Q 956 3463 1253 3523 
Q 1550 3584 1831 3584 
Q 2591 3584 2966 3190 
Q 3341 2797 3341 1997 
z
M 2290 5119 
L 2912 5119 
L 1894 3944 
L 1415 3944 
L 2290 5119 
z
" transform="scale(0.015625)"/>
      </defs>
      <use xlink:href="#DejaVuSans-53"/>
      <use xlink:href="#DejaVuSans-61" transform="translate(63.476562 0)"/>
      <use xlink:href="#DejaVuSans-6e" transform="translate(124.755859 0)"/>
      <use xlink:href="#DejaVuSans-20" transform="translate(188.134766 0)"/>
      <use xlink:href="#DejaVuSans-4a" transform="translate(219.921875 0)"/>
      <use xlink:href="#DejaVuSans-75" transform="translate(249.414062 0)"/>
      <use xlink:href="#DejaVuSans-61" transform="translate(312.792969 0)"/>
      <use xlink:href="#DejaVuSans-6e" transform="translate(374.072266 0)"/>
      <use xlink:href="#DejaVuSans-2f" transform="translate(437.451172 0)"/>
      <use xlink:href="#DejaVuSans-53" transform="translate(471.142578 0)"/>
      <use xlink:href="#DejaVuSans-61" transform="translate(534.619141 0)"/>
      <use xlink:href="#DejaVuSans-6e" transform="translate(595.898438 0)"/>
      <use xlink:href="#DejaVuSans-20" transform="translate(659.277344 0)"/>
      <use xlink:href="#DejaVuSans-4e" transform="translate(691.064453 0)"/>
      <use xlink:href="#DejaVuSans-69" transform="translate(765.869141 0)"/>
      <use xlink:href="#DejaVuSans-63" transform="translate(793.652344 0)"/>
      <use xlink:href="#DejaVuSans-6f" transform="translate(848.632812 0)"/>
      <use xlink:href="#DejaVuSans-6c" transform="translate(909.814453 0)"/>
      <use xlink:href="#DejaVuSans-e1" transform="translate(937.597656 0)"/>
      <use xlink:href="#DejaVuSans-73" transform="translate(998.876953 0)"/>
     </g>
    </g>
    <g id="patch_51">
     <path d="M 73.253125 71.081875 
L 89.253125 71.081875 
L 89.253125 65.481875 
L 73.253125 65.481875 
z
" style="fill: #ffa500"/>
    </g>
    <g id="text_26">
     <!-- Tambo de Mora -->
     <g transform="translate(95.653125 71.081875) scale(0.08 -0.08)">
      <use xlink:href="#DejaVuSans-54"/>
      <use xlink:href="#DejaVuSans-61" transform="translate(44.583984 0)"/>
      <use xlink:href="#DejaVuSans-6d" transform="translate(105.863281 0)"/>
      <use xlink:href="#DejaVuSans-62" transform="translate(203.275391 0)"/>
      <use xlink:href="#DejaVuSans-6f" transform="translate(266.751953 0)"/>
      <use xlink:href="#DejaVuSans-20" transform="translate(327.933594 0)"/>
      <use xlink:href="#DejaVuSans-64" transform="translate(359.720703 0)"/>
      <use xlink:href="#DejaVuSans-65" transform="translate(423.197266 0)"/>
      <use xlink:href="#DejaVuSans-20" transform="translate(484.720703 0)"/>
      <use xlink:href="#DejaVuSans-4d" transform="translate(516.507812 0)"/>
      <use xlink:href="#DejaVuSans-6f" transform="translate(602.787109 0)"/>
      <use xlink:href="#DejaVuSans-72" transform="translate(663.96875 0)"/>
      <use xlink:href="#DejaVuSans-61" transform="translate(705.082031 0)"/>
     </g>
    </g>
   </g>
  </g>
 </g>
 <defs>
  <clipPath id="p3e10f9f7ab">
   <rect x="66.053125" y="22.318125" width="639.58" height="293.08"/>
  </clipPath>
 </defs>
</svg>
