<?xml version="1.0" encoding="utf-8" standalone="no"?>
<!DOCTYPE svg PUBLIC "-//W3C//DTD SVG 1.1//EN"
  "http://www.w3.org/Graphics/SVG/1.1/DTD/svg11.dtd">
<svg xmlns:xlink="http://www.w3.org/1999/xlink" width="856.893125pt" height="352.838096pt" viewBox="0 0 856.893125 352.838096" xmlns="http://www.w3.org/2000/svg" version="1.1">
 <metadata>
  <rdf:RDF xmlns:dc="http://purl.org/dc/elements/1.1/" xmlns:cc="http://creativecommons.org/ns#" xmlns:rdf="http://www.w3.org/1999/02/22-rdf-syntax-ns#">
   <cc:Work>
    <dc:type rdf:resource="http://purl.org/dc/dcmitype/StillImage"/>
    <dc:date>2026-06-29T07:44:47.141469</dc:date>
    <dc:format>image/svg+xml</dc:format>
    <dc:creator>
     <cc:Agent>
      <dc:title>Matplotlib v3.10.0, https://matplotlib.org/</dc:title>
     </cc:Agent>
    </dc:creator>
   </cc:Work>
  </rdf:RDF>
 </metadata>
 <defs>
  <style type="text/css">*{stroke-linejoin: round; stroke-linecap: butt}</style>
 </defs>
 <g id="figure_1">
  <g id="patch_1">
   <path d="M 0 352.838096 
L 856.893125 352.838096 
L 856.893125 0 
L 0 0 
z
" style="fill: #ffffff"/>
  </g>
  <g id="axes_1">
   <g id="patch_2">
    <path d="M 66.053125 271.511281 
L 849.693125 271.511281 
L 849.693125 38.155125 
L 66.053125 38.155125 
z
" style="fill: #ffffff"/>
   </g>
   <g id="patch_3">
    <path d="M 101.673125 271.511281 
L 134.054943 271.511281 
L 134.054943 175.861985 
L 101.673125 175.861985 
z
" clip-path="url(#p1ab06e50ad)" style="fill: #4682b4"/>
   </g>
   <g id="patch_4">
    <path d="M 194.192606 271.511281 
L 226.574424 271.511281 
L 226.574424 237.622278 
L 194.192606 237.622278 
z
" clip-path="url(#p1ab06e50ad)" style="fill: #4682b4"/>
   </g>
   <g id="patch_5">
    <path d="M 286.712086 271.511281 
L 319.093904 271.511281 
L 319.093904 216.50349 
L 286.712086 216.50349 
z
" clip-path="url(#p1ab06e50ad)" style="fill: #4682b4"/>
   </g>
   <g id="patch_6">
    <path d="M 379.231567 271.511281 
L 411.613385 271.511281 
L 411.613385 196.104989 
L 379.231567 196.104989 
z
" clip-path="url(#p1ab06e50ad)" style="fill: #4682b4"/>
   </g>
   <g id="patch_7">
    <path d="M 471.751047 271.511281 
L 504.132865 271.511281 
L 504.132865 210.446672 
L 471.751047 210.446672 
z
" clip-path="url(#p1ab06e50ad)" style="fill: #4682b4"/>
   </g>
   <g id="patch_8">
    <path d="M 564.270528 271.511281 
L 596.652346 271.511281 
L 596.652346 203.786873 
L 564.270528 203.786873 
z
" clip-path="url(#p1ab06e50ad)" style="fill: #4682b4"/>
   </g>
   <g id="patch_9">
    <path d="M 656.790008 271.511281 
L 689.171826 271.511281 
L 689.171826 230.740213 
L 656.790008 230.740213 
z
" clip-path="url(#p1ab06e50ad)" style="fill: #4682b4"/>
   </g>
   <g id="patch_10">
    <path d="M 749.309489 271.511281 
L 781.691307 271.511281 
L 781.691307 238.899949 
L 749.309489 238.899949 
z
" clip-path="url(#p1ab06e50ad)" style="fill: #4682b4"/>
   </g>
   <g id="patch_11">
    <path d="M 134.054943 271.511281 
L 166.436761 271.511281 
L 166.436761 49.267323 
L 134.054943 49.267323 
z
" clip-path="url(#p1ab06e50ad)" style="fill: #ff7f50"/>
   </g>
   <g id="patch_12">
    <path d="M 226.574424 271.511281 
L 258.956242 271.511281 
L 258.956242 177.291409 
L 226.574424 177.291409 
z
" clip-path="url(#p1ab06e50ad)" style="fill: #ff7f50"/>
   </g>
   <g id="patch_13">
    <path d="M 319.093904 271.511281 
L 351.475722 271.511281 
L 351.475722 180.935513 
L 319.093904 180.935513 
z
" clip-path="url(#p1ab06e50ad)" style="fill: #ff7f50"/>
   </g>
   <g id="patch_14">
    <path d="M 411.613385 271.511281 
L 443.995203 271.511281 
L 443.995203 196.129875 
L 411.613385 196.129875 
z
" clip-path="url(#p1ab06e50ad)" style="fill: #ff7f50"/>
   </g>
   <g id="patch_15">
    <path d="M 504.132865 271.511281 
L 536.514683 271.511281 
L 536.514683 200.427048 
L 504.132865 200.427048 
z
" clip-path="url(#p1ab06e50ad)" style="fill: #ff7f50"/>
   </g>
   <g id="patch_16">
    <path d="M 596.652346 271.511281 
L 629.034164 271.511281 
L 629.034164 201.893339 
L 596.652346 201.893339 
z
" clip-path="url(#p1ab06e50ad)" style="fill: #ff7f50"/>
   </g>
   <g id="patch_17">
    <path d="M 689.171826 271.511281 
L 721.553644 271.511281 
L 721.553644 214.915363 
L 689.171826 214.915363 
z
" clip-path="url(#p1ab06e50ad)" style="fill: #ff7f50"/>
   </g>
   <g id="patch_18">
    <path d="M 781.691307 271.511281 
L 814.073125 271.511281 
L 814.073125 220.390397 
L 781.691307 220.390397 
z
" clip-path="url(#p1ab06e50ad)" style="fill: #ff7f50"/>
   </g>
   <g id="matplotlib.axis_1">
    <g id="xtick_1">
     <g id="line2d_1">
      <defs>
       <path id="m95fdf36ce6" d="M 0 0 
L 0 3.5 
" style="stroke: #000000; stroke-width: 0.8"/>
      </defs>
      <g>
       <use xlink:href="#m95fdf36ce6" x="134.054943" y="271.511281" style="stroke: #000000; stroke-width: 0.8"/>
      </g>
     </g>
     <g id="text_1">
      <!-- Uva  -->
      <g transform="translate(113.491639 296.363596) rotate(-30) scale(0.1 -0.1)">
       <defs>
        <path id="DejaVuSans-55" d="M 556 4666 
L 1191 4666 
L 1191 1831 
Q 1191 1081 1462 751 
Q 1734 422 2344 422 
Q 2950 422 3222 751 
Q 3494 1081 3494 1831 
L 3494 4666 
L 4128 4666 
L 4128 1753 
Q 4128 841 3676 375 
Q 3225 -91 2344 -91 
Q 1459 -91 1007 375 
Q 556 841 556 1753 
L 556 4666 
z
" transform="scale(0.015625)"/>
        <path id="DejaVuSans-76" d="M 191 3500 
L 800 3500 
L 1894 563 
L 2988 3500 
L 3597 3500 
L 2284 0 
L 1503 0 
L 191 3500 
z
" transform="scale(0.015625)"/>
        <path id="DejaVuSans-61" d="M 2194 1759 
Q 1497 1759 1228 1600 
Q 959 1441 959 1056 
Q 959 750 1161 570 
Q 1363 391 1709 391 
Q 2188 391 2477 730 
Q 2766 1069 2766 1631 
L 2766 1759 
L 2194 1759 
z
M 3341 1997 
L 3341 0 
L 2766 0 
L 2766 531 
Q 2569 213 2275 61 
Q 1981 -91 1556 -91 
Q 1019 -91 701 211 
Q 384 513 384 1019 
Q 384 1609 779 1909 
Q 1175 2209 1959 2209 
L 2766 2209 
L 2766 2266 
Q 2766 2663 2505 2880 
Q 2244 3097 1772 3097 
Q 1472 3097 1187 3025 
Q 903 2953 641 2809 
L 641 3341 
Q 956 3463 1253 3523 
Q 1550 3584 1831 3584 
Q 2591 3584 2966 3190 
Q 3341 2797 3341 1997 
z
" transform="scale(0.015625)"/>
        <path id="DejaVuSans-20" transform="scale(0.015625)"/>
       </defs>
       <use xlink:href="#DejaVuSans-55"/>
       <use xlink:href="#DejaVuSans-76" transform="translate(73.193359 0)"/>
       <use xlink:href="#DejaVuSans-61" transform="translate(132.373047 0)"/>
       <use xlink:href="#DejaVuSans-20" transform="translate(193.652344 0)"/>
      </g>
     </g>
    </g>
    <g id="xtick_2">
     <g id="line2d_2">
      <g>
       <use xlink:href="#m95fdf36ce6" x="226.574424" y="271.511281" style="stroke: #000000; stroke-width: 0.8"/>
      </g>
     </g>
     <g id="text_2">
      <!-- Mandarina -->
      <g transform="translate(179.700185 311.554221) rotate(-30) scale(0.1 -0.1)">
       <defs>
        <path id="DejaVuSans-4d" d="M 628 4666 
L 1569 4666 
L 2759 1491 
L 3956 4666 
L 4897 4666 
L 4897 0 
L 4281 0 
L 4281 4097 
L 3078 897 
L 2444 897 
L 1241 4097 
L 1241 0 
L 628 0 
L 628 4666 
z
" transform="scale(0.015625)"/>
        <path id="DejaVuSans-6e" d="M 3513 2113 
L 3513 0 
L 2938 0 
L 2938 2094 
Q 2938 2591 2744 2837 
Q 2550 3084 2163 3084 
Q 1697 3084 1428 2787 
Q 1159 2491 1159 1978 
L 1159 0 
L 581 0 
L 581 3500 
L 1159 3500 
L 1159 2956 
Q 1366 3272 1645 3428 
Q 1925 3584 2291 3584 
Q 2894 3584 3203 3211 
Q 3513 2838 3513 2113 
z
" transform="scale(0.015625)"/>
        <path id="DejaVuSans-64" d="M 2906 2969 
L 2906 4863 
L 3481 4863 
L 3481 0 
L 2906 0 
L 2906 525 
Q 2725 213 2448 61 
Q 2172 -91 1784 -91 
Q 1150 -91 751 415 
Q 353 922 353 1747 
Q 353 2572 751 3078 
Q 1150 3584 1784 3584 
Q 2172 3584 2448 3432 
Q 2725 3281 2906 2969 
z
M 947 1747 
Q 947 1113 1208 752 
Q 1469 391 1925 391 
Q 2381 391 2643 752 
Q 2906 1113 2906 1747 
Q 2906 2381 2643 2742 
Q 2381 3103 1925 3103 
Q 1469 3103 1208 2742 
Q 947 2381 947 1747 
z
" transform="scale(0.015625)"/>
        <path id="DejaVuSans-72" d="M 2631 2963 
Q 2534 3019 2420 3045 
Q 2306 3072 2169 3072 
Q 1681 3072 1420 2755 
Q 1159 2438 1159 1844 
L 1159 0 
L 581 0 
L 581 3500 
L 1159 3500 
L 1159 2956 
Q 1341 3275 1631 3429 
Q 1922 3584 2338 3584 
Q 2397 3584 2469 3576 
Q 2541 3569 2628 3553 
L 2631 2963 
z
" transform="scale(0.015625)"/>
        <path id="DejaVuSans-69" d="M 603 3500 
L 1178 3500 
L 1178 0 
L 603 0 
L 603 3500 
z
M 603 4863 
L 1178 4863 
L 1178 4134 
L 603 4134 
L 603 4863 
z
" transform="scale(0.015625)"/>
       </defs>
       <use xlink:href="#DejaVuSans-4d"/>
       <use xlink:href="#DejaVuSans-61" transform="translate(86.279297 0)"/>
       <use xlink:href="#DejaVuSans-6e" transform="translate(147.558594 0)"/>
       <use xlink:href="#DejaVuSans-64" transform="translate(210.9375 0)"/>
       <use xlink:href="#DejaVuSans-61" transform="translate(274.414062 0)"/>
       <use xlink:href="#DejaVuSans-72" transform="translate(335.693359 0)"/>
       <use xlink:href="#DejaVuSans-69" transform="translate(376.806641 0)"/>
       <use xlink:href="#DejaVuSans-6e" transform="translate(404.589844 0)"/>
       <use xlink:href="#DejaVuSans-61" transform="translate(467.96875 0)"/>
      </g>
     </g>
    </g>
    <g id="xtick_3">
     <g id="line2d_3">
      <g>
       <use xlink:href="#m95fdf36ce6" x="319.093904" y="271.511281" style="stroke: #000000; stroke-width: 0.8"/>
      </g>
     </g>
     <g id="text_3">
      <!-- Huevos -->
      <g transform="translate(285.787848 303.720627) rotate(-30) scale(0.1 -0.1)">
       <defs>
        <path id="DejaVuSans-48" d="M 628 4666 
L 1259 4666 
L 1259 2753 
L 3553 2753 
L 3553 4666 
L 4184 4666 
L 4184 0 
L 3553 0 
L 3553 2222 
L 1259 2222 
L 1259 0 
L 628 0 
L 628 4666 
z
" transform="scale(0.015625)"/>
        <path id="DejaVuSans-75" d="M 544 1381 
L 544 3500 
L 1119 3500 
L 1119 1403 
Q 1119 906 1312 657 
Q 1506 409 1894 409 
Q 2359 409 2629 706 
Q 2900 1003 2900 1516 
L 2900 3500 
L 3475 3500 
L 3475 0 
L 2900 0 
L 2900 538 
Q 2691 219 2414 64 
Q 2138 -91 1772 -91 
Q 1169 -91 856 284 
Q 544 659 544 1381 
z
M 1991 3584 
L 1991 3584 
z
" transform="scale(0.015625)"/>
        <path id="DejaVuSans-65" d="M 3597 1894 
L 3597 1613 
L 953 1613 
Q 991 1019 1311 708 
Q 1631 397 2203 397 
Q 2534 397 2845 478 
Q 3156 559 3463 722 
L 3463 178 
Q 3153 47 2828 -22 
Q 2503 -91 2169 -91 
Q 1331 -91 842 396 
Q 353 884 353 1716 
Q 353 2575 817 3079 
Q 1281 3584 2069 3584 
Q 2775 3584 3186 3129 
Q 3597 2675 3597 1894 
z
M 3022 2063 
Q 3016 2534 2758 2815 
Q 2500 3097 2075 3097 
Q 1594 3097 1305 2825 
Q 1016 2553 972 2059 
L 3022 2063 
z
" transform="scale(0.015625)"/>
        <path id="DejaVuSans-6f" d="M 1959 3097 
Q 1497 3097 1228 2736 
Q 959 2375 959 1747 
Q 959 1119 1226 758 
Q 1494 397 1959 397 
Q 2419 397 2687 759 
Q 2956 1122 2956 1747 
Q 2956 2369 2687 2733 
Q 2419 3097 1959 3097 
z
M 1959 3584 
Q 2709 3584 3137 3096 
Q 3566 2609 3566 1747 
Q 3566 888 3137 398 
Q 2709 -91 1959 -91 
Q 1206 -91 779 398 
Q 353 888 353 1747 
Q 353 2609 779 3096 
Q 1206 3584 1959 3584 
z
" transform="scale(0.015625)"/>
        <path id="DejaVuSans-73" d="M 2834 3397 
L 2834 2853 
Q 2591 2978 2328 3040 
Q 2066 3103 1784 3103 
Q 1356 3103 1142 2972 
Q 928 2841 928 2578 
Q 928 2378 1081 2264 
Q 1234 2150 1697 2047 
L 1894 2003 
Q 2506 1872 2764 1633 
Q 3022 1394 3022 966 
Q 3022 478 2636 193 
Q 2250 -91 1575 -91 
Q 1294 -91 989 -36 
Q 684 19 347 128 
L 347 722 
Q 666 556 975 473 
Q 1284 391 1588 391 
Q 1994 391 2212 530 
Q 2431 669 2431 922 
Q 2431 1156 2273 1281 
Q 2116 1406 1581 1522 
L 1381 1569 
Q 847 1681 609 1914 
Q 372 2147 372 2553 
Q 372 3047 722 3315 
Q 1072 3584 1716 3584 
Q 2034 3584 2315 3537 
Q 2597 3491 2834 3397 
z
" transform="scale(0.015625)"/>
       </defs>
       <use xlink:href="#DejaVuSans-48"/>
       <use xlink:href="#DejaVuSans-75" transform="translate(75.195312 0)"/>
       <use xlink:href="#DejaVuSans-65" transform="translate(138.574219 0)"/>
       <use xlink:href="#DejaVuSans-76" transform="translate(200.097656 0)"/>
       <use xlink:href="#DejaVuSans-6f" transform="translate(259.277344 0)"/>
       <use xlink:href="#DejaVuSans-73" transform="translate(320.458984 0)"/>
      </g>
     </g>
    </g>
    <g id="xtick_4">
     <g id="line2d_4">
      <g>
       <use xlink:href="#m95fdf36ce6" x="411.613385" y="271.511281" style="stroke: #000000; stroke-width: 0.8"/>
      </g>
     </g>
     <g id="text_4">
      <!-- Maíz amarillo duro -->
      <g transform="translate(330.560913 331.287034) rotate(-30) scale(0.1 -0.1)">
       <defs>
        <path id="DejaVuSans-ed" d="M 1322 5119 
L 1944 5119 
L 926 3944 
L 447 3944 
L 1322 5119 
z
M 603 3500 
L 1178 3500 
L 1178 0 
L 603 0 
L 603 3500 
z
M 891 3584 
L 891 3584 
z
" transform="scale(0.015625)"/>
        <path id="DejaVuSans-7a" d="M 353 3500 
L 3084 3500 
L 3084 2975 
L 922 459 
L 3084 459 
L 3084 0 
L 275 0 
L 275 525 
L 2438 3041 
L 353 3041 
L 353 3500 
z
" transform="scale(0.015625)"/>
        <path id="DejaVuSans-6d" d="M 3328 2828 
Q 3544 3216 3844 3400 
Q 4144 3584 4550 3584 
Q 5097 3584 5394 3201 
Q 5691 2819 5691 2113 
L 5691 0 
L 5113 0 
L 5113 2094 
Q 5113 2597 4934 2840 
Q 4756 3084 4391 3084 
Q 3944 3084 3684 2787 
Q 3425 2491 3425 1978 
L 3425 0 
L 2847 0 
L 2847 2094 
Q 2847 2600 2669 2842 
Q 2491 3084 2119 3084 
Q 1678 3084 1418 2786 
Q 1159 2488 1159 1978 
L 1159 0 
L 581 0 
L 581 3500 
L 1159 3500 
L 1159 2956 
Q 1356 3278 1631 3431 
Q 1906 3584 2284 3584 
Q 2666 3584 2933 3390 
Q 3200 3197 3328 2828 
z
" transform="scale(0.015625)"/>
        <path id="DejaVuSans-6c" d="M 603 4863 
L 1178 4863 
L 1178 0 
L 603 0 
L 603 4863 
z
" transform="scale(0.015625)"/>
       </defs>
       <use xlink:href="#DejaVuSans-4d"/>
       <use xlink:href="#DejaVuSans-61" transform="translate(86.279297 0)"/>
       <use xlink:href="#DejaVuSans-ed" transform="translate(147.558594 0)"/>
       <use xlink:href="#DejaVuSans-7a" transform="translate(175.341797 0)"/>
       <use xlink:href="#DejaVuSans-20" transform="translate(227.832031 0)"/>
       <use xlink:href="#DejaVuSans-61" transform="translate(259.619141 0)"/>
       <use xlink:href="#DejaVuSans-6d" transform="translate(320.898438 0)"/>
       <use xlink:href="#DejaVuSans-61" transform="translate(418.310547 0)"/>
       <use xlink:href="#DejaVuSans-72" transform="translate(479.589844 0)"/>
       <use xlink:href="#DejaVuSans-69" transform="translate(520.703125 0)"/>
       <use xlink:href="#DejaVuSans-6c" transform="translate(548.486328 0)"/>
       <use xlink:href="#DejaVuSans-6c" transform="translate(576.269531 0)"/>
       <use xlink:href="#DejaVuSans-6f" transform="translate(604.052734 0)"/>
       <use xlink:href="#DejaVuSans-20" transform="translate(665.234375 0)"/>
       <use xlink:href="#DejaVuSans-64" transform="translate(697.021484 0)"/>
       <use xlink:href="#DejaVuSans-75" transform="translate(760.498047 0)"/>
       <use xlink:href="#DejaVuSans-72" transform="translate(823.876953 0)"/>
       <use xlink:href="#DejaVuSans-6f" transform="translate(862.740234 0)"/>
      </g>
     </g>
    </g>
    <g id="xtick_5">
     <g id="line2d_5">
      <g>
       <use xlink:href="#m95fdf36ce6" x="504.132865" y="271.511281" style="stroke: #000000; stroke-width: 0.8"/>
      </g>
     </g>
     <g id="text_5">
      <!-- Espárrago -->
      <g transform="translate(459.231541 310.761569) rotate(-30) scale(0.1 -0.1)">
       <defs>
        <path id="DejaVuSans-45" d="M 628 4666 
L 3578 4666 
L 3578 4134 
L 1259 4134 
L 1259 2753 
L 3481 2753 
L 3481 2222 
L 1259 2222 
L 1259 531 
L 3634 531 
L 3634 0 
L 628 0 
L 628 4666 
z
" transform="scale(0.015625)"/>
        <path id="DejaVuSans-70" d="M 1159 525 
L 1159 -1331 
L 581 -1331 
L 581 3500 
L 1159 3500 
L 1159 2969 
Q 1341 3281 1617 3432 
Q 1894 3584 2278 3584 
Q 2916 3584 3314 3078 
Q 3713 2572 3713 1747 
Q 3713 922 3314 415 
Q 2916 -91 2278 -91 
Q 1894 -91 1617 61 
Q 1341 213 1159 525 
z
M 3116 1747 
Q 3116 2381 2855 2742 
Q 2594 3103 2138 3103 
Q 1681 3103 1420 2742 
Q 1159 2381 1159 1747 
Q 1159 1113 1420 752 
Q 1681 391 2138 391 
Q 2594 391 2855 752 
Q 3116 1113 3116 1747 
z
" transform="scale(0.015625)"/>
        <path id="DejaVuSans-e1" d="M 2194 1759 
Q 1497 1759 1228 1600 
Q 959 1441 959 1056 
Q 959 750 1161 570 
Q 1363 391 1709 391 
Q 2188 391 2477 730 
Q 2766 1069 2766 1631 
L 2766 1759 
L 2194 1759 
z
M 3341 1997 
L 3341 0 
L 2766 0 
L 2766 531 
Q 2569 213 2275 61 
Q 1981 -91 1556 -91 
Q 1019 -91 701 211 
Q 384 513 384 1019 
Q 384 1609 779 1909 
Q 1175 2209 1959 2209 
L 2766 2209 
L 2766 2266 
Q 2766 2663 2505 2880 
Q 2244 3097 1772 3097 
Q 1472 3097 1187 3025 
Q 903 2953 641 2809 
L 641 3341 
Q 956 3463 1253 3523 
Q 1550 3584 1831 3584 
Q 2591 3584 2966 3190 
Q 3341 2797 3341 1997 
z
M 2290 5119 
L 2912 5119 
L 1894 3944 
L 1415 3944 
L 2290 5119 
z
" transform="scale(0.015625)"/>
        <path id="DejaVuSans-67" d="M 2906 1791 
Q 2906 2416 2648 2759 
Q 2391 3103 1925 3103 
Q 1463 3103 1205 2759 
Q 947 2416 947 1791 
Q 947 1169 1205 825 
Q 1463 481 1925 481 
Q 2391 481 2648 825 
Q 2906 1169 2906 1791 
z
M 3481 434 
Q 3481 -459 3084 -895 
Q 2688 -1331 1869 -1331 
Q 1566 -1331 1297 -1286 
Q 1028 -1241 775 -1147 
L 775 -588 
Q 1028 -725 1275 -790 
Q 1522 -856 1778 -856 
Q 2344 -856 2625 -561 
Q 2906 -266 2906 331 
L 2906 616 
Q 2728 306 2450 153 
Q 2172 0 1784 0 
Q 1141 0 747 490 
Q 353 981 353 1791 
Q 353 2603 747 3093 
Q 1141 3584 1784 3584 
Q 2172 3584 2450 3431 
Q 2728 3278 2906 2969 
L 2906 3500 
L 3481 3500 
L 3481 434 
z
" transform="scale(0.015625)"/>
       </defs>
       <use xlink:href="#DejaVuSans-45"/>
       <use xlink:href="#DejaVuSans-73" transform="translate(63.183594 0)"/>
       <use xlink:href="#DejaVuSans-70" transform="translate(115.283203 0)"/>
       <use xlink:href="#DejaVuSans-e1" transform="translate(178.759766 0)"/>
       <use xlink:href="#DejaVuSans-72" transform="translate(240.039062 0)"/>
       <use xlink:href="#DejaVuSans-72" transform="translate(279.402344 0)"/>
       <use xlink:href="#DejaVuSans-61" transform="translate(320.515625 0)"/>
       <use xlink:href="#DejaVuSans-67" transform="translate(381.794922 0)"/>
       <use xlink:href="#DejaVuSans-6f" transform="translate(445.271484 0)"/>
      </g>
     </g>
    </g>
    <g id="xtick_6">
     <g id="line2d_6">
      <g>
       <use xlink:href="#m95fdf36ce6" x="596.652346" y="271.511281" style="stroke: #000000; stroke-width: 0.8"/>
      </g>
     </g>
     <g id="text_6">
      <!-- Alfalfa -->
      <g transform="translate(568.164909 300.938596) rotate(-30) scale(0.1 -0.1)">
       <defs>
        <path id="DejaVuSans-41" d="M 2188 4044 
L 1331 1722 
L 3047 1722 
L 2188 4044 
z
M 1831 4666 
L 2547 4666 
L 4325 0 
L 3669 0 
L 3244 1197 
L 1141 1197 
L 716 0 
L 50 0 
L 1831 4666 
z
" transform="scale(0.015625)"/>
        <path id="DejaVuSans-66" d="M 2375 4863 
L 2375 4384 
L 1825 4384 
Q 1516 4384 1395 4259 
Q 1275 4134 1275 3809 
L 1275 3500 
L 2222 3500 
L 2222 3053 
L 1275 3053 
L 1275 0 
L 697 0 
L 697 3053 
L 147 3053 
L 147 3500 
L 697 3500 
L 697 3744 
Q 697 4328 969 4595 
Q 1241 4863 1831 4863 
L 2375 4863 
z
" transform="scale(0.015625)"/>
       </defs>
       <use xlink:href="#DejaVuSans-41"/>
       <use xlink:href="#DejaVuSans-6c" transform="translate(68.408203 0)"/>
       <use xlink:href="#DejaVuSans-66" transform="translate(96.191406 0)"/>
       <use xlink:href="#DejaVuSans-61" transform="translate(131.396484 0)"/>
       <use xlink:href="#DejaVuSans-6c" transform="translate(192.675781 0)"/>
       <use xlink:href="#DejaVuSans-66" transform="translate(220.458984 0)"/>
       <use xlink:href="#DejaVuSans-61" transform="translate(255.664062 0)"/>
      </g>
     </g>
    </g>
    <g id="xtick_7">
     <g id="line2d_7">
      <g>
       <use xlink:href="#m95fdf36ce6" x="689.171826" y="271.511281" style="stroke: #000000; stroke-width: 0.8"/>
      </g>
     </g>
     <g id="text_7">
      <!-- Papa (mejorada-nativa) -->
      <g transform="translate(586.382117 343.837034) rotate(-30) scale(0.1 -0.1)">
       <defs>
        <path id="DejaVuSans-50" d="M 1259 4147 
L 1259 2394 
L 2053 2394 
Q 2494 2394 2734 2622 
Q 2975 2850 2975 3272 
Q 2975 3691 2734 3919 
Q 2494 4147 2053 4147 
L 1259 4147 
z
M 628 4666 
L 2053 4666 
Q 2838 4666 3239 4311 
Q 3641 3956 3641 3272 
Q 3641 2581 3239 2228 
Q 2838 1875 2053 1875 
L 1259 1875 
L 1259 0 
L 628 0 
L 628 4666 
z
" transform="scale(0.015625)"/>
        <path id="DejaVuSans-28" d="M 1984 4856 
Q 1566 4138 1362 3434 
Q 1159 2731 1159 2009 
Q 1159 1288 1364 580 
Q 1569 -128 1984 -844 
L 1484 -844 
Q 1016 -109 783 600 
Q 550 1309 550 2009 
Q 550 2706 781 3412 
Q 1013 4119 1484 4856 
L 1984 4856 
z
" transform="scale(0.015625)"/>
        <path id="DejaVuSans-6a" d="M 603 3500 
L 1178 3500 
L 1178 -63 
Q 1178 -731 923 -1031 
Q 669 -1331 103 -1331 
L -116 -1331 
L -116 -844 
L 38 -844 
Q 366 -844 484 -692 
Q 603 -541 603 -63 
L 603 3500 
z
M 603 4863 
L 1178 4863 
L 1178 4134 
L 603 4134 
L 603 4863 
z
" transform="scale(0.015625)"/>
        <path id="DejaVuSans-2d" d="M 313 2009 
L 1997 2009 
L 1997 1497 
L 313 1497 
L 313 2009 
z
" transform="scale(0.015625)"/>
        <path id="DejaVuSans-74" d="M 1172 4494 
L 1172 3500 
L 2356 3500 
L 2356 3053 
L 1172 3053 
L 1172 1153 
Q 1172 725 1289 603 
Q 1406 481 1766 481 
L 2356 481 
L 2356 0 
L 1766 0 
Q 1100 0 847 248 
Q 594 497 594 1153 
L 594 3053 
L 172 3053 
L 172 3500 
L 594 3500 
L 594 4494 
L 1172 4494 
z
" transform="scale(0.015625)"/>
        <path id="DejaVuSans-29" d="M 513 4856 
L 1013 4856 
Q 1481 4119 1714 3412 
Q 1947 2706 1947 2009 
Q 1947 1309 1714 600 
Q 1481 -109 1013 -844 
L 513 -844 
Q 928 -128 1133 580 
Q 1338 1288 1338 2009 
Q 1338 2731 1133 3434 
Q 928 4138 513 4856 
z
" transform="scale(0.015625)"/>
       </defs>
       <use xlink:href="#DejaVuSans-50"/>
       <use xlink:href="#DejaVuSans-61" transform="translate(55.802734 0)"/>
       <use xlink:href="#DejaVuSans-70" transform="translate(117.082031 0)"/>
       <use xlink:href="#DejaVuSans-61" transform="translate(180.558594 0)"/>
       <use xlink:href="#DejaVuSans-20" transform="translate(241.837891 0)"/>
       <use xlink:href="#DejaVuSans-28" transform="translate(273.625 0)"/>
       <use xlink:href="#DejaVuSans-6d" transform="translate(312.638672 0)"/>
       <use xlink:href="#DejaVuSans-65" transform="translate(410.050781 0)"/>
       <use xlink:href="#DejaVuSans-6a" transform="translate(471.574219 0)"/>
       <use xlink:href="#DejaVuSans-6f" transform="translate(499.357422 0)"/>
       <use xlink:href="#DejaVuSans-72" transform="translate(560.539062 0)"/>
       <use xlink:href="#DejaVuSans-61" transform="translate(601.652344 0)"/>
       <use xlink:href="#DejaVuSans-64" transform="translate(662.931641 0)"/>
       <use xlink:href="#DejaVuSans-61" transform="translate(726.408203 0)"/>
       <use xlink:href="#DejaVuSans-2d" transform="translate(787.6875 0)"/>
       <use xlink:href="#DejaVuSans-6e" transform="translate(823.771484 0)"/>
       <use xlink:href="#DejaVuSans-61" transform="translate(887.150391 0)"/>
       <use xlink:href="#DejaVuSans-74" transform="translate(948.429688 0)"/>
       <use xlink:href="#DejaVuSans-69" transform="translate(987.638672 0)"/>
       <use xlink:href="#DejaVuSans-76" transform="translate(1015.421875 0)"/>
       <use xlink:href="#DejaVuSans-61" transform="translate(1074.601562 0)"/>
       <use xlink:href="#DejaVuSans-29" transform="translate(1135.880859 0)"/>
      </g>
     </g>
    </g>
    <g id="xtick_8">
     <g id="line2d_8">
      <g>
       <use xlink:href="#m95fdf36ce6" x="781.691307" y="271.511281" style="stroke: #000000; stroke-width: 0.8"/>
      </g>
     </g>
     <g id="text_8">
      <!-- Ave -->
      <g transform="translate(764.781548 294.254221) rotate(-30) scale(0.1 -0.1)">
       <use xlink:href="#DejaVuSans-41"/>
       <use xlink:href="#DejaVuSans-76" transform="translate(62.533203 0)"/>
       <use xlink:href="#DejaVuSans-65" transform="translate(121.712891 0)"/>
      </g>
     </g>
    </g>
   </g>
   <g id="matplotlib.axis_2">
    <g id="ytick_1">
     <g id="line2d_9">
      <path d="M 66.053125 271.511281 
L 849.693125 271.511281 
" clip-path="url(#p1ab06e50ad)" style="fill: none; stroke-dasharray: 2.96,1.28; stroke-dashoffset: 0; stroke: #b0b0b0; stroke-opacity: 0.5; stroke-width: 0.8"/>
     </g>
     <g id="line2d_10">
      <defs>
       <path id="m372aba328e" d="M 0 0 
L -3.5 0 
" style="stroke: #000000; stroke-width: 0.8"/>
      </defs>
      <g>
       <use xlink:href="#m372aba328e" x="66.053125" y="271.511281" style="stroke: #000000; stroke-width: 0.8"/>
      </g>
     </g>
     <g id="text_9">
      <!-- 0 -->
      <g transform="translate(52.690625 275.3105) scale(0.1 -0.1)">
       <defs>
        <path id="DejaVuSans-30" d="M 2034 4250 
Q 1547 4250 1301 3770 
Q 1056 3291 1056 2328 
Q 1056 1369 1301 889 
Q 1547 409 2034 409 
Q 2525 409 2770 889 
Q 3016 1369 3016 2328 
Q 3016 3291 2770 3770 
Q 2525 4250 2034 4250 
z
M 2034 4750 
Q 2819 4750 3233 4129 
Q 3647 3509 3647 2328 
Q 3647 1150 3233 529 
Q 2819 -91 2034 -91 
Q 1250 -91 836 529 
Q 422 1150 422 2328 
Q 422 3509 836 4129 
Q 1250 4750 2034 4750 
z
" transform="scale(0.015625)"/>
       </defs>
       <use xlink:href="#DejaVuSans-30"/>
      </g>
     </g>
    </g>
    <g id="ytick_2">
     <g id="line2d_11">
      <path d="M 66.053125 229.924034 
L 849.693125 229.924034 
" clip-path="url(#p1ab06e50ad)" style="fill: none; stroke-dasharray: 2.96,1.28; stroke-dashoffset: 0; stroke: #b0b0b0; stroke-opacity: 0.5; stroke-width: 0.8"/>
     </g>
     <g id="line2d_12">
      <g>
       <use xlink:href="#m372aba328e" x="66.053125" y="229.924034" style="stroke: #000000; stroke-width: 0.8"/>
      </g>
     </g>
     <g id="text_10">
      <!-- 100000 -->
      <g transform="translate(20.878125 233.723253) scale(0.1 -0.1)">
       <defs>
        <path id="DejaVuSans-31" d="M 794 531 
L 1825 531 
L 1825 4091 
L 703 3866 
L 703 4441 
L 1819 4666 
L 2450 4666 
L 2450 531 
L 3481 531 
L 3481 0 
L 794 0 
L 794 531 
z
" transform="scale(0.015625)"/>
       </defs>
       <use xlink:href="#DejaVuSans-31"/>
       <use xlink:href="#DejaVuSans-30" transform="translate(63.623047 0)"/>
       <use xlink:href="#DejaVuSans-30" transform="translate(127.246094 0)"/>
       <use xlink:href="#DejaVuSans-30" transform="translate(190.869141 0)"/>
       <use xlink:href="#DejaVuSans-30" transform="translate(254.492188 0)"/>
       <use xlink:href="#DejaVuSans-30" transform="translate(318.115234 0)"/>
      </g>
     </g>
    </g>
    <g id="ytick_3">
     <g id="line2d_13">
      <path d="M 66.053125 188.336787 
L 849.693125 188.336787 
" clip-path="url(#p1ab06e50ad)" style="fill: none; stroke-dasharray: 2.96,1.28; stroke-dashoffset: 0; stroke: #b0b0b0; stroke-opacity: 0.5; stroke-width: 0.8"/>
     </g>
     <g id="line2d_14">
      <g>
       <use xlink:href="#m372aba328e" x="66.053125" y="188.336787" style="stroke: #000000; stroke-width: 0.8"/>
      </g>
     </g>
     <g id="text_11">
      <!-- 200000 -->
      <g transform="translate(20.878125 192.136005) scale(0.1 -0.1)">
       <defs>
        <path id="DejaVuSans-32" d="M 1228 531 
L 3431 531 
L 3431 0 
L 469 0 
L 469 531 
Q 828 903 1448 1529 
Q 2069 2156 2228 2338 
Q 2531 2678 2651 2914 
Q 2772 3150 2772 3378 
Q 2772 3750 2511 3984 
Q 2250 4219 1831 4219 
Q 1534 4219 1204 4116 
Q 875 4013 500 3803 
L 500 4441 
Q 881 4594 1212 4672 
Q 1544 4750 1819 4750 
Q 2544 4750 2975 4387 
Q 3406 4025 3406 3419 
Q 3406 3131 3298 2873 
Q 3191 2616 2906 2266 
Q 2828 2175 2409 1742 
Q 1991 1309 1228 531 
z
" transform="scale(0.015625)"/>
       </defs>
       <use xlink:href="#DejaVuSans-32"/>
       <use xlink:href="#DejaVuSans-30" transform="translate(63.623047 0)"/>
       <use xlink:href="#DejaVuSans-30" transform="translate(127.246094 0)"/>
       <use xlink:href="#DejaVuSans-30" transform="translate(190.869141 0)"/>
       <use xlink:href="#DejaVuSans-30" transform="translate(254.492188 0)"/>
       <use xlink:href="#DejaVuSans-30" transform="translate(318.115234 0)"/>
      </g>
     </g>
    </g>
    <g id="ytick_4">
     <g id="line2d_15">
      <path d="M 66.053125 146.74954 
L 849.693125 146.74954 
" clip-path="url(#p1ab06e50ad)" style="fill: none; stroke-dasharray: 2.96,1.28; stroke-dashoffset: 0; stroke: #b0b0b0; stroke-opacity: 0.5; stroke-width: 0.8"/>
     </g>
     <g id="line2d_16">
      <g>
       <use xlink:href="#m372aba328e" x="66.053125" y="146.74954" style="stroke: #000000; stroke-width: 0.8"/>
      </g>
     </g>
     <g id="text_12">
      <!-- 300000 -->
      <g transform="translate(20.878125 150.548758) scale(0.1 -0.1)">
       <defs>
        <path id="DejaVuSans-33" d="M 2597 2516 
Q 3050 2419 3304 2112 
Q 3559 1806 3559 1356 
Q 3559 666 3084 287 
Q 2609 -91 1734 -91 
Q 1441 -91 1130 -33 
Q 819 25 488 141 
L 488 750 
Q 750 597 1062 519 
Q 1375 441 1716 441 
Q 2309 441 2620 675 
Q 2931 909 2931 1356 
Q 2931 1769 2642 2001 
Q 2353 2234 1838 2234 
L 1294 2234 
L 1294 2753 
L 1863 2753 
Q 2328 2753 2575 2939 
Q 2822 3125 2822 3475 
Q 2822 3834 2567 4026 
Q 2313 4219 1838 4219 
Q 1578 4219 1281 4162 
Q 984 4106 628 3988 
L 628 4550 
Q 988 4650 1302 4700 
Q 1616 4750 1894 4750 
Q 2613 4750 3031 4423 
Q 3450 4097 3450 3541 
Q 3450 3153 3228 2886 
Q 3006 2619 2597 2516 
z
" transform="scale(0.015625)"/>
       </defs>
       <use xlink:href="#DejaVuSans-33"/>
       <use xlink:href="#DejaVuSans-30" transform="translate(63.623047 0)"/>
       <use xlink:href="#DejaVuSans-30" transform="translate(127.246094 0)"/>
       <use xlink:href="#DejaVuSans-30" transform="translate(190.869141 0)"/>
       <use xlink:href="#DejaVuSans-30" transform="translate(254.492188 0)"/>
       <use xlink:href="#DejaVuSans-30" transform="translate(318.115234 0)"/>
      </g>
     </g>
    </g>
    <g id="ytick_5">
     <g id="line2d_17">
      <path d="M 66.053125 105.162292 
L 849.693125 105.162292 
" clip-path="url(#p1ab06e50ad)" style="fill: none; stroke-dasharray: 2.96,1.28; stroke-dashoffset: 0; stroke: #b0b0b0; stroke-opacity: 0.5; stroke-width: 0.8"/>
     </g>
     <g id="line2d_18">
      <g>
       <use xlink:href="#m372aba328e" x="66.053125" y="105.162292" style="stroke: #000000; stroke-width: 0.8"/>
      </g>
     </g>
     <g id="text_13">
      <!-- 400000 -->
      <g transform="translate(20.878125 108.961511) scale(0.1 -0.1)">
       <defs>
        <path id="DejaVuSans-34" d="M 2419 4116 
L 825 1625 
L 2419 1625 
L 2419 4116 
z
M 2253 4666 
L 3047 4666 
L 3047 1625 
L 3713 1625 
L 3713 1100 
L 3047 1100 
L 3047 0 
L 2419 0 
L 2419 1100 
L 313 1100 
L 313 1709 
L 2253 4666 
z
" transform="scale(0.015625)"/>
       </defs>
       <use xlink:href="#DejaVuSans-34"/>
       <use xlink:href="#DejaVuSans-30" transform="translate(63.623047 0)"/>
       <use xlink:href="#DejaVuSans-30" transform="translate(127.246094 0)"/>
       <use xlink:href="#DejaVuSans-30" transform="translate(190.869141 0)"/>
       <use xlink:href="#DejaVuSans-30" transform="translate(254.492188 0)"/>
       <use xlink:href="#DejaVuSans-30" transform="translate(318.115234 0)"/>
      </g>
     </g>
    </g>
    <g id="ytick_6">
     <g id="line2d_19">
      <path d="M 66.053125 63.575045 
L 849.693125 63.575045 
" clip-path="url(#p1ab06e50ad)" style="fill: none; stroke-dasharray: 2.96,1.28; stroke-dashoffset: 0; stroke: #b0b0b0; stroke-opacity: 0.5; stroke-width: 0.8"/>
     </g>
     <g id="line2d_20">
      <g>
       <use xlink:href="#m372aba328e" x="66.053125" y="63.575045" style="stroke: #000000; stroke-width: 0.8"/>
      </g>
     </g>
     <g id="text_14">
      <!-- 500000 -->
      <g transform="translate(20.878125 67.374264) scale(0.1 -0.1)">
       <defs>
        <path id="DejaVuSans-35" d="M 691 4666 
L 3169 4666 
L 3169 4134 
L 1269 4134 
L 1269 2991 
Q 1406 3038 1543 3061 
Q 1681 3084 1819 3084 
Q 2600 3084 3056 2656 
Q 3513 2228 3513 1497 
Q 3513 744 3044 326 
Q 2575 -91 1722 -91 
Q 1428 -91 1123 -41 
Q 819 9 494 109 
L 494 744 
Q 775 591 1075 516 
Q 1375 441 1709 441 
Q 2250 441 2565 725 
Q 2881 1009 2881 1497 
Q 2881 1984 2565 2268 
Q 2250 2553 1709 2553 
Q 1456 2553 1204 2497 
Q 953 2441 691 2322 
L 691 4666 
z
" transform="scale(0.015625)"/>
       </defs>
       <use xlink:href="#DejaVuSans-35"/>
       <use xlink:href="#DejaVuSans-30" transform="translate(63.623047 0)"/>
       <use xlink:href="#DejaVuSans-30" transform="translate(127.246094 0)"/>
       <use xlink:href="#DejaVuSans-30" transform="translate(190.869141 0)"/>
       <use xlink:href="#DejaVuSans-30" transform="translate(254.492188 0)"/>
       <use xlink:href="#DejaVuSans-30" transform="translate(318.115234 0)"/>
      </g>
     </g>
    </g>
    <g id="text_15">
     <!-- Toneladas métricas -->
     <g transform="translate(14.798438 202.996484) rotate(-90) scale(0.1 -0.1)">
      <defs>
       <path id="DejaVuSans-54" d="M -19 4666 
L 3928 4666 
L 3928 4134 
L 2272 4134 
L 2272 0 
L 1638 0 
L 1638 4134 
L -19 4134 
L -19 4666 
z
" transform="scale(0.015625)"/>
       <path id="DejaVuSans-e9" d="M 3597 1894 
L 3597 1613 
L 953 1613 
Q 991 1019 1311 708 
Q 1631 397 2203 397 
Q 2534 397 2845 478 
Q 3156 559 3463 722 
L 3463 178 
Q 3153 47 2828 -22 
Q 2503 -91 2169 -91 
Q 1331 -91 842 396 
Q 353 884 353 1716 
Q 353 2575 817 3079 
Q 1281 3584 2069 3584 
Q 2775 3584 3186 3129 
Q 3597 2675 3597 1894 
z
M 3022 2063 
Q 3016 2534 2758 2815 
Q 2500 3097 2075 3097 
Q 1594 3097 1305 2825 
Q 1016 2553 972 2059 
L 3022 2063 
z
M 2466 5119 
L 3088 5119 
L 2070 3944 
L 1591 3944 
L 2466 5119 
z
" transform="scale(0.015625)"/>
       <path id="DejaVuSans-63" d="M 3122 3366 
L 3122 2828 
Q 2878 2963 2633 3030 
Q 2388 3097 2138 3097 
Q 1578 3097 1268 2742 
Q 959 2388 959 1747 
Q 959 1106 1268 751 
Q 1578 397 2138 397 
Q 2388 397 2633 464 
Q 2878 531 3122 666 
L 3122 134 
Q 2881 22 2623 -34 
Q 2366 -91 2075 -91 
Q 1284 -91 818 406 
Q 353 903 353 1747 
Q 353 2603 823 3093 
Q 1294 3584 2113 3584 
Q 2378 3584 2631 3529 
Q 2884 3475 3122 3366 
z
" transform="scale(0.015625)"/>
      </defs>
      <use xlink:href="#DejaVuSans-54"/>
      <use xlink:href="#DejaVuSans-6f" transform="translate(44.083984 0)"/>
      <use xlink:href="#DejaVuSans-6e" transform="translate(105.265625 0)"/>
      <use xlink:href="#DejaVuSans-65" transform="translate(168.644531 0)"/>
      <use xlink:href="#DejaVuSans-6c" transform="translate(230.167969 0)"/>
      <use xlink:href="#DejaVuSans-61" transform="translate(257.951172 0)"/>
      <use xlink:href="#DejaVuSans-64" transform="translate(319.230469 0)"/>
      <use xlink:href="#DejaVuSans-61" transform="translate(382.707031 0)"/>
      <use xlink:href="#DejaVuSans-73" transform="translate(443.986328 0)"/>
      <use xlink:href="#DejaVuSans-20" transform="translate(496.085938 0)"/>
      <use xlink:href="#DejaVuSans-6d" transform="translate(527.873047 0)"/>
      <use xlink:href="#DejaVuSans-e9" transform="translate(625.285156 0)"/>
      <use xlink:href="#DejaVuSans-74" transform="translate(686.808594 0)"/>
      <use xlink:href="#DejaVuSans-72" transform="translate(726.017578 0)"/>
      <use xlink:href="#DejaVuSans-69" transform="translate(767.130859 0)"/>
      <use xlink:href="#DejaVuSans-63" transform="translate(794.914062 0)"/>
      <use xlink:href="#DejaVuSans-61" transform="translate(849.894531 0)"/>
      <use xlink:href="#DejaVuSans-73" transform="translate(911.173828 0)"/>
     </g>
    </g>
   </g>
   <g id="patch_19">
    <path d="M 66.053125 271.511281 
L 66.053125 38.155125 
" style="fill: none; stroke: #000000; stroke-width: 0.8; stroke-linejoin: miter; stroke-linecap: square"/>
   </g>
   <g id="patch_20">
    <path d="M 849.693125 271.511281 
L 849.693125 38.155125 
" style="fill: none; stroke: #000000; stroke-width: 0.8; stroke-linejoin: miter; stroke-linecap: square"/>
   </g>
   <g id="patch_21">
    <path d="M 66.053125 271.511281 
L 849.693125 271.511281 
" style="fill: none; stroke: #000000; stroke-width: 0.8; stroke-linejoin: miter; stroke-linecap: square"/>
   </g>
   <g id="patch_22">
    <path d="M 66.053125 38.155125 
L 849.693125 38.155125 
" style="fill: none; stroke: #000000; stroke-width: 0.8; stroke-linejoin: miter; stroke-linecap: square"/>
   </g>
   <g id="text_16">
    <!-- Comparación Producción 2015 vs 2023 - Ica -->
    <g transform="translate(314.646641 17.597969) scale(0.13 -0.13)">
     <defs>
      <path id="DejaVuSans-43" d="M 4122 4306 
L 4122 3641 
Q 3803 3938 3442 4084 
Q 3081 4231 2675 4231 
Q 1875 4231 1450 3742 
Q 1025 3253 1025 2328 
Q 1025 1406 1450 917 
Q 1875 428 2675 428 
Q 3081 428 3442 575 
Q 3803 722 4122 1019 
L 4122 359 
Q 3791 134 3420 21 
Q 3050 -91 2638 -91 
Q 1578 -91 968 557 
Q 359 1206 359 2328 
Q 359 3453 968 4101 
Q 1578 4750 2638 4750 
Q 3056 4750 3426 4639 
Q 3797 4528 4122 4306 
z
" transform="scale(0.015625)"/>
      <path id="DejaVuSans-f3" d="M 1959 3097 
Q 1497 3097 1228 2736 
Q 959 2375 959 1747 
Q 959 1119 1226 758 
Q 1494 397 1959 397 
Q 2419 397 2687 759 
Q 2956 1122 2956 1747 
Q 2956 2369 2687 2733 
Q 2419 3097 1959 3097 
z
M 1959 3584 
Q 2709 3584 3137 3096 
Q 3566 2609 3566 1747 
Q 3566 888 3137 398 
Q 2709 -91 1959 -91 
Q 1206 -91 779 398 
Q 353 888 353 1747 
Q 353 2609 779 3096 
Q 1206 3584 1959 3584 
z
M 2394 5119 
L 3016 5119 
L 1998 3944 
L 1519 3944 
L 2394 5119 
z
" transform="scale(0.015625)"/>
      <path id="DejaVuSans-49" d="M 628 4666 
L 1259 4666 
L 1259 0 
L 628 0 
L 628 4666 
z
" transform="scale(0.015625)"/>
     </defs>
     <use xlink:href="#DejaVuSans-43"/>
     <use xlink:href="#DejaVuSans-6f" transform="translate(69.824219 0)"/>
     <use xlink:href="#DejaVuSans-6d" transform="translate(131.005859 0)"/>
     <use xlink:href="#DejaVuSans-70" transform="translate(228.417969 0)"/>
     <use xlink:href="#DejaVuSans-61" transform="translate(291.894531 0)"/>
     <use xlink:href="#DejaVuSans-72" transform="translate(353.173828 0)"/>
     <use xlink:href="#DejaVuSans-61" transform="translate(394.287109 0)"/>
     <use xlink:href="#DejaVuSans-63" transform="translate(455.566406 0)"/>
     <use xlink:href="#DejaVuSans-69" transform="translate(510.546875 0)"/>
     <use xlink:href="#DejaVuSans-f3" transform="translate(538.330078 0)"/>
     <use xlink:href="#DejaVuSans-6e" transform="translate(599.511719 0)"/>
     <use xlink:href="#DejaVuSans-20" transform="translate(662.890625 0)"/>
     <use xlink:href="#DejaVuSans-50" transform="translate(694.677734 0)"/>
     <use xlink:href="#DejaVuSans-72" transform="translate(753.230469 0)"/>
     <use xlink:href="#DejaVuSans-6f" transform="translate(792.09375 0)"/>
     <use xlink:href="#DejaVuSans-64" transform="translate(853.275391 0)"/>
     <use xlink:href="#DejaVuSans-75" transform="translate(916.751953 0)"/>
     <use xlink:href="#DejaVuSans-63" transform="translate(980.130859 0)"/>
     <use xlink:href="#DejaVuSans-63" transform="translate(1035.111328 0)"/>
     <use xlink:href="#DejaVuSans-69" transform="translate(1090.091797 0)"/>
     <use xlink:href="#DejaVuSans-f3" transform="translate(1117.875 0)"/>
     <use xlink:href="#DejaVuSans-6e" transform="translate(1179.056641 0)"/>
     <use xlink:href="#DejaVuSans-20" transform="translate(1242.435547 0)"/>
     <use xlink:href="#DejaVuSans-32" transform="translate(1274.222656 0)"/>
     <use xlink:href="#DejaVuSans-30" transform="translate(1337.845703 0)"/>
     <use xlink:href="#DejaVuSans-31" transform="translate(1401.46875 0)"/>
     <use xlink:href="#DejaVuSans-35" transform="translate(1465.091797 0)"/>
     <use xlink:href="#DejaVuSans-20" transform="translate(1528.714844 0)"/>
     <use xlink:href="#DejaVuSans-76" transform="translate(1560.501953 0)"/>
     <use xlink:href="#DejaVuSans-73" transform="translate(1619.681641 0)"/>
     <use xlink:href="#DejaVuSans-20" transform="translate(1671.78125 0)"/>
     <use xlink:href="#DejaVuSans-32" transform="translate(1703.568359 0)"/>
     <use xlink:href="#DejaVuSans-30" transform="translate(1767.191406 0)"/>
     <use xlink:href="#DejaVuSans-32" transform="translate(1830.814453 0)"/>
     <use xlink:href="#DejaVuSans-33" transform="translate(1894.4375 0)"/>
     <use xlink:href="#DejaVuSans-20" transform="translate(1958.060547 0)"/>
     <use xlink:href="#DejaVuSans-2d" transform="translate(1989.847656 0)"/>
     <use xlink:href="#DejaVuSans-20" transform="translate(2025.931641 0)"/>
     <use xlink:href="#DejaVuSans-49" transform="translate(2057.71875 0)"/>
     <use xlink:href="#DejaVuSans-63" transform="translate(2087.210938 0)"/>
     <use xlink:href="#DejaVuSans-61" transform="translate(2142.191406 0)"/>
    </g>
    <!-- Top 8 Productos -->
    <g transform="translate(406.597266 32.155125) scale(0.13 -0.13)">
     <defs>
      <path id="DejaVuSans-38" d="M 2034 2216 
Q 1584 2216 1326 1975 
Q 1069 1734 1069 1313 
Q 1069 891 1326 650 
Q 1584 409 2034 409 
Q 2484 409 2743 651 
Q 3003 894 3003 1313 
Q 3003 1734 2745 1975 
Q 2488 2216 2034 2216 
z
M 1403 2484 
Q 997 2584 770 2862 
Q 544 3141 544 3541 
Q 544 4100 942 4425 
Q 1341 4750 2034 4750 
Q 2731 4750 3128 4425 
Q 3525 4100 3525 3541 
Q 3525 3141 3298 2862 
Q 3072 2584 2669 2484 
Q 3125 2378 3379 2068 
Q 3634 1759 3634 1313 
Q 3634 634 3220 271 
Q 2806 -91 2034 -91 
Q 1263 -91 848 271 
Q 434 634 434 1313 
Q 434 1759 690 2068 
Q 947 2378 1403 2484 
z
M 1172 3481 
Q 1172 3119 1398 2916 
Q 1625 2713 2034 2713 
Q 2441 2713 2670 2916 
Q 2900 3119 2900 3481 
Q 2900 3844 2670 4047 
Q 2441 4250 2034 4250 
Q 1625 4250 1398 4047 
Q 1172 3844 1172 3481 
z
" transform="scale(0.015625)"/>
     </defs>
     <use xlink:href="#DejaVuSans-54"/>
     <use xlink:href="#DejaVuSans-6f" transform="translate(44.083984 0)"/>
     <use xlink:href="#DejaVuSans-70" transform="translate(105.265625 0)"/>
     <use xlink:href="#DejaVuSans-20" transform="translate(168.742188 0)"/>
     <use xlink:href="#DejaVuSans-38" transform="translate(200.529297 0)"/>
     <use xlink:href="#DejaVuSans-20" transform="translate(264.152344 0)"/>
     <use xlink:href="#DejaVuSans-50" transform="translate(295.939453 0)"/>
     <use xlink:href="#DejaVuSans-72" transform="translate(354.492188 0)"/>
     <use xlink:href="#DejaVuSans-6f" transform="translate(393.355469 0)"/>
     <use xlink:href="#DejaVuSans-64" transform="translate(454.537109 0)"/>
     <use xlink:href="#DejaVuSans-75" transform="translate(518.013672 0)"/>
     <use xlink:href="#DejaVuSans-63" transform="translate(581.392578 0)"/>
     <use xlink:href="#DejaVuSans-74" transform="translate(636.373047 0)"/>
     <use xlink:href="#DejaVuSans-6f" transform="translate(675.582031 0)"/>
     <use xlink:href="#DejaVuSans-73" transform="translate(736.763672 0)"/>
    </g>
   </g>
   <g id="legend_1">
    <g id="patch_23">
     <path d="M 785.243125 75.511375 
L 842.693125 75.511375 
Q 844.693125 75.511375 844.693125 73.511375 
L 844.693125 45.155125 
Q 844.693125 43.155125 842.693125 43.155125 
L 785.243125 43.155125 
Q 783.243125 43.155125 783.243125 45.155125 
L 783.243125 73.511375 
Q 783.243125 75.511375 785.243125 75.511375 
z
" style="fill: #ffffff; opacity: 0.8; stroke: #cccccc; stroke-linejoin: miter"/>
    </g>
    <g id="patch_24">
     <path d="M 787.243125 54.753562 
L 807.243125 54.753562 
L 807.243125 47.753562 
L 787.243125 47.753562 
z
" style="fill: #4682b4"/>
    </g>
    <g id="text_17">
     <!-- 2015 -->
     <g transform="translate(815.243125 54.753562) scale(0.1 -0.1)">
      <use xlink:href="#DejaVuSans-32"/>
      <use xlink:href="#DejaVuSans-30" transform="translate(63.623047 0)"/>
      <use xlink:href="#DejaVuSans-31" transform="translate(127.246094 0)"/>
      <use xlink:href="#DejaVuSans-35" transform="translate(190.869141 0)"/>
     </g>
    </g>
    <g id="patch_25">
     <path d="M 787.243125 69.431688 
L 807.243125 69.431688 
L 807.243125 62.431688 
L 787.243125 62.431688 
z
" style="fill: #ff7f50"/>
    </g>
    <g id="text_18">
     <!-- 2023 -->
     <g transform="translate(815.243125 69.431688) scale(0.1 -0.1)">
      <use xlink:href="#DejaVuSans-32"/>
      <use xlink:href="#DejaVuSans-30" transform="translate(63.623047 0)"/>
      <use xlink:href="#DejaVuSans-32" transform="translate(127.246094 0)"/>
      <use xlink:href="#DejaVuSans-33" transform="translate(190.869141 0)"/>
     </g>
    </g>
   </g>
  </g>
 </g>
 <defs>
  <clipPath id="p1ab06e50ad">
   <rect x="66.053125" y="38.155125" width="783.64" height="233.356156"/>
  </clipPath>
 </defs>
</svg>
