<?xml version="1.0" encoding="utf-8" standalone="no"?>
<!DOCTYPE svg PUBLIC "-//W3C//DTD SVG 1.1//EN"
  "http://www.w3.org/Graphics/SVG/1.1/DTD/svg11.dtd">
<svg xmlns:xlink="http://www.w3.org/1999/xlink" width="712.750625pt" height="425.391375pt" viewBox="0 0 712.750625 425.391375" xmlns="http://www.w3.org/2000/svg" version="1.1">
 <metadata>
  <rdf:RDF xmlns:dc="http://purl.org/dc/elements/1.1/" xmlns:cc="http://creativecommons.org/ns#" xmlns:rdf="http://www.w3.org/1999/02/22-rdf-syntax-ns#">
   <cc:Work>
    <dc:type rdf:resource="http://purl.org/dc/dcmitype/StillImage"/>
    <dc:date>2026-06-29T07:44:45.431333</dc:date>
    <dc:format>image/svg+xml</dc:format>
    <dc:creator>
     <cc:Agent>
      <dc:title>Matplotlib v3.10.0, https://matplotlib.org/</dc:title>
     </cc:Agent>
    </dc:creator>
   </cc:Work>
  </rdf:RDF>
 </metadata>
 <defs>
  <style type="text/css">*{stroke-linejoin: round; stroke-linecap: butt}</style>
 </defs>
 <g id="figure_1">
  <g id="patch_1">
   <path d="M 0 425.391375 
L 712.750625 425.391375 
L 712.750625 0 
L 0 0 
z
" style="fill: #ffffff"/>
  </g>
  <g id="axes_1">
   <g id="patch_2">
    <path d="M 131.690625 387.835125 
L 705.550625 387.835125 
L 705.550625 37.635125 
L 131.690625 37.635125 
z
" style="fill: #ffffff"/>
   </g>
   <g id="patch_3">
    <path d="M 131.690625 53.553307 
L 678.223958 53.553307 
L 678.223958 79.542175 
L 131.690625 79.542175 
z
" clip-path="url(#p447f21e145)" style="fill: #3cb371"/>
   </g>
   <g id="patch_4">
    <path d="M 131.690625 86.039392 
L 363.392314 86.039392 
L 363.392314 112.02826 
L 131.690625 112.02826 
z
" clip-path="url(#p447f21e145)" style="fill: #3cb371"/>
   </g>
   <g id="patch_5">
    <path d="M 131.690625 118.525478 
L 354.430883 118.525478 
L 354.430883 144.514346 
L 131.690625 144.514346 
z
" clip-path="url(#p447f21e145)" style="fill: #3cb371"/>
   </g>
   <g id="patch_6">
    <path d="M 131.690625 151.011563 
L 317.065523 151.011563 
L 317.065523 177.000431 
L 131.690625 177.000431 
z
" clip-path="url(#p447f21e145)" style="fill: #3cb371"/>
   </g>
   <g id="patch_7">
    <path d="M 131.690625 183.497648 
L 306.49809 183.497648 
L 306.49809 209.486516 
L 131.690625 209.486516 
z
" clip-path="url(#p447f21e145)" style="fill: #3cb371"/>
   </g>
   <g id="patch_8">
    <path d="M 131.690625 215.983734 
L 302.892245 215.983734 
L 302.892245 241.972602 
L 131.690625 241.972602 
z
" clip-path="url(#p447f21e145)" style="fill: #3cb371"/>
   </g>
   <g id="patch_9">
    <path d="M 131.690625 248.469819 
L 270.869013 248.469819 
L 270.869013 274.458687 
L 131.690625 274.458687 
z
" clip-path="url(#p447f21e145)" style="fill: #3cb371"/>
   </g>
   <g id="patch_10">
    <path d="M 131.690625 280.955904 
L 257.40503 280.955904 
L 257.40503 306.944772 
L 131.690625 306.944772 
z
" clip-path="url(#p447f21e145)" style="fill: #3cb371"/>
   </g>
   <g id="patch_11">
    <path d="M 131.690625 313.44199 
L 249.501667 313.44199 
L 249.501667 339.430858 
L 131.690625 339.430858 
z
" clip-path="url(#p447f21e145)" style="fill: #3cb371"/>
   </g>
   <g id="patch_12">
    <path d="M 131.690625 345.928075 
L 237.699655 345.928075 
L 237.699655 371.916943 
L 131.690625 371.916943 
z
" clip-path="url(#p447f21e145)" style="fill: #3cb371"/>
   </g>
   <g id="matplotlib.axis_1">
    <g id="xtick_1">
     <g id="line2d_1">
      <path d="M 131.690625 387.835125 
L 131.690625 37.635125 
" clip-path="url(#p447f21e145)" style="fill: none; stroke-dasharray: 2.96,1.28; stroke-dashoffset: 0; stroke: #b0b0b0; stroke-opacity: 0.5; stroke-width: 0.8"/>
     </g>
     <g id="line2d_2">
      <defs>
       <path id="m6df51102c7" d="M 0 0 
L 0 3.5 
" style="stroke: #000000; stroke-width: 0.8"/>
      </defs>
      <g>
       <use xlink:href="#m6df51102c7" x="131.690625" y="387.835125" style="stroke: #000000; stroke-width: 0.8"/>
      </g>
     </g>
     <g id="text_1">
      <!-- 0 -->
      <g transform="translate(128.509375 402.433562) scale(0.1 -0.1)">
       <defs>
        <path id="DejaVuSans-30" d="M 2034 4250 
Q 1547 4250 1301 3770 
Q 1056 3291 1056 2328 
Q 1056 1369 1301 889 
Q 1547 409 2034 409 
Q 2525 409 2770 889 
Q 3016 1369 3016 2328 
Q 3016 3291 2770 3770 
Q 2525 4250 2034 4250 
z
M 2034 4750 
Q 2819 4750 3233 4129 
Q 3647 3509 3647 2328 
Q 3647 1150 3233 529 
Q 2819 -91 2034 -91 
Q 1250 -91 836 529 
Q 422 1150 422 2328 
Q 422 3509 836 4129 
Q 1250 4750 2034 4750 
z
" transform="scale(0.015625)"/>
       </defs>
       <use xlink:href="#DejaVuSans-30"/>
      </g>
     </g>
    </g>
    <g id="xtick_2">
     <g id="line2d_3">
      <path d="M 233.960298 387.835125 
L 233.960298 37.635125 
" clip-path="url(#p447f21e145)" style="fill: none; stroke-dasharray: 2.96,1.28; stroke-dashoffset: 0; stroke: #b0b0b0; stroke-opacity: 0.5; stroke-width: 0.8"/>
     </g>
     <g id="line2d_4">
      <g>
       <use xlink:href="#m6df51102c7" x="233.960298" y="387.835125" style="stroke: #000000; stroke-width: 0.8"/>
      </g>
     </g>
     <g id="text_2">
      <!-- 100000 -->
      <g transform="translate(214.872798 402.433562) scale(0.1 -0.1)">
       <defs>
        <path id="DejaVuSans-31" d="M 794 531 
L 1825 531 
L 1825 4091 
L 703 3866 
L 703 4441 
L 1819 4666 
L 2450 4666 
L 2450 531 
L 3481 531 
L 3481 0 
L 794 0 
L 794 531 
z
" transform="scale(0.015625)"/>
       </defs>
       <use xlink:href="#DejaVuSans-31"/>
       <use xlink:href="#DejaVuSans-30" transform="translate(63.623047 0)"/>
       <use xlink:href="#DejaVuSans-30" transform="translate(127.246094 0)"/>
       <use xlink:href="#DejaVuSans-30" transform="translate(190.869141 0)"/>
       <use xlink:href="#DejaVuSans-30" transform="translate(254.492188 0)"/>
       <use xlink:href="#DejaVuSans-30" transform="translate(318.115234 0)"/>
      </g>
     </g>
    </g>
    <g id="xtick_3">
     <g id="line2d_5">
      <path d="M 336.22997 387.835125 
L 336.22997 37.635125 
" clip-path="url(#p447f21e145)" style="fill: none; stroke-dasharray: 2.96,1.28; stroke-dashoffset: 0; stroke: #b0b0b0; stroke-opacity: 0.5; stroke-width: 0.8"/>
     </g>
     <g id="line2d_6">
      <g>
       <use xlink:href="#m6df51102c7" x="336.22997" y="387.835125" style="stroke: #000000; stroke-width: 0.8"/>
      </g>
     </g>
     <g id="text_3">
      <!-- 200000 -->
      <g transform="translate(317.14247 402.433562) scale(0.1 -0.1)">
       <defs>
        <path id="DejaVuSans-32" d="M 1228 531 
L 3431 531 
L 3431 0 
L 469 0 
L 469 531 
Q 828 903 1448 1529 
Q 2069 2156 2228 2338 
Q 2531 2678 2651 2914 
Q 2772 3150 2772 3378 
Q 2772 3750 2511 3984 
Q 2250 4219 1831 4219 
Q 1534 4219 1204 4116 
Q 875 4013 500 3803 
L 500 4441 
Q 881 4594 1212 4672 
Q 1544 4750 1819 4750 
Q 2544 4750 2975 4387 
Q 3406 4025 3406 3419 
Q 3406 3131 3298 2873 
Q 3191 2616 2906 2266 
Q 2828 2175 2409 1742 
Q 1991 1309 1228 531 
z
" transform="scale(0.015625)"/>
       </defs>
       <use xlink:href="#DejaVuSans-32"/>
       <use xlink:href="#DejaVuSans-30" transform="translate(63.623047 0)"/>
       <use xlink:href="#DejaVuSans-30" transform="translate(127.246094 0)"/>
       <use xlink:href="#DejaVuSans-30" transform="translate(190.869141 0)"/>
       <use xlink:href="#DejaVuSans-30" transform="translate(254.492188 0)"/>
       <use xlink:href="#DejaVuSans-30" transform="translate(318.115234 0)"/>
      </g>
     </g>
    </g>
    <g id="xtick_4">
     <g id="line2d_7">
      <path d="M 438.499643 387.835125 
L 438.499643 37.635125 
" clip-path="url(#p447f21e145)" style="fill: none; stroke-dasharray: 2.96,1.28; stroke-dashoffset: 0; stroke: #b0b0b0; stroke-opacity: 0.5; stroke-width: 0.8"/>
     </g>
     <g id="line2d_8">
      <g>
       <use xlink:href="#m6df51102c7" x="438.499643" y="387.835125" style="stroke: #000000; stroke-width: 0.8"/>
      </g>
     </g>
     <g id="text_4">
      <!-- 300000 -->
      <g transform="translate(419.412143 402.433562) scale(0.1 -0.1)">
       <defs>
        <path id="DejaVuSans-33" d="M 2597 2516 
Q 3050 2419 3304 2112 
Q 3559 1806 3559 1356 
Q 3559 666 3084 287 
Q 2609 -91 1734 -91 
Q 1441 -91 1130 -33 
Q 819 25 488 141 
L 488 750 
Q 750 597 1062 519 
Q 1375 441 1716 441 
Q 2309 441 2620 675 
Q 2931 909 2931 1356 
Q 2931 1769 2642 2001 
Q 2353 2234 1838 2234 
L 1294 2234 
L 1294 2753 
L 1863 2753 
Q 2328 2753 2575 2939 
Q 2822 3125 2822 3475 
Q 2822 3834 2567 4026 
Q 2313 4219 1838 4219 
Q 1578 4219 1281 4162 
Q 984 4106 628 3988 
L 628 4550 
Q 988 4650 1302 4700 
Q 1616 4750 1894 4750 
Q 2613 4750 3031 4423 
Q 3450 4097 3450 3541 
Q 3450 3153 3228 2886 
Q 3006 2619 2597 2516 
z
" transform="scale(0.015625)"/>
       </defs>
       <use xlink:href="#DejaVuSans-33"/>
       <use xlink:href="#DejaVuSans-30" transform="translate(63.623047 0)"/>
       <use xlink:href="#DejaVuSans-30" transform="translate(127.246094 0)"/>
       <use xlink:href="#DejaVuSans-30" transform="translate(190.869141 0)"/>
       <use xlink:href="#DejaVuSans-30" transform="translate(254.492188 0)"/>
       <use xlink:href="#DejaVuSans-30" transform="translate(318.115234 0)"/>
      </g>
     </g>
    </g>
    <g id="xtick_5">
     <g id="line2d_9">
      <path d="M 540.769315 387.835125 
L 540.769315 37.635125 
" clip-path="url(#p447f21e145)" style="fill: none; stroke-dasharray: 2.96,1.28; stroke-dashoffset: 0; stroke: #b0b0b0; stroke-opacity: 0.5; stroke-width: 0.8"/>
     </g>
     <g id="line2d_10">
      <g>
       <use xlink:href="#m6df51102c7" x="540.769315" y="387.835125" style="stroke: #000000; stroke-width: 0.8"/>
      </g>
     </g>
     <g id="text_5">
      <!-- 400000 -->
      <g transform="translate(521.681815 402.433562) scale(0.1 -0.1)">
       <defs>
        <path id="DejaVuSans-34" d="M 2419 4116 
L 825 1625 
L 2419 1625 
L 2419 4116 
z
M 2253 4666 
L 3047 4666 
L 3047 1625 
L 3713 1625 
L 3713 1100 
L 3047 1100 
L 3047 0 
L 2419 0 
L 2419 1100 
L 313 1100 
L 313 1709 
L 2253 4666 
z
" transform="scale(0.015625)"/>
       </defs>
       <use xlink:href="#DejaVuSans-34"/>
       <use xlink:href="#DejaVuSans-30" transform="translate(63.623047 0)"/>
       <use xlink:href="#DejaVuSans-30" transform="translate(127.246094 0)"/>
       <use xlink:href="#DejaVuSans-30" transform="translate(190.869141 0)"/>
       <use xlink:href="#DejaVuSans-30" transform="translate(254.492188 0)"/>
       <use xlink:href="#DejaVuSans-30" transform="translate(318.115234 0)"/>
      </g>
     </g>
    </g>
    <g id="xtick_6">
     <g id="line2d_11">
      <path d="M 643.038988 387.835125 
L 643.038988 37.635125 
" clip-path="url(#p447f21e145)" style="fill: none; stroke-dasharray: 2.96,1.28; stroke-dashoffset: 0; stroke: #b0b0b0; stroke-opacity: 0.5; stroke-width: 0.8"/>
     </g>
     <g id="line2d_12">
      <g>
       <use xlink:href="#m6df51102c7" x="643.038988" y="387.835125" style="stroke: #000000; stroke-width: 0.8"/>
      </g>
     </g>
     <g id="text_6">
      <!-- 500000 -->
      <g transform="translate(623.951488 402.433562) scale(0.1 -0.1)">
       <defs>
        <path id="DejaVuSans-35" d="M 691 4666 
L 3169 4666 
L 3169 4134 
L 1269 4134 
L 1269 2991 
Q 1406 3038 1543 3061 
Q 1681 3084 1819 3084 
Q 2600 3084 3056 2656 
Q 3513 2228 3513 1497 
Q 3513 744 3044 326 
Q 2575 -91 1722 -91 
Q 1428 -91 1123 -41 
Q 819 9 494 109 
L 494 744 
Q 775 591 1075 516 
Q 1375 441 1709 441 
Q 2250 441 2565 725 
Q 2881 1009 2881 1497 
Q 2881 1984 2565 2268 
Q 2250 2553 1709 2553 
Q 1456 2553 1204 2497 
Q 953 2441 691 2322 
L 691 4666 
z
" transform="scale(0.015625)"/>
       </defs>
       <use xlink:href="#DejaVuSans-35"/>
       <use xlink:href="#DejaVuSans-30" transform="translate(63.623047 0)"/>
       <use xlink:href="#DejaVuSans-30" transform="translate(127.246094 0)"/>
       <use xlink:href="#DejaVuSans-30" transform="translate(190.869141 0)"/>
       <use xlink:href="#DejaVuSans-30" transform="translate(254.492188 0)"/>
       <use xlink:href="#DejaVuSans-30" transform="translate(318.115234 0)"/>
      </g>
     </g>
    </g>
    <g id="text_7">
     <!-- Toneladas métricas -->
     <g transform="translate(370.457344 416.111687) scale(0.1 -0.1)">
      <defs>
       <path id="DejaVuSans-54" d="M -19 4666 
L 3928 4666 
L 3928 4134 
L 2272 4134 
L 2272 0 
L 1638 0 
L 1638 4134 
L -19 4134 
L -19 4666 
z
" transform="scale(0.015625)"/>
       <path id="DejaVuSans-6f" d="M 1959 3097 
Q 1497 3097 1228 2736 
Q 959 2375 959 1747 
Q 959 1119 1226 758 
Q 1494 397 1959 397 
Q 2419 397 2687 759 
Q 2956 1122 2956 1747 
Q 2956 2369 2687 2733 
Q 2419 3097 1959 3097 
z
M 1959 3584 
Q 2709 3584 3137 3096 
Q 3566 2609 3566 1747 
Q 3566 888 3137 398 
Q 2709 -91 1959 -91 
Q 1206 -91 779 398 
Q 353 888 353 1747 
Q 353 2609 779 3096 
Q 1206 3584 1959 3584 
z
" transform="scale(0.015625)"/>
       <path id="DejaVuSans-6e" d="M 3513 2113 
L 3513 0 
L 2938 0 
L 2938 2094 
Q 2938 2591 2744 2837 
Q 2550 3084 2163 3084 
Q 1697 3084 1428 2787 
Q 1159 2491 1159 1978 
L 1159 0 
L 581 0 
L 581 3500 
L 1159 3500 
L 1159 2956 
Q 1366 3272 1645 3428 
Q 1925 3584 2291 3584 
Q 2894 3584 3203 3211 
Q 3513 2838 3513 2113 
z
" transform="scale(0.015625)"/>
       <path id="DejaVuSans-65" d="M 3597 1894 
L 3597 1613 
L 953 1613 
Q 991 1019 1311 708 
Q 1631 397 2203 397 
Q 2534 397 2845 478 
Q 3156 559 3463 722 
L 3463 178 
Q 3153 47 2828 -22 
Q 2503 -91 2169 -91 
Q 1331 -91 842 396 
Q 353 884 353 1716 
Q 353 2575 817 3079 
Q 1281 3584 2069 3584 
Q 2775 3584 3186 3129 
Q 3597 2675 3597 1894 
z
M 3022 2063 
Q 3016 2534 2758 2815 
Q 2500 3097 2075 3097 
Q 1594 3097 1305 2825 
Q 1016 2553 972 2059 
L 3022 2063 
z
" transform="scale(0.015625)"/>
       <path id="DejaVuSans-6c" d="M 603 4863 
L 1178 4863 
L 1178 0 
L 603 0 
L 603 4863 
z
" transform="scale(0.015625)"/>
       <path id="DejaVuSans-61" d="M 2194 1759 
Q 1497 1759 1228 1600 
Q 959 1441 959 1056 
Q 959 750 1161 570 
Q 1363 391 1709 391 
Q 2188 391 2477 730 
Q 2766 1069 2766 1631 
L 2766 1759 
L 2194 1759 
z
M 3341 1997 
L 3341 0 
L 2766 0 
L 2766 531 
Q 2569 213 2275 61 
Q 1981 -91 1556 -91 
Q 1019 -91 701 211 
Q 384 513 384 1019 
Q 384 1609 779 1909 
Q 1175 2209 1959 2209 
L 2766 2209 
L 2766 2266 
Q 2766 2663 2505 2880 
Q 2244 3097 1772 3097 
Q 1472 3097 1187 3025 
Q 903 2953 641 2809 
L 641 3341 
Q 956 3463 1253 3523 
Q 1550 3584 1831 3584 
Q 2591 3584 2966 3190 
Q 3341 2797 3341 1997 
z
" transform="scale(0.015625)"/>
       <path id="DejaVuSans-64" d="M 2906 2969 
L 2906 4863 
L 3481 4863 
L 3481 0 
L 2906 0 
L 2906 525 
Q 2725 213 2448 61 
Q 2172 -91 1784 -91 
Q 1150 -91 751 415 
Q 353 922 353 1747 
Q 353 2572 751 3078 
Q 1150 3584 1784 3584 
Q 2172 3584 2448 3432 
Q 2725 3281 2906 2969 
z
M 947 1747 
Q 947 1113 1208 752 
Q 1469 391 1925 391 
Q 2381 391 2643 752 
Q 2906 1113 2906 1747 
Q 2906 2381 2643 2742 
Q 2381 3103 1925 3103 
Q 1469 3103 1208 2742 
Q 947 2381 947 1747 
z
" transform="scale(0.015625)"/>
       <path id="DejaVuSans-73" d="M 2834 3397 
L 2834 2853 
Q 2591 2978 2328 3040 
Q 2066 3103 1784 3103 
Q 1356 3103 1142 2972 
Q 928 2841 928 2578 
Q 928 2378 1081 2264 
Q 1234 2150 1697 2047 
L 1894 2003 
Q 2506 1872 2764 1633 
Q 3022 1394 3022 966 
Q 3022 478 2636 193 
Q 2250 -91 1575 -91 
Q 1294 -91 989 -36 
Q 684 19 347 128 
L 347 722 
Q 666 556 975 473 
Q 1284 391 1588 391 
Q 1994 391 2212 530 
Q 2431 669 2431 922 
Q 2431 1156 2273 1281 
Q 2116 1406 1581 1522 
L 1381 1569 
Q 847 1681 609 1914 
Q 372 2147 372 2553 
Q 372 3047 722 3315 
Q 1072 3584 1716 3584 
Q 2034 3584 2315 3537 
Q 2597 3491 2834 3397 
z
" transform="scale(0.015625)"/>
       <path id="DejaVuSans-20" transform="scale(0.015625)"/>
       <path id="DejaVuSans-6d" d="M 3328 2828 
Q 3544 3216 3844 3400 
Q 4144 3584 4550 3584 
Q 5097 3584 5394 3201 
Q 5691 2819 5691 2113 
L 5691 0 
L 5113 0 
L 5113 2094 
Q 5113 2597 4934 2840 
Q 4756 3084 4391 3084 
Q 3944 3084 3684 2787 
Q 3425 2491 3425 1978 
L 3425 0 
L 2847 0 
L 2847 2094 
Q 2847 2600 2669 2842 
Q 2491 3084 2119 3084 
Q 1678 3084 1418 2786 
Q 1159 2488 1159 1978 
L 1159 0 
L 581 0 
L 581 3500 
L 1159 3500 
L 1159 2956 
Q 1356 3278 1631 3431 
Q 1906 3584 2284 3584 
Q 2666 3584 2933 3390 
Q 3200 3197 3328 2828 
z
" transform="scale(0.015625)"/>
       <path id="DejaVuSans-e9" d="M 3597 1894 
L 3597 1613 
L 953 1613 
Q 991 1019 1311 708 
Q 1631 397 2203 397 
Q 2534 397 2845 478 
Q 3156 559 3463 722 
L 3463 178 
Q 3153 47 2828 -22 
Q 2503 -91 2169 -91 
Q 1331 -91 842 396 
Q 353 884 353 1716 
Q 353 2575 817 3079 
Q 1281 3584 2069 3584 
Q 2775 3584 3186 3129 
Q 3597 2675 3597 1894 
z
M 3022 2063 
Q 3016 2534 2758 2815 
Q 2500 3097 2075 3097 
Q 1594 3097 1305 2825 
Q 1016 2553 972 2059 
L 3022 2063 
z
M 2466 5119 
L 3088 5119 
L 2070 3944 
L 1591 3944 
L 2466 5119 
z
" transform="scale(0.015625)"/>
       <path id="DejaVuSans-74" d="M 1172 4494 
L 1172 3500 
L 2356 3500 
L 2356 3053 
L 1172 3053 
L 1172 1153 
Q 1172 725 1289 603 
Q 1406 481 1766 481 
L 2356 481 
L 2356 0 
L 1766 0 
Q 1100 0 847 248 
Q 594 497 594 1153 
L 594 3053 
L 172 3053 
L 172 3500 
L 594 3500 
L 594 4494 
L 1172 4494 
z
" transform="scale(0.015625)"/>
       <path id="DejaVuSans-72" d="M 2631 2963 
Q 2534 3019 2420 3045 
Q 2306 3072 2169 3072 
Q 1681 3072 1420 2755 
Q 1159 2438 1159 1844 
L 1159 0 
L 581 0 
L 581 3500 
L 1159 3500 
L 1159 2956 
Q 1341 3275 1631 3429 
Q 1922 3584 2338 3584 
Q 2397 3584 2469 3576 
Q 2541 3569 2628 3553 
L 2631 2963 
z
" transform="scale(0.015625)"/>
       <path id="DejaVuSans-69" d="M 603 3500 
L 1178 3500 
L 1178 0 
L 603 0 
L 603 3500 
z
M 603 4863 
L 1178 4863 
L 1178 4134 
L 603 4134 
L 603 4863 
z
" transform="scale(0.015625)"/>
       <path id="DejaVuSans-63" d="M 3122 3366 
L 3122 2828 
Q 2878 2963 2633 3030 
Q 2388 3097 2138 3097 
Q 1578 3097 1268 2742 
Q 959 2388 959 1747 
Q 959 1106 1268 751 
Q 1578 397 2138 397 
Q 2388 397 2633 464 
Q 2878 531 3122 666 
L 3122 134 
Q 2881 22 2623 -34 
Q 2366 -91 2075 -91 
Q 1284 -91 818 406 
Q 353 903 353 1747 
Q 353 2603 823 3093 
Q 1294 3584 2113 3584 
Q 2378 3584 2631 3529 
Q 2884 3475 3122 3366 
z
" transform="scale(0.015625)"/>
      </defs>
      <use xlink:href="#DejaVuSans-54"/>
      <use xlink:href="#DejaVuSans-6f" transform="translate(44.083984 0)"/>
      <use xlink:href="#DejaVuSans-6e" transform="translate(105.265625 0)"/>
      <use xlink:href="#DejaVuSans-65" transform="translate(168.644531 0)"/>
      <use xlink:href="#DejaVuSans-6c" transform="translate(230.167969 0)"/>
      <use xlink:href="#DejaVuSans-61" transform="translate(257.951172 0)"/>
      <use xlink:href="#DejaVuSans-64" transform="translate(319.230469 0)"/>
      <use xlink:href="#DejaVuSans-61" transform="translate(382.707031 0)"/>
      <use xlink:href="#DejaVuSans-73" transform="translate(443.986328 0)"/>
      <use xlink:href="#DejaVuSans-20" transform="translate(496.085938 0)"/>
      <use xlink:href="#DejaVuSans-6d" transform="translate(527.873047 0)"/>
      <use xlink:href="#DejaVuSans-e9" transform="translate(625.285156 0)"/>
      <use xlink:href="#DejaVuSans-74" transform="translate(686.808594 0)"/>
      <use xlink:href="#DejaVuSans-72" transform="translate(726.017578 0)"/>
      <use xlink:href="#DejaVuSans-69" transform="translate(767.130859 0)"/>
      <use xlink:href="#DejaVuSans-63" transform="translate(794.914062 0)"/>
      <use xlink:href="#DejaVuSans-61" transform="translate(849.894531 0)"/>
      <use xlink:href="#DejaVuSans-73" transform="translate(911.173828 0)"/>
     </g>
    </g>
   </g>
   <g id="matplotlib.axis_2">
    <g id="ytick_1">
     <g id="line2d_13">
      <defs>
       <path id="m11dcf91085" d="M 0 0 
L -3.5 0 
" style="stroke: #000000; stroke-width: 0.8"/>
      </defs>
      <g>
       <use xlink:href="#m11dcf91085" x="131.690625" y="66.547741" style="stroke: #000000; stroke-width: 0.8"/>
      </g>
     </g>
     <g id="text_8">
      <!-- Uva  -->
      <g transform="translate(102.146875 70.34696) scale(0.1 -0.1)">
       <defs>
        <path id="DejaVuSans-55" d="M 556 4666 
L 1191 4666 
L 1191 1831 
Q 1191 1081 1462 751 
Q 1734 422 2344 422 
Q 2950 422 3222 751 
Q 3494 1081 3494 1831 
L 3494 4666 
L 4128 4666 
L 4128 1753 
Q 4128 841 3676 375 
Q 3225 -91 2344 -91 
Q 1459 -91 1007 375 
Q 556 841 556 1753 
L 556 4666 
z
" transform="scale(0.015625)"/>
        <path id="DejaVuSans-76" d="M 191 3500 
L 800 3500 
L 1894 563 
L 2988 3500 
L 3597 3500 
L 2284 0 
L 1503 0 
L 191 3500 
z
" transform="scale(0.015625)"/>
       </defs>
       <use xlink:href="#DejaVuSans-55"/>
       <use xlink:href="#DejaVuSans-76" transform="translate(73.193359 0)"/>
       <use xlink:href="#DejaVuSans-61" transform="translate(132.373047 0)"/>
       <use xlink:href="#DejaVuSans-20" transform="translate(193.652344 0)"/>
      </g>
     </g>
    </g>
    <g id="ytick_2">
     <g id="line2d_14">
      <g>
       <use xlink:href="#m11dcf91085" x="131.690625" y="99.033826" style="stroke: #000000; stroke-width: 0.8"/>
      </g>
     </g>
     <g id="text_9">
      <!-- Mandarina -->
      <g transform="translate(71.765625 102.833045) scale(0.1 -0.1)">
       <defs>
        <path id="DejaVuSans-4d" d="M 628 4666 
L 1569 4666 
L 2759 1491 
L 3956 4666 
L 4897 4666 
L 4897 0 
L 4281 0 
L 4281 4097 
L 3078 897 
L 2444 897 
L 1241 4097 
L 1241 0 
L 628 0 
L 628 4666 
z
" transform="scale(0.015625)"/>
       </defs>
       <use xlink:href="#DejaVuSans-4d"/>
       <use xlink:href="#DejaVuSans-61" transform="translate(86.279297 0)"/>
       <use xlink:href="#DejaVuSans-6e" transform="translate(147.558594 0)"/>
       <use xlink:href="#DejaVuSans-64" transform="translate(210.9375 0)"/>
       <use xlink:href="#DejaVuSans-61" transform="translate(274.414062 0)"/>
       <use xlink:href="#DejaVuSans-72" transform="translate(335.693359 0)"/>
       <use xlink:href="#DejaVuSans-69" transform="translate(376.806641 0)"/>
       <use xlink:href="#DejaVuSans-6e" transform="translate(404.589844 0)"/>
       <use xlink:href="#DejaVuSans-61" transform="translate(467.96875 0)"/>
      </g>
     </g>
    </g>
    <g id="ytick_3">
     <g id="line2d_15">
      <g>
       <use xlink:href="#m11dcf91085" x="131.690625" y="131.519912" style="stroke: #000000; stroke-width: 0.8"/>
      </g>
     </g>
     <g id="text_10">
      <!-- Huevos -->
      <g transform="translate(87.432813 135.31913) scale(0.1 -0.1)">
       <defs>
        <path id="DejaVuSans-48" d="M 628 4666 
L 1259 4666 
L 1259 2753 
L 3553 2753 
L 3553 4666 
L 4184 4666 
L 4184 0 
L 3553 0 
L 3553 2222 
L 1259 2222 
L 1259 0 
L 628 0 
L 628 4666 
z
" transform="scale(0.015625)"/>
        <path id="DejaVuSans-75" d="M 544 1381 
L 544 3500 
L 1119 3500 
L 1119 1403 
Q 1119 906 1312 657 
Q 1506 409 1894 409 
Q 2359 409 2629 706 
Q 2900 1003 2900 1516 
L 2900 3500 
L 3475 3500 
L 3475 0 
L 2900 0 
L 2900 538 
Q 2691 219 2414 64 
Q 2138 -91 1772 -91 
Q 1169 -91 856 284 
Q 544 659 544 1381 
z
M 1991 3584 
L 1991 3584 
z
" transform="scale(0.015625)"/>
       </defs>
       <use xlink:href="#DejaVuSans-48"/>
       <use xlink:href="#DejaVuSans-75" transform="translate(75.195312 0)"/>
       <use xlink:href="#DejaVuSans-65" transform="translate(138.574219 0)"/>
       <use xlink:href="#DejaVuSans-76" transform="translate(200.097656 0)"/>
       <use xlink:href="#DejaVuSans-6f" transform="translate(259.277344 0)"/>
       <use xlink:href="#DejaVuSans-73" transform="translate(320.458984 0)"/>
      </g>
     </g>
    </g>
    <g id="ytick_4">
     <g id="line2d_16">
      <g>
       <use xlink:href="#m11dcf91085" x="131.690625" y="164.005997" style="stroke: #000000; stroke-width: 0.8"/>
      </g>
     </g>
     <g id="text_11">
      <!-- Maíz amarillo duro -->
      <g transform="translate(32.3 167.805216) scale(0.1 -0.1)">
       <defs>
        <path id="DejaVuSans-ed" d="M 1322 5119 
L 1944 5119 
L 926 3944 
L 447 3944 
L 1322 5119 
z
M 603 3500 
L 1178 3500 
L 1178 0 
L 603 0 
L 603 3500 
z
M 891 3584 
L 891 3584 
z
" transform="scale(0.015625)"/>
        <path id="DejaVuSans-7a" d="M 353 3500 
L 3084 3500 
L 3084 2975 
L 922 459 
L 3084 459 
L 3084 0 
L 275 0 
L 275 525 
L 2438 3041 
L 353 3041 
L 353 3500 
z
" transform="scale(0.015625)"/>
       </defs>
       <use xlink:href="#DejaVuSans-4d"/>
       <use xlink:href="#DejaVuSans-61" transform="translate(86.279297 0)"/>
       <use xlink:href="#DejaVuSans-ed" transform="translate(147.558594 0)"/>
       <use xlink:href="#DejaVuSans-7a" transform="translate(175.341797 0)"/>
       <use xlink:href="#DejaVuSans-20" transform="translate(227.832031 0)"/>
       <use xlink:href="#DejaVuSans-61" transform="translate(259.619141 0)"/>
       <use xlink:href="#DejaVuSans-6d" transform="translate(320.898438 0)"/>
       <use xlink:href="#DejaVuSans-61" transform="translate(418.310547 0)"/>
       <use xlink:href="#DejaVuSans-72" transform="translate(479.589844 0)"/>
       <use xlink:href="#DejaVuSans-69" transform="translate(520.703125 0)"/>
       <use xlink:href="#DejaVuSans-6c" transform="translate(548.486328 0)"/>
       <use xlink:href="#DejaVuSans-6c" transform="translate(576.269531 0)"/>
       <use xlink:href="#DejaVuSans-6f" transform="translate(604.052734 0)"/>
       <use xlink:href="#DejaVuSans-20" transform="translate(665.234375 0)"/>
       <use xlink:href="#DejaVuSans-64" transform="translate(697.021484 0)"/>
       <use xlink:href="#DejaVuSans-75" transform="translate(760.498047 0)"/>
       <use xlink:href="#DejaVuSans-72" transform="translate(823.876953 0)"/>
       <use xlink:href="#DejaVuSans-6f" transform="translate(862.740234 0)"/>
      </g>
     </g>
    </g>
    <g id="ytick_5">
     <g id="line2d_17">
      <g>
       <use xlink:href="#m11dcf91085" x="131.690625" y="196.492082" style="stroke: #000000; stroke-width: 0.8"/>
      </g>
     </g>
     <g id="text_12">
      <!-- Espárrago -->
      <g transform="translate(74.04375 200.491301) scale(0.1 -0.1)">
       <defs>
        <path id="DejaVuSans-45" d="M 628 4666 
L 3578 4666 
L 3578 4134 
L 1259 4134 
L 1259 2753 
L 3481 2753 
L 3481 2222 
L 1259 2222 
L 1259 531 
L 3634 531 
L 3634 0 
L 628 0 
L 628 4666 
z
" transform="scale(0.015625)"/>
        <path id="DejaVuSans-70" d="M 1159 525 
L 1159 -1331 
L 581 -1331 
L 581 3500 
L 1159 3500 
L 1159 2969 
Q 1341 3281 1617 3432 
Q 1894 3584 2278 3584 
Q 2916 3584 3314 3078 
Q 3713 2572 3713 1747 
Q 3713 922 3314 415 
Q 2916 -91 2278 -91 
Q 1894 -91 1617 61 
Q 1341 213 1159 525 
z
M 3116 1747 
Q 3116 2381 2855 2742 
Q 2594 3103 2138 3103 
Q 1681 3103 1420 2742 
Q 1159 2381 1159 1747 
Q 1159 1113 1420 752 
Q 1681 391 2138 391 
Q 2594 391 2855 752 
Q 3116 1113 3116 1747 
z
" transform="scale(0.015625)"/>
        <path id="DejaVuSans-e1" d="M 2194 1759 
Q 1497 1759 1228 1600 
Q 959 1441 959 1056 
Q 959 750 1161 570 
Q 1363 391 1709 391 
Q 2188 391 2477 730 
Q 2766 1069 2766 1631 
L 2766 1759 
L 2194 1759 
z
M 3341 1997 
L 3341 0 
L 2766 0 
L 2766 531 
Q 2569 213 2275 61 
Q 1981 -91 1556 -91 
Q 1019 -91 701 211 
Q 384 513 384 1019 
Q 384 1609 779 1909 
Q 1175 2209 1959 2209 
L 2766 2209 
L 2766 2266 
Q 2766 2663 2505 2880 
Q 2244 3097 1772 3097 
Q 1472 3097 1187 3025 
Q 903 2953 641 2809 
L 641 3341 
Q 956 3463 1253 3523 
Q 1550 3584 1831 3584 
Q 2591 3584 2966 3190 
Q 3341 2797 3341 1997 
z
M 2290 5119 
L 2912 5119 
L 1894 3944 
L 1415 3944 
L 2290 5119 
z
" transform="scale(0.015625)"/>
        <path id="DejaVuSans-67" d="M 2906 1791 
Q 2906 2416 2648 2759 
Q 2391 3103 1925 3103 
Q 1463 3103 1205 2759 
Q 947 2416 947 1791 
Q 947 1169 1205 825 
Q 1463 481 1925 481 
Q 2391 481 2648 825 
Q 2906 1169 2906 1791 
z
M 3481 434 
Q 3481 -459 3084 -895 
Q 2688 -1331 1869 -1331 
Q 1566 -1331 1297 -1286 
Q 1028 -1241 775 -1147 
L 775 -588 
Q 1028 -725 1275 -790 
Q 1522 -856 1778 -856 
Q 2344 -856 2625 -561 
Q 2906 -266 2906 331 
L 2906 616 
Q 2728 306 2450 153 
Q 2172 0 1784 0 
Q 1141 0 747 490 
Q 353 981 353 1791 
Q 353 2603 747 3093 
Q 1141 3584 1784 3584 
Q 2172 3584 2450 3431 
Q 2728 3278 2906 2969 
L 2906 3500 
L 3481 3500 
L 3481 434 
z
" transform="scale(0.015625)"/>
       </defs>
       <use xlink:href="#DejaVuSans-45"/>
       <use xlink:href="#DejaVuSans-73" transform="translate(63.183594 0)"/>
       <use xlink:href="#DejaVuSans-70" transform="translate(115.283203 0)"/>
       <use xlink:href="#DejaVuSans-e1" transform="translate(178.759766 0)"/>
       <use xlink:href="#DejaVuSans-72" transform="translate(240.039062 0)"/>
       <use xlink:href="#DejaVuSans-72" transform="translate(279.402344 0)"/>
       <use xlink:href="#DejaVuSans-61" transform="translate(320.515625 0)"/>
       <use xlink:href="#DejaVuSans-67" transform="translate(381.794922 0)"/>
       <use xlink:href="#DejaVuSans-6f" transform="translate(445.271484 0)"/>
      </g>
     </g>
    </g>
    <g id="ytick_6">
     <g id="line2d_18">
      <g>
       <use xlink:href="#m11dcf91085" x="131.690625" y="228.978168" style="stroke: #000000; stroke-width: 0.8"/>
      </g>
     </g>
     <g id="text_13">
      <!-- Alfalfa -->
      <g transform="translate(92.996875 232.777386) scale(0.1 -0.1)">
       <defs>
        <path id="DejaVuSans-41" d="M 2188 4044 
L 1331 1722 
L 3047 1722 
L 2188 4044 
z
M 1831 4666 
L 2547 4666 
L 4325 0 
L 3669 0 
L 3244 1197 
L 1141 1197 
L 716 0 
L 50 0 
L 1831 4666 
z
" transform="scale(0.015625)"/>
        <path id="DejaVuSans-66" d="M 2375 4863 
L 2375 4384 
L 1825 4384 
Q 1516 4384 1395 4259 
Q 1275 4134 1275 3809 
L 1275 3500 
L 2222 3500 
L 2222 3053 
L 1275 3053 
L 1275 0 
L 697 0 
L 697 3053 
L 147 3053 
L 147 3500 
L 697 3500 
L 697 3744 
Q 697 4328 969 4595 
Q 1241 4863 1831 4863 
L 2375 4863 
z
" transform="scale(0.015625)"/>
       </defs>
       <use xlink:href="#DejaVuSans-41"/>
       <use xlink:href="#DejaVuSans-6c" transform="translate(68.408203 0)"/>
       <use xlink:href="#DejaVuSans-66" transform="translate(96.191406 0)"/>
       <use xlink:href="#DejaVuSans-61" transform="translate(131.396484 0)"/>
       <use xlink:href="#DejaVuSans-6c" transform="translate(192.675781 0)"/>
       <use xlink:href="#DejaVuSans-66" transform="translate(220.458984 0)"/>
       <use xlink:href="#DejaVuSans-61" transform="translate(255.664062 0)"/>
      </g>
     </g>
    </g>
    <g id="ytick_7">
     <g id="line2d_19">
      <g>
       <use xlink:href="#m11dcf91085" x="131.690625" y="261.464253" style="stroke: #000000; stroke-width: 0.8"/>
      </g>
     </g>
     <g id="text_14">
      <!-- Papa (mejorada-nativa) -->
      <g transform="translate(7.2 265.263472) scale(0.1 -0.1)">
       <defs>
        <path id="DejaVuSans-50" d="M 1259 4147 
L 1259 2394 
L 2053 2394 
Q 2494 2394 2734 2622 
Q 2975 2850 2975 3272 
Q 2975 3691 2734 3919 
Q 2494 4147 2053 4147 
L 1259 4147 
z
M 628 4666 
L 2053 4666 
Q 2838 4666 3239 4311 
Q 3641 3956 3641 3272 
Q 3641 2581 3239 2228 
Q 2838 1875 2053 1875 
L 1259 1875 
L 1259 0 
L 628 0 
L 628 4666 
z
" transform="scale(0.015625)"/>
        <path id="DejaVuSans-28" d="M 1984 4856 
Q 1566 4138 1362 3434 
Q 1159 2731 1159 2009 
Q 1159 1288 1364 580 
Q 1569 -128 1984 -844 
L 1484 -844 
Q 1016 -109 783 600 
Q 550 1309 550 2009 
Q 550 2706 781 3412 
Q 1013 4119 1484 4856 
L 1984 4856 
z
" transform="scale(0.015625)"/>
        <path id="DejaVuSans-6a" d="M 603 3500 
L 1178 3500 
L 1178 -63 
Q 1178 -731 923 -1031 
Q 669 -1331 103 -1331 
L -116 -1331 
L -116 -844 
L 38 -844 
Q 366 -844 484 -692 
Q 603 -541 603 -63 
L 603 3500 
z
M 603 4863 
L 1178 4863 
L 1178 4134 
L 603 4134 
L 603 4863 
z
" transform="scale(0.015625)"/>
        <path id="DejaVuSans-2d" d="M 313 2009 
L 1997 2009 
L 1997 1497 
L 313 1497 
L 313 2009 
z
" transform="scale(0.015625)"/>
        <path id="DejaVuSans-29" d="M 513 4856 
L 1013 4856 
Q 1481 4119 1714 3412 
Q 1947 2706 1947 2009 
Q 1947 1309 1714 600 
Q 1481 -109 1013 -844 
L 513 -844 
Q 928 -128 1133 580 
Q 1338 1288 1338 2009 
Q 1338 2731 1133 3434 
Q 928 4138 513 4856 
z
" transform="scale(0.015625)"/>
       </defs>
       <use xlink:href="#DejaVuSans-50"/>
       <use xlink:href="#DejaVuSans-61" transform="translate(55.802734 0)"/>
       <use xlink:href="#DejaVuSans-70" transform="translate(117.082031 0)"/>
       <use xlink:href="#DejaVuSans-61" transform="translate(180.558594 0)"/>
       <use xlink:href="#DejaVuSans-20" transform="translate(241.837891 0)"/>
       <use xlink:href="#DejaVuSans-28" transform="translate(273.625 0)"/>
       <use xlink:href="#DejaVuSans-6d" transform="translate(312.638672 0)"/>
       <use xlink:href="#DejaVuSans-65" transform="translate(410.050781 0)"/>
       <use xlink:href="#DejaVuSans-6a" transform="translate(471.574219 0)"/>
       <use xlink:href="#DejaVuSans-6f" transform="translate(499.357422 0)"/>
       <use xlink:href="#DejaVuSans-72" transform="translate(560.539062 0)"/>
       <use xlink:href="#DejaVuSans-61" transform="translate(601.652344 0)"/>
       <use xlink:href="#DejaVuSans-64" transform="translate(662.931641 0)"/>
       <use xlink:href="#DejaVuSans-61" transform="translate(726.408203 0)"/>
       <use xlink:href="#DejaVuSans-2d" transform="translate(787.6875 0)"/>
       <use xlink:href="#DejaVuSans-6e" transform="translate(823.771484 0)"/>
       <use xlink:href="#DejaVuSans-61" transform="translate(887.150391 0)"/>
       <use xlink:href="#DejaVuSans-74" transform="translate(948.429688 0)"/>
       <use xlink:href="#DejaVuSans-69" transform="translate(987.638672 0)"/>
       <use xlink:href="#DejaVuSans-76" transform="translate(1015.421875 0)"/>
       <use xlink:href="#DejaVuSans-61" transform="translate(1074.601562 0)"/>
       <use xlink:href="#DejaVuSans-29" transform="translate(1135.880859 0)"/>
      </g>
     </g>
    </g>
    <g id="ytick_8">
     <g id="line2d_20">
      <g>
       <use xlink:href="#m11dcf91085" x="131.690625" y="293.950338" style="stroke: #000000; stroke-width: 0.8"/>
      </g>
     </g>
     <g id="text_15">
      <!-- Ave -->
      <g transform="translate(106.365625 297.749557) scale(0.1 -0.1)">
       <use xlink:href="#DejaVuSans-41"/>
       <use xlink:href="#DejaVuSans-76" transform="translate(62.533203 0)"/>
       <use xlink:href="#DejaVuSans-65" transform="translate(121.712891 0)"/>
      </g>
     </g>
    </g>
    <g id="ytick_9">
     <g id="line2d_21">
      <g>
       <use xlink:href="#m11dcf91085" x="131.690625" y="326.436424" style="stroke: #000000; stroke-width: 0.8"/>
      </g>
     </g>
     <g id="text_16">
      <!-- Tomate -->
      <g transform="translate(88.221875 330.235642) scale(0.1 -0.1)">
       <use xlink:href="#DejaVuSans-54"/>
       <use xlink:href="#DejaVuSans-6f" transform="translate(44.083984 0)"/>
       <use xlink:href="#DejaVuSans-6d" transform="translate(105.265625 0)"/>
       <use xlink:href="#DejaVuSans-61" transform="translate(202.677734 0)"/>
       <use xlink:href="#DejaVuSans-74" transform="translate(263.957031 0)"/>
       <use xlink:href="#DejaVuSans-65" transform="translate(303.166016 0)"/>
      </g>
     </g>
    </g>
    <g id="ytick_10">
     <g id="line2d_22">
      <g>
       <use xlink:href="#m11dcf91085" x="131.690625" y="358.922509" style="stroke: #000000; stroke-width: 0.8"/>
      </g>
     </g>
     <g id="text_17">
      <!-- Palta -->
      <g transform="translate(100.15625 362.721728) scale(0.1 -0.1)">
       <use xlink:href="#DejaVuSans-50"/>
       <use xlink:href="#DejaVuSans-61" transform="translate(55.802734 0)"/>
       <use xlink:href="#DejaVuSans-6c" transform="translate(117.082031 0)"/>
       <use xlink:href="#DejaVuSans-74" transform="translate(144.865234 0)"/>
       <use xlink:href="#DejaVuSans-61" transform="translate(184.074219 0)"/>
      </g>
     </g>
    </g>
   </g>
   <g id="patch_13">
    <path d="M 131.690625 387.835125 
L 131.690625 37.635125 
" style="fill: none; stroke: #000000; stroke-width: 0.8; stroke-linejoin: miter; stroke-linecap: square"/>
   </g>
   <g id="patch_14">
    <path d="M 705.550625 387.835125 
L 705.550625 37.635125 
" style="fill: none; stroke: #000000; stroke-width: 0.8; stroke-linejoin: miter; stroke-linecap: square"/>
   </g>
   <g id="patch_15">
    <path d="M 131.690625 387.835125 
L 705.550625 387.835125 
" style="fill: none; stroke: #000000; stroke-width: 0.8; stroke-linejoin: miter; stroke-linecap: square"/>
   </g>
   <g id="patch_16">
    <path d="M 131.690625 37.635125 
L 705.550625 37.635125 
" style="fill: none; stroke: #000000; stroke-width: 0.8; stroke-linejoin: miter; stroke-linecap: square"/>
   </g>
   <g id="text_18">
    <!-- Top 10 Productos Agropecuarios - Ica 2023 -->
    <g transform="translate(279.863906 17.077969) scale(0.13 -0.13)">
     <defs>
      <path id="DejaVuSans-49" d="M 628 4666 
L 1259 4666 
L 1259 0 
L 628 0 
L 628 4666 
z
" transform="scale(0.015625)"/>
     </defs>
     <use xlink:href="#DejaVuSans-54"/>
     <use xlink:href="#DejaVuSans-6f" transform="translate(44.083984 0)"/>
     <use xlink:href="#DejaVuSans-70" transform="translate(105.265625 0)"/>
     <use xlink:href="#DejaVuSans-20" transform="translate(168.742188 0)"/>
     <use xlink:href="#DejaVuSans-31" transform="translate(200.529297 0)"/>
     <use xlink:href="#DejaVuSans-30" transform="translate(264.152344 0)"/>
     <use xlink:href="#DejaVuSans-20" transform="translate(327.775391 0)"/>
     <use xlink:href="#DejaVuSans-50" transform="translate(359.5625 0)"/>
     <use xlink:href="#DejaVuSans-72" transform="translate(418.115234 0)"/>
     <use xlink:href="#DejaVuSans-6f" transform="translate(456.978516 0)"/>
     <use xlink:href="#DejaVuSans-64" transform="translate(518.160156 0)"/>
     <use xlink:href="#DejaVuSans-75" transform="translate(581.636719 0)"/>
     <use xlink:href="#DejaVuSans-63" transform="translate(645.015625 0)"/>
     <use xlink:href="#DejaVuSans-74" transform="translate(699.996094 0)"/>
     <use xlink:href="#DejaVuSans-6f" transform="translate(739.205078 0)"/>
     <use xlink:href="#DejaVuSans-73" transform="translate(800.386719 0)"/>
     <use xlink:href="#DejaVuSans-20" transform="translate(852.486328 0)"/>
     <use xlink:href="#DejaVuSans-41" transform="translate(884.273438 0)"/>
     <use xlink:href="#DejaVuSans-67" transform="translate(952.681641 0)"/>
     <use xlink:href="#DejaVuSans-72" transform="translate(1016.158203 0)"/>
     <use xlink:href="#DejaVuSans-6f" transform="translate(1055.021484 0)"/>
     <use xlink:href="#DejaVuSans-70" transform="translate(1116.203125 0)"/>
     <use xlink:href="#DejaVuSans-65" transform="translate(1179.679688 0)"/>
     <use xlink:href="#DejaVuSans-63" transform="translate(1241.203125 0)"/>
     <use xlink:href="#DejaVuSans-75" transform="translate(1296.183594 0)"/>
     <use xlink:href="#DejaVuSans-61" transform="translate(1359.5625 0)"/>
     <use xlink:href="#DejaVuSans-72" transform="translate(1420.841797 0)"/>
     <use xlink:href="#DejaVuSans-69" transform="translate(1461.955078 0)"/>
     <use xlink:href="#DejaVuSans-6f" transform="translate(1489.738281 0)"/>
     <use xlink:href="#DejaVuSans-73" transform="translate(1550.919922 0)"/>
     <use xlink:href="#DejaVuSans-20" transform="translate(1603.019531 0)"/>
     <use xlink:href="#DejaVuSans-2d" transform="translate(1634.806641 0)"/>
     <use xlink:href="#DejaVuSans-20" transform="translate(1670.890625 0)"/>
     <use xlink:href="#DejaVuSans-49" transform="translate(1702.677734 0)"/>
     <use xlink:href="#DejaVuSans-63" transform="translate(1732.169922 0)"/>
     <use xlink:href="#DejaVuSans-61" transform="translate(1787.150391 0)"/>
     <use xlink:href="#DejaVuSans-20" transform="translate(1848.429688 0)"/>
     <use xlink:href="#DejaVuSans-32" transform="translate(1880.216797 0)"/>
     <use xlink:href="#DejaVuSans-30" transform="translate(1943.839844 0)"/>
     <use xlink:href="#DejaVuSans-32" transform="translate(2007.462891 0)"/>
     <use xlink:href="#DejaVuSans-33" transform="translate(2071.085938 0)"/>
    </g>
    <!-- (Toneladas métricas) -->
    <g transform="translate(350.936328 31.635125) scale(0.13 -0.13)">
     <use xlink:href="#DejaVuSans-28"/>
     <use xlink:href="#DejaVuSans-54" transform="translate(39.013672 0)"/>
     <use xlink:href="#DejaVuSans-6f" transform="translate(83.097656 0)"/>
     <use xlink:href="#DejaVuSans-6e" transform="translate(144.279297 0)"/>
     <use xlink:href="#DejaVuSans-65" transform="translate(207.658203 0)"/>
     <use xlink:href="#DejaVuSans-6c" transform="translate(269.181641 0)"/>
     <use xlink:href="#DejaVuSans-61" transform="translate(296.964844 0)"/>
     <use xlink:href="#DejaVuSans-64" transform="translate(358.244141 0)"/>
     <use xlink:href="#DejaVuSans-61" transform="translate(421.720703 0)"/>
     <use xlink:href="#DejaVuSans-73" transform="translate(483 0)"/>
     <use xlink:href="#DejaVuSans-20" transform="translate(535.099609 0)"/>
     <use xlink:href="#DejaVuSans-6d" transform="translate(566.886719 0)"/>
     <use xlink:href="#DejaVuSans-e9" transform="translate(664.298828 0)"/>
     <use xlink:href="#DejaVuSans-74" transform="translate(725.822266 0)"/>
     <use xlink:href="#DejaVuSans-72" transform="translate(765.03125 0)"/>
     <use xlink:href="#DejaVuSans-69" transform="translate(806.144531 0)"/>
     <use xlink:href="#DejaVuSans-63" transform="translate(833.927734 0)"/>
     <use xlink:href="#DejaVuSans-61" transform="translate(888.908203 0)"/>
     <use xlink:href="#DejaVuSans-73" transform="translate(950.1875 0)"/>
     <use xlink:href="#DejaVuSans-29" transform="translate(1002.287109 0)"/>
    </g>
   </g>
  </g>
 </g>
 <defs>
  <clipPath id="p447f21e145">
   <rect x="131.690625" y="37.635125" width="573.86" height="350.2"/>
  </clipPath>
 </defs>
</svg>
