<?xml version="1.0" encoding="utf-8" standalone="no"?>
<!DOCTYPE svg PUBLIC "-//W3C//DTD SVG 1.1//EN"
  "http://www.w3.org/Graphics/SVG/1.1/DTD/svg11.dtd">
<svg xmlns:xlink="http://www.w3.org/1999/xlink" width="848.784786pt" height="351.532734pt" viewBox="0 0 848.784786 351.532734" xmlns="http://www.w3.org/2000/svg" version="1.1">
 <metadata>
  <rdf:RDF xmlns:dc="http://purl.org/dc/elements/1.1/" xmlns:cc="http://creativecommons.org/ns#" xmlns:rdf="http://www.w3.org/1999/02/22-rdf-syntax-ns#">
   <cc:Work>
    <dc:type rdf:resource="http://purl.org/dc/dcmitype/StillImage"/>
    <dc:date>2026-06-29T07:45:18.178917</dc:date>
    <dc:format>image/svg+xml</dc:format>
    <dc:creator>
     <cc:Agent>
      <dc:title>Matplotlib v3.10.0, https://matplotlib.org/</dc:title>
     </cc:Agent>
    </dc:creator>
   </cc:Work>
  </rdf:RDF>
 </metadata>
 <defs>
  <style type="text/css">*{stroke-linejoin: round; stroke-linecap: butt}</style>
 </defs>
 <g id="figure_1">
  <g id="patch_1">
   <path d="M 0 351.532734 
L 848.784786 351.532734 
L 848.784786 0 
L 0 0 
z
" style="fill: #ffffff"/>
  </g>
  <g id="axes_1">
   <g id="patch_2">
    <path d="M 74.286805 214.291697 
L 841.584786 214.291697 
L 841.584786 35.124375 
L 74.286805 35.124375 
z
" style="fill: #eaeaf2"/>
   </g>
   <g id="matplotlib.axis_1">
    <g id="xtick_1">
     <g id="line2d_1">
      <path d="M 134.998935 214.291697 
L 134.998935 35.124375 
" clip-path="url(#p04a0a24f8a)" style="fill: none; stroke: #ffffff; stroke-linecap: round"/>
     </g>
     <g id="line2d_2"/>
     <g id="text_1">
      <!-- Agricultura, Ganadería, Caza y Silvicultura -->
      <g style="fill: #262626" transform="translate(10.579082 312.570552) rotate(-35) scale(0.08 -0.08)">
       <defs>
        <path id="LiberationSans-41" d="M 3647 0 
L 3144 1288 
L 1138 1288 
L 631 0 
L 13 0 
L 1809 4403 
L 2488 4403 
L 4256 0 
L 3647 0 
z
M 2400 3206 
Q 2350 3331 2304 3459 
Q 2259 3588 2225 3692 
Q 2191 3797 2167 3867 
Q 2144 3938 2141 3953 
Q 2134 3938 2112 3866 
Q 2091 3794 2055 3687 
Q 2019 3581 1973 3453 
Q 1928 3325 1881 3200 
L 1319 1753 
L 2966 1753 
L 2400 3206 
z
" transform="scale(0.015625)"/>
        <path id="LiberationSans-67" d="M 1713 -1328 
Q 1422 -1328 1197 -1268 
Q 972 -1209 812 -1098 
Q 653 -988 553 -834 
Q 453 -681 409 -494 
L 975 -413 
Q 1031 -647 1223 -773 
Q 1416 -900 1728 -900 
Q 1919 -900 2075 -847 
Q 2231 -794 2340 -676 
Q 2450 -559 2509 -371 
Q 2569 -184 2569 84 
L 2569 628 
L 2563 628 
Q 2500 500 2408 383 
Q 2316 266 2183 175 
Q 2050 84 1875 29 
Q 1700 -25 1475 -25 
Q 1153 -25 923 83 
Q 694 191 548 406 
Q 403 622 336 942 
Q 269 1263 269 1684 
Q 269 2091 336 2416 
Q 403 2741 554 2967 
Q 706 3194 948 3314 
Q 1191 3434 1538 3434 
Q 1897 3434 2161 3270 
Q 2425 3106 2569 2803 
L 2575 2803 
Q 2575 2881 2579 2978 
Q 2584 3075 2589 3161 
Q 2594 3247 2600 3309 
Q 2606 3372 2613 3381 
L 3147 3381 
Q 3144 3353 3141 3286 
Q 3138 3219 3134 3125 
Q 3131 3031 3129 2917 
Q 3128 2803 3128 2681 
L 3128 97 
Q 3128 -613 2779 -970 
Q 2431 -1328 1713 -1328 
z
M 2569 1691 
Q 2569 2044 2492 2295 
Q 2416 2547 2291 2706 
Q 2166 2866 2005 2941 
Q 1844 3016 1675 3016 
Q 1459 3016 1304 2941 
Q 1150 2866 1048 2705 
Q 947 2544 898 2292 
Q 850 2041 850 1691 
Q 850 1325 898 1076 
Q 947 828 1047 675 
Q 1147 522 1300 456 
Q 1453 391 1666 391 
Q 1834 391 1995 462 
Q 2156 534 2284 690 
Q 2413 847 2491 1094 
Q 2569 1341 2569 1691 
z
" transform="scale(0.015625)"/>
        <path id="LiberationSans-72" d="M 444 0 
L 444 2594 
Q 444 2700 442 2811 
Q 441 2922 437 3025 
Q 434 3128 431 3218 
Q 428 3309 425 3381 
L 956 3381 
Q 959 3309 964 3217 
Q 969 3125 973 3028 
Q 978 2931 979 2842 
Q 981 2753 981 2691 
L 994 2691 
Q 1053 2884 1120 3026 
Q 1188 3169 1278 3261 
Q 1369 3353 1494 3398 
Q 1619 3444 1797 3444 
Q 1866 3444 1928 3433 
Q 1991 3422 2025 3413 
L 2025 2897 
Q 1969 2913 1894 2920 
Q 1819 2928 1725 2928 
Q 1531 2928 1395 2840 
Q 1259 2753 1173 2598 
Q 1088 2444 1047 2230 
Q 1006 2016 1006 1763 
L 1006 0 
L 444 0 
z
" transform="scale(0.015625)"/>
        <path id="LiberationSans-69" d="M 428 4100 
L 428 4638 
L 991 4638 
L 991 4100 
L 428 4100 
z
M 428 0 
L 428 3381 
L 991 3381 
L 991 0 
L 428 0 
z
" transform="scale(0.015625)"/>
        <path id="LiberationSans-63" d="M 859 1706 
Q 859 1416 901 1172 
Q 944 928 1044 751 
Q 1144 575 1308 478 
Q 1472 381 1713 381 
Q 2013 381 2214 543 
Q 2416 706 2463 1044 
L 3031 1006 
Q 3003 797 2909 603 
Q 2816 409 2655 262 
Q 2494 116 2262 26 
Q 2031 -63 1728 -63 
Q 1331 -63 1053 71 
Q 775 206 601 442 
Q 428 678 350 998 
Q 272 1319 272 1694 
Q 272 2034 328 2295 
Q 384 2556 486 2751 
Q 588 2947 725 3080 
Q 863 3213 1023 3292 
Q 1184 3372 1362 3408 
Q 1541 3444 1722 3444 
Q 2006 3444 2228 3366 
Q 2450 3288 2611 3152 
Q 2772 3016 2872 2831 
Q 2972 2647 3013 2434 
L 2434 2391 
Q 2391 2672 2212 2837 
Q 2034 3003 1706 3003 
Q 1466 3003 1305 2923 
Q 1144 2844 1044 2683 
Q 944 2522 901 2278 
Q 859 2034 859 1706 
z
" transform="scale(0.015625)"/>
        <path id="LiberationSans-75" d="M 981 3381 
L 981 1238 
Q 981 991 1017 825 
Q 1053 659 1134 557 
Q 1216 456 1348 414 
Q 1481 372 1678 372 
Q 1878 372 2039 442 
Q 2200 513 2314 645 
Q 2428 778 2490 973 
Q 2553 1169 2553 1422 
L 2553 3381 
L 3116 3381 
L 3116 722 
Q 3116 616 3117 498 
Q 3119 381 3122 276 
Q 3125 172 3128 97 
Q 3131 22 3134 0 
L 2603 0 
Q 2600 16 2597 84 
Q 2594 153 2589 242 
Q 2584 331 2581 423 
Q 2578 516 2578 578 
L 2569 578 
Q 2488 431 2391 312 
Q 2294 194 2166 111 
Q 2038 28 1872 -17 
Q 1706 -63 1488 -63 
Q 1206 -63 1003 6 
Q 800 75 669 219 
Q 538 363 477 588 
Q 416 813 416 1128 
L 416 3381 
L 981 3381 
z
" transform="scale(0.015625)"/>
        <path id="LiberationSans-6c" d="M 431 0 
L 431 4638 
L 994 4638 
L 994 0 
L 431 0 
z
" transform="scale(0.015625)"/>
        <path id="LiberationSans-74" d="M 1731 25 
Q 1603 -9 1470 -29 
Q 1338 -50 1163 -50 
Q 488 -50 488 716 
L 488 2972 
L 97 2972 
L 97 3381 
L 509 3381 
L 675 4138 
L 1050 4138 
L 1050 3381 
L 1675 3381 
L 1675 2972 
L 1050 2972 
L 1050 838 
Q 1050 594 1129 495 
Q 1209 397 1406 397 
Q 1488 397 1564 409 
Q 1641 422 1731 441 
L 1731 25 
z
" transform="scale(0.015625)"/>
        <path id="LiberationSans-61" d="M 1294 -63 
Q 784 -63 528 206 
Q 272 475 272 944 
Q 272 1278 398 1492 
Q 525 1706 729 1828 
Q 934 1950 1196 1997 
Q 1459 2044 1731 2050 
L 2491 2063 
L 2491 2247 
Q 2491 2456 2447 2603 
Q 2403 2750 2312 2840 
Q 2222 2931 2086 2973 
Q 1950 3016 1766 3016 
Q 1603 3016 1472 2992 
Q 1341 2969 1244 2908 
Q 1147 2847 1087 2742 
Q 1028 2638 1009 2478 
L 422 2531 
Q 453 2731 540 2898 
Q 628 3066 789 3187 
Q 950 3309 1192 3376 
Q 1434 3444 1778 3444 
Q 2416 3444 2737 3151 
Q 3059 2859 3059 2306 
L 3059 850 
Q 3059 600 3125 473 
Q 3191 347 3375 347 
Q 3422 347 3469 353 
Q 3516 359 3559 369 
L 3559 19 
Q 3453 -6 3348 -18 
Q 3244 -31 3125 -31 
Q 2966 -31 2852 11 
Q 2738 53 2666 139 
Q 2594 225 2556 351 
Q 2519 478 2509 647 
L 2491 647 
Q 2400 484 2292 353 
Q 2184 222 2040 130 
Q 1897 38 1714 -12 
Q 1531 -63 1294 -63 
z
M 1422 359 
Q 1691 359 1892 457 
Q 2094 556 2226 709 
Q 2359 863 2425 1044 
Q 2491 1225 2491 1391 
L 2491 1669 
L 1875 1656 
Q 1669 1653 1483 1626 
Q 1297 1600 1156 1522 
Q 1016 1444 933 1303 
Q 850 1163 850 934 
Q 850 659 998 509 
Q 1147 359 1422 359 
z
" transform="scale(0.015625)"/>
        <path id="LiberationSans-2c" d="M 1203 684 
L 1203 159 
Q 1203 -6 1189 -142 
Q 1175 -278 1144 -395 
Q 1113 -513 1067 -616 
Q 1022 -719 959 -819 
L 575 -819 
Q 716 -616 792 -409 
Q 869 -203 869 0 
L 594 0 
L 594 684 
L 1203 684 
z
" transform="scale(0.015625)"/>
        <path id="LiberationSans-20" transform="scale(0.015625)"/>
        <path id="LiberationSans-47" d="M 322 2222 
Q 322 2738 461 3153 
Q 600 3569 876 3861 
Q 1153 4153 1562 4311 
Q 1972 4469 2513 4469 
Q 2919 4469 3225 4397 
Q 3531 4325 3756 4190 
Q 3981 4056 4137 3864 
Q 4294 3672 4403 3431 
L 3834 3263 
Q 3753 3425 3639 3558 
Q 3525 3691 3362 3784 
Q 3200 3878 2986 3929 
Q 2772 3981 2497 3981 
Q 2097 3981 1801 3856 
Q 1506 3731 1312 3500 
Q 1119 3269 1023 2944 
Q 928 2619 928 2222 
Q 928 1825 1031 1495 
Q 1134 1166 1337 927 
Q 1541 688 1842 555 
Q 2144 422 2541 422 
Q 2800 422 3019 465 
Q 3238 509 3414 579 
Q 3591 650 3725 736 
Q 3859 822 3950 909 
L 3950 1703 
L 2634 1703 
L 2634 2203 
L 4500 2203 
L 4500 684 
Q 4353 534 4154 398 
Q 3956 263 3709 159 
Q 3463 56 3169 -3 
Q 2875 -63 2541 -63 
Q 1984 -63 1568 107 
Q 1153 278 876 583 
Q 600 888 461 1306 
Q 322 1725 322 2222 
z
" transform="scale(0.015625)"/>
        <path id="LiberationSans-6e" d="M 2578 0 
L 2578 2144 
Q 2578 2391 2542 2556 
Q 2506 2722 2425 2823 
Q 2344 2925 2211 2967 
Q 2078 3009 1881 3009 
Q 1681 3009 1520 2939 
Q 1359 2869 1245 2736 
Q 1131 2603 1068 2408 
Q 1006 2213 1006 1959 
L 1006 0 
L 444 0 
L 444 2659 
Q 444 2766 442 2883 
Q 441 3000 437 3104 
Q 434 3209 431 3284 
Q 428 3359 425 3381 
L 956 3381 
Q 959 3366 962 3297 
Q 966 3228 970 3139 
Q 975 3050 978 2958 
Q 981 2866 981 2803 
L 991 2803 
Q 1072 2950 1169 3069 
Q 1266 3188 1394 3270 
Q 1522 3353 1687 3398 
Q 1853 3444 2072 3444 
Q 2353 3444 2556 3375 
Q 2759 3306 2890 3162 
Q 3022 3019 3083 2792 
Q 3144 2566 3144 2253 
L 3144 0 
L 2578 0 
z
" transform="scale(0.015625)"/>
        <path id="LiberationSans-64" d="M 2566 544 
Q 2409 219 2151 78 
Q 1894 -63 1513 -63 
Q 872 -63 570 368 
Q 269 800 269 1675 
Q 269 3444 1513 3444 
Q 1897 3444 2153 3303 
Q 2409 3163 2566 2856 
L 2572 2856 
Q 2572 2888 2570 2955 
Q 2569 3022 2567 3095 
Q 2566 3169 2566 3234 
Q 2566 3300 2566 3328 
L 2566 4638 
L 3128 4638 
L 3128 697 
Q 3128 575 3129 462 
Q 3131 350 3134 256 
Q 3138 163 3141 95 
Q 3144 28 3147 0 
L 2609 0 
Q 2603 31 2598 89 
Q 2594 147 2589 222 
Q 2584 297 2581 380 
Q 2578 463 2578 544 
L 2566 544 
z
M 859 1694 
Q 859 1344 903 1094 
Q 947 844 1044 683 
Q 1141 522 1291 447 
Q 1441 372 1656 372 
Q 1878 372 2048 444 
Q 2219 516 2333 677 
Q 2447 838 2506 1097 
Q 2566 1356 2566 1731 
Q 2566 2091 2506 2339 
Q 2447 2588 2331 2741 
Q 2216 2894 2048 2961 
Q 1881 3028 1663 3028 
Q 1456 3028 1306 2956 
Q 1156 2884 1056 2725 
Q 956 2566 907 2311 
Q 859 2056 859 1694 
z
" transform="scale(0.015625)"/>
        <path id="LiberationSans-65" d="M 863 1572 
Q 863 1306 917 1082 
Q 972 859 1086 698 
Q 1200 538 1378 448 
Q 1556 359 1806 359 
Q 2172 359 2392 506 
Q 2613 653 2691 878 
L 3184 738 
Q 3131 597 3036 455 
Q 2941 313 2781 198 
Q 2622 84 2383 10 
Q 2144 -63 1806 -63 
Q 1056 -63 664 384 
Q 272 831 272 1713 
Q 272 2188 390 2517 
Q 509 2847 715 3053 
Q 922 3259 1197 3351 
Q 1472 3444 1784 3444 
Q 2209 3444 2495 3306 
Q 2781 3169 2954 2926 
Q 3128 2684 3201 2356 
Q 3275 2028 3275 1647 
L 3275 1572 
L 863 1572 
z
M 2694 2003 
Q 2647 2538 2422 2783 
Q 2197 3028 1775 3028 
Q 1634 3028 1479 2983 
Q 1325 2938 1194 2822 
Q 1063 2706 972 2507 
Q 881 2309 869 2003 
L 2694 2003 
z
" transform="scale(0.015625)"/>
        <path id="LiberationSans-ed" d="M 606 0 
L 606 3381 
L 1169 3381 
L 1169 0 
L 606 0 
z
M 425 3753 
L 425 3816 
L 1103 4713 
L 1750 4713 
L 1750 4622 
L 719 3753 
L 425 3753 
z
" transform="scale(0.015625)"/>
        <path id="LiberationSans-43" d="M 2475 3981 
Q 2100 3981 1811 3856 
Q 1522 3731 1326 3500 
Q 1131 3269 1031 2944 
Q 931 2619 931 2222 
Q 931 1825 1039 1495 
Q 1147 1166 1348 928 
Q 1550 691 1842 559 
Q 2134 428 2500 428 
Q 2756 428 2967 495 
Q 3178 563 3348 684 
Q 3519 806 3653 973 
Q 3788 1141 3891 1344 
L 4378 1100 
Q 4259 853 4084 640 
Q 3909 428 3673 272 
Q 3438 116 3139 26 
Q 2841 -63 2472 -63 
Q 1938 -63 1536 107 
Q 1134 278 864 583 
Q 594 888 459 1306 
Q 325 1725 325 2222 
Q 325 2738 467 3153 
Q 609 3569 882 3861 
Q 1156 4153 1556 4311 
Q 1956 4469 2469 4469 
Q 3172 4469 3644 4194 
Q 4116 3919 4338 3378 
L 3772 3191 
Q 3709 3347 3603 3489 
Q 3497 3631 3337 3740 
Q 3178 3850 2964 3915 
Q 2750 3981 2475 3981 
z
" transform="scale(0.015625)"/>
        <path id="LiberationSans-7a" d="M 153 0 
L 153 428 
L 2219 2947 
L 278 2947 
L 278 3381 
L 2853 3381 
L 2853 2953 
L 784 434 
L 2969 434 
L 2969 0 
L 153 0 
z
" transform="scale(0.015625)"/>
        <path id="LiberationSans-79" d="M 1888 0 
Q 1769 -306 1645 -551 
Q 1522 -797 1369 -970 
Q 1216 -1144 1028 -1236 
Q 841 -1328 597 -1328 
Q 491 -1328 400 -1322 
Q 309 -1316 209 -1294 
L 209 -872 
Q 269 -881 344 -886 
Q 419 -891 472 -891 
Q 719 -891 931 -706 
Q 1144 -522 1303 -119 
L 1356 16 
L 16 3381 
L 616 3381 
L 1328 1513 
Q 1359 1428 1407 1287 
Q 1456 1147 1504 1006 
Q 1553 866 1590 753 
Q 1628 641 1634 613 
Q 1644 647 1680 748 
Q 1716 850 1761 975 
Q 1806 1100 1853 1228 
Q 1900 1356 1931 1450 
L 2594 3381 
L 3188 3381 
L 1888 0 
z
" transform="scale(0.015625)"/>
        <path id="LiberationSans-53" d="M 3975 1216 
Q 3975 938 3867 703 
Q 3759 469 3534 298 
Q 3309 128 2967 32 
Q 2625 -63 2156 -63 
Q 1334 -63 875 225 
Q 416 513 291 1056 
L 869 1172 
Q 913 1000 1003 859 
Q 1094 719 1248 617 
Q 1403 516 1631 459 
Q 1859 403 2178 403 
Q 2444 403 2666 448 
Q 2888 494 3047 587 
Q 3206 681 3295 829 
Q 3384 978 3384 1184 
Q 3384 1400 3286 1534 
Q 3188 1669 3009 1756 
Q 2831 1844 2584 1903 
Q 2338 1963 2038 2031 
Q 1853 2072 1667 2120 
Q 1481 2169 1311 2236 
Q 1141 2303 991 2393 
Q 841 2484 731 2611 
Q 622 2738 559 2905 
Q 497 3072 497 3291 
Q 497 3603 623 3826 
Q 750 4050 975 4194 
Q 1200 4338 1506 4403 
Q 1813 4469 2169 4469 
Q 2578 4469 2868 4405 
Q 3159 4341 3359 4212 
Q 3559 4084 3679 3895 
Q 3800 3706 3872 3456 
L 3284 3353 
Q 3241 3513 3158 3638 
Q 3075 3763 2940 3847 
Q 2806 3931 2614 3975 
Q 2422 4019 2163 4019 
Q 1856 4019 1648 3964 
Q 1441 3909 1314 3815 
Q 1188 3722 1133 3595 
Q 1078 3469 1078 3322 
Q 1078 3125 1176 2998 
Q 1275 2872 1444 2787 
Q 1613 2703 1834 2647 
Q 2056 2591 2306 2534 
Q 2509 2488 2711 2439 
Q 2913 2391 3097 2323 
Q 3281 2256 3442 2165 
Q 3603 2075 3722 1944 
Q 3841 1813 3908 1634 
Q 3975 1456 3975 1216 
z
" transform="scale(0.015625)"/>
        <path id="LiberationSans-76" d="M 1916 0 
L 1250 0 
L 22 3381 
L 622 3381 
L 1366 1181 
Q 1388 1113 1417 1014 
Q 1447 916 1478 809 
Q 1509 703 1536 604 
Q 1563 506 1581 441 
Q 1600 506 1629 604 
Q 1659 703 1690 806 
Q 1722 909 1755 1007 
Q 1788 1106 1813 1175 
L 2581 3381 
L 3178 3381 
L 1916 0 
z
" transform="scale(0.015625)"/>
       </defs>
       <use xlink:href="#LiberationSans-41"/>
       <use xlink:href="#LiberationSans-67" transform="translate(66.699219 0)"/>
       <use xlink:href="#LiberationSans-72" transform="translate(122.314453 0)"/>
       <use xlink:href="#LiberationSans-69" transform="translate(155.615234 0)"/>
       <use xlink:href="#LiberationSans-63" transform="translate(177.832031 0)"/>
       <use xlink:href="#LiberationSans-75" transform="translate(227.832031 0)"/>
       <use xlink:href="#LiberationSans-6c" transform="translate(283.447266 0)"/>
       <use xlink:href="#LiberationSans-74" transform="translate(305.664062 0)"/>
       <use xlink:href="#LiberationSans-75" transform="translate(333.447266 0)"/>
       <use xlink:href="#LiberationSans-72" transform="translate(389.0625 0)"/>
       <use xlink:href="#LiberationSans-61" transform="translate(422.363281 0)"/>
       <use xlink:href="#LiberationSans-2c" transform="translate(477.978516 0)"/>
       <use xlink:href="#LiberationSans-20" transform="translate(505.761719 0)"/>
       <use xlink:href="#LiberationSans-47" transform="translate(533.544922 0)"/>
       <use xlink:href="#LiberationSans-61" transform="translate(611.328125 0)"/>
       <use xlink:href="#LiberationSans-6e" transform="translate(666.943359 0)"/>
       <use xlink:href="#LiberationSans-61" transform="translate(722.558594 0)"/>
       <use xlink:href="#LiberationSans-64" transform="translate(778.173828 0)"/>
       <use xlink:href="#LiberationSans-65" transform="translate(833.789062 0)"/>
       <use xlink:href="#LiberationSans-72" transform="translate(889.404297 0)"/>
       <use xlink:href="#LiberationSans-ed" transform="translate(922.705078 0)"/>
       <use xlink:href="#LiberationSans-61" transform="translate(950.488281 0)"/>
       <use xlink:href="#LiberationSans-2c" transform="translate(1006.103516 0)"/>
       <use xlink:href="#LiberationSans-20" transform="translate(1033.886719 0)"/>
       <use xlink:href="#LiberationSans-43" transform="translate(1061.669922 0)"/>
       <use xlink:href="#LiberationSans-61" transform="translate(1133.886719 0)"/>
       <use xlink:href="#LiberationSans-7a" transform="translate(1189.501953 0)"/>
       <use xlink:href="#LiberationSans-61" transform="translate(1239.501953 0)"/>
       <use xlink:href="#LiberationSans-20" transform="translate(1295.117188 0)"/>
       <use xlink:href="#LiberationSans-79" transform="translate(1322.900391 0)"/>
       <use xlink:href="#LiberationSans-20" transform="translate(1372.900391 0)"/>
       <use xlink:href="#LiberationSans-53" transform="translate(1400.683594 0)"/>
       <use xlink:href="#LiberationSans-69" transform="translate(1467.382812 0)"/>
       <use xlink:href="#LiberationSans-6c" transform="translate(1489.599609 0)"/>
       <use xlink:href="#LiberationSans-76" transform="translate(1511.816406 0)"/>
       <use xlink:href="#LiberationSans-69" transform="translate(1561.816406 0)"/>
       <use xlink:href="#LiberationSans-63" transform="translate(1584.033203 0)"/>
       <use xlink:href="#LiberationSans-75" transform="translate(1634.033203 0)"/>
       <use xlink:href="#LiberationSans-6c" transform="translate(1689.648438 0)"/>
       <use xlink:href="#LiberationSans-74" transform="translate(1711.865234 0)"/>
       <use xlink:href="#LiberationSans-75" transform="translate(1739.648438 0)"/>
       <use xlink:href="#LiberationSans-72" transform="translate(1795.263672 0)"/>
       <use xlink:href="#LiberationSans-61" transform="translate(1828.564453 0)"/>
      </g>
     </g>
    </g>
    <g id="xtick_2">
     <g id="line2d_3">
      <path d="M 199.586307 214.291697 
L 199.586307 35.124375 
" clip-path="url(#p04a0a24f8a)" style="fill: none; stroke: #ffffff; stroke-linecap: round"/>
     </g>
     <g id="line2d_4"/>
     <g id="text_2">
      <!-- Pesca y Acuicultura -->
      <g style="fill: #262626" transform="translate(141.448142 266.082819) rotate(-35) scale(0.08 -0.08)">
       <defs>
        <path id="LiberationSans-50" d="M 3931 3078 
Q 3931 2791 3836 2542 
Q 3741 2294 3552 2111 
Q 3363 1928 3078 1822 
Q 2794 1716 2416 1716 
L 1122 1716 
L 1122 0 
L 525 0 
L 525 4403 
L 2378 4403 
Q 2769 4403 3059 4308 
Q 3350 4213 3544 4039 
Q 3738 3866 3834 3620 
Q 3931 3375 3931 3078 
z
M 3331 3072 
Q 3331 3491 3075 3708 
Q 2819 3925 2306 3925 
L 1122 3925 
L 1122 2188 
L 2331 2188 
Q 2847 2188 3089 2416 
Q 3331 2644 3331 3072 
z
" transform="scale(0.015625)"/>
        <path id="LiberationSans-73" d="M 2969 934 
Q 2969 697 2876 511 
Q 2784 325 2609 198 
Q 2434 72 2179 4 
Q 1925 -63 1597 -63 
Q 1303 -63 1067 -17 
Q 831 28 653 128 
Q 475 228 354 392 
Q 234 556 178 794 
L 675 891 
Q 747 619 972 492 
Q 1197 366 1597 366 
Q 1778 366 1929 391 
Q 2081 416 2190 477 
Q 2300 538 2361 639 
Q 2422 741 2422 891 
Q 2422 1044 2350 1142 
Q 2278 1241 2150 1306 
Q 2022 1372 1839 1420 
Q 1656 1469 1438 1528 
Q 1234 1581 1034 1647 
Q 834 1713 673 1820 
Q 513 1928 413 2087 
Q 313 2247 313 2488 
Q 313 2950 642 3192 
Q 972 3434 1603 3434 
Q 2163 3434 2492 3237 
Q 2822 3041 2909 2606 
L 2403 2544 
Q 2375 2675 2300 2764 
Q 2225 2853 2119 2908 
Q 2013 2963 1880 2986 
Q 1747 3009 1603 3009 
Q 1222 3009 1040 2893 
Q 859 2778 859 2544 
Q 859 2406 926 2317 
Q 994 2228 1114 2167 
Q 1234 2106 1403 2061 
Q 1572 2016 1775 1966 
Q 1909 1931 2050 1892 
Q 2191 1853 2323 1798 
Q 2456 1744 2573 1670 
Q 2691 1597 2778 1494 
Q 2866 1391 2917 1253 
Q 2969 1116 2969 934 
z
" transform="scale(0.015625)"/>
       </defs>
       <use xlink:href="#LiberationSans-50"/>
       <use xlink:href="#LiberationSans-65" transform="translate(66.699219 0)"/>
       <use xlink:href="#LiberationSans-73" transform="translate(122.314453 0)"/>
       <use xlink:href="#LiberationSans-63" transform="translate(172.314453 0)"/>
       <use xlink:href="#LiberationSans-61" transform="translate(222.314453 0)"/>
       <use xlink:href="#LiberationSans-20" transform="translate(277.929688 0)"/>
       <use xlink:href="#LiberationSans-79" transform="translate(305.712891 0)"/>
       <use xlink:href="#LiberationSans-20" transform="translate(355.712891 0)"/>
       <use xlink:href="#LiberationSans-41" transform="translate(377.996094 0)"/>
       <use xlink:href="#LiberationSans-63" transform="translate(444.695312 0)"/>
       <use xlink:href="#LiberationSans-75" transform="translate(494.695312 0)"/>
       <use xlink:href="#LiberationSans-69" transform="translate(550.310547 0)"/>
       <use xlink:href="#LiberationSans-63" transform="translate(572.527344 0)"/>
       <use xlink:href="#LiberationSans-75" transform="translate(622.527344 0)"/>
       <use xlink:href="#LiberationSans-6c" transform="translate(678.142578 0)"/>
       <use xlink:href="#LiberationSans-74" transform="translate(700.359375 0)"/>
       <use xlink:href="#LiberationSans-75" transform="translate(728.142578 0)"/>
       <use xlink:href="#LiberationSans-72" transform="translate(783.757812 0)"/>
       <use xlink:href="#LiberationSans-61" transform="translate(817.058594 0)"/>
      </g>
     </g>
    </g>
    <g id="xtick_3">
     <g id="line2d_5">
      <path d="M 264.173679 214.291697 
L 264.173679 35.124375 
" clip-path="url(#p04a0a24f8a)" style="fill: none; stroke: #ffffff; stroke-linecap: round"/>
     </g>
     <g id="line2d_6"/>
     <g id="text_3">
      <!-- Extracción de Petróleo, Gas y Minerales -->
      <g style="fill: #262626" transform="translate(146.310115 307.979789) rotate(-35) scale(0.08 -0.08)">
       <defs>
        <path id="LiberationSans-45" d="M 525 0 
L 525 4403 
L 3866 4403 
L 3866 3916 
L 1122 3916 
L 1122 2503 
L 3678 2503 
L 3678 2022 
L 1122 2022 
L 1122 488 
L 3994 488 
L 3994 0 
L 525 0 
z
" transform="scale(0.015625)"/>
        <path id="LiberationSans-78" d="M 2503 0 
L 1594 1388 
L 678 0 
L 72 0 
L 1275 1738 
L 128 3381 
L 750 3381 
L 1594 2066 
L 2431 3381 
L 3059 3381 
L 1913 1744 
L 3131 0 
L 2503 0 
z
" transform="scale(0.015625)"/>
        <path id="LiberationSans-f3" d="M 3291 1694 
Q 3291 806 2900 371 
Q 2509 -63 1766 -63 
Q 1413 -63 1134 43 
Q 856 150 664 369 
Q 472 588 370 917 
Q 269 1247 269 1694 
Q 269 3444 1784 3444 
Q 2178 3444 2464 3334 
Q 2750 3225 2933 3006 
Q 3116 2788 3203 2459 
Q 3291 2131 3291 1694 
z
M 2700 1694 
Q 2700 2088 2639 2344 
Q 2578 2600 2461 2753 
Q 2344 2906 2175 2967 
Q 2006 3028 1794 3028 
Q 1578 3028 1404 2964 
Q 1231 2900 1109 2745 
Q 988 2591 923 2334 
Q 859 2078 859 1694 
Q 859 1300 928 1042 
Q 997 784 1117 631 
Q 1238 478 1402 415 
Q 1566 353 1759 353 
Q 1975 353 2150 414 
Q 2325 475 2447 628 
Q 2569 781 2634 1040 
Q 2700 1300 2700 1694 
z
M 1345 3753 
L 1345 3816 
L 2023 4713 
L 2670 4713 
L 2670 4622 
L 1639 3753 
L 1345 3753 
z
" transform="scale(0.015625)"/>
        <path id="LiberationSans-6f" d="M 3291 1694 
Q 3291 806 2900 371 
Q 2509 -63 1766 -63 
Q 1413 -63 1134 43 
Q 856 150 664 369 
Q 472 588 370 917 
Q 269 1247 269 1694 
Q 269 3444 1784 3444 
Q 2178 3444 2464 3334 
Q 2750 3225 2933 3006 
Q 3116 2788 3203 2459 
Q 3291 2131 3291 1694 
z
M 2700 1694 
Q 2700 2088 2639 2344 
Q 2578 2600 2461 2753 
Q 2344 2906 2175 2967 
Q 2006 3028 1794 3028 
Q 1578 3028 1404 2964 
Q 1231 2900 1109 2745 
Q 988 2591 923 2334 
Q 859 2078 859 1694 
Q 859 1300 928 1042 
Q 997 784 1117 631 
Q 1238 478 1402 415 
Q 1566 353 1759 353 
Q 1975 353 2150 414 
Q 2325 475 2447 628 
Q 2569 781 2634 1040 
Q 2700 1300 2700 1694 
z
" transform="scale(0.015625)"/>
        <path id="LiberationSans-4d" d="M 4269 0 
L 4269 2938 
Q 4269 3097 4272 3262 
Q 4275 3428 4281 3566 
Q 4288 3725 4297 3875 
Q 4253 3716 4206 3559 
Q 4166 3425 4117 3273 
Q 4069 3122 4022 3000 
L 2884 0 
L 2466 0 
L 1313 3000 
Q 1294 3047 1273 3109 
Q 1253 3172 1229 3242 
Q 1206 3313 1182 3386 
Q 1159 3459 1138 3531 
Q 1084 3697 1034 3875 
Q 1038 3700 1044 3528 
Q 1050 3381 1053 3220 
Q 1056 3059 1056 2938 
L 1056 0 
L 525 0 
L 525 4403 
L 1309 4403 
L 2481 1350 
Q 2503 1288 2534 1189 
Q 2566 1091 2594 987 
Q 2622 884 2645 792 
Q 2669 700 2678 650 
Q 2688 700 2713 794 
Q 2738 888 2770 991 
Q 2803 1094 2834 1191 
Q 2866 1288 2891 1350 
L 4041 4403 
L 4806 4403 
L 4806 0 
L 4269 0 
z
" transform="scale(0.015625)"/>
       </defs>
       <use xlink:href="#LiberationSans-45"/>
       <use xlink:href="#LiberationSans-78" transform="translate(66.699219 0)"/>
       <use xlink:href="#LiberationSans-74" transform="translate(116.699219 0)"/>
       <use xlink:href="#LiberationSans-72" transform="translate(144.482422 0)"/>
       <use xlink:href="#LiberationSans-61" transform="translate(177.783203 0)"/>
       <use xlink:href="#LiberationSans-63" transform="translate(233.398438 0)"/>
       <use xlink:href="#LiberationSans-63" transform="translate(283.398438 0)"/>
       <use xlink:href="#LiberationSans-69" transform="translate(333.398438 0)"/>
       <use xlink:href="#LiberationSans-f3" transform="translate(355.615234 0)"/>
       <use xlink:href="#LiberationSans-6e" transform="translate(411.230469 0)"/>
       <use xlink:href="#LiberationSans-20" transform="translate(466.845703 0)"/>
       <use xlink:href="#LiberationSans-64" transform="translate(494.628906 0)"/>
       <use xlink:href="#LiberationSans-65" transform="translate(550.244141 0)"/>
       <use xlink:href="#LiberationSans-20" transform="translate(605.859375 0)"/>
       <use xlink:href="#LiberationSans-50" transform="translate(633.642578 0)"/>
       <use xlink:href="#LiberationSans-65" transform="translate(700.341797 0)"/>
       <use xlink:href="#LiberationSans-74" transform="translate(755.957031 0)"/>
       <use xlink:href="#LiberationSans-72" transform="translate(783.740234 0)"/>
       <use xlink:href="#LiberationSans-f3" transform="translate(817.041016 0)"/>
       <use xlink:href="#LiberationSans-6c" transform="translate(872.65625 0)"/>
       <use xlink:href="#LiberationSans-65" transform="translate(894.873047 0)"/>
       <use xlink:href="#LiberationSans-6f" transform="translate(950.488281 0)"/>
       <use xlink:href="#LiberationSans-2c" transform="translate(1006.103516 0)"/>
       <use xlink:href="#LiberationSans-20" transform="translate(1033.886719 0)"/>
       <use xlink:href="#LiberationSans-47" transform="translate(1061.669922 0)"/>
       <use xlink:href="#LiberationSans-61" transform="translate(1139.453125 0)"/>
       <use xlink:href="#LiberationSans-73" transform="translate(1195.068359 0)"/>
       <use xlink:href="#LiberationSans-20" transform="translate(1245.068359 0)"/>
       <use xlink:href="#LiberationSans-79" transform="translate(1272.851562 0)"/>
       <use xlink:href="#LiberationSans-20" transform="translate(1322.851562 0)"/>
       <use xlink:href="#LiberationSans-4d" transform="translate(1350.634766 0)"/>
       <use xlink:href="#LiberationSans-69" transform="translate(1433.935547 0)"/>
       <use xlink:href="#LiberationSans-6e" transform="translate(1456.152344 0)"/>
       <use xlink:href="#LiberationSans-65" transform="translate(1511.767578 0)"/>
       <use xlink:href="#LiberationSans-72" transform="translate(1567.382812 0)"/>
       <use xlink:href="#LiberationSans-61" transform="translate(1600.683594 0)"/>
       <use xlink:href="#LiberationSans-6c" transform="translate(1656.298828 0)"/>
       <use xlink:href="#LiberationSans-65" transform="translate(1678.515625 0)"/>
       <use xlink:href="#LiberationSans-73" transform="translate(1734.130859 0)"/>
      </g>
     </g>
    </g>
    <g id="xtick_4">
     <g id="line2d_7">
      <path d="M 328.761051 214.291697 
L 328.761051 35.124375 
" clip-path="url(#p04a0a24f8a)" style="fill: none; stroke: #ffffff; stroke-linecap: round"/>
     </g>
     <g id="line2d_8"/>
     <g id="text_4">
      <!-- Manufactura -->
      <g style="fill: #262626" transform="translate(291.385319 251.544807) rotate(-35) scale(0.08 -0.08)">
       <defs>
        <path id="LiberationSans-66" d="M 1128 2972 
L 1128 0 
L 566 0 
L 566 2972 
L 91 2972 
L 91 3381 
L 566 3381 
L 566 3763 
Q 566 3947 600 4105 
Q 634 4263 726 4380 
Q 819 4497 978 4564 
Q 1138 4631 1391 4631 
Q 1491 4631 1598 4622 
Q 1706 4613 1788 4594 
L 1788 4166 
Q 1734 4175 1664 4183 
Q 1594 4191 1538 4191 
Q 1413 4191 1333 4156 
Q 1253 4122 1208 4058 
Q 1163 3994 1145 3900 
Q 1128 3806 1128 3684 
L 1128 3381 
L 1788 3381 
L 1788 2972 
L 1128 2972 
z
" transform="scale(0.015625)"/>
       </defs>
       <use xlink:href="#LiberationSans-4d"/>
       <use xlink:href="#LiberationSans-61" transform="translate(83.300781 0)"/>
       <use xlink:href="#LiberationSans-6e" transform="translate(138.916016 0)"/>
       <use xlink:href="#LiberationSans-75" transform="translate(194.53125 0)"/>
       <use xlink:href="#LiberationSans-66" transform="translate(250.146484 0)"/>
       <use xlink:href="#LiberationSans-61" transform="translate(277.929688 0)"/>
       <use xlink:href="#LiberationSans-63" transform="translate(333.544922 0)"/>
       <use xlink:href="#LiberationSans-74" transform="translate(383.544922 0)"/>
       <use xlink:href="#LiberationSans-75" transform="translate(411.328125 0)"/>
       <use xlink:href="#LiberationSans-72" transform="translate(466.943359 0)"/>
       <use xlink:href="#LiberationSans-61" transform="translate(500.244141 0)"/>
      </g>
     </g>
    </g>
    <g id="xtick_5">
     <g id="line2d_9">
      <path d="M 393.348423 214.291697 
L 393.348423 35.124375 
" clip-path="url(#p04a0a24f8a)" style="fill: none; stroke: #ffffff; stroke-linecap: round"/>
     </g>
     <g id="line2d_10"/>
     <g id="text_5">
      <!-- Electricidad, Gas y Agua -->
      <g style="fill: #262626" transform="translate(321.004114 276.030068) rotate(-35) scale(0.08 -0.08)">
       <use xlink:href="#LiberationSans-45"/>
       <use xlink:href="#LiberationSans-6c" transform="translate(66.699219 0)"/>
       <use xlink:href="#LiberationSans-65" transform="translate(88.916016 0)"/>
       <use xlink:href="#LiberationSans-63" transform="translate(144.53125 0)"/>
       <use xlink:href="#LiberationSans-74" transform="translate(194.53125 0)"/>
       <use xlink:href="#LiberationSans-72" transform="translate(222.314453 0)"/>
       <use xlink:href="#LiberationSans-69" transform="translate(255.615234 0)"/>
       <use xlink:href="#LiberationSans-63" transform="translate(277.832031 0)"/>
       <use xlink:href="#LiberationSans-69" transform="translate(327.832031 0)"/>
       <use xlink:href="#LiberationSans-64" transform="translate(350.048828 0)"/>
       <use xlink:href="#LiberationSans-61" transform="translate(405.664062 0)"/>
       <use xlink:href="#LiberationSans-64" transform="translate(461.279297 0)"/>
       <use xlink:href="#LiberationSans-2c" transform="translate(516.894531 0)"/>
       <use xlink:href="#LiberationSans-20" transform="translate(544.677734 0)"/>
       <use xlink:href="#LiberationSans-47" transform="translate(572.460938 0)"/>
       <use xlink:href="#LiberationSans-61" transform="translate(650.244141 0)"/>
       <use xlink:href="#LiberationSans-73" transform="translate(705.859375 0)"/>
       <use xlink:href="#LiberationSans-20" transform="translate(755.859375 0)"/>
       <use xlink:href="#LiberationSans-79" transform="translate(783.642578 0)"/>
       <use xlink:href="#LiberationSans-20" transform="translate(833.642578 0)"/>
       <use xlink:href="#LiberationSans-41" transform="translate(855.925781 0)"/>
       <use xlink:href="#LiberationSans-67" transform="translate(922.625 0)"/>
       <use xlink:href="#LiberationSans-75" transform="translate(978.240234 0)"/>
       <use xlink:href="#LiberationSans-61" transform="translate(1033.855469 0)"/>
      </g>
     </g>
    </g>
    <g id="xtick_6">
     <g id="line2d_11">
      <path d="M 457.935795 214.291697 
L 457.935795 35.124375 
" clip-path="url(#p04a0a24f8a)" style="fill: none; stroke: #ffffff; stroke-linecap: round"/>
     </g>
     <g id="line2d_12"/>
     <g id="text_6">
      <!-- Construcción -->
      <g style="fill: #262626" transform="translate(418.741545 252.818147) rotate(-35) scale(0.08 -0.08)">
       <use xlink:href="#LiberationSans-43"/>
       <use xlink:href="#LiberationSans-6f" transform="translate(72.216797 0)"/>
       <use xlink:href="#LiberationSans-6e" transform="translate(127.832031 0)"/>
       <use xlink:href="#LiberationSans-73" transform="translate(183.447266 0)"/>
       <use xlink:href="#LiberationSans-74" transform="translate(233.447266 0)"/>
       <use xlink:href="#LiberationSans-72" transform="translate(261.230469 0)"/>
       <use xlink:href="#LiberationSans-75" transform="translate(294.53125 0)"/>
       <use xlink:href="#LiberationSans-63" transform="translate(350.146484 0)"/>
       <use xlink:href="#LiberationSans-63" transform="translate(400.146484 0)"/>
       <use xlink:href="#LiberationSans-69" transform="translate(450.146484 0)"/>
       <use xlink:href="#LiberationSans-f3" transform="translate(472.363281 0)"/>
       <use xlink:href="#LiberationSans-6e" transform="translate(527.978516 0)"/>
      </g>
     </g>
    </g>
    <g id="xtick_7">
     <g id="line2d_13">
      <path d="M 522.523167 214.291697 
L 522.523167 35.124375 
" clip-path="url(#p04a0a24f8a)" style="fill: none; stroke: #ffffff; stroke-linecap: round"/>
     </g>
     <g id="line2d_14"/>
     <g id="text_7">
      <!-- Comercio -->
      <g style="fill: #262626" transform="translate(493.53248 245.673535) rotate(-35) scale(0.08 -0.08)">
       <defs>
        <path id="LiberationSans-6d" d="M 2400 0 
L 2400 2144 
Q 2400 2391 2369 2556 
Q 2338 2722 2264 2823 
Q 2191 2925 2072 2967 
Q 1953 3009 1781 3009 
Q 1603 3009 1459 2939 
Q 1316 2869 1214 2736 
Q 1113 2603 1058 2408 
Q 1003 2213 1003 1959 
L 1003 0 
L 444 0 
L 444 2659 
Q 444 2766 442 2883 
Q 441 3000 437 3104 
Q 434 3209 431 3284 
Q 428 3359 425 3381 
L 956 3381 
Q 959 3366 962 3297 
Q 966 3228 970 3139 
Q 975 3050 978 2958 
Q 981 2866 981 2803 
L 991 2803 
Q 1066 2950 1153 3069 
Q 1241 3188 1358 3270 
Q 1475 3353 1626 3398 
Q 1778 3444 1978 3444 
Q 2363 3444 2586 3291 
Q 2809 3138 2897 2803 
L 2906 2803 
Q 2981 2950 3075 3069 
Q 3169 3188 3294 3270 
Q 3419 3353 3575 3398 
Q 3731 3444 3931 3444 
Q 4188 3444 4373 3375 
Q 4559 3306 4678 3162 
Q 4797 3019 4853 2792 
Q 4909 2566 4909 2253 
L 4909 0 
L 4353 0 
L 4353 2144 
Q 4353 2391 4322 2556 
Q 4291 2722 4217 2823 
Q 4144 2925 4025 2967 
Q 3906 3009 3734 3009 
Q 3556 3009 3412 2942 
Q 3269 2875 3167 2744 
Q 3066 2613 3011 2416 
Q 2956 2219 2956 1959 
L 2956 0 
L 2400 0 
z
" transform="scale(0.015625)"/>
       </defs>
       <use xlink:href="#LiberationSans-43"/>
       <use xlink:href="#LiberationSans-6f" transform="translate(72.216797 0)"/>
       <use xlink:href="#LiberationSans-6d" transform="translate(127.832031 0)"/>
       <use xlink:href="#LiberationSans-65" transform="translate(211.132812 0)"/>
       <use xlink:href="#LiberationSans-72" transform="translate(266.748047 0)"/>
       <use xlink:href="#LiberationSans-63" transform="translate(300.048828 0)"/>
       <use xlink:href="#LiberationSans-69" transform="translate(350.048828 0)"/>
       <use xlink:href="#LiberationSans-6f" transform="translate(372.265625 0)"/>
      </g>
     </g>
    </g>
    <g id="xtick_8">
     <g id="line2d_15">
      <path d="M 587.11054 214.291697 
L 587.11054 35.124375 
" clip-path="url(#p04a0a24f8a)" style="fill: none; stroke: #ffffff; stroke-linecap: round"/>
     </g>
     <g id="line2d_16"/>
     <g id="text_8">
      <!-- Transporte, Almacenamiento, Correo y Mensajería -->
      <g style="fill: #262626" transform="translate(439.628485 328.718879) rotate(-35) scale(0.08 -0.08)">
       <defs>
        <path id="LiberationSans-54" d="M 2250 3916 
L 2250 0 
L 1656 0 
L 1656 3916 
L 144 3916 
L 144 4403 
L 3763 4403 
L 3763 3916 
L 2250 3916 
z
" transform="scale(0.015625)"/>
        <path id="LiberationSans-70" d="M 3291 1706 
Q 3291 1322 3228 997 
Q 3166 672 3020 437 
Q 2875 203 2636 70 
Q 2397 -63 2047 -63 
Q 1684 -63 1412 75 
Q 1141 213 997 525 
L 981 525 
Q 984 519 986 469 
Q 988 419 989 344 
Q 991 269 992 176 
Q 994 84 994 -6 
L 994 -1328 
L 431 -1328 
L 431 2691 
Q 431 2813 429 2925 
Q 428 3038 425 3130 
Q 422 3222 419 3287 
Q 416 3353 413 3381 
L 956 3381 
Q 959 3372 964 3315 
Q 969 3259 973 3179 
Q 978 3100 983 3009 
Q 988 2919 988 2838 
L 1000 2838 
Q 1078 3000 1178 3114 
Q 1278 3228 1406 3301 
Q 1534 3375 1692 3408 
Q 1850 3441 2047 3441 
Q 2397 3441 2636 3316 
Q 2875 3191 3020 2964 
Q 3166 2738 3228 2417 
Q 3291 2097 3291 1706 
z
M 2700 1694 
Q 2700 2006 2662 2250 
Q 2625 2494 2533 2662 
Q 2441 2831 2287 2918 
Q 2134 3006 1903 3006 
Q 1716 3006 1550 2953 
Q 1384 2900 1261 2750 
Q 1138 2600 1066 2336 
Q 994 2072 994 1650 
Q 994 1291 1053 1042 
Q 1113 794 1227 641 
Q 1341 488 1509 420 
Q 1678 353 1897 353 
Q 2131 353 2286 443 
Q 2441 534 2533 706 
Q 2625 878 2662 1126 
Q 2700 1375 2700 1694 
z
" transform="scale(0.015625)"/>
        <path id="LiberationSans-6a" d="M 428 4100 
L 428 4638 
L 991 4638 
L 991 4100 
L 428 4100 
z
M 991 -419 
Q 991 -613 958 -778 
Q 925 -944 840 -1066 
Q 756 -1188 611 -1258 
Q 466 -1328 241 -1328 
Q 134 -1328 32 -1322 
Q -69 -1316 -156 -1300 
L -156 -866 
Q -116 -872 -59 -878 
Q -3 -884 38 -884 
Q 156 -884 232 -853 
Q 309 -822 353 -755 
Q 397 -688 412 -583 
Q 428 -478 428 -334 
L 428 3381 
L 991 3381 
L 991 -419 
z
" transform="scale(0.015625)"/>
       </defs>
       <use xlink:href="#LiberationSans-54"/>
       <use xlink:href="#LiberationSans-72" transform="translate(57.333984 0)"/>
       <use xlink:href="#LiberationSans-61" transform="translate(90.634766 0)"/>
       <use xlink:href="#LiberationSans-6e" transform="translate(146.25 0)"/>
       <use xlink:href="#LiberationSans-73" transform="translate(201.865234 0)"/>
       <use xlink:href="#LiberationSans-70" transform="translate(251.865234 0)"/>
       <use xlink:href="#LiberationSans-6f" transform="translate(307.480469 0)"/>
       <use xlink:href="#LiberationSans-72" transform="translate(363.095703 0)"/>
       <use xlink:href="#LiberationSans-74" transform="translate(396.396484 0)"/>
       <use xlink:href="#LiberationSans-65" transform="translate(424.179688 0)"/>
       <use xlink:href="#LiberationSans-2c" transform="translate(479.794922 0)"/>
       <use xlink:href="#LiberationSans-20" transform="translate(507.578125 0)"/>
       <use xlink:href="#LiberationSans-41" transform="translate(529.861328 0)"/>
       <use xlink:href="#LiberationSans-6c" transform="translate(596.560547 0)"/>
       <use xlink:href="#LiberationSans-6d" transform="translate(618.777344 0)"/>
       <use xlink:href="#LiberationSans-61" transform="translate(702.078125 0)"/>
       <use xlink:href="#LiberationSans-63" transform="translate(757.693359 0)"/>
       <use xlink:href="#LiberationSans-65" transform="translate(807.693359 0)"/>
       <use xlink:href="#LiberationSans-6e" transform="translate(863.308594 0)"/>
       <use xlink:href="#LiberationSans-61" transform="translate(918.923828 0)"/>
       <use xlink:href="#LiberationSans-6d" transform="translate(974.539062 0)"/>
       <use xlink:href="#LiberationSans-69" transform="translate(1057.839844 0)"/>
       <use xlink:href="#LiberationSans-65" transform="translate(1080.056641 0)"/>
       <use xlink:href="#LiberationSans-6e" transform="translate(1135.671875 0)"/>
       <use xlink:href="#LiberationSans-74" transform="translate(1191.287109 0)"/>
       <use xlink:href="#LiberationSans-6f" transform="translate(1219.070312 0)"/>
       <use xlink:href="#LiberationSans-2c" transform="translate(1274.685547 0)"/>
       <use xlink:href="#LiberationSans-20" transform="translate(1302.46875 0)"/>
       <use xlink:href="#LiberationSans-43" transform="translate(1330.251953 0)"/>
       <use xlink:href="#LiberationSans-6f" transform="translate(1402.46875 0)"/>
       <use xlink:href="#LiberationSans-72" transform="translate(1458.083984 0)"/>
       <use xlink:href="#LiberationSans-72" transform="translate(1491.384766 0)"/>
       <use xlink:href="#LiberationSans-65" transform="translate(1524.685547 0)"/>
       <use xlink:href="#LiberationSans-6f" transform="translate(1580.300781 0)"/>
       <use xlink:href="#LiberationSans-20" transform="translate(1635.916016 0)"/>
       <use xlink:href="#LiberationSans-79" transform="translate(1663.699219 0)"/>
       <use xlink:href="#LiberationSans-20" transform="translate(1713.699219 0)"/>
       <use xlink:href="#LiberationSans-4d" transform="translate(1741.482422 0)"/>
       <use xlink:href="#LiberationSans-65" transform="translate(1824.783203 0)"/>
       <use xlink:href="#LiberationSans-6e" transform="translate(1880.398438 0)"/>
       <use xlink:href="#LiberationSans-73" transform="translate(1936.013672 0)"/>
       <use xlink:href="#LiberationSans-61" transform="translate(1986.013672 0)"/>
       <use xlink:href="#LiberationSans-6a" transform="translate(2041.628906 0)"/>
       <use xlink:href="#LiberationSans-65" transform="translate(2063.845703 0)"/>
       <use xlink:href="#LiberationSans-72" transform="translate(2119.460938 0)"/>
       <use xlink:href="#LiberationSans-ed" transform="translate(2152.761719 0)"/>
       <use xlink:href="#LiberationSans-61" transform="translate(2180.544922 0)"/>
      </g>
     </g>
    </g>
    <g id="xtick_9">
     <g id="line2d_17">
      <path d="M 651.697912 214.291697 
L 651.697912 35.124375 
" clip-path="url(#p04a0a24f8a)" style="fill: none; stroke: #ffffff; stroke-linecap: round"/>
     </g>
     <g id="line2d_18"/>
     <g id="text_9">
      <!-- Alojamiento y Restaurantes -->
      <g style="fill: #262626" transform="translate(570.614274 282.149412) rotate(-35) scale(0.08 -0.08)">
       <defs>
        <path id="LiberationSans-52" d="M 3638 0 
L 2494 1828 
L 1122 1828 
L 1122 0 
L 525 0 
L 525 4403 
L 2597 4403 
Q 2972 4403 3261 4317 
Q 3550 4231 3747 4068 
Q 3944 3906 4047 3672 
Q 4150 3438 4150 3144 
Q 4150 2934 4089 2731 
Q 4028 2528 3897 2359 
Q 3766 2191 3562 2069 
Q 3359 1947 3075 1897 
L 4325 0 
L 3638 0 
z
M 3550 3138 
Q 3550 3338 3481 3484 
Q 3413 3631 3281 3729 
Q 3150 3828 2962 3876 
Q 2775 3925 2538 3925 
L 1122 3925 
L 1122 2300 
L 2563 2300 
Q 2819 2300 3006 2364 
Q 3194 2428 3314 2540 
Q 3434 2653 3492 2806 
Q 3550 2959 3550 3138 
z
" transform="scale(0.015625)"/>
       </defs>
       <use xlink:href="#LiberationSans-41"/>
       <use xlink:href="#LiberationSans-6c" transform="translate(66.699219 0)"/>
       <use xlink:href="#LiberationSans-6f" transform="translate(88.916016 0)"/>
       <use xlink:href="#LiberationSans-6a" transform="translate(144.53125 0)"/>
       <use xlink:href="#LiberationSans-61" transform="translate(166.748047 0)"/>
       <use xlink:href="#LiberationSans-6d" transform="translate(222.363281 0)"/>
       <use xlink:href="#LiberationSans-69" transform="translate(305.664062 0)"/>
       <use xlink:href="#LiberationSans-65" transform="translate(327.880859 0)"/>
       <use xlink:href="#LiberationSans-6e" transform="translate(383.496094 0)"/>
       <use xlink:href="#LiberationSans-74" transform="translate(439.111328 0)"/>
       <use xlink:href="#LiberationSans-6f" transform="translate(466.894531 0)"/>
       <use xlink:href="#LiberationSans-20" transform="translate(522.509766 0)"/>
       <use xlink:href="#LiberationSans-79" transform="translate(550.292969 0)"/>
       <use xlink:href="#LiberationSans-20" transform="translate(600.292969 0)"/>
       <use xlink:href="#LiberationSans-52" transform="translate(628.076172 0)"/>
       <use xlink:href="#LiberationSans-65" transform="translate(700.292969 0)"/>
       <use xlink:href="#LiberationSans-73" transform="translate(755.908203 0)"/>
       <use xlink:href="#LiberationSans-74" transform="translate(805.908203 0)"/>
       <use xlink:href="#LiberationSans-61" transform="translate(833.691406 0)"/>
       <use xlink:href="#LiberationSans-75" transform="translate(889.306641 0)"/>
       <use xlink:href="#LiberationSans-72" transform="translate(944.921875 0)"/>
       <use xlink:href="#LiberationSans-61" transform="translate(978.222656 0)"/>
       <use xlink:href="#LiberationSans-6e" transform="translate(1033.837891 0)"/>
       <use xlink:href="#LiberationSans-74" transform="translate(1089.453125 0)"/>
       <use xlink:href="#LiberationSans-65" transform="translate(1117.236328 0)"/>
       <use xlink:href="#LiberationSans-73" transform="translate(1172.851562 0)"/>
      </g>
     </g>
    </g>
    <g id="xtick_10">
     <g id="line2d_19">
      <path d="M 716.285284 214.291697 
L 716.285284 35.124375 
" clip-path="url(#p04a0a24f8a)" style="fill: none; stroke: #ffffff; stroke-linecap: round"/>
     </g>
     <g id="line2d_20"/>
     <g id="text_10">
      <!-- Telecomunicaciones y Otros Serv. de Información -->
      <g style="fill: #262626" transform="translate(571.593466 326.765134) rotate(-35) scale(0.08 -0.08)">
       <defs>
        <path id="LiberationSans-4f" d="M 4672 2222 
Q 4672 1706 4523 1284 
Q 4375 863 4094 563 
Q 3813 263 3406 100 
Q 3000 -63 2484 -63 
Q 1941 -63 1531 107 
Q 1122 278 850 583 
Q 578 888 440 1306 
Q 303 1725 303 2222 
Q 303 2738 447 3153 
Q 591 3569 869 3861 
Q 1147 4153 1555 4311 
Q 1963 4469 2491 4469 
Q 3016 4469 3423 4309 
Q 3831 4150 4107 3856 
Q 4384 3563 4528 3147 
Q 4672 2731 4672 2222 
z
M 4063 2222 
Q 4063 2619 3961 2944 
Q 3859 3269 3661 3500 
Q 3463 3731 3169 3856 
Q 2875 3981 2491 3981 
Q 2097 3981 1800 3856 
Q 1503 3731 1304 3500 
Q 1106 3269 1007 2944 
Q 909 2619 909 2222 
Q 909 1825 1011 1495 
Q 1113 1166 1311 927 
Q 1509 688 1804 555 
Q 2100 422 2484 422 
Q 2897 422 3195 556 
Q 3494 691 3686 930 
Q 3878 1169 3970 1500 
Q 4063 1831 4063 2222 
z
" transform="scale(0.015625)"/>
        <path id="LiberationSans-2e" d="M 584 0 
L 584 684 
L 1194 684 
L 1194 0 
L 584 0 
z
" transform="scale(0.015625)"/>
        <path id="LiberationSans-49" d="M 591 0 
L 591 4403 
L 1188 4403 
L 1188 0 
L 591 0 
z
" transform="scale(0.015625)"/>
       </defs>
       <use xlink:href="#LiberationSans-54"/>
       <use xlink:href="#LiberationSans-65" transform="translate(49.958984 0)"/>
       <use xlink:href="#LiberationSans-6c" transform="translate(105.574219 0)"/>
       <use xlink:href="#LiberationSans-65" transform="translate(127.791016 0)"/>
       <use xlink:href="#LiberationSans-63" transform="translate(183.40625 0)"/>
       <use xlink:href="#LiberationSans-6f" transform="translate(233.40625 0)"/>
       <use xlink:href="#LiberationSans-6d" transform="translate(289.021484 0)"/>
       <use xlink:href="#LiberationSans-75" transform="translate(372.322266 0)"/>
       <use xlink:href="#LiberationSans-6e" transform="translate(427.9375 0)"/>
       <use xlink:href="#LiberationSans-69" transform="translate(483.552734 0)"/>
       <use xlink:href="#LiberationSans-63" transform="translate(505.769531 0)"/>
       <use xlink:href="#LiberationSans-61" transform="translate(555.769531 0)"/>
       <use xlink:href="#LiberationSans-63" transform="translate(611.384766 0)"/>
       <use xlink:href="#LiberationSans-69" transform="translate(661.384766 0)"/>
       <use xlink:href="#LiberationSans-6f" transform="translate(683.601562 0)"/>
       <use xlink:href="#LiberationSans-6e" transform="translate(739.216797 0)"/>
       <use xlink:href="#LiberationSans-65" transform="translate(794.832031 0)"/>
       <use xlink:href="#LiberationSans-73" transform="translate(850.447266 0)"/>
       <use xlink:href="#LiberationSans-20" transform="translate(900.447266 0)"/>
       <use xlink:href="#LiberationSans-79" transform="translate(928.230469 0)"/>
       <use xlink:href="#LiberationSans-20" transform="translate(978.230469 0)"/>
       <use xlink:href="#LiberationSans-4f" transform="translate(1006.013672 0)"/>
       <use xlink:href="#LiberationSans-74" transform="translate(1083.796875 0)"/>
       <use xlink:href="#LiberationSans-72" transform="translate(1111.580078 0)"/>
       <use xlink:href="#LiberationSans-6f" transform="translate(1144.880859 0)"/>
       <use xlink:href="#LiberationSans-73" transform="translate(1200.496094 0)"/>
       <use xlink:href="#LiberationSans-20" transform="translate(1250.496094 0)"/>
       <use xlink:href="#LiberationSans-53" transform="translate(1278.279297 0)"/>
       <use xlink:href="#LiberationSans-65" transform="translate(1344.978516 0)"/>
       <use xlink:href="#LiberationSans-72" transform="translate(1400.59375 0)"/>
       <use xlink:href="#LiberationSans-76" transform="translate(1433.894531 0)"/>
       <use xlink:href="#LiberationSans-2e" transform="translate(1476.519531 0)"/>
       <use xlink:href="#LiberationSans-20" transform="translate(1504.302734 0)"/>
       <use xlink:href="#LiberationSans-64" transform="translate(1532.085938 0)"/>
       <use xlink:href="#LiberationSans-65" transform="translate(1587.701172 0)"/>
       <use xlink:href="#LiberationSans-20" transform="translate(1643.316406 0)"/>
       <use xlink:href="#LiberationSans-49" transform="translate(1671.099609 0)"/>
       <use xlink:href="#LiberationSans-6e" transform="translate(1698.882812 0)"/>
       <use xlink:href="#LiberationSans-66" transform="translate(1754.498047 0)"/>
       <use xlink:href="#LiberationSans-6f" transform="translate(1782.28125 0)"/>
       <use xlink:href="#LiberationSans-72" transform="translate(1837.896484 0)"/>
       <use xlink:href="#LiberationSans-6d" transform="translate(1871.197266 0)"/>
       <use xlink:href="#LiberationSans-61" transform="translate(1954.498047 0)"/>
       <use xlink:href="#LiberationSans-63" transform="translate(2010.113281 0)"/>
       <use xlink:href="#LiberationSans-69" transform="translate(2060.113281 0)"/>
       <use xlink:href="#LiberationSans-f3" transform="translate(2082.330078 0)"/>
       <use xlink:href="#LiberationSans-6e" transform="translate(2137.945312 0)"/>
      </g>
     </g>
    </g>
    <g id="xtick_11">
     <g id="line2d_21">
      <path d="M 780.872656 214.291697 
L 780.872656 35.124375 
" clip-path="url(#p04a0a24f8a)" style="fill: none; stroke: #ffffff; stroke-linecap: round"/>
     </g>
     <g id="line2d_22"/>
     <g id="text_11">
      <!-- Administración Pública y Defensa -->
      <g style="fill: #262626" transform="translate(682.308313 294.466328) rotate(-35) scale(0.08 -0.08)">
       <defs>
        <path id="LiberationSans-fa" d="M 997 3381 
L 997 1238 
Q 997 991 1033 825 
Q 1069 659 1150 557 
Q 1232 456 1364 414 
Q 1497 372 1694 372 
Q 1894 372 2055 442 
Q 2216 513 2330 645 
Q 2444 778 2506 973 
Q 2569 1169 2569 1422 
L 2569 3381 
L 3132 3381 
L 3132 722 
Q 3132 616 3133 498 
Q 3135 381 3138 276 
Q 3141 172 3144 97 
Q 3147 22 3150 0 
L 2619 0 
Q 2616 16 2613 84 
Q 2610 153 2605 242 
Q 2600 331 2597 423 
Q 2594 516 2594 578 
L 2585 578 
Q 2504 431 2407 312 
Q 2310 194 2182 111 
Q 2054 28 1888 -17 
Q 1722 -63 1504 -63 
Q 1222 -63 1019 6 
Q 816 75 685 219 
Q 554 363 493 588 
Q 432 813 432 1128 
L 432 3381 
L 997 3381 
z
M 1297 3753 
L 1297 3816 
L 1975 4713 
L 2622 4713 
L 2622 4622 
L 1591 3753 
L 1297 3753 
z
" transform="scale(0.015625)"/>
        <path id="LiberationSans-62" d="M 3291 1706 
Q 3291 -63 2047 -63 
Q 1663 -63 1408 76 
Q 1153 216 994 525 
L 988 525 
Q 988 444 983 356 
Q 978 269 973 194 
Q 969 119 964 66 
Q 959 13 956 0 
L 413 0 
Q 416 28 419 95 
Q 422 163 425 256 
Q 428 350 429 462 
Q 431 575 431 697 
L 431 4638 
L 994 4638 
L 994 3316 
Q 994 3222 992 3136 
Q 991 3050 988 2984 
Q 984 2906 981 2838 
L 994 2838 
Q 1150 3163 1408 3303 
Q 1666 3444 2047 3444 
Q 2688 3444 2989 3012 
Q 3291 2581 3291 1706 
z
M 2700 1688 
Q 2700 2038 2656 2288 
Q 2613 2538 2516 2698 
Q 2419 2859 2269 2934 
Q 2119 3009 1903 3009 
Q 1681 3009 1511 2937 
Q 1341 2866 1227 2706 
Q 1113 2547 1053 2287 
Q 994 2028 994 1653 
Q 994 1291 1053 1044 
Q 1113 797 1227 642 
Q 1341 488 1509 420 
Q 1678 353 1897 353 
Q 2103 353 2253 425 
Q 2403 497 2503 656 
Q 2603 816 2651 1070 
Q 2700 1325 2700 1688 
z
" transform="scale(0.015625)"/>
        <path id="LiberationSans-44" d="M 4316 2247 
Q 4316 1697 4150 1276 
Q 3984 856 3696 573 
Q 3409 291 3017 145 
Q 2625 0 2172 0 
L 525 0 
L 525 4403 
L 1981 4403 
Q 2491 4403 2920 4276 
Q 3350 4150 3659 3886 
Q 3969 3622 4142 3215 
Q 4316 2809 4316 2247 
z
M 3716 2247 
Q 3716 2694 3587 3011 
Q 3459 3328 3228 3531 
Q 2997 3734 2675 3829 
Q 2353 3925 1969 3925 
L 1122 3925 
L 1122 478 
L 2103 478 
Q 2450 478 2745 590 
Q 3041 703 3256 925 
Q 3472 1147 3594 1478 
Q 3716 1809 3716 2247 
z
" transform="scale(0.015625)"/>
       </defs>
       <use xlink:href="#LiberationSans-41"/>
       <use xlink:href="#LiberationSans-64" transform="translate(66.699219 0)"/>
       <use xlink:href="#LiberationSans-6d" transform="translate(122.314453 0)"/>
       <use xlink:href="#LiberationSans-69" transform="translate(205.615234 0)"/>
       <use xlink:href="#LiberationSans-6e" transform="translate(227.832031 0)"/>
       <use xlink:href="#LiberationSans-69" transform="translate(283.447266 0)"/>
       <use xlink:href="#LiberationSans-73" transform="translate(305.664062 0)"/>
       <use xlink:href="#LiberationSans-74" transform="translate(355.664062 0)"/>
       <use xlink:href="#LiberationSans-72" transform="translate(383.447266 0)"/>
       <use xlink:href="#LiberationSans-61" transform="translate(416.748047 0)"/>
       <use xlink:href="#LiberationSans-63" transform="translate(472.363281 0)"/>
       <use xlink:href="#LiberationSans-69" transform="translate(522.363281 0)"/>
       <use xlink:href="#LiberationSans-f3" transform="translate(544.580078 0)"/>
       <use xlink:href="#LiberationSans-6e" transform="translate(600.195312 0)"/>
       <use xlink:href="#LiberationSans-20" transform="translate(655.810547 0)"/>
       <use xlink:href="#LiberationSans-50" transform="translate(683.59375 0)"/>
       <use xlink:href="#LiberationSans-fa" transform="translate(750.292969 0)"/>
       <use xlink:href="#LiberationSans-62" transform="translate(805.908203 0)"/>
       <use xlink:href="#LiberationSans-6c" transform="translate(861.523438 0)"/>
       <use xlink:href="#LiberationSans-69" transform="translate(883.740234 0)"/>
       <use xlink:href="#LiberationSans-63" transform="translate(905.957031 0)"/>
       <use xlink:href="#LiberationSans-61" transform="translate(955.957031 0)"/>
       <use xlink:href="#LiberationSans-20" transform="translate(1011.572266 0)"/>
       <use xlink:href="#LiberationSans-79" transform="translate(1039.355469 0)"/>
       <use xlink:href="#LiberationSans-20" transform="translate(1089.355469 0)"/>
       <use xlink:href="#LiberationSans-44" transform="translate(1117.138672 0)"/>
       <use xlink:href="#LiberationSans-65" transform="translate(1189.355469 0)"/>
       <use xlink:href="#LiberationSans-66" transform="translate(1244.970703 0)"/>
       <use xlink:href="#LiberationSans-65" transform="translate(1272.753906 0)"/>
       <use xlink:href="#LiberationSans-6e" transform="translate(1328.369141 0)"/>
       <use xlink:href="#LiberationSans-73" transform="translate(1383.984375 0)"/>
       <use xlink:href="#LiberationSans-61" transform="translate(1433.984375 0)"/>
      </g>
     </g>
    </g>
    <g id="text_12">
     <!-- Sector -->
     <g style="fill: #262626" transform="translate(442.040795 342.050234) scale(0.11 -0.11)">
      <use xlink:href="#LiberationSans-53"/>
      <use xlink:href="#LiberationSans-65" transform="translate(66.699219 0)"/>
      <use xlink:href="#LiberationSans-63" transform="translate(122.314453 0)"/>
      <use xlink:href="#LiberationSans-74" transform="translate(172.314453 0)"/>
      <use xlink:href="#LiberationSans-6f" transform="translate(200.097656 0)"/>
      <use xlink:href="#LiberationSans-72" transform="translate(255.712891 0)"/>
     </g>
    </g>
   </g>
   <g id="matplotlib.axis_2">
    <g id="ytick_1">
     <g id="line2d_23">
      <path d="M 74.286805 214.291697 
L 841.584786 214.291697 
" clip-path="url(#p04a0a24f8a)" style="fill: none; stroke-dasharray: 3.7,1.6; stroke-dashoffset: 0; stroke: #ffffff; stroke-opacity: 0.5"/>
     </g>
     <g id="line2d_24"/>
     <g id="text_13">
      <!-- 0.00 -->
      <g style="fill: #262626" transform="translate(47.825868 217.915134) scale(0.1 -0.1)">
       <defs>
        <path id="LiberationSans-30" d="M 3309 2203 
Q 3309 1569 3189 1136 
Q 3069 703 2861 436 
Q 2653 169 2372 53 
Q 2091 -63 1772 -63 
Q 1450 -63 1172 53 
Q 894 169 689 434 
Q 484 700 367 1133 
Q 250 1566 250 2203 
Q 250 2869 367 3305 
Q 484 3741 690 4000 
Q 897 4259 1178 4364 
Q 1459 4469 1791 4469 
Q 2106 4469 2382 4364 
Q 2659 4259 2865 4000 
Q 3072 3741 3190 3305 
Q 3309 2869 3309 2203 
z
M 2738 2203 
Q 2738 2728 2675 3076 
Q 2613 3425 2491 3633 
Q 2369 3841 2192 3927 
Q 2016 4013 1791 4013 
Q 1553 4013 1372 3925 
Q 1191 3838 1067 3630 
Q 944 3422 881 3073 
Q 819 2725 819 2203 
Q 819 1697 883 1350 
Q 947 1003 1070 792 
Q 1194 581 1372 489 
Q 1550 397 1778 397 
Q 2000 397 2178 489 
Q 2356 581 2479 792 
Q 2603 1003 2670 1350 
Q 2738 1697 2738 2203 
z
" transform="scale(0.015625)"/>
       </defs>
       <use xlink:href="#LiberationSans-30"/>
       <use xlink:href="#LiberationSans-2e" transform="translate(55.615234 0)"/>
       <use xlink:href="#LiberationSans-30" transform="translate(83.398438 0)"/>
       <use xlink:href="#LiberationSans-30" transform="translate(139.013672 0)"/>
      </g>
     </g>
    </g>
    <g id="ytick_2">
     <g id="line2d_25">
      <path d="M 74.286805 176.595016 
L 841.584786 176.595016 
" clip-path="url(#p04a0a24f8a)" style="fill: none; stroke-dasharray: 3.7,1.6; stroke-dashoffset: 0; stroke: #ffffff; stroke-opacity: 0.5"/>
     </g>
     <g id="line2d_26"/>
     <g id="text_14">
      <!-- 0.01 -->
      <g style="fill: #262626" transform="translate(47.825868 180.218453) scale(0.1 -0.1)">
       <defs>
        <path id="LiberationSans-31" d="M 488 0 
L 488 478 
L 1609 478 
L 1609 3866 
L 616 3156 
L 616 3688 
L 1656 4403 
L 2175 4403 
L 2175 478 
L 3247 478 
L 3247 0 
L 488 0 
z
" transform="scale(0.015625)"/>
       </defs>
       <use xlink:href="#LiberationSans-30"/>
       <use xlink:href="#LiberationSans-2e" transform="translate(55.615234 0)"/>
       <use xlink:href="#LiberationSans-30" transform="translate(83.398438 0)"/>
       <use xlink:href="#LiberationSans-31" transform="translate(139.013672 0)"/>
      </g>
     </g>
    </g>
    <g id="ytick_3">
     <g id="line2d_27">
      <path d="M 74.286805 138.898335 
L 841.584786 138.898335 
" clip-path="url(#p04a0a24f8a)" style="fill: none; stroke-dasharray: 3.7,1.6; stroke-dashoffset: 0; stroke: #ffffff; stroke-opacity: 0.5"/>
     </g>
     <g id="line2d_28"/>
     <g id="text_15">
      <!-- 0.02 -->
      <g style="fill: #262626" transform="translate(47.825868 142.521772) scale(0.1 -0.1)">
       <defs>
        <path id="LiberationSans-32" d="M 322 0 
L 322 397 
Q 481 763 711 1042 
Q 941 1322 1194 1548 
Q 1447 1775 1695 1969 
Q 1944 2163 2144 2356 
Q 2344 2550 2467 2762 
Q 2591 2975 2591 3244 
Q 2591 3431 2534 3573 
Q 2478 3716 2372 3812 
Q 2266 3909 2117 3957 
Q 1969 4006 1788 4006 
Q 1619 4006 1470 3959 
Q 1322 3913 1206 3819 
Q 1091 3725 1017 3586 
Q 944 3447 922 3263 
L 347 3316 
Q 375 3553 478 3762 
Q 581 3972 762 4130 
Q 944 4288 1198 4378 
Q 1453 4469 1788 4469 
Q 2116 4469 2372 4391 
Q 2628 4313 2804 4159 
Q 2981 4006 3075 3781 
Q 3169 3556 3169 3263 
Q 3169 3041 3089 2841 
Q 3009 2641 2876 2459 
Q 2744 2278 2569 2109 
Q 2394 1941 2203 1780 
Q 2013 1619 1819 1461 
Q 1625 1303 1454 1143 
Q 1284 984 1150 820 
Q 1016 656 941 478 
L 3238 478 
L 3238 0 
L 322 0 
z
" transform="scale(0.015625)"/>
       </defs>
       <use xlink:href="#LiberationSans-30"/>
       <use xlink:href="#LiberationSans-2e" transform="translate(55.615234 0)"/>
       <use xlink:href="#LiberationSans-30" transform="translate(83.398438 0)"/>
       <use xlink:href="#LiberationSans-32" transform="translate(139.013672 0)"/>
      </g>
     </g>
    </g>
    <g id="ytick_4">
     <g id="line2d_29">
      <path d="M 74.286805 101.201654 
L 841.584786 101.201654 
" clip-path="url(#p04a0a24f8a)" style="fill: none; stroke-dasharray: 3.7,1.6; stroke-dashoffset: 0; stroke: #ffffff; stroke-opacity: 0.5"/>
     </g>
     <g id="line2d_30"/>
     <g id="text_16">
      <!-- 0.03 -->
      <g style="fill: #262626" transform="translate(47.825868 104.825091) scale(0.1 -0.1)">
       <defs>
        <path id="LiberationSans-33" d="M 3278 1216 
Q 3278 913 3179 675 
Q 3081 438 2892 273 
Q 2703 109 2423 23 
Q 2144 -63 1784 -63 
Q 1375 -63 1095 39 
Q 816 141 634 308 
Q 453 475 362 689 
Q 272 903 244 1131 
L 825 1184 
Q 850 1009 917 865 
Q 984 722 1100 619 
Q 1216 516 1384 459 
Q 1553 403 1784 403 
Q 2209 403 2451 612 
Q 2694 822 2694 1234 
Q 2694 1478 2586 1626 
Q 2478 1775 2317 1858 
Q 2156 1941 1967 1969 
Q 1778 1997 1619 1997 
L 1300 1997 
L 1300 2484 
L 1606 2484 
Q 1766 2484 1937 2517 
Q 2109 2550 2251 2636 
Q 2394 2722 2486 2869 
Q 2578 3016 2578 3244 
Q 2578 3597 2370 3801 
Q 2163 4006 1753 4006 
Q 1381 4006 1151 3815 
Q 922 3625 884 3278 
L 319 3322 
Q 353 3613 478 3828 
Q 603 4044 795 4186 
Q 988 4328 1234 4398 
Q 1481 4469 1759 4469 
Q 2128 4469 2393 4376 
Q 2659 4284 2828 4126 
Q 2997 3969 3076 3756 
Q 3156 3544 3156 3303 
Q 3156 3109 3103 2940 
Q 3050 2772 2937 2637 
Q 2825 2503 2651 2406 
Q 2478 2309 2234 2259 
L 2234 2247 
Q 2500 2219 2697 2126 
Q 2894 2034 3022 1896 
Q 3150 1759 3214 1584 
Q 3278 1409 3278 1216 
z
" transform="scale(0.015625)"/>
       </defs>
       <use xlink:href="#LiberationSans-30"/>
       <use xlink:href="#LiberationSans-2e" transform="translate(55.615234 0)"/>
       <use xlink:href="#LiberationSans-30" transform="translate(83.398438 0)"/>
       <use xlink:href="#LiberationSans-33" transform="translate(139.013672 0)"/>
      </g>
     </g>
    </g>
    <g id="ytick_5">
     <g id="line2d_31">
      <path d="M 74.286805 63.504973 
L 841.584786 63.504973 
" clip-path="url(#p04a0a24f8a)" style="fill: none; stroke-dasharray: 3.7,1.6; stroke-dashoffset: 0; stroke: #ffffff; stroke-opacity: 0.5"/>
     </g>
     <g id="line2d_32"/>
     <g id="text_17">
      <!-- 0.04 -->
      <g style="fill: #262626" transform="translate(47.825868 67.12841) scale(0.1 -0.1)">
       <defs>
        <path id="LiberationSans-34" d="M 2753 997 
L 2753 0 
L 2222 0 
L 2222 997 
L 147 997 
L 147 1434 
L 2163 4403 
L 2753 4403 
L 2753 1441 
L 3372 1441 
L 3372 997 
L 2753 997 
z
M 2222 3769 
Q 2216 3753 2191 3708 
Q 2166 3663 2134 3606 
Q 2103 3550 2070 3492 
Q 2038 3434 2013 3397 
L 884 1734 
Q 869 1709 839 1668 
Q 809 1628 778 1586 
Q 747 1544 715 1503 
Q 684 1463 666 1441 
L 2222 1441 
L 2222 3769 
z
" transform="scale(0.015625)"/>
       </defs>
       <use xlink:href="#LiberationSans-30"/>
       <use xlink:href="#LiberationSans-2e" transform="translate(55.615234 0)"/>
       <use xlink:href="#LiberationSans-30" transform="translate(83.398438 0)"/>
       <use xlink:href="#LiberationSans-34" transform="translate(139.013672 0)"/>
      </g>
     </g>
    </g>
    <g id="text_18">
     <!-- s²j (contribución al IHH) -->
     <g style="fill: #262626" transform="translate(41.543368 182.164989) rotate(-90) scale(0.11 -0.11)">
      <defs>
       <path id="LiberationSans-b2" d="M 134 1759 
L 128 2081 
Q 213 2272 350 2422 
Q 488 2572 644 2698 
Q 800 2825 961 2937 
Q 1122 3050 1250 3164 
Q 1378 3278 1459 3403 
Q 1541 3528 1541 3681 
Q 1541 3875 1430 3992 
Q 1319 4109 1088 4109 
Q 875 4109 737 3995 
Q 600 3881 575 3669 
L 159 3694 
Q 178 3853 250 3989 
Q 322 4125 440 4225 
Q 559 4325 726 4383 
Q 894 4441 1106 4441 
Q 1309 4441 1470 4389 
Q 1631 4338 1742 4244 
Q 1853 4150 1911 4015 
Q 1969 3881 1969 3713 
Q 1969 3519 1884 3362 
Q 1800 3206 1670 3072 
Q 1541 2938 1381 2820 
Q 1222 2703 1073 2589 
Q 925 2475 803 2359 
Q 681 2244 625 2113 
L 2009 2113 
L 2009 1759 
L 134 1759 
z
" transform="scale(0.015625)"/>
       <path id="LiberationSans-28" d="M 397 1663 
Q 397 2097 462 2494 
Q 528 2891 668 3256 
Q 809 3622 1028 3965 
Q 1247 4309 1550 4638 
L 2094 4638 
Q 1800 4309 1586 3964 
Q 1372 3619 1234 3251 
Q 1097 2884 1030 2487 
Q 963 2091 963 1656 
Q 963 1222 1030 825 
Q 1097 428 1234 59 
Q 1372 -309 1586 -653 
Q 1800 -997 2094 -1325 
L 1550 -1325 
Q 1247 -997 1028 -653 
Q 809 -309 668 56 
Q 528 422 462 817 
Q 397 1213 397 1650 
L 397 1663 
z
" transform="scale(0.015625)"/>
       <path id="LiberationSans-48" d="M 3503 0 
L 3503 2041 
L 1122 2041 
L 1122 0 
L 525 0 
L 525 4403 
L 1122 4403 
L 1122 2541 
L 3503 2541 
L 3503 4403 
L 4100 4403 
L 4100 0 
L 3503 0 
z
" transform="scale(0.015625)"/>
       <path id="LiberationSans-29" d="M 1734 1650 
Q 1734 1213 1668 817 
Q 1603 422 1462 56 
Q 1322 -309 1103 -653 
Q 884 -997 581 -1325 
L 38 -1325 
Q 331 -997 545 -653 
Q 759 -309 896 59 
Q 1034 428 1101 825 
Q 1169 1222 1169 1656 
Q 1169 2091 1101 2487 
Q 1034 2884 896 3251 
Q 759 3619 545 3964 
Q 331 4309 38 4638 
L 581 4638 
Q 884 4309 1103 3965 
Q 1322 3622 1462 3256 
Q 1603 2891 1668 2494 
Q 1734 2097 1734 1663 
L 1734 1650 
z
" transform="scale(0.015625)"/>
      </defs>
      <use xlink:href="#LiberationSans-73"/>
      <use xlink:href="#LiberationSans-b2" transform="translate(50 0)"/>
      <use xlink:href="#LiberationSans-6a" transform="translate(83.300781 0)"/>
      <use xlink:href="#LiberationSans-20" transform="translate(105.517578 0)"/>
      <use xlink:href="#LiberationSans-28" transform="translate(133.300781 0)"/>
      <use xlink:href="#LiberationSans-63" transform="translate(166.601562 0)"/>
      <use xlink:href="#LiberationSans-6f" transform="translate(216.601562 0)"/>
      <use xlink:href="#LiberationSans-6e" transform="translate(272.216797 0)"/>
      <use xlink:href="#LiberationSans-74" transform="translate(327.832031 0)"/>
      <use xlink:href="#LiberationSans-72" transform="translate(355.615234 0)"/>
      <use xlink:href="#LiberationSans-69" transform="translate(388.916016 0)"/>
      <use xlink:href="#LiberationSans-62" transform="translate(411.132812 0)"/>
      <use xlink:href="#LiberationSans-75" transform="translate(466.748047 0)"/>
      <use xlink:href="#LiberationSans-63" transform="translate(522.363281 0)"/>
      <use xlink:href="#LiberationSans-69" transform="translate(572.363281 0)"/>
      <use xlink:href="#LiberationSans-f3" transform="translate(594.580078 0)"/>
      <use xlink:href="#LiberationSans-6e" transform="translate(650.195312 0)"/>
      <use xlink:href="#LiberationSans-20" transform="translate(705.810547 0)"/>
      <use xlink:href="#LiberationSans-61" transform="translate(733.59375 0)"/>
      <use xlink:href="#LiberationSans-6c" transform="translate(789.208984 0)"/>
      <use xlink:href="#LiberationSans-20" transform="translate(811.425781 0)"/>
      <use xlink:href="#LiberationSans-49" transform="translate(839.208984 0)"/>
      <use xlink:href="#LiberationSans-48" transform="translate(866.992188 0)"/>
      <use xlink:href="#LiberationSans-48" transform="translate(939.208984 0)"/>
      <use xlink:href="#LiberationSans-29" transform="translate(1011.425781 0)"/>
     </g>
    </g>
   </g>
   <g id="patch_3">
    <path d="M 109.163986 214.291697 
L 160.833884 214.291697 
L 160.833884 128.173181 
L 109.163986 128.173181 
z
" clip-path="url(#p04a0a24f8a)" style="fill: #4682b4; opacity: 0.8"/>
   </g>
   <g id="patch_4">
    <path d="M 173.751358 214.291697 
L 225.421256 214.291697 
L 225.421256 214.203417 
L 173.751358 214.203417 
z
" clip-path="url(#p04a0a24f8a)" style="fill: #4682b4; opacity: 0.8"/>
   </g>
   <g id="patch_5">
    <path d="M 238.33873 214.291697 
L 290.008628 214.291697 
L 290.008628 43.656152 
L 238.33873 43.656152 
z
" clip-path="url(#p04a0a24f8a)" style="fill: #4682b4; opacity: 0.8"/>
   </g>
   <g id="patch_6">
    <path d="M 302.926102 214.291697 
L 354.596 214.291697 
L 354.596 92.557364 
L 302.926102 92.557364 
z
" clip-path="url(#p04a0a24f8a)" style="fill: #4682b4; opacity: 0.8"/>
   </g>
   <g id="patch_7">
    <path d="M 367.513474 214.291697 
L 419.183372 214.291697 
L 419.183372 213.034468 
L 367.513474 213.034468 
z
" clip-path="url(#p04a0a24f8a)" style="fill: #4682b4; opacity: 0.8"/>
   </g>
   <g id="patch_8">
    <path d="M 432.100847 214.291697 
L 483.770744 214.291697 
L 483.770744 177.391181 
L 432.100847 177.391181 
z
" clip-path="url(#p04a0a24f8a)" style="fill: #4682b4; opacity: 0.8"/>
   </g>
   <g id="patch_9">
    <path d="M 496.688219 214.291697 
L 548.358116 214.291697 
L 548.358116 188.331481 
L 496.688219 188.331481 
z
" clip-path="url(#p04a0a24f8a)" style="fill: #4682b4; opacity: 0.8"/>
   </g>
   <g id="patch_10">
    <path d="M 561.275591 214.291697 
L 612.945488 214.291697 
L 612.945488 203.277785 
L 561.275591 203.277785 
z
" clip-path="url(#p04a0a24f8a)" style="fill: #4682b4; opacity: 0.8"/>
   </g>
   <g id="patch_11">
    <path d="M 625.862963 214.291697 
L 677.53286 214.291697 
L 677.53286 213.837804 
L 625.862963 213.837804 
z
" clip-path="url(#p04a0a24f8a)" style="fill: #4682b4; opacity: 0.8"/>
   </g>
   <g id="patch_12">
    <path d="M 690.450335 214.291697 
L 742.120233 214.291697 
L 742.120233 210.337728 
L 690.450335 210.337728 
z
" clip-path="url(#p04a0a24f8a)" style="fill: #4682b4; opacity: 0.8"/>
   </g>
   <g id="patch_13">
    <path d="M 755.037707 214.291697 
L 806.707605 214.291697 
L 806.707605 210.739962 
L 755.037707 210.739962 
z
" clip-path="url(#p04a0a24f8a)" style="fill: #4682b4; opacity: 0.8"/>
   </g>
   <g id="patch_14">
    <path d="M 74.286805 214.291697 
L 74.286805 35.124375 
" style="fill: none"/>
   </g>
   <g id="patch_15">
    <path d="M 841.584786 214.291697 
L 841.584786 35.124375 
" style="fill: none"/>
   </g>
   <g id="patch_16">
    <path d="M 74.286805 214.291697 
L 841.584786 214.291697 
" style="fill: none"/>
   </g>
   <g id="patch_17">
    <path d="M 74.286805 35.124375 
L 841.584786 35.124375 
" style="fill: none"/>
   </g>
   <g id="text_19">
    <!-- Contribución al IHH por Sector — Ica 2023 -->
    <g style="fill: #262626" transform="translate(344.220795 16.036875) scale(0.12 -0.12)">
     <defs>
      <path id="LiberationSans-2014" d="M 0 1409 
L 0 1838 
L 6400 1838 
L 6400 1409 
L 0 1409 
z
" transform="scale(0.015625)"/>
     </defs>
     <use xlink:href="#LiberationSans-43"/>
     <use xlink:href="#LiberationSans-6f" transform="translate(72.216797 0)"/>
     <use xlink:href="#LiberationSans-6e" transform="translate(127.832031 0)"/>
     <use xlink:href="#LiberationSans-74" transform="translate(183.447266 0)"/>
     <use xlink:href="#LiberationSans-72" transform="translate(211.230469 0)"/>
     <use xlink:href="#LiberationSans-69" transform="translate(244.53125 0)"/>
     <use xlink:href="#LiberationSans-62" transform="translate(266.748047 0)"/>
     <use xlink:href="#LiberationSans-75" transform="translate(322.363281 0)"/>
     <use xlink:href="#LiberationSans-63" transform="translate(377.978516 0)"/>
     <use xlink:href="#LiberationSans-69" transform="translate(427.978516 0)"/>
     <use xlink:href="#LiberationSans-f3" transform="translate(450.195312 0)"/>
     <use xlink:href="#LiberationSans-6e" transform="translate(505.810547 0)"/>
     <use xlink:href="#LiberationSans-20" transform="translate(561.425781 0)"/>
     <use xlink:href="#LiberationSans-61" transform="translate(589.208984 0)"/>
     <use xlink:href="#LiberationSans-6c" transform="translate(644.824219 0)"/>
     <use xlink:href="#LiberationSans-20" transform="translate(667.041016 0)"/>
     <use xlink:href="#LiberationSans-49" transform="translate(694.824219 0)"/>
     <use xlink:href="#LiberationSans-48" transform="translate(722.607422 0)"/>
     <use xlink:href="#LiberationSans-48" transform="translate(794.824219 0)"/>
     <use xlink:href="#LiberationSans-20" transform="translate(867.041016 0)"/>
     <use xlink:href="#LiberationSans-70" transform="translate(894.824219 0)"/>
     <use xlink:href="#LiberationSans-6f" transform="translate(950.439453 0)"/>
     <use xlink:href="#LiberationSans-72" transform="translate(1006.054688 0)"/>
     <use xlink:href="#LiberationSans-20" transform="translate(1039.355469 0)"/>
     <use xlink:href="#LiberationSans-53" transform="translate(1067.138672 0)"/>
     <use xlink:href="#LiberationSans-65" transform="translate(1133.837891 0)"/>
     <use xlink:href="#LiberationSans-63" transform="translate(1189.453125 0)"/>
     <use xlink:href="#LiberationSans-74" transform="translate(1239.453125 0)"/>
     <use xlink:href="#LiberationSans-6f" transform="translate(1267.236328 0)"/>
     <use xlink:href="#LiberationSans-72" transform="translate(1322.851562 0)"/>
     <use xlink:href="#LiberationSans-20" transform="translate(1356.152344 0)"/>
     <use xlink:href="#LiberationSans-2014" transform="translate(1383.935547 0)"/>
     <use xlink:href="#LiberationSans-20" transform="translate(1483.935547 0)"/>
     <use xlink:href="#LiberationSans-49" transform="translate(1511.71875 0)"/>
     <use xlink:href="#LiberationSans-63" transform="translate(1539.501953 0)"/>
     <use xlink:href="#LiberationSans-61" transform="translate(1589.501953 0)"/>
     <use xlink:href="#LiberationSans-20" transform="translate(1645.117188 0)"/>
     <use xlink:href="#LiberationSans-32" transform="translate(1672.900391 0)"/>
     <use xlink:href="#LiberationSans-30" transform="translate(1728.515625 0)"/>
     <use xlink:href="#LiberationSans-32" transform="translate(1784.130859 0)"/>
     <use xlink:href="#LiberationSans-33" transform="translate(1839.746094 0)"/>
    </g>
    <!-- IHH Total = 0.1225 (Concentración moderada) -->
    <g style="fill: #262626" transform="translate(335.15142 29.124375) scale(0.12 -0.12)">
     <defs>
      <path id="LiberationSans-3d" d="M 313 2675 
L 313 3138 
L 3422 3138 
L 3422 2675 
L 313 2675 
z
M 313 1075 
L 313 1538 
L 3422 1538 
L 3422 1075 
L 313 1075 
z
" transform="scale(0.015625)"/>
      <path id="LiberationSans-35" d="M 3291 1434 
Q 3291 1103 3191 828 
Q 3091 553 2894 354 
Q 2697 156 2405 46 
Q 2113 -63 1728 -63 
Q 1381 -63 1123 18 
Q 866 100 687 242 
Q 509 384 404 575 
Q 300 766 256 984 
L 825 1050 
Q 859 925 921 808 
Q 984 691 1092 598 
Q 1200 506 1358 451 
Q 1516 397 1741 397 
Q 1959 397 2137 464 
Q 2316 531 2442 662 
Q 2569 794 2637 984 
Q 2706 1175 2706 1422 
Q 2706 1625 2640 1795 
Q 2575 1966 2453 2089 
Q 2331 2213 2154 2281 
Q 1978 2350 1753 2350 
Q 1613 2350 1494 2325 
Q 1375 2300 1273 2256 
Q 1172 2213 1089 2155 
Q 1006 2097 934 2034 
L 384 2034 
L 531 4403 
L 3034 4403 
L 3034 3925 
L 1044 3925 
L 959 2528 
Q 1109 2644 1334 2726 
Q 1559 2809 1869 2809 
Q 2197 2809 2459 2709 
Q 2722 2609 2906 2426 
Q 3091 2244 3191 1991 
Q 3291 1738 3291 1434 
z
" transform="scale(0.015625)"/>
     </defs>
     <use xlink:href="#LiberationSans-49"/>
     <use xlink:href="#LiberationSans-48" transform="translate(27.783203 0)"/>
     <use xlink:href="#LiberationSans-48" transform="translate(100 0)"/>
     <use xlink:href="#LiberationSans-20" transform="translate(172.216797 0)"/>
     <use xlink:href="#LiberationSans-54" transform="translate(198.25 0)"/>
     <use xlink:href="#LiberationSans-6f" transform="translate(248.208984 0)"/>
     <use xlink:href="#LiberationSans-74" transform="translate(303.824219 0)"/>
     <use xlink:href="#LiberationSans-61" transform="translate(331.607422 0)"/>
     <use xlink:href="#LiberationSans-6c" transform="translate(387.222656 0)"/>
     <use xlink:href="#LiberationSans-20" transform="translate(409.439453 0)"/>
     <use xlink:href="#LiberationSans-3d" transform="translate(437.222656 0)"/>
     <use xlink:href="#LiberationSans-20" transform="translate(495.621094 0)"/>
     <use xlink:href="#LiberationSans-30" transform="translate(523.404297 0)"/>
     <use xlink:href="#LiberationSans-2e" transform="translate(579.019531 0)"/>
     <use xlink:href="#LiberationSans-31" transform="translate(606.802734 0)"/>
     <use xlink:href="#LiberationSans-32" transform="translate(662.417969 0)"/>
     <use xlink:href="#LiberationSans-32" transform="translate(718.033203 0)"/>
     <use xlink:href="#LiberationSans-35" transform="translate(773.648438 0)"/>
     <use xlink:href="#LiberationSans-20" transform="translate(829.263672 0)"/>
     <use xlink:href="#LiberationSans-28" transform="translate(857.046875 0)"/>
     <use xlink:href="#LiberationSans-43" transform="translate(890.347656 0)"/>
     <use xlink:href="#LiberationSans-6f" transform="translate(962.564453 0)"/>
     <use xlink:href="#LiberationSans-6e" transform="translate(1018.179688 0)"/>
     <use xlink:href="#LiberationSans-63" transform="translate(1073.794922 0)"/>
     <use xlink:href="#LiberationSans-65" transform="translate(1123.794922 0)"/>
     <use xlink:href="#LiberationSans-6e" transform="translate(1179.410156 0)"/>
     <use xlink:href="#LiberationSans-74" transform="translate(1235.025391 0)"/>
     <use xlink:href="#LiberationSans-72" transform="translate(1262.808594 0)"/>
     <use xlink:href="#LiberationSans-61" transform="translate(1296.109375 0)"/>
     <use xlink:href="#LiberationSans-63" transform="translate(1351.724609 0)"/>
     <use xlink:href="#LiberationSans-69" transform="translate(1401.724609 0)"/>
     <use xlink:href="#LiberationSans-f3" transform="translate(1423.941406 0)"/>
     <use xlink:href="#LiberationSans-6e" transform="translate(1479.556641 0)"/>
     <use xlink:href="#LiberationSans-20" transform="translate(1535.171875 0)"/>
     <use xlink:href="#LiberationSans-6d" transform="translate(1562.955078 0)"/>
     <use xlink:href="#LiberationSans-6f" transform="translate(1646.255859 0)"/>
     <use xlink:href="#LiberationSans-64" transform="translate(1701.871094 0)"/>
     <use xlink:href="#LiberationSans-65" transform="translate(1757.486328 0)"/>
     <use xlink:href="#LiberationSans-72" transform="translate(1813.101562 0)"/>
     <use xlink:href="#LiberationSans-61" transform="translate(1846.402344 0)"/>
     <use xlink:href="#LiberationSans-64" transform="translate(1902.017578 0)"/>
     <use xlink:href="#LiberationSans-61" transform="translate(1957.632812 0)"/>
     <use xlink:href="#LiberationSans-29" transform="translate(2013.248047 0)"/>
    </g>
   </g>
  </g>
 </g>
 <defs>
  <clipPath id="p04a0a24f8a">
   <rect x="74.286805" y="35.124375" width="767.29798" height="179.167322"/>
  </clipPath>
 </defs>
</svg>
